<svg width="230" height="76" viewBox="0 0 230 76" fill="none" xmlns="http://www.w3.org/2000/svg">
<path d="M210 72C210 71 213.438 71.4375 213.438 71.4375C213.646 70.8542 213.812 70.2188 213.938 69.5312L212.75 69.1875L212.062 69.375L211.562 69.1875L210.062 69.375L209.219 69.0312L207.188 69.1875L205.344 68.5L205.188 68L206.344 67.4688C207.469 67.5938 208.594 67.7708 209.719 68L210.562 67.6562V68H211.062L211.25 67.4688H211.75L212.594 67.8125L212.75 67.3125L214.281 66.9688L214.438 65.9375C214.438 64.8958 214.104 63.9792 213.438 63.1875L212.906 63L212.75 63.5312H213.094V64.0312H212.75C212.75 63.3438 212.521 62.9479 212.062 62.8438L211.562 63L211.406 62.5L210.719 62.1562V61.625L213.594 60.0938V59.75L214.938 59.0625L215.125 58.5312H214.094V58.875L212.594 59.0625L212.406 58.375H212.062L211.906 58.875L212.062 59.5625H211.406L210.406 59.2188L210.219 59.9062H209.719L208.375 59.75V60.0938H208.031L206.688 58.5312C206.125 58.5312 205.677 58.3021 205.344 57.8438V57.1562H205.844C205.948 56.5938 206.344 56.3125 207.031 56.3125L207.688 56.4688L208.875 55.7812L209.375 56.6562L209.875 56.8125C210.229 56.125 210.74 55.6667 211.406 55.4375L211.562 56.3125H212.25L212.594 55.25H213.094L214.094 55.7812L214.281 55.0938C213.26 54.6354 212.188 54.4062 211.062 54.4062L210.406 54.75V54.4062L208.531 54.2188L207.688 53.7188L207.188 54.0625L206.844 52.5L205.688 49.4062H206.188V48.9062L205.344 48.7188V48.375L206 48.0312L206.344 47.3438L208.031 47L208.375 47.1875L208.531 46.6562H208.875L210.062 47L211.062 46.8438L211.906 47L212.062 46.5L212.75 47.5312H213.094L213.438 46.6562H213.094V46.3125H213.594L213.75 46.8438H214.094L214.281 46.1562L214.781 46.6562L215.281 46.8438V46.5L215.125 45.9688H215.781L217.125 46.5V46.1562H217.969L218.469 48.0312H217.969C217.302 47.8021 216.74 47.5208 216.281 47.1875L214.938 47.6875L213.938 47.1875V47.5312L214.281 48.375L212.906 48.5625L211.75 47.875L210.906 48.9062L210.406 49.0625V49.5938L211.25 50.0938L211.406 51.4688L210.562 51.3125V50.9688H210.062V51.6562L209.719 52.3438L210.406 52.5L212.25 52.1562L212.594 52.3438V52.6875H213.594L213.75 52.1562L215.125 52V52.5L216.781 52C216.781 51.4167 217.062 51.0729 217.625 50.9688H217.969L218.156 49.9375L218.812 49.25L220 47.5312H219.156L218.969 45.9688L220 45.8125V46.1562H220.344L220.656 45.2812H222V44.9375L223.531 44.7812L223.688 45.9688H224.031L223.375 46.1562V46.8438L223.875 47.5312H224.219V47.875L223.188 47.6875C222.75 48.0417 222.531 48.5625 222.531 49.25H222.188L221.344 50.7812L220.844 50.9688L220.656 50.2812H220V51.4688L220.344 53.1875H219.656V53.7188L220 54.5625L219.656 55.25H220.156L221.5 54.5625L221.688 55.7812H222.344C223.031 56.8229 223.427 57.9688 223.531 59.2188H222.844L221.5 58.875L220.844 60.0938L219.812 60.5938L218.656 60.25L218.469 60.7812H217.812L217.312 62.1562L217.625 62.3125L217.469 62.8438L218.156 63.1875L218.969 65.4062L218.812 66.0938L219.656 66.4375L219.812 67.125H220.156L221.344 66.625L222 66.7812C223.021 66.3229 224.146 66.0938 225.375 66.0938L226.219 66.2812L227.406 65.9375L228.906 66.2812V66.9688L228.75 67.6562L229.094 67.8125L228.594 68L227.906 67.6562V68L228.062 68.5L227.562 68.6875L227.406 68.1562L226.406 67.8125L225.719 68L225.031 67.6562L224.719 68.1562H224.375L223.688 68L223.531 68.8438H223.031L222.531 68.6875L222.188 69.1875H221.5L220.656 68.6875L219.312 69.375L218.312 69.1875V69.875L217.625 70.75L217.812 71.25L217.469 71.9375L216.125 75.125V74.7812H215.625V75.125C215.625 75.125 210 73 210 72ZM226.406 68.8438L226.906 68.5V68.8438H226.406ZM204.156 68.6875L204 68.3438H204.656V68.6875H204.156ZM211.906 68.6875V68.1562H211.25V68.6875H211.906ZM223.031 68.1562L222.531 67.8125V68.1562H223.031ZM217.625 61.125L217.125 60.4375V60.9375L217.625 61.125ZM220.5 59.5625V59.2188H220.156V59.5625H220.5ZM209.875 57.3438L208.875 57V57.3438H209.875ZM213.594 57L213.75 56.3125L213.094 57.1562L213.594 57ZM215.281 55.9375L214.594 55.4375V55.7812L215.281 55.9375ZM218.812 55.5938L219.5 54.5625L218.156 53.375L217.969 53.7188H216.969L215.781 53.375V53.7188L216.281 54.9062V55.25H216.781V54.5625H217.125L217.312 55.0938H217.812V54.75H218.156L218.469 54.9062L218.812 55.5938ZM215.438 54.75L215.125 54.2188L214.938 53.375L214.438 53.1875V54.2188L215.438 54.75ZM214.281 53.375L213.938 53.0312V53.375H214.281ZM207.875 52.6875V52.1562H207.188V52.6875H207.875ZM219.812 52.5V52H219.312V52.5H219.812ZM208.875 52.1562L209.031 51.4688L208.219 51.3125V51.8125L208.875 52.1562ZM207.188 47.875V47.5312H206.844V47.875H207.188ZM223.031 46.5L222.688 46.1562V46.5H223.031ZM200.281 45.125L199.938 44.9375V44.5938H200.781V44.25H201.469L201.812 43.2188H202.312V43.75H201.969L201.812 44.7812H201.469L200.969 44.5938L200.281 45.125ZM202.469 44.7812V44.0938L202.969 43.9062L203.312 43.2188L204.656 43.0625L205.188 43.2188L207.375 42.1875L208.031 42.375L209.719 41.6875L211.062 42.0312L212.062 41.1562L212.406 37.875C213.76 37.5417 215.115 37.1979 216.469 36.8438V37.1875L217.125 37.375V38.0625L216.781 39.5938L217.969 40.125L218.656 40.6562C219.323 40.1771 220.052 39.9375 220.844 39.9375V40.3125H220.344V40.8125H221.188L221.688 40.3125L222.188 39.9375L223.875 40.125L224.375 39.5938V39.9375L224.031 40.6562L224.219 41.3438L224.031 41.8438C224.594 41.7396 224.927 41.9167 225.031 42.375L223.031 42.5312L222.531 43.2188L220.656 42.7188V43.0625C218.365 42.7083 216.062 42.7083 213.75 43.0625C212.854 43.0625 212.073 43.2292 211.406 43.5625L210.406 43.4062L206.531 44.0938L206 43.9062L205.344 44.25L205 44.0938L204.5 44.5938H203.656L203.156 44.4375L202.469 44.7812ZM204 44.25L203.5 44.0938V44.4375L204 44.25ZM216.281 42.875L215.438 42.5312V42.875H216.281ZM221.844 42.7188V42.1875H221.344V42.7188H221.844Z" fill="#483D3F"/>
<path d="M180.428 70.6562L179.584 70.3125L179.053 70.4688L177.334 70.125L176.146 67.7188L176.303 66.5312L175.99 65.8438H176.49L176.834 66.5312L178.021 67.2188C178.938 66.1771 179.626 65.0312 180.084 63.7812L179.896 63.25C179.896 62.4583 180.126 61.7708 180.584 61.1875L180.428 60.6875L180.584 60L180.24 57.75L180.428 57.2188L179.74 55.3438L178.209 55.1562L176.646 55.5V56.0312L176.99 57.0625L176.49 61.0312L175.99 61.375L175.303 63.7812C174.386 64.6146 173.584 65.5833 172.896 66.6875L171.865 67.0312V67.375L170.49 67.7188L169.99 68.4062C168.74 68.6354 167.542 68.8646 166.396 69.0938L166.053 68.4062L164.678 68.25L164.178 67.5625L163.99 68.0625L164.334 68.75H163.99L163.834 68.0625H163.49L163.146 68.75L162.803 67.375L163.303 67.2188L163.49 66.5312L165.021 66.1875V66.5312H165.365L165.553 66H166.053L166.396 65.3125L167.24 65.1562L167.771 65.3125L167.928 64.8125L169.303 64.4688L170.678 63.0938V62.5625H171.365V61.7188H171.709V62.5625L171.021 62.75V63.0938L172.053 63.25L172.553 61.1875L172.396 60.5L172.74 59.6562H173.584V59.125L173.396 58.7812C173.751 58.3229 173.865 57.8021 173.74 57.2188H174.428L174.615 55.8438C173.928 55.3854 173.126 55.1562 172.209 55.1562L172.053 55.6875H171.521V54.4688H171.178L170.834 55.3438L170.146 54.4688L172.396 53.7812L172.896 53.2812C173.459 53.8438 174.146 54.125 174.959 54.125L175.303 52.75L176.146 52.5938V53.7812H176.49L177.521 53.2812L178.365 52.75L178.709 52.0625L179.584 52.5938L180.084 52.4062L180.771 52.5938L180.928 51.9062L181.803 51.7188C181.803 52.8646 182.084 53.8958 182.646 54.8125H182.303L181.615 54.4688V54.8125C181.969 55.3958 182.428 55.625 182.99 55.5L183.49 56.7188L184.021 57.0625L183.49 57.2188V58.7812L183.834 58.9375V59.3125L183.334 59.6562V60.1562L183.834 60.8438L182.99 62.0625L182.49 62.2188L182.303 63.4375H182.834L183.334 62.5625H183.678V63.0938L183.178 64.125L183.334 65.1562H182.99L182.49 64.9688L182.146 65.8438L182.49 66.875L181.803 67.0312V67.7188H182.146V68.0625L181.271 68.5938V69.0938L181.459 69.9688L180.928 70.125C181.053 70.5833 180.886 70.7604 180.428 70.6562ZM179.396 70.3125V69.4375H179.053L178.896 70.125L179.396 70.3125ZM167.084 66.6875V66.1875H166.74L166.553 66.6875H167.084ZM170.334 66.3438V66H169.99V66.3438H170.334ZM172.896 66.3438L173.053 65.8438L172.209 66.6875H172.896V66.3438ZM170.49 64.4688V63.9375H169.99L169.646 64.625H169.99L170.49 64.4688ZM162.615 62.5625L161.428 61.1875L160.584 61.0312V60.6875L160.74 60.3438L161.271 60C161.501 58.8333 161.949 57.7396 162.615 56.7188H162.959L163.49 56.875V56.5312L163.303 56.0312L164.521 55.6875L164.678 55.1562H163.99L164.521 54.8125L164.678 54.125H165.021L165.209 53.4375L165.709 53.625V52.9375L165.553 52.4062L166.553 52.0625V51.7188H166.209V51.375L166.896 51.2188V50.3438H167.771L168.115 49.1562L167.928 48.625L168.959 46.2188L168.803 45.5312L169.303 45.375L170.334 46.4062C170.896 46.9688 171.126 47.6562 171.021 48.4688C170.438 50.1771 169.751 51.8958 168.959 53.625L168.271 53.7812V54.6562L167.584 55.1562V55.6875H167.24L166.74 57.2188L166.209 57.5625L166.053 58.0938L165.553 58.25C165.199 59.75 164.511 61.0729 163.49 62.2188L162.615 62.5625ZM161.615 60.8438V60.1562H161.084V60.8438H161.615ZM174.084 60.3438L173.053 60L172.896 60.5L173.584 60.6875L174.084 60.3438ZM181.115 59.125V58.5938H180.771L180.584 59.125H181.115ZM193.771 58.4375C193.438 57.8542 192.98 57.625 192.396 57.75L190.865 56.875L190.521 55.8438L190.021 55.6875L189.49 55.8438C188.803 55.3854 188.521 54.6979 188.646 53.7812H188.303L187.615 53.9688V53.625L186.584 53.4375L186.428 52.75L185.74 52.4062V50.875H185.209V51.2188C184.521 50.6354 183.949 50 183.49 49.3125L183.178 47.9375L182.49 47.7812C181.574 46.6354 180.594 45.4896 179.553 44.3438C178.532 43.1771 177.855 41.8542 177.521 40.375H177.865L178.021 39.5H178.553L179.396 40.5312L180.428 40.875C180.886 42.0625 181.511 43.1562 182.303 44.1562L183.334 44.6875C183.334 45.375 183.563 45.7708 184.021 45.875L184.365 45.7188L184.709 46.2188H185.053V46.5625L184.865 47.0938L185.553 47.5938V48.125L186.24 48.4688L187.428 49.1562C187.324 49.7188 187.501 50.0625 187.959 50.1875H188.646L188.803 51.0312L190.865 51.5625L191.209 52.5938L192.74 53.0938L193.428 53.7812V54.4688H193.959V54.125L194.271 55.1562H194.615V58.0938L193.771 58.4375ZM165.553 56.0312V55.5H165.021V56.0312H165.553ZM173.584 54.8125L173.928 54.125L172.896 53.7812V55L173.584 54.8125ZM174.959 55V54.6562L174.271 54.3125V55H174.959ZM180.428 54.6562V53.7812L179.74 52.9375H179.24V53.2812L179.74 54.6562H180.428ZM173.74 53.2812L173.396 53.0938L174.428 52.75V53.0938L173.74 53.2812ZM167.24 52.75V52.4062L166.553 52.25L166.053 52.4062V52.9375H166.74L167.24 52.75ZM168.803 50.1875V49.8438L168.271 49.6562V50L168.803 50.1875ZM169.146 49.3125V48.8125H168.271V49.1562L169.146 49.3125ZM179.896 42.5938L179.053 41.9062V42.25L179.896 42.5938ZM179.24 41.5625V41.0625H178.209V41.4062L179.24 41.5625Z" fill="#483D3F"/>
<path d="M142.574 75.1251L142.762 74.4376L142.418 72.7188L143.262 72.3751C143.095 71.6876 142.928 71.0001 142.762 70.3126L143.105 69.7813L142.418 69.6251L141.918 69.7813L139.043 69.0938V68.7501H138.543V69.4376H138.199L138.043 68.7501L137.543 68.5938V67.9063H137.199L136.699 68.7501L136.199 68.9376L135.668 67.9063L135.855 67.3751H135.012L134.512 67.5626L134.324 67.0313C133.887 66.9272 133.72 66.5834 133.824 66.0001L134.512 65.3126C137.199 66.3543 139.783 67.5001 142.262 68.7501L142.762 67.0313L143.105 66.6876V66.3438L142.262 64.6251L143.105 64.4688V63.9376H142.762V64.2813H142.418L142.262 63.9376L142.574 63.5938L141.074 62.2188H140.387L139.543 62.4063C138.876 61.7188 138.095 61.3751 137.199 61.3751L136.855 61.8751L136.512 62.5626H135.668L135.512 60.3438L135.855 59.8126L137.855 59.6563L138.387 60.0001C138.491 59.5418 138.824 59.3647 139.387 59.4688V59.8126H140.074V59.1251H140.574L141.23 59.3126L141.918 58.9376L142.762 59.4688L142.918 58.5938L142.074 58.4376V57.9063L144.105 57.2188L144.262 56.5313H143.418V56.0313L143.762 55.0001L143.262 54.8126V55.1563H142.918L142.762 54.6563H142.262L141.23 55.0001L139.887 54.1251L139.543 52.9376L138.043 54.4688H137.543L137.355 53.6251H136.855L137.199 52.2501H137.855L140.23 52.5938L140.73 52.4063L140.887 53.0938H141.418V52.7501H143.918L144.605 53.4376V52.7501H144.949L147.293 53.4376L147.98 53.0938L149.168 53.7813C149.376 54.1355 149.71 54.3126 150.168 54.3126V54.8126H150.668V54.3126H151.012L152.012 54.8126V55.1563H152.512L152.855 55.0001V55.6876H152.199V56.0313L152.699 56.8751H152.012V57.2188H151.512V56.8751H151.012C150.324 57.2293 149.595 57.4063 148.824 57.4063L147.48 58.2501L147.293 58.9376C147.855 59.2918 148.085 59.7605 147.98 60.3438L148.137 60.6876L148.824 60.8438L150.512 60.1563L150.668 60.6876H151.012L152.199 60.5001L152.355 60.8438H152.855L153.355 62.4063H152.699V62.7501L153.355 62.9063V63.2501L152.855 63.4376L152.699 63.9376L152.355 62.9063H151.668L151.355 64.2813H150.824L150.512 63.7813H149.48L149.324 64.4688H148.98L148.137 64.2813L147.793 64.9688L147.98 66.1876C147.418 66.0626 147.074 66.2293 146.949 66.6876V67.3751L147.48 67.7188V68.7501L147.793 69.0938L147.48 70.1251H146.793L146.637 70.8126L146.793 71.3438L145.605 71.5001V72.1876H146.637L147.137 71.8438L146.793 72.8751L146.137 73.0626L145.949 74.0938C144.824 74.5522 143.699 74.8959 142.574 75.1251ZM145.105 73.9063L145.293 73.4063H144.762V73.9063H145.105ZM127.762 71.0001C127.658 70.3126 127.262 70.0209 126.574 70.1251L126.262 68.9376L125.73 68.7501V68.0626L126.418 65.6563L126.262 64.6251L126.574 63.2501L126.418 62.5626H126.762V62.0626L126.418 61.0313L126.762 60.3438H126.418V59.8126L126.762 57.7501L126.418 56.8751L125.73 56.7188L125.418 57.4063H124.23V57.0626H123.73C123.73 58.0834 123.501 58.8334 123.043 59.3126L122.699 58.0938H122.199L120.699 58.5938C120.012 58.3647 119.616 57.9063 119.512 57.2188L124.887 51.2188L125.23 50.6876L126.262 50.0001L126.574 49.3126C127.137 48.6251 127.866 48.1668 128.762 47.9376L128.949 46.9063H131.637L132.137 47.5938H132.824V48.4688L132.324 48.6251L131.793 50.0001H131.293L130.449 49.8438L130.293 50.3438L131.137 50.5313V51.2188H130.793L130.137 50.8751L129.949 51.3751H130.293V51.7188L129.605 53.4376L130.137 56.3751L129.793 57.5626L130.137 58.2501L129.949 59.6563L129.605 60.3438L129.949 60.5001L130.137 61.3751H129.449V61.8751H130.137V62.2188L129.793 63.0938H129.449L129.293 64.1251L130.137 64.8126L129.605 64.9688V65.3126L129.793 65.8438H129.105V66.1876L129.605 66.8751L128.949 67.0313V67.3751L129.449 67.7188L129.605 68.2501H128.949L128.762 69.6251L128.449 68.9376H127.918V69.4376H128.262V69.7813L127.762 71.0001ZM146.637 69.6251L146.293 69.2813V69.6251H146.637ZM143.762 69.4376L143.918 68.9376L142.762 68.7501V69.2813L143.762 69.4376ZM136.855 67.2188L136.355 67.0313V67.3751L136.855 67.2188ZM150.824 63.4376L150.324 62.9063V63.5938L150.824 63.4376ZM149.824 63.2501L149.98 62.7501L149.168 62.0626V62.4063L149.824 63.2501ZM137.355 62.5626V62.0626L137.855 61.8751V62.4063L137.355 62.5626ZM147.98 62.5626L147.637 62.2188V62.5626H147.98ZM140.73 61.7188L140.887 61.1876L140.387 61.0313V61.7188H140.73ZM136.855 61.5313L137.043 60.8438H136.355V61.5313H136.855ZM150.824 61.7188V61.3751L150.168 61.0313V61.3751L150.824 61.7188ZM136.199 61.0313L136.355 60.5001H135.855L135.668 61.1876L136.199 61.0313ZM147.48 57.4063L147.637 56.8751H147.293L146.949 57.5626L147.48 57.4063ZM148.824 57.2188L149.168 57.0626V56.5313H148.824L148.48 57.4063L148.824 57.2188ZM150.512 56.8751V56.3751L149.824 56.0313V56.5313L150.512 56.8751ZM145.949 56.5313L146.293 55.6876H145.949L144.605 56.0313V56.7188L145.449 56.8751L145.949 56.5313ZM147.793 56.3751V56.0313L147.637 55.0001H147.293L146.793 55.1563V55.6876L147.793 56.3751ZM151.855 55.5001L151.355 55.1563V55.6876L151.855 55.5001ZM146.793 51.5626L145.949 51.0313C146.074 50.4688 145.908 50.1876 145.449 50.1876L144.449 50.6876L144.262 50.0001H143.605V50.3438H143.262L143.105 49.6563L141.73 49.1563V49.5001L141.918 50.0001L141.074 50.1876L140.23 49.1563L139.043 48.8126V48.2813L139.387 47.2501L138.887 47.0938V46.7501H137.855V46.4063C138.085 43.9897 138.595 41.6355 139.387 39.3438L140.387 39.0001L141.918 39.3438L142.762 39.1563L143.605 39.5001V39.8438H144.105L144.449 39.0001H150.324V39.3438H150.668C150.897 38.9897 151.293 38.8751 151.855 39.0001L152.199 40.3751L151.855 41.7501L152.012 42.2501L151.855 42.7813H152.355L151.355 45.3751L150.824 45.7188L150.668 46.2188L148.824 47.2501L148.637 47.7813L147.48 47.4376V47.0938L148.48 47.2501V46.7501L147.637 46.5626V46.2188L148.137 45.7188L147.637 45.5313V45.0313L147.98 43.8126L147.793 43.3126L146.793 44.6876L146.137 44.8438L144.262 44.3438L143.605 44.5001V45.0313L141.574 45.3751V45.8751L140.074 46.0626V46.7501C142.199 47.7709 144.491 48.2813 146.949 48.2813V48.6251H147.293L147.793 48.4688C149.147 48.9272 150.501 49.323 151.855 49.6563V50.5313L150.168 51.0313L149.824 50.8751L147.98 51.3751L147.793 50.3438H147.293V50.8751L146.793 51.0313V51.5626ZM129.949 50.6876L129.605 50.3438V50.6876H129.949ZM129.105 49.5001L129.293 48.9688L128.762 48.8126L128.605 49.3126L129.105 49.5001ZM123.73 48.9688V48.1251L122.887 47.7813L122.543 47.0938L122.043 46.9063L121.855 47.5938L122.043 48.1251L121.543 48.2813L121.355 47.7813L121.543 46.7501C122.21 46.6251 122.824 46.3334 123.387 45.8751L124.23 46.2188V45.8751L123.73 45.0313H124.23V44.6876H123.543L124.574 44.3438L125.074 44.6876C125.512 43.8751 125.678 42.948 125.574 41.9063L126.918 41.7501L127.262 40.8751L127.918 40.5313L128.105 40.1876H128.605L129.105 40.3751L129.949 40.0313L131.137 40.8751V41.2188H131.48V41.5626H132.137V42.0938L131.637 43.1251L129.449 43.4688V43.8126H129.949C129.845 44.3959 129.512 44.6251 128.949 44.5001L128.762 45.5313C128.324 46.1563 127.772 46.6147 127.105 46.9063L126.574 45.8751H126.074L125.73 48.1251L124.074 48.2813L123.73 48.9688ZM125.23 47.2501V46.7501L123.73 46.4063L123.387 47.2501L124.73 47.4376L125.23 47.2501ZM139.543 46.4063V46.0626L139.23 46.4063H139.543ZM143.262 44.5001L142.918 44.1563V44.5001H143.262ZM146.637 44.3438L146.137 44.1563V44.5001L146.637 44.3438ZM142.918 43.8126V43.4688H142.574V43.8126H142.918ZM129.293 43.4688L128.949 42.7813L129.449 42.5938L129.949 42.7813L130.293 42.4376L131.137 42.9376L131.293 42.0938L131.137 41.2188L129.293 40.7188L129.105 41.0626L127.605 41.2188L127.418 41.9063L127.762 42.7813H128.449L128.605 43.8126H129.293V43.4688ZM147.137 43.3126L146.793 42.9376L146.637 43.4688L147.137 43.3126ZM126.918 43.1251L127.262 42.2501H126.918L126.418 43.1251H126.918ZM148.324 41.9063V41.5626C147.637 41.1043 146.908 40.823 146.137 40.7188L146.637 40.0313H145.449L145.105 40.1876L144.949 39.8438H144.605L144.105 40.1876L143.262 39.8438L143.105 40.8751C144.105 41.4584 145.168 41.8022 146.293 41.9063L146.793 41.7501L148.324 41.9063ZM151.168 41.0626L150.668 40.8751V41.2188L151.168 41.0626ZM147.793 40.5313L146.949 40.0313V40.5313H147.793ZM148.48 40.5313V40.1876L147.98 40.0313V40.3751L148.48 40.5313ZM151.512 40.1876V39.6876H151.168V40.1876H151.512ZM142.262 40.0313L141.73 39.8438V40.1876L142.262 40.0313Z" fill="#483D3F"/>
<path d="M102.785 68.0625L102.598 67.5625L103.098 67.375V66.6875H102.254L102.098 67.375L102.254 67.7188H101.91C100.785 67.4896 99.6497 67.3229 98.5039 67.2188L98.3477 66.5312H97.8477L97.6602 64.9688L98.1602 64.2812L97.6602 64.125L96.8164 65.5L96.6289 64.9688L96.8164 64.2812L96.1289 63.7812L95.9727 63.25L96.1289 62.4062H95.6289L95.2852 62.5625C95.1602 61.4167 94.931 60.3333 94.5977 59.3125L95.2852 60L95.4414 59.4688L94.9414 58.9375V57.5625L94.4414 57.4062V57.0625L94.2539 56.7188L94.9414 56.5312L95.0977 56.0312L94.5977 55.6875V54.4688L94.9414 53.7812H95.6289L95.7852 53.0938L97.5039 52.75L97.8477 53.7812H98.3477V54.125L97.8477 54.3125L97.5039 53.7812H97.1602L96.9727 54.3125L97.1602 54.8125L98.0039 55V55.8438L97.5039 57.75L97.6602 58.25H98.6914L98.8477 59.125C99.306 59.25 99.4831 59.5938 99.3789 60.1562L99.1914 60.5L99.6914 60.6875L99.3789 61.375L99.8789 61.5312L100.035 62.5625V62.2188H99.6914L99.0352 62.4062V62.9062L99.1914 63.4375H99.5352L100.723 63.0938L101.566 63.4375L101.754 63.9375L102.785 64.625L102.441 65.5H102.941L104.129 65.3125C105.483 65.0833 106.733 64.6875 107.879 64.125V64.625H107.191L107.035 65.5L106.348 65.6562L106.16 66.1875L106.348 66.6875H105.16L104.629 66.5312L104.316 67.2188L103.785 67.375L103.441 67.9062L103.098 67.7188L102.785 68.0625ZM104.629 67.7188V67.375H105.16V67.7188H104.629ZM87.2852 67.0312C86.7227 66.6979 86.0977 66.4688 85.4102 66.3438L86.0977 66.1875V65.6562H85.5664V64.625L85.9102 63.4375L85.4102 63.25V62.4062L85.9102 62.2188V61.875C85.5768 61.3125 85.4622 60.6875 85.5664 60C85.4622 58.6042 85.9206 57.4479 86.9414 56.5312L88.4727 55.6875L88.3164 56.1875L88.8164 57.75L88.1289 57.9062V58.25L88.3164 58.9375L88.1289 59.4688L88.9727 59.6562L89.1602 61.5312H87.6289V61.875L88.6289 62.75L88.4727 63.25H88.8164L88.6289 63.9375H89.1602L89.3164 64.2812L88.3164 64.625L87.9727 65.1562H88.4727L88.3164 65.6562L87.2852 65.8438L87.0977 66.5312L87.6289 66.6875L87.2852 67.0312ZM99.6914 66.6875L98.8477 66.1875V65.5H98.3477V66.3438L98.5039 67.0312H98.8477L99.6914 66.6875ZM104.129 66.1875L103.441 65.5V66L104.129 66.1875ZM100.379 65.8438L99.8789 65.5V65.8438H100.379ZM102.598 66V65.6562H102.254V66H102.598ZM101.566 65.6562L101.754 65.1562H102.098V64.4688H101.566L101.066 65.5L101.566 65.6562ZM101.566 64.2812V63.7812L101.066 64.2812H101.566ZM88.1289 63.5938L87.6289 63.4375V63.7812L88.1289 63.5938ZM98.1602 63.4375V62.5625H97.6602L97.5039 63.25L98.1602 63.4375ZM96.8164 62.9062L96.9727 62.4062H96.4727V63.0938L96.8164 62.9062ZM98.5039 62.2188V61.7188H98.0039V62.0625L98.5039 62.2188ZM97.1602 60.8438L96.3164 60.1562V60.6875L97.1602 60.8438ZM88.3164 60.8438V60.3438H87.7852V60.6875L88.3164 60.8438ZM99.0352 59.6562L98.5039 59.4688V59.8125L99.0352 59.6562ZM98.5039 59.125V58.7812L98.0039 58.5938V58.9375L98.5039 59.125ZM97.3164 57.75V57.2188H96.8164V57.75H97.3164ZM102.598 56.1875L101.754 55.1562L101.566 53.9688L101.066 53.7812C100.275 52.3021 99.8164 50.6979 99.6914 48.9688L100.035 48.125L100.566 47.9375L101.254 48.2812L102.098 48.125V48.4688L100.566 48.625V48.9688C101.358 49.0938 101.868 49.3854 102.098 49.8438L101.91 50.3438L103.629 51.2188V51.5625H102.441L101.91 51.375V51.0312H101.41V51.375L101.91 52.0625H102.441L102.941 52.75H104.129L104.473 53.625H104.816V53.9688L104.316 54.125L104.129 55H104.629V55.3438L104.316 55.8438L102.598 56.1875ZM95.4414 55.6875V55.1562H94.9414V55.6875H95.4414ZM103.629 54.4688L103.285 54.125V54.4688H103.629ZM109.066 54.125L109.254 53.4375H108.566C108.212 51.375 107.868 49.3125 107.535 47.25L108.035 45.7188H108.379L108.91 46.0625L109.066 45.7188H109.41V46.5625L109.066 47.7812H109.41V47.4375H109.754L110.098 47.5938L110.254 48.9688L110.785 49.6562H110.441L109.754 49.1562V49.5L110.598 50.5312L110.254 51.2188H110.785V52.0625C110.327 52.1875 110.035 52.5312 109.91 53.0938L109.41 54.125H109.066Z" fill="#483D3F"/>
<path d="M76.1836 29.7812L75.1523 29.2812L74.9961 28.7812L75.1523 28.0938C74.4857 27.6354 74.0898 27 73.9648 26.1875L74.6523 25.1875L73.9648 24.3125L74.3086 23.2812L74.8086 22.5938L73.9648 21.25L75.4961 20.7188V20.2188H74.6523V19.3438L75.1523 18H74.4961L74.1523 18.1562L73.9648 17.4688L74.4961 15.5938L74.9961 15.25V14.75L74.6523 13.375C75.1107 12.9167 75.2773 12.2812 75.1523 11.4688H74.8086L74.9961 10.9688L74.4961 10.2812L74.3086 9.25L73.8086 8.21875H74.3086V7.5625L74.6523 8.0625L75.1523 8.21875V7.875L74.9961 7.21875L76.1836 7.03125L76.3398 6.53125H75.9961L75.6523 5.65625L76.1836 5.5L76.5273 6.6875L77.0273 6.875V5.84375L76.8398 5.3125L77.3711 5.15625L77.5273 5.5H77.8711L78.2148 5.3125L78.5586 5.5L78.8711 4.46875H78.3711V4.125H78.7148L79.2148 4.8125H79.7148L79.9023 4.28125H80.4023V3.625L81.7461 3.4375V3.09375L81.5898 2.59375L82.4336 2.40625V1.90625H82.0898L82.9336 1.5625L83.4648 1.71875L83.6211 1.03125H84.6523V1.375L84.4648 2.0625H84.8086V2.59375H85.3086V3.78125H85.9961L86.1523 4.96875L84.9648 6.1875L82.9336 7.03125L82.6211 6.875L82.2773 7.5625L80.9023 8.21875L80.7461 9.25H81.0898L81.7461 8.90625L82.4336 9.59375L83.1211 9.25L83.6211 9.59375L84.3086 9.25H84.9648C85.5482 8.6875 86.2253 8.40625 86.9961 8.40625V8.75H86.4961V9.09375L87.1836 9.25V10.8125H87.5273L88.0273 10.625V10.125L88.1836 10.625L87.5273 10.9688L87.3398 13.0312L87.6836 15.0625L86.9961 16.2812L87.5273 16.4375L87.6836 17.4688L87.1836 18.8438H86.8398L86.6836 19.6875L86.9961 20.7188L86.6836 21.4062L86.1523 21.75V22.25L86.6836 23.2812L86.3398 24.3125C85.6523 24.5417 85.4232 25.0521 85.6523 25.8438L85.8398 26.875H84.8086L84.4648 28.25L83.4648 28.4375L82.6211 27.75H83.1211L82.4336 27.0625V26.5312L82.7773 26.375V25.8438L82.6211 25.3438H81.5898V24.6562H80.2461L80.0586 25.1875L79.0586 25.3438V25L79.2148 24.5H78.5586L78.3711 25.6875L78.8711 26.1875L78.2148 27.4062H77.8711L77.5273 27.2188V27.75L78.0273 28.25H78.5586V28.5938L78.0273 28.9375V29.2812L76.1836 28.9375V29.2812V29.7812ZM75.8398 29.0938V28.5938H75.3398V29.0938H75.8398ZM94.6211 28.5938L94.2773 28.4375L94.1211 27.75L92.2461 27.2188V26.375C94.3919 25.5833 96.6523 24.9583 99.0273 24.5V23.9688H98.6836L99.3711 21.0625L100.371 20.9062V20.5625L99.7148 20.2188L99.8711 19.6875H100.371V18.6562V17.4688H101.059V16.9688L100.902 16.2812L101.246 15.5938L100.902 14.4062C101.34 13.0312 101.736 11.6562 102.09 10.2812V9.9375L101.746 8.90625L101.402 8.75L101.059 8.0625L100.059 7.875L99.7148 8.75L98.3398 8.90625L97.3398 8.75L96.3086 9.09375L95.3086 8.0625L95.1523 9.09375L93.9648 9.25L93.6211 12H93.1211L92.9336 12.5L91.2461 13.1875L90.4023 12.5L90.2148 10.9688L90.4023 10.4688L90.2148 9.09375C90.7773 8.96875 91.0065 8.625 90.9023 8.0625L91.2461 7.5625L91.0586 7.03125L91.4023 5.65625C91.8607 5.42708 92.0378 5.03125 91.9336 4.46875L92.5898 1.71875H93.1211L94.9648 2.0625L95.6523 1.90625L95.8086 2.40625L95.6523 2.9375L95.8086 3.4375L95.4648 5.15625L96.1523 5.5L96.6523 7.21875L96.4961 7.71875H96.8398L97.6836 6.6875L98.8711 6.34375L99.5273 6.53125L100.215 6L100.902 6.1875L102.402 5.3125L103.09 5.65625L103.59 5.5L103.934 6H104.465L104.777 7.03125H105.309V7.375L104.465 8.0625V8.5625H105.121L105.309 7.875L105.621 8.0625C105.059 8.52083 104.84 9.09375 104.965 9.78125L104.277 9.4375V9.9375L105.309 10.8125V11.3125L104.777 11.6562V12.1562H105.121L105.621 11.8125V12.1562L104.277 13.0312V13.875H103.934V15.25L104.777 16.7812H104.277V17.3125L104.121 17.8125L104.277 18.8438L103.277 19.1875V19.6875L103.934 19.875V20.375H103.59L103.09 20.2188L102.402 20.375V21.0625L103.277 21.25H103.934L103.09 21.9062L103.434 22.7812L103.934 23.2812H103.277V22.9375H102.934L102.59 23.8125L102.09 23.625C101.736 24.0833 101.621 24.6562 101.746 25.3438H102.746V25.6875L101.246 26.0312L100.715 27.5625L99.8711 27.75L99.5273 27.0625H99.0273V27.75L98.5273 27.5625L96.6523 28.4375V27.9062L95.1523 27.5625L94.8086 28.4375L94.6211 28.5938ZM78.5586 24.3125V23.8125H78.0273V24.1562L78.5586 24.3125ZM79.4023 24.3125V23.8125H78.8711V24.3125H79.4023ZM82.9336 24.1562V23.625L82.6211 24.1562H82.9336ZM77.6836 23.4688V22.9375L77.1836 23.4688H77.6836ZM80.0586 23.125V22.7812H79.7148V23.125H80.0586ZM100.371 22.7812V22.25H99.7148V22.5938L100.371 22.7812ZM83.8086 22.4375V21.75C83.9128 20.7292 84.1315 19.7604 84.4648 18.8438L84.3086 18.3438H83.1211V19H82.7773L82.6211 18.5H82.2773L81.7461 19.6875H81.2461L80.7461 19.5312L79.7148 20.0312L79.0586 19.5312L78.8711 19.875L77.8711 20.2188L77.6836 21.0625C78.1419 21.4167 78.7148 21.5312 79.4023 21.4062L80.9023 21.0625V21.5938L80.5898 21.9062L81.0898 22.0938C81.5273 21.3021 82.2044 21.0208 83.1211 21.25V21.5938L82.7773 22.4375H83.8086ZM75.6523 21.9062L75.1523 21.4062V22.0938L75.6523 21.9062ZM100.715 21.9062L100.215 21.25V22.0938L100.715 21.9062ZM77.6836 21.5938V21.0625H77.1836V21.5938H77.6836ZM102.934 19L102.09 18.6562V19.1875L102.59 19.3438L102.934 19ZM80.5898 18.8438V18.5H80.2461V18.8438H80.5898ZM81.2461 18.6562L81.5898 17.3125H81.2461L80.9023 18.6562H81.2461ZM103.777 18.1562L103.434 17.4688L102.934 17.3125V18L103.777 18.1562ZM98.1836 18L97.1836 17.4688L96.4961 17.6562V17.3125C95.7044 17.0833 94.9128 16.8542 94.1211 16.625L93.9648 15.25L94.2773 14.9062H94.6211L94.8086 14.4062L95.3086 14.2188C95.7669 14.5729 96.2773 14.6875 96.8398 14.5625V14.9062L95.8086 15.25V14.75H95.3086L94.8086 15.75L97.3398 16.0938V16.4375H97.6836V15.75L97.3398 15.25L98.5273 15.0625L98.6836 16.0938L98.5273 16.7812L99.0273 17.125L98.3398 17.6562L98.1836 18ZM78.3711 17.8125V16.7812H78.0273L77.8711 17.8125H78.3711ZM84.3086 16.9688L84.6523 15.9375H83.9648V16.625L83.8086 16.9688H84.3086ZM82.6211 16.0938L83.1211 15.75L83.2773 16.625H83.9648V16.0938L83.8086 15.0625L85.1523 15.4062L85.4961 12L85.3086 11.4688H84.9648L84.6523 12.1562H83.6211L82.7773 11.8125L82.6211 12.3438L81.0898 12.5L80.4023 12.1562L79.0586 12.3438L78.5586 12.1562C78.1003 13.0729 77.8711 14.0417 77.8711 15.0625L79.5586 15.9375L79.9023 15.75C80.1315 16.1042 80.4648 16.2188 80.9023 16.0938L81.0898 15.4062H81.7461L82.6211 16.0938ZM98.3398 16.0938V15.5938H97.8398V16.0938H98.3398ZM103.934 15.9375L102.59 15.25V15.5938L103.934 15.9375ZM104.965 14.2188L104.777 13.5312H105.309V14.0625L104.965 14.2188ZM75.6523 13.5312L75.8398 12.6875H75.4961L75.1523 13.375L75.6523 13.5312ZM103.934 13.1875V12.6875H103.59L103.434 13.375L103.934 13.1875ZM81.7461 11.8125V11.3125H81.2461V11.8125H81.7461ZM75.6523 10.4688V10.125L75.3398 10.4688H75.6523ZM85.8398 9.59375L85.1523 9.25V9.59375H85.8398ZM78.5586 8.75V8.21875H78.0273V8.75H78.5586ZM98.6836 7.5625L98.3398 7.21875V7.5625H98.6836ZM104.277 7.5625V7.21875H103.934V7.5625H104.277ZM96.1523 6.6875L96.3086 6H95.6523V6.875L96.1523 6.6875ZM102.746 5.84375L102.246 5.65625V6L102.746 5.84375ZM79.5586 5.5V4.96875H79.0586V5.5H79.5586ZM81.2461 4.46875V4.125H80.9023V4.46875H81.2461Z" fill="#483D3F"/>
<path d="M61.0176 34.0625L60.6738 33.0312L59.8301 32.8438L59.1426 33.375V32.5L59.2988 32L58.4551 32.1562L57.9551 31.8125L58.6426 31.6562V31.3125L56.4238 30.625L56.1113 29.75L55.7676 29.5938L55.5801 28.7188H55.2363V28.375L54.7363 27H54.0801V27.3438L53.0488 27.875L51.8613 29.25H51.5176V29.9375L48.8301 30.2812L48.6426 29.75C49.6842 27.8958 50.9863 26.2396 52.5488 24.7812L52.7051 23.2188L51.5176 22.5312H52.8926V22.0312L51.7051 21.8438V20.8125L52.0176 19.7812L51.5176 19.0938H51.1738V18.75H51.5176L52.0176 18.9062L52.2051 18.4062L52.0176 18.0625H51.3613V17.5312L51.7051 16.5L51.1738 16L51.3613 15.4688L51.0176 14.4375L51.7051 14.625L52.0176 13.4062L51.3613 13.0625V13.4062H51.0176V13.0625L51.1738 12.0312L50.1738 11.6875L49.3301 11.875V12.2188L48.8301 12.0312C48.3717 12.6146 47.6947 12.8438 46.7988 12.7188L46.1113 12.5625L45.7676 13.0625L45.0801 14.9688C46.2676 15.7188 46.8926 16.75 46.9551 18.0625L46.4551 18.9062L45.7676 19.25L45.4238 21L45.6113 21.6875L44.7676 22.875L44.0801 22.5312V22.875L44.4238 23.75H44.7676L45.4238 23.4062L45.2676 24.25L45.4238 24.7812L44.7676 24.5938V25.2812H44.4238V25.8125H45.2676V27C44.9342 27.5833 44.7676 28.1562 44.7676 28.7188L43.7363 29.25V30.4375L42.8926 30.0938V30.4375H42.5488L40.8613 30.2812L40.6738 30.7812H41.2051L41.8613 32.1562L40.6738 31.6562H39.8301V32L39.5176 31.6562L39.8301 30.625L39.6738 29.25L39.8301 28.375L40.6738 27.875L40.8613 27.5312H40.1738V27L40.5176 26.1562L40.3613 25.2812L40.6738 24.25L40.5176 23.9062L40.6738 23.5625H41.5488V23.0625L40.3613 22.7188V22.375L40.6738 21.8438H40.1738C39.6113 22.1979 38.9342 22.4271 38.1426 22.5312L37.2988 23.4062V23.0625H36.7988L35.2676 23.5625V22.5312C36.0592 21.1562 37.1322 20.125 38.4863 19.4375C39.1738 18.9792 39.9655 18.6875 40.8613 18.5625C41.1738 17.125 41.4551 15.6979 41.7051 14.2812L40.6738 12.9062L40.0176 12.7188V13.0625H39.6738L38.8301 12.9062L35.6113 13.9375L34.4238 13.4062L33.9238 13.5938V13.25L35.4551 11.1875L37.7988 10.5V10.8438H38.1426C38.8301 10.4896 39.5697 10.1458 40.3613 9.8125L41.0176 9.28125V8.59375L41.2051 8.09375L40.1738 7.90625L40.0176 6.53125L37.4863 5.34375L37.2988 4.8125L35.6113 4.46875L35.4551 3.59375C37.5801 2.67708 39.7676 1.85417 42.0176 1.125C44.2884 0.375 46.7259 0 49.3301 0L49.8301 0.6875H50.1738V1.03125L48.6426 1.1875V1.875H49.1426L49.6738 1.71875L50.3301 2.0625V3.09375H49.4863L49.3301 2.40625H48.9863L48.8301 2.90625L47.9551 2.5625V2.90625L48.1426 3.9375L47.1113 4.3125L46.7988 3.59375L46.2676 3.4375L46.1113 3.9375L46.4551 4.65625H45.7676L45.4238 3.59375L44.9238 3.4375V3.9375L45.0801 4.46875H44.5801L44.4238 4.125H44.0801L43.8926 5.15625L43.3926 5L43.2363 5.6875C43.7988 6.47917 44.0176 7.39583 43.8926 8.4375L43.5801 9.8125H44.2363L44.7676 9.625L45.0801 9.8125V10.3125H45.6113V9.8125H46.1113L46.2676 10.3125H46.7988V9.96875L47.9551 9.8125V9.28125H48.6426V9.625H49.8301L50.1738 8.9375L52.2051 8.59375L52.3613 7.40625L52.0176 5.34375L51.7051 5.15625V4.8125L51.8613 3.9375L51.7051 3.59375C52.6009 2.90625 53.6738 2.51042 54.9238 2.40625L54.7363 2.75L55.2363 2.90625V4.65625L55.0801 5.15625L55.2363 5.6875L54.9238 6.1875C55.2572 6.875 55.4238 7.625 55.4238 8.4375L57.4551 9.125L58.2988 8.9375L58.9863 9.125V9.46875L60.1738 9.625L60.3301 11.5312L60.1738 11.1875H59.8301L59.2988 11.3438L59.1426 11.875L56.9551 12.0312L55.9238 11.875L55.4238 12.0312L55.2363 13.4062H54.7363V13.9375L55.4238 14.0938L55.5801 15.125L55.2363 16.1562C55.5905 16.6146 55.7051 17.1875 55.5801 17.875L55.9238 18.5625H55.5801V19.0938L56.2676 19.4375L59.1426 17.7188L59.8301 18.0625L60.8301 17.1875H62.0176L62.2051 17.7188L61.8613 18.75L60.3301 19.5938V20.125H59.9863L58.4551 21.1562L58.1426 22.375H57.7988V23.2188L57.6113 23.5625L57.9551 23.75L58.1426 25.125L59.1426 25.625V26.3125L59.6426 26.5L60.3301 28.2188L61.8613 28.9062V29.25H62.2051V29.9375L63.5488 30.2812V30.625L64.7363 31.125L64.0488 32.5L63.2051 32.6875L63.0488 33.375L61.3301 33.5312L61.0176 34.0625ZM43.3926 31.4688L43.2363 31.125H43.7363V31.4688H43.3926ZM41.0176 28.9062V28.2188H40.3613V28.9062H41.0176ZM55.7676 28.2188V27.6875L55.2363 27.5312V28.2188H55.7676ZM43.8926 27V26.6562L43.2363 26.3125V27H43.8926ZM44.9238 26.8438L45.0801 26.1562L44.0801 25.9688V26.5L44.9238 26.8438ZM42.7051 26.1562L42.8926 25.4688L42.3926 25.2812V26.1562H42.7051ZM43.8926 25.125L44.0801 24.5938H43.7363L43.2363 24.7812V25.2812L43.8926 25.125ZM37.7988 21.8438L37.1426 21.5V21.8438H37.7988ZM44.7676 22.0312V21.3438H44.4238L44.2363 21.8438L44.7676 22.0312ZM52.3613 21.1562L52.5488 20.6562H52.0176V21.1562H52.3613ZM55.4238 16.6875V16.1562H55.0801V16.6875H55.4238ZM44.5801 15.4688L43.8926 15.3125L43.7363 15.8125H44.0801L44.5801 15.4688ZM44.9238 15.4688L45.0801 14.9688L44.5801 15.4688H44.9238ZM51.8613 15.6562V15.125H51.3613V15.6562H51.8613ZM43.3926 14.7812L43.7363 13.9375L42.2051 13.5938V14.0938L42.7051 14.9688L43.3926 14.7812ZM64.2363 9.96875C63.3197 9.40625 62.4134 8.78125 61.5176 8.09375V7.21875C60.9551 7.34375 60.6738 7.11458 60.6738 6.53125C59.9863 5.96875 59.5905 5.28125 59.4863 4.46875L59.9863 3.78125L60.8301 3.4375L61.1738 2.5625C61.7363 2.22917 62.3613 1.94792 63.0488 1.71875L63.2051 2.5625L64.0488 3.09375L65.5801 4.65625H65.0801V5.15625L65.7363 5.34375V6.03125H66.2676L66.5801 5.84375L67.2676 7.40625L66.5801 7.75L66.4238 8.9375L65.5801 9.125V8.78125H65.2363L65.0801 9.8125L64.2363 9.96875ZM62.7051 2.5625L62.2051 2.21875V2.75L62.7051 2.5625Z" fill="#483D3F"/>
<path d="M3.71875 27.4064V27.0626L4.21875 24.3126L3.875 23.4689L1.875 22.4376L1.6875 21.9064L4.21875 20.5626L4.90625 20.9064L5.40625 19.1876H4.5625V18.1564L4.90625 17.4689C5.01042 16.2189 4.72917 15.1355 4.0625 14.2189C2.60417 14.3439 1.3125 14.0626 0.1875 13.3751L0 12.6876L0.5 11.4689H3.53125L4.21875 11.6564L4.71875 10.2814L4.375 7.71887L5.71875 6.68762C6.51042 8.29179 6.90625 10.0626 6.90625 12.0001L7.40625 12.1564L8.59375 11.6564L8.75 12.3439H9.09375L9.4375 11.6564L10.125 11.4689L9.78125 10.4689L9.9375 9.93762H8.9375C9.33333 8.47929 9.5 7.00012 9.4375 5.50012H10.2812L10.625 4.46887L11.2812 5.84387H10.7812V6.34387L11.7812 6.53137V7.21887L12.3125 7.37512V7.87512L11.7812 8.21887V8.75012L12.4688 12.6876H12.8125L13.4688 12.3439L13.8125 13.0314L13.6562 13.8751L14.1562 15.0626L14 15.4064H13.6562L13.1562 15.2501C12.1354 15.8126 11.7396 16.6668 11.9688 17.8126L12.125 19.5314H14V20.2189L12.8125 20.5626L12.4688 22.0939L12.625 22.9376L12.3125 23.8126L12.4688 24.5001L12.3125 25.1876L12.4688 25.6876L12.125 25.8439V26.3751L12.4688 27.0626L11.625 27.4064L10.125 27.0626L9.28125 27.2189L8.9375 27.0626V26.5314C9.375 25.7397 9.54167 24.8855 9.4375 23.9689L9.09375 23.2814H6.90625C6.57292 24.5522 6.17708 25.8126 5.71875 27.0626L4.71875 27.2189L4.21875 27.0626L3.71875 27.4064ZM8.4375 20.5626C9 20.3335 9.5625 20.1043 10.125 19.8751L10.2812 19.1876L9.78125 18.1564L9.28125 17.3126L9.4375 15.4064H7.40625C7.26042 16.9064 7.09375 18.396 6.90625 19.8751L8.4375 20.5626ZM13.4688 14.7501V14.4064L13.1562 14.7501H13.4688ZM8.9375 13.7189V13.1876H8.4375V13.7189H8.9375ZM4.5625 12.1564L4.21875 11.8126L4.0625 12.3439L4.5625 12.1564ZM10.9688 9.93762L10.4375 9.78137V10.1251L10.9688 9.93762ZM12.3125 5.50012L12.125 4.81262L12.9688 4.62512V5.50012H12.3125Z" fill="#483D3F"/>
</svg>
