<svg width="218" height="37" viewBox="0 0 218 37" fill="none" xmlns="http://www.w3.org/2000/svg">
<path d="M4.18359 31.6419V31.228L4.74609 27.9166L4.35938 26.9006L2.10938 25.6588L1.89844 25.0192L4.74609 23.4011L5.51953 23.815L6.08203 21.7454H5.13281V20.5036L5.51953 19.6758C5.63672 18.1706 5.32031 16.8661 4.57031 15.7623C2.92969 15.9128 1.47656 15.5742 0.210938 14.7463L0 13.9185L0.5625 12.4509H3.97266L4.74609 12.6767L5.30859 11.021L4.92188 7.93543L6.43359 6.69366C7.32422 8.6253 7.76953 10.7576 7.76953 13.0906L8.33203 13.2788L9.66797 12.6767L9.84375 13.5046H10.2305L10.6172 12.6767L11.3906 12.4509L11.0039 11.2468L11.1797 10.6071H10.0547C10.5 8.85107 10.6875 7.06995 10.6172 5.26374H11.5664L11.9531 4.02197L12.6914 5.67766H12.1289V6.27973L13.2539 6.50551V7.33336L13.8516 7.5215V8.12357L13.2539 8.53749V9.17719L14.0273 13.9185H14.4141L15.1523 13.5046L15.5391 14.3324L15.3633 15.3484L15.9258 16.7783L15.75 17.1922H15.3633L14.8008 17.0041C13.6523 17.6814 13.207 18.71 13.4648 20.0897L13.6406 22.1593H15.75V22.9872L14.4141 23.4011L14.0273 25.2449L14.2031 26.2609L13.8516 27.3145L14.0273 28.1424L13.8516 28.9702L14.0273 29.5723L13.6406 29.7604V30.4001L14.0273 31.228L13.0781 31.6419L11.3906 31.228L10.4414 31.4161L10.0547 31.228V30.5883C10.5469 29.635 10.7344 28.6065 10.6172 27.5027L10.2305 26.6748H7.76953C7.39453 28.2051 6.94922 29.7228 6.43359 31.228L5.30859 31.4161L4.74609 31.228L4.18359 31.6419ZM9.49219 23.4011C10.125 23.1251 10.7578 22.8492 11.3906 22.5732L11.5664 21.7454L11.0039 20.5036L10.4414 19.4876L10.6172 17.1922H8.33203C8.16797 18.9985 7.98047 20.7921 7.76953 22.5732L9.49219 23.4011ZM15.1523 16.402V15.9881L14.8008 16.402H15.1523ZM10.0547 15.1603V14.5206H9.49219V15.1603H10.0547ZM5.13281 13.2788L4.74609 12.8649L4.57031 13.5046L5.13281 13.2788ZM12.3398 10.6071L11.7422 10.419V10.8329L12.3398 10.6071ZM13.8516 5.26374L13.6406 4.4359L14.5898 4.21012V5.26374H13.8516Z" fill="#483D3F"/>
<path d="M151.707 32.1353L151.496 31.4956L152.27 31.3074V30.8935L151.496 30.6677V30.0657L150.758 29.426L151.496 28.5981V28.1842L151.109 27.7703H151.883V27.1682L150.371 26.7543L150.934 23.8568L150.371 23.4429C149.996 22.1886 149.363 21.0095 148.473 19.9057C147.84 19.3538 147.148 19.1406 146.398 19.266L145.625 20.9594L145.449 21.5614C146.082 22.1133 146.27 22.8032 146.012 23.631L145.449 24.4589L146.012 26.1146L145.801 26.5285H144.852V26.9424L145.449 28.1842H144.852L144.113 27.996L142.988 28.41L142.391 28.1842L141.266 28.5981V27.3563L141.09 26.7543L141.828 26.5285C141.711 25.7007 141.898 25.086 142.391 24.6847L143.164 24.4589V23.8568L141.652 23.4429L141.441 21.7872L140.879 21.5614L140.703 20.9594L141.09 20.3197V21.3733L142.039 21.7872V21.3733H142.602V21.7872H142.988L144.113 21.3733V20.7336H142.391V19.68L142.602 18.4382H142.215L139.367 20.3197L139.191 19.68H138.629L138.242 21.5614H137.117L136.906 22.3893L136.344 23.029L135.781 23.2171L135.57 23.631L134.832 23.8568L134.445 24.2707V23.8568L134.621 23.029H134.059V23.8568H133.32V23.4429L133.496 22.8032H132.934L132.371 23.4429V22.6151L132.16 21.5614C132.676 21.0095 133.309 20.6583 134.059 20.5078L134.27 19.266L134.445 18.664H134.832V18.25L136.906 18.0243C136.648 16.795 136.965 16.1052 137.855 15.9547L139.191 16.3686V15.9547L138.418 15.1268H138.98V14.7129H139.578L140.527 15.1268V14.5247L140.316 14.1108C140.949 14.2362 141.266 14.023 141.266 13.4711L141.09 12.6433L141.266 12.0412H140.527V11.6273L140.703 10.5737L139.93 10.1597L138.629 10.3855C136.73 9.95904 134.832 9.40715 132.934 8.72982V8.3159L134.832 7.90197L135.008 7.48805C135.828 7.71383 136.648 7.71383 137.469 7.48805L138.242 7.90197L138.98 7.6762L139.578 7.90197L140.879 7.48805L141.441 8.09012L141.828 6.66021L141.652 5.19266L141.441 4.36481L142.039 2.2952L141.266 1.46735V0.639509C142.156 0.76494 142.918 0.626966 143.551 0.225586L143.727 0.827656L143.551 1.46735C144.043 2.16977 144.676 2.383 145.449 2.10705L145.801 1.88128V2.2952L145.449 3.34882L145.625 3.95089L144.5 4.36481V5.00451H145.238V6.24628L145.801 6.66021L145.625 7.07413H145.238V7.6762L145.625 8.50404H146.012L146.188 8.09012H146.574C147.207 8.51659 147.969 8.65456 148.859 8.50404V9.14374L150.16 8.3159L150.547 9.14374L149.809 9.33189V9.97159H150.371L151.32 9.33189L151.883 7.48805H151.109L150.547 7.6762L151.32 7.48805V7.07413L152.445 6.84835L152.832 5.41844L151.883 4.77874L152.621 5.00451C153.137 4.3021 153.84 4.08887 154.73 4.36481L156.031 5.00451L157.578 4.36481L156.98 4.59059V5.19266L157.367 6.24628L157.191 6.84835L156.242 7.26227L156.031 9.14374L155.68 8.3159L155.117 6.84835H154.168V7.26227L153.008 7.6762L152.445 7.48805V8.09012L152.621 9.33189H153.781V10.1597L154.344 10.3855V10.7994H155.117L155.469 9.97159L156.242 10.3855L156.629 10.9876C159.137 10.8621 161.41 11.1381 163.449 11.8154L164.188 11.4015C164.562 9.89633 165.008 8.45387 165.523 7.07413L163.625 6.66021L162.852 6.84835L162.5 6.24628H161.938L161.164 6.84835L160.391 6.66021L159.652 6.84835V6.24628H159.266L158.316 6.66021L158.141 5.41844L158.316 4.77874L159.441 5.19266L160.391 4.77874L160.602 4.17667H160.988L162.5 4.59059V4.17667L164.188 5.00451L164.75 3.76274L165.699 3.53697L166.473 4.17667L166.648 4.77874L167.211 5.00451L167.422 4.36481H168.16L168.371 3.76274H168.758L169.496 3.95089L170.27 3.34882L170.445 3.95089L169.883 4.17667L169.496 5.19266L169.707 6.66021C168.559 8.16538 168.172 9.95904 168.547 12.0412L168.934 15.9547L168.758 16.3686L167.984 16.1804V16.5944L168.16 17.1964L168.934 17.4222L169.109 18.664L168.758 19.4918L169.496 19.266V20.3197C169.004 20.8716 168.816 21.5614 168.934 22.3893L169.32 23.029L169.109 24.2707C169.742 25.0986 170.129 26.0644 170.27 27.1682L169.32 29.2378L169.109 28.41L169.32 27.7703H168.547L168.371 29.012L167.809 29.2378V29.8399H166.859V30.4796H166.086C165.195 29.9277 164.246 29.6517 163.238 29.6517L162.289 30.0657C161.164 28.9619 159.91 28.1967 158.527 27.7703L158.316 26.9424H157.93L157.754 27.5821L157.93 28.5981H158.703L159.09 29.426L157.578 29.2378L157.191 28.5981H156.418L155.855 28.8239L155.117 30.0657L155.293 30.6677C154.543 30.9437 153.781 31.2196 153.008 31.4956L152.832 31.9095L151.707 32.1353ZM154.73 30.0657L153.957 29.6517V30.2538L154.73 30.0657ZM142.039 27.996L141.652 27.5821V27.996H142.039ZM143.938 27.3563L144.113 26.7543H143.34V27.1682L143.938 27.3563ZM165.699 26.7543V26.3404L164.75 25.9264L165.348 25.5125L165.523 24.2707L164.574 22.2011H163.625V21.1475L163.801 20.3197H163.238L162.852 20.9594L160.988 21.1475V21.5614C160.988 20.859 160.73 20.4451 160.215 20.3197L159.09 20.7336L158.703 20.5078L158.141 19.266L157.367 19.0779V19.4918L157.754 19.68L157.191 19.9057L156.418 20.9594L156.242 21.5614L155.68 20.5078H155.117L154.906 22.2011L155.117 22.8032L155.469 23.2171C155.094 23.4931 154.977 23.907 155.117 24.4589L154.73 25.0986L159.266 25.7007L159.828 25.5125L160.215 26.3404L160.777 26.5285L163.238 26.1146C164.012 26.541 164.832 26.7543 165.699 26.7543ZM158.141 26.5285V26.1146H157.754V26.5285H158.141ZM145.801 25.7007L145.238 25.5125L145.062 26.1146H145.801V25.7007ZM142.777 23.029V21.9754L142.602 21.5614H142.215V22.3893L142.039 23.029H142.777ZM135.957 21.3733L136.168 20.7336L135.395 20.3197V21.1475L135.957 21.3733ZM138.242 21.3733V19.0779H137.855L137.469 19.9057L137.68 20.5078H136.906V21.1475L138.242 21.3733ZM149.422 20.0939L149.598 19.0779H148.859V19.9057L149.422 20.0939ZM161.938 20.0939L161.164 19.4918V19.9057L161.938 20.0939ZM140.141 19.9057V19.266H139.578V19.9057H140.141ZM160.777 19.4918V18.8521H160.391V19.4918H160.777ZM140.527 18.8521L140.703 18.4382L141.09 17.8361L142.215 17.6103V17.0083L141.441 16.5944L140.703 17.0083V16.1804H139.93V16.5944L140.141 17.6103L139.93 18.0243L138.98 17.6103L138.805 18.664L138.418 19.266L139.191 19.4918L140.527 18.8521ZM146.398 18.8521V18.4382H146.012V18.8521H146.398ZM137.117 18.664L136.344 18.25V18.8521L137.117 18.664ZM152.27 18.4382L151.32 17.8361V18.4382H152.27ZM158.703 18.4382L158.141 18.25V18.664L158.703 18.4382ZM144.113 18.4382V17.8361H143.34V18.4382H144.113ZM147.91 18.4382V17.6103H147.348V18.4382H147.91ZM161.727 18.4382L165.137 18.0243V17.6103L164.574 16.5944L164.75 14.7129L163.062 14.9387L161.34 14.1108L160.391 13.4711V14.5247C159.758 13.6969 159.008 13.3457 158.141 13.4711L156.98 14.9387L157.191 15.3526L155.469 14.5247L154.73 15.3526H155.855V15.7665H155.117V16.3686L156.031 16.7825L156.418 17.4222C158.199 17.5476 159.969 17.8863 161.727 18.4382ZM138.418 17.8361L138.031 17.4222V17.8361H138.418ZM146.188 18.0243V17.6103L145.625 17.4222V17.8361L146.188 18.0243ZM150.547 17.8361V17.1964L150.371 16.5944L150.758 15.5407L150.16 15.3526L149.984 13.885L150.371 13.6969L150.547 14.299H150.934L151.496 13.0572L150.758 12.6433L149.984 12.4551L151.109 12.0412C150.992 11.3388 151.191 10.9876 151.707 10.9876L152.621 11.2134L153.395 10.3855C152.762 9.83361 152.07 9.55767 151.32 9.55767V10.1597L150.16 10.7994L149.984 11.6273L149.211 10.7994V9.97159L148.262 10.9876L147.699 10.1597L147.137 9.97159V10.7994H146.012L145.625 13.4711L147.348 15.3526V15.7665L150.547 17.8361ZM152.059 17.4222L151.496 17.0083V17.6103L152.059 17.4222ZM138.031 17.1964L137.855 16.3686H137.293V17.4222L138.031 17.6103V17.1964ZM154.52 17.4222V16.7825L154.73 15.9547H154.344L153.957 17.4222H154.52ZM142.777 15.7665L142.215 15.1268L142.039 15.9547L142.777 15.7665ZM153.008 14.9387V14.5247L152.445 14.299V14.7129L153.008 14.9387ZM157.367 13.6969V13.0572H156.805V13.6969H157.367ZM145.238 11.4015L144.289 10.7994V11.2134L145.238 11.4015ZM154.52 9.14374L154.344 8.50404H154.73L154.52 9.14374ZM168.371 9.14374V8.50404H167.809V9.14374H168.371ZM154.52 6.84835V6.02051L153.395 7.07413L154.168 7.26227L154.52 6.84835ZM160.215 6.24628L159.828 5.83236V6.24628H160.215ZM161.551 6.02051V5.60658L161.164 4.77874H160.602V5.41844L161.551 6.02051ZM165.348 4.59059L165.523 3.95089H165.137L164.75 4.77874L165.348 4.59059ZM145.449 3.95089V3.34882H144.852V3.95089H145.449Z" fill="#483D3F"/>
<path d="M184.336 36.3867L183.211 35.2266L183 33.8906C183 32.8594 183.258 32.0859 183.773 31.5703H184.16V31.1836C183.527 30.668 183.328 29.9648 183.562 29.0742L183.773 28.3008H184.336V27.7383L183.773 27.5273V26.9648L184.898 25.5937L184.16 25.418L183.949 23.6953C184.09 22.5234 184.348 21.4219 184.723 20.3906L184.547 17.8945L184.898 15.3984H185.496L185.672 14.0625L185.109 13.8516C185.672 11.6016 185.602 9.36328 184.898 7.13672L185.496 6.36328L184.723 5.76562V1.33594H185.496L189.855 2.88281L190.805 2.70703L191.754 3.09375L191.965 2.49609L193.477 3.65625V2.88281H194.039L194.812 3.09375V2.70703H195.375V3.26953L195.023 4.21875L196.148 4.60547L197.098 4.21875V4.60547L195.973 5.58984V6.15234L196.711 6.53906L197.309 6.36328L197.66 7.52344L197.098 8.47266C197.473 9.50391 197.789 10.5352 198.047 11.5664L197.484 11.7422V12.3047C198.117 12.3047 198.691 12.5039 199.207 12.9023L199.77 12.6914V13.0781L198.82 14.2383L199.207 15.3984L198.258 15.9961L197.484 15.6094V15.9961H196.711V16.5586H195.762L194.039 15.9961L193.687 17.5078L193.09 17.7187L192.703 17.5078V17.1211L194.25 15.2227V14.625L193.09 14.2383L192.914 15.2227L192.141 14.4492H191.578L192.352 16.5586H191.578L191.016 16.3477V18.1055H190.629V17.5078H189.855V17.1211L190.805 16.3477L189.68 15.7852L188.133 17.332L188.52 18.1055H187.957L187.781 21.375L187.957 21.9375H187.57V22.5352L187.781 23.0977L187.57 24.2578L187.781 24.8203C187.781 27.9141 187.523 30.8672 187.008 33.6797L187.184 34.8398L186.445 35.0508L186.234 35.6133L186.445 36H185.496L184.723 35.6133L184.336 36.3867ZM213.867 32.9062L213.305 32.1328L212.707 31.957L212.531 30.4102L213.094 29.6367L212.531 29.25V28.6875L213.094 27.3516L213.48 26.5781L213.305 26.1914L213.48 25.5937L212.707 25.418V24.8203L212.918 23.8711L212.707 23.3086L213.48 21.375L212.918 20.9883V20.0391L213.094 19.2656H211.582V18.8789H211.195L210.809 19.0547L209.297 18.8789V19.2656H208.523L207.012 18.668L205.676 18.8789L203.391 17.8945L203.18 16.3477H204.902L206.063 16.9453L206.449 16.7344L207.012 16.9453L207.188 16.1719H206.801V15.6094L207.398 15.3984V15.0117L207.188 14.625L208.348 15.3984L207.574 16.9453H207.961L208.348 16.3477L208.523 17.1211L209.684 17.332L210.07 15.7852L210.633 16.3477H211.195L211.758 15.3984L212.145 16.3477L212.707 16.5586L213.094 15.6094L212.918 14.8359L213.48 11.3555L212.531 10.582L212.355 10.9687H211.969V10.1953H211.195V9.80859H211.969V9.42187L211.371 7.69922C210.996 8.47266 210.621 9.24609 210.246 10.0195L210.422 10.793H209.684L208.91 10.582L208.348 10.793L207.398 10.1953L206.801 12.1289H207.188V12.5156L206.801 13.0781L207.188 13.6758L207.012 14.0625L206.449 14.2383L206.238 14.625L204.34 15.0117L203.391 14.4492L202.617 4.42969L203.004 3.48047L204.164 2.70703V2.10937L203.953 1.72266L204.34 1.16016L205.676 0.949219L206.625 1.16016V0.5625H207.012L208.523 0.949219L208.734 0.175781L209.473 0V0.773437H210.246V0.386719C210.996 0.574219 211.758 0.574219 212.531 0.386719L212.707 0.949219H213.305L213.656 0.386719L214.43 0.773437L215.203 0.5625L216.539 1.54687L216.152 2.49609L216.715 2.70703V3.09375L216.539 3.65625L215.941 4.21875L216.539 6.36328L216.926 6.53906V6.92578H216.539V7.52344L216.926 8.26172L216.328 9.80859L216.926 10.1953L216.539 10.9687L217.102 12.5156L216.539 11.9531L215.941 11.5664L215.766 12.1289H216.152V12.5156L215.766 13.0781L215.941 13.4648H216.926L217.102 15.2227L216.328 15.3984V15.7852L217.488 16.3477V17.332H216.539V17.7187L217.664 20.2148L216.328 20.6016V21.1641L217.664 22.3242V23.4844L217.102 25.207L217.488 26.7539L217.277 27.3516L217.488 28.3008L217.277 30.2344L217.488 30.7969L216.539 31.0078L216.152 32.3437H215.59L214.816 32.1328L213.867 32.9062ZM214.254 32.1328L213.48 31.3945V31.7812L214.254 32.1328ZM216.715 28.3008L217.102 27.5273H215.941V27.9141L216.715 28.3008ZM213.48 25.207V24.8203H213.094V25.207H213.48ZM206.801 18.4922L207.012 17.8945H205.852V18.4922H206.801ZM209.859 18.4922L209.473 18.1055V18.4922H209.859ZM212.355 18.2812V17.7187H211.758V18.2812H212.355ZM208.734 17.7187L208.137 17.332V17.8945L208.734 17.7187ZM195.199 17.5078L194.426 17.332V16.9453H195.023L195.199 17.5078ZM204.164 17.332L203.777 16.9453V17.332H204.164ZM191.754 15.7852L191.578 14.8359H191.016V15.6094L191.754 15.7852ZM195.023 15.7852V15.3984H194.637V15.7852H195.023ZM195.586 15.3984L195.973 14.625H195.586L195.023 15.6094L195.586 15.3984ZM208.91 15.0117L210.07 14.4492V14.8359L208.91 15.0117ZM188.344 14.2383V13.8516H187.957V14.2383H188.344ZM190.066 14.0625L190.242 13.6758C191.062 13.5586 191.824 13.6875 192.527 14.0625L193.687 13.2891L194.637 13.6758L196.148 12.1289H195.586L195.023 12.3047L195.375 11.5664H194.812L194.426 9.63281H194.039L193.687 10.4062H192.914L192.352 8.85937H193.301L193.09 9.63281H193.477L193.863 8.85937H194.25L194.637 9.03516L194.812 7.13672L193.477 6.92578L192.914 7.13672L192.703 6.36328C191.953 6.62109 191.52 6.42187 191.402 5.76562L192.141 5.37891L192.352 4.60547L191.965 4.42969V4.04297H191.402L191.016 5.58984L190.418 5.76562V6.36328L191.016 6.75H190.418L188.344 6.36328L188.133 8.08594L189.117 8.47266L190.242 8.85937L190.418 8.26172L191.016 8.08594V8.47266L190.805 9.80859H191.191V10.1953L191.016 11.9531H191.402L191.016 12.3047L189.68 11.5664H189.293L188.344 12.5156V14.0625H189.117V13.6758L189.469 14.2383L190.066 14.0625ZM193.301 11.9531L192.527 11.5664H193.687L193.301 11.9531ZM189.68 10.0195L189.117 9.63281V8.85937H188.73L188.344 10.4062H188.73L189.68 10.0195ZM209.859 9.80859V9.24609H209.297V9.80859H209.859ZM208.91 9.42187L209.086 8.64844H208.523V9.42187H208.91ZM213.48 9.42187L213.094 9.03516L212.918 9.63281L213.48 9.42187ZM212.355 8.64844V7.91016L212.918 8.08594C213.41 7.05469 213.656 5.89453 213.656 4.60547C212.133 3.97266 210.492 3.46875 208.734 3.09375L207.398 3.65625L206.449 3.48047L205.289 3.86719L205.113 5.37891L205.852 5.76562L206.238 6.75L207.398 6.92578L210.07 6.36328L210.422 7.13672L211.195 7.3125L211.758 8.64844H212.355ZM208.91 8.26172V7.69922H208.348V8.26172H208.91ZM204.164 6.36328L204.34 5.58984H203.777L203.391 6.36328H204.164ZM190.418 5.76562L189.68 5.37891V6.15234H190.418V5.76562ZM193.477 5.37891L192.914 4.81641V5.58984L193.477 5.37891ZM204.727 5.20312V4.81641L204.516 4.21875H203.953L203.777 4.81641L204.727 5.20312ZM190.066 4.99219V4.60547H189.68V4.99219H190.066ZM204.902 2.70703L204.516 2.32031V2.70703H204.902ZM204.902 1.93359L204.34 1.72266V2.10937L204.902 1.93359Z" fill="#483D3F"/>
<path d="M194.868 36.3164L194.618 35.5508L194.352 35.1133L194.43 33.9414V33.5977L194.68 33.0039L194.587 31.8008H194.759V31.6289L194.587 31.1914L194.337 31.1133V30.5039L194.509 29.9883L193.821 29.8164C193.717 29.5872 193.493 29.5039 193.149 29.5664L192.977 29.6445L192.384 29.4727L192.462 29.1289C192.222 29.1081 191.998 29.1654 191.79 29.3008L191.524 28.7852H191.696V28.6133C191.363 28.2695 191.222 27.8372 191.274 27.3164L190.852 27.2383L190.93 26.9727L191.618 26.8945L192.04 27.0664V26.7227L191.79 26.3789L191.962 26.2852V25.9414L191.524 25.5195L191.696 25.082H191.446L191.196 25.1758L191.024 24.7383L191.102 24.3945L190.852 24.3164V23.9727L191.024 23.5352L190.759 22.7695L191.696 22.6758V21.9883H192.212V21.8164H192.384L192.805 21.9102V21.6445H192.977V21.1289L193.493 21.3008L193.665 20.707L193.571 20.5352H193.915L194.165 20.6133V20.4414L194.087 20.0977H194.43V19.832L194.337 19.6602C194.847 19.9518 195.243 20.3268 195.524 20.7852V21.0508C194.847 21.8529 194.081 22.5404 193.227 23.1133H193.055V23.5352L193.493 23.8008L193.743 23.707C193.972 24.0508 194.311 24.1654 194.759 24.0508L194.93 23.5352L195.618 23.3633L195.868 23.457C196.097 22.9362 196.326 22.4206 196.555 21.9102H196.727L197.055 22.082V22.2539L196.555 22.5039L196.462 22.7695L196.727 22.8477L196.977 22.7695L197.055 23.5352L197.321 23.6289L197.743 23.457V23.6289L196.977 23.8789V23.6289H196.805V23.1133H196.462L196.134 23.2852V23.5352L196.555 23.8008V23.9727L196.462 24.3164L196.634 24.6602L196.555 25.082L196.29 25.2539L195.962 25.9414H195.79L195.618 25.6914H195.274V25.9414H195.446V26.3789V26.207H195.102V26.8945H194.852L194.68 27.582H194.93V27.2383L195.696 27.1445L195.868 27.4883H196.04L196.134 26.9727H196.462L196.805 27.4102H197.321L198.399 27.6602H198.571L197.743 26.5508H197.571L197.227 26.6289L196.977 25.9414H197.227L197.321 26.207H197.915L197.993 26.5508L197.337 27.6289L198.259 27.0664H198.587L198.852 26.9727L198.68 27.0664V27.4883C198.399 27.4362 198.259 27.5247 198.259 27.7539L198.43 28.0977L197.993 28.2695V28.0977L198.087 27.7539H198.571L198.493 28.0977L198.571 28.3633H198.321V28.8789H198.149L197.899 28.7852L197.634 28.8789V28.707H197.462C197.128 29.0508 196.019 29.4779 196.134 29.9883C196.352 30.5091 196.462 31.082 196.462 31.707L196.384 32.0508L196.634 32.2227V32.4883L196.462 33.3477H196.29V33.5977H196.462L195.634 35.8945L195.29 35.9727L195.212 36.1445L194.868 36.3164ZM192.212 34.6289L190.93 33.8633L190.852 33.1758L191.102 32.7383L190.759 32.4883L190.852 32.2227L190.587 31.6289L190.759 30.8477L190.68 30.5977L191.79 31.1914C192.3 32.1706 192.581 33.2331 192.634 34.3789L192.555 34.5508L192.212 34.6289ZM195.962 33.8633V33.3477H195.696V33.8633H195.962ZM195.196 33.4258V33.0039H195.024L194.68 33.5977H194.93L195.196 33.4258ZM191.352 33.1758L191.102 33.082V33.2539L191.352 33.1758ZM191.868 32.832L191.696 32.6602V32.832H191.868ZM195.618 32.6602V32.3164L195.274 32.0508H195.696V31.8008L195.446 31.1914L195.524 30.8477L195.274 30.7695L195.102 31.1133L194.852 31.1914V31.457H195.102V31.8008L195.024 32.3164L195.618 32.6602ZM191.696 32.4883V32.3164L191.352 32.2227V32.3945L191.696 32.4883ZM199.962 31.1133L199.618 30.8477L199.79 30.2539L199.696 30.082H199.524V30.332L199.102 30.082L198.68 30.1602L198.165 28.8789H197.993V28.707H198.43C198.43 28.4154 198.54 28.181 198.759 28.0039L199.196 27.9258L199.274 28.1758L198.93 28.2695L198.852 28.8789L199.102 28.957L199.196 28.5352H199.446L199.618 29.0508L199.868 29.1289V28.8789L199.962 29.1289L199.868 29.7383L200.134 30.6758L200.462 30.7695L200.04 30.8477L199.962 31.1133ZM195.618 30.5977V30.332L195.79 29.9883L195.696 29.3008H195.524L195.196 30.082V30.4258L195.618 30.5977ZM196.212 30.5977V30.332H195.962V30.5977H196.212ZM199.696 29.8164L199.274 29.4727V29.6445L199.696 29.8164ZM198.93 29.4727V29.1289L198.68 29.0508L198.587 29.3008L198.93 29.4727ZM193.915 29.3008V29.0508L193.571 28.957V29.2227L193.915 29.3008ZM193.743 28.7852V28.5352H193.399V28.7852H193.743ZM196.134 28.6133L196.212 28.2695L195.962 28.1758L195.868 28.707L196.134 28.6133ZM192.134 28.5352V28.3633H191.962V28.5352H192.134ZM194.259 28.4414V28.2695H194.087V28.4414H194.259ZM195.79 28.2695V27.9258L195.868 27.582H195.618L195.524 27.9258H195.274V28.1758L195.79 28.2695ZM197.634 27.9258V27.7539H197.462V27.9258H197.634ZM198.227 27.9258V27.7539H198.055V27.9258H198.227ZM197.993 27.4883L197.821 27.3164V27.4883H197.993ZM193.399 27.0664V26.8945H193.227V27.0664H193.399ZM194.43 26.9727L194.509 26.1133H193.993V26.3789H194.165V26.6289L194.087 26.8945L194.43 26.9727ZM197.087 27.9727V27.8008H196.915V27.9727H197.087ZM192.634 26.457V26.207L192.384 26.0352V25.7695L192.462 25.4258L191.962 25.3477V25.5977L192.212 26.2852L192.634 26.457ZM194.087 26.0352V25.7695H193.821V26.0352H194.087ZM195.868 24.6602L195.618 24.5664V24.7383L195.868 24.6602ZM195.79 24.3945V24.2227L195.868 23.8789H195.446V24.1445L195.524 24.3945H195.79ZM195.352 23.8789V23.5352H195.102V23.8008L195.352 23.8789ZM191.446 23.1914V23.0195L191.102 22.9414V23.1133L191.446 23.1914ZM197.571 23.0195V22.8477L197.665 22.5977L197.493 22.332L197.743 22.8477L197.571 23.0195ZM192.384 22.9414C192.436 22.5352 192.352 22.306 192.134 22.2539V22.4258L192.384 22.9414ZM192.977 22.5039V22.1602H192.727V22.5039H192.977ZM193.571 22.082V21.8164H193.321V21.9883L193.571 22.082ZM194.43 21.7383V21.4727H194.259L194.165 21.7383H194.43ZM193.993 21.3945V21.1289H193.743V21.3945H193.993ZM194.43 21.1289V20.8789H193.993L193.915 21.1289H194.43ZM194.43 20.5352V20.2695H194.165V20.5352H194.43Z" fill="#483D3F"/>
<path d="M191.014 32.923L191.474 32.7927L191.691 33.1696L191.963 33.0924L192.986 33.0421C192.791 33.1521 192.569 33.2216 192.321 33.2508L192.01 33.2577L191.993 33.5224L192.181 33.4693L192.432 33.3169L192.734 33.6697L193.134 33.6537L193.836 33.276L194.113 33.5386L194.823 33.5157L195.027 33.198C194.732 32.6321 194.431 32.1544 194.124 31.7649L193.541 31.849C193.521 31.5623 193.387 31.4544 193.137 31.5252L193.184 31.6905L192.912 31.7678L192.818 31.4371L192.886 31.8845L191.312 32.2214L191.146 32.3497L191.155 32.7045L191.014 32.923Z" fill="#483D3F"/>
<path d="M205.868 36.3164L205.618 34.5508L205.352 34.1133L205.43 33.9414V33.5977L205.68 33.0039L205.587 31.8008H205.759V31.6289L205.587 31.1914L205.337 31.1133V30.5039L205.509 29.9883L204.821 29.8164C204.717 29.5872 204.493 29.5039 204.149 29.5664L203.977 29.6445L203.384 29.4727L203.462 29.1289C203.222 29.1081 202.998 29.1654 202.79 29.3008L202.524 28.7852H202.696V28.6133C202.363 28.2695 202.222 27.8372 202.274 27.3164L201.852 27.2383L201.93 26.9727L202.618 26.8945L203.04 27.0664V26.7227L202.79 26.3789L202.962 26.2852V25.9414L202.524 25.5195L202.696 25.082H202.446L202.196 25.1758L202.024 24.7383L202.102 24.3945L201.852 24.3164V23.9727L202.024 23.5352L201.759 22.7695L202.696 22.6758V21.9883H203.212V21.8164H203.384L203.805 21.9102V21.6445H203.977V21.1289L204.493 21.3008L204.665 20.707L204.571 20.5352H204.915L205.165 20.6133V20.4414L205.087 20.0977H205.43V19.832L205.337 19.6602C205.847 19.9518 206.243 20.3268 206.524 20.7852V21.0508C205.847 21.8529 205.081 22.5404 204.227 23.1133H204.055V23.5352L204.493 23.8008L204.743 23.707C204.972 24.0508 205.311 24.1654 205.759 24.0508L205.93 23.5352L206.618 23.3633L206.868 23.457C207.097 22.9362 207.326 22.4206 207.555 21.9102H207.727L208.055 22.082V22.2539L207.555 22.5039L207.462 22.7695L207.727 22.8477L207.977 22.7695L208.055 23.5352L208.321 23.6289L208.743 23.457V23.6289L207.977 23.8789V23.6289H207.805V23.1133H207.462L207.134 23.2852V23.5352L207.555 23.8008V23.9727L207.462 24.3164L207.634 24.6602L207.555 25.082L207.29 25.2539L206.962 25.9414H206.79L206.618 25.6914H206.274V25.9414H206.446V26.3789V26.207H206.102V26.8945H205.852L205.68 27.582H205.93V27.2383L206.696 27.1445L206.868 27.4883H207.04L207.134 26.9727H207.462L207.805 27.4102H208.321L208.399 27.6602H208.571L208.743 26.5508H208.571L208.227 26.6289L207.977 25.9414H208.227L208.321 26.207H208.915L208.993 26.5508L209.337 26.6289L209.259 27.0664H209.587L209.852 26.9727L209.68 27.0664V27.4883C209.399 27.4362 209.259 27.5247 209.259 27.7539L209.43 28.0977L208.993 28.2695V28.0977L209.087 27.7539H208.571L208.493 28.0977L208.571 28.3633H208.321V28.8789H208.149L207.899 28.7852L207.634 28.8789V28.707H207.462C207.128 29.0508 207.019 29.4779 207.134 29.9883C207.352 30.5091 207.462 31.082 207.462 31.707L207.384 32.0508L207.634 32.2227V32.4883L207.462 33.3477H207.29V33.5977H207.462L207.634 35.8945L207.29 35.9727L207.212 36.1445L205.868 36.3164ZM210.868 35.1445V34.7227L210.446 34.6289V34.3789L210.79 34.2852L211.134 34.3789V33.8633H211.384L211.462 34.7227L211.384 34.8945L211.04 34.9727L210.868 35.1445ZM210.024 34.457V34.2852L210.102 34.0352L209.68 33.8633L209.587 33.5195L209.759 32.832L209.43 32.6602L209.259 30.0508L209.509 29.8008C210.134 29.9154 210.675 30.056 211.134 30.2227L211.212 32.7383C211.493 32.6862 211.634 32.7747 211.634 33.0039H211.462V33.2539H211.805L210.962 33.3477V33.1758H210.352C210.186 33.457 210.134 33.7695 210.196 34.1133L210.274 34.3789L210.024 34.457ZM206.962 33.8633V33.3477H206.696V33.8633H206.962ZM206.196 33.4258V33.0039H206.024L205.68 33.5977H205.93L206.196 33.4258ZM210.618 33.0039V32.6602H210.446L210.352 32.9102L210.618 33.0039ZM206.618 32.6602V32.3164L206.274 32.0508H206.696V31.8008L206.446 31.1914L206.524 30.8477L206.274 30.7695L206.102 31.1133L205.852 31.1914V31.457H206.102L207.102 31.8008L207.024 32.3164L206.618 32.6602ZM210.962 31.1133L210.618 30.8477L210.79 30.2539L210.696 30.082H210.524V30.332L210.102 30.082L209.68 30.1602L209.165 28.8789H208.993V28.707H209.43C209.43 28.4154 209.54 28.181 209.759 28.0039L210.196 27.9258L210.274 28.1758L209.93 28.2695L209.852 28.8789L210.102 28.957L210.196 28.5352H210.446L210.618 29.0508L210.868 29.1289V28.8789L210.962 29.1289L210.868 29.7383L211.134 30.6758L211.462 30.7695L211.04 30.8477L210.962 31.1133ZM206.618 30.5977V30.332L206.79 29.9883L206.696 29.3008H206.524L206.196 30.082V30.4258L206.618 30.5977ZM207.212 30.5977V30.332H206.962V30.5977H207.212ZM210.696 29.8164L210.274 29.4727V29.6445L210.696 29.8164ZM209.93 29.4727V29.1289L209.68 29.0508L209.587 29.3008L209.93 29.4727ZM204.915 29.3008V29.0508L204.571 28.957V29.2227L204.915 29.3008ZM204.743 28.7852V28.5352H204.399V28.7852H204.743ZM207.134 28.6133L207.212 28.2695L206.962 28.1758L206.868 28.707L207.134 28.6133ZM203.134 28.5352V28.3633H202.962V28.5352H203.134ZM205.259 28.4414V28.2695H205.087V28.4414H205.259ZM206.79 28.2695V27.9258L206.868 27.582H206.618L206.524 27.9258H206.274V28.1758L206.79 28.2695ZM207.634 27.9258V27.7539H207.462V27.9258H207.634ZM208.227 27.9258V27.7539H208.055V27.9258H208.227ZM208.993 27.4883L208.821 27.3164V27.4883H208.993ZM204.399 27.0664V26.8945H204.227V27.0664H204.399ZM205.43 26.9727L205.509 26.1133H204.993V26.3789H205.165V26.6289L205.087 26.8945L205.43 26.9727ZM209.087 26.9727V26.8008H208.915V26.9727H209.087ZM203.634 26.457V26.207L203.384 26.0352V25.7695L203.462 25.4258L202.962 25.3477V25.5977L203.212 26.2852L203.634 26.457ZM205.087 26.0352V25.7695H204.821V26.0352H205.087ZM206.868 24.6602L206.618 24.5664V24.7383L206.868 24.6602ZM206.79 24.3945V24.2227L206.868 23.8789H206.446V24.1445L206.524 24.3945H206.79ZM206.352 23.8789V23.5352H206.102V23.8008L206.352 23.8789ZM202.446 23.1914V23.0195L202.102 22.9414V23.1133L202.446 23.1914ZM208.571 23.0195V22.8477L208.665 22.5977L208.493 22.332L208.743 22.8477L208.571 23.0195ZM203.384 22.9414C203.436 22.5352 203.352 22.306 203.134 22.2539V22.4258L203.384 22.9414ZM203.977 22.5039V22.1602H203.727V22.5039H203.977ZM204.571 22.082V21.8164H204.321V21.9883L204.571 22.082ZM205.43 21.7383V21.4727H205.259L205.165 21.7383H205.43ZM204.993 21.3945V21.1289H204.743V21.3945H204.993ZM205.43 21.1289V20.8789H204.993L204.915 21.1289H205.43ZM205.43 20.5352V20.2695H205.165V20.5352H205.43Z" fill="#483D3F"/>
<path d="M207.554 32.6451L206.915 33.9942L207.026 34.3288L207.205 34.39C208.34 34.2277 209.371 33.8454 210.296 33.243L210.78 32.0816L210.539 32.1834L209.745 32.0877L209.179 32.4093L208.906 32.3415L208.69 32.7078L208.231 32.5011L207.554 32.6451Z" fill="#483D3F"/>
<path d="M102.277 32.774L102.09 32.2685L100.902 32.1105L101.246 31.921V31.5734L100.059 31.0679L99.5273 31.4154C99.319 30.7203 99.1523 30.0779 99.0273 29.4881C99.3607 28.3507 99.6419 27.2027 99.8711 26.0442H100.402V25.5071L99.8711 25.1911V24.8435H99.3711V23.9589H99.7148V22.7582L99.3711 22.0631L99.5273 21.7156L100.059 21.5576V21.0205L99.2148 20.8625V20.3254H98.8711V19.9778L99.0273 19.1247L98.3398 18.7772L97.8398 19.4723V19.1247L97.9961 18.4296H97.4961C96.8086 18.7667 96.0169 18.8825 95.1211 18.7772V18.2717H94.4336L94.2773 18.7772H93.5898L92.4023 18.4296V18.0821H92.0586V17.7345H92.7461V17.387L91.8711 17.0394V16.6919C91.8711 15.9968 92.1003 15.5966 92.5586 15.4913L93.2461 15.6492L93.4023 14.9541H93.7461L93.9336 14.4486L95.8086 13.9431V13.4059L96.3086 13.248L96.6523 12.3633H97.3398V11.8578H96.9961L96.4648 12.0157L95.9648 10.3096C95.4023 9.7198 95.0586 8.90885 94.9336 7.87672L95.2773 7.18162L94.7773 6.83407L95.2773 6.67609L95.8086 5.09631L100.059 3.54813L100.215 3.20058L104.309 2.85303L104.465 4.24323L103.965 5.28589L103.121 5.44386L102.09 5.28589L100.559 5.79142V6.13897L99.2148 6.67609L98.6836 6.48652V7.02364H97.9961V7.87672L98.5273 8.7298L98.8711 8.91938L99.0273 9.96203C99.7148 9.83565 100.288 9.9515 100.746 10.3096L102.621 9.42491L102.777 8.91938H103.965V8.22428L106.684 7.37119L106.871 8.38225L106.34 9.07736V8.22428H105.996L104.809 9.61448H104.465V10.12L105.34 10.3096L105.84 9.77246V10.12L104.465 10.8151L103.465 10.3096V10.8151L103.621 11.6682L103.465 12.0157H103.121L103.277 11.3206H102.777L102.434 12.7108C101.517 13.3006 100.611 13.9431 99.7148 14.6382L99.5273 14.1011L99.0273 13.9431L98.8711 15.1437L97.8398 15.9968V16.6919H99.3711L100.059 16.5339L101.402 17.0394L101.746 16.1864H102.09L102.277 17.0394H104.152L104.465 15.6492L104.809 16.3443H105.34L106.34 15.8388V15.3017C105.673 15.5334 105.277 15.3649 105.152 14.7962L106.34 14.6382L106.871 16.1864H107.371L107.527 15.8388L108.215 17.9241L108.559 18.0821V18.4296L108.215 20.3254H107.527L106.527 19.9778V19.6303H105.84V20.1674H105.34L104.652 19.8199L104.465 19.1247L103.965 18.7772H103.621L103.277 20.1674L103.465 21.368L103.121 22.0631L102.621 21.8736L102.277 22.5687L103.121 23.1058L104.465 23.9589L104.652 24.496L104.152 25.5071H104.652L104.809 25.0015H105.152L105.34 24.3064H106.684L107.371 24.496L108.059 24.3064V24.654L107.527 25.6966H109.246L109.402 27.0868L109.059 26.3917H108.559V27.7819L107.871 27.5924V28.2875L108.215 29.1405L108.059 29.8356H107.715L106.34 28.9826V28.635L106.871 27.4344H106.34L106.184 28.2875H105.684L105.152 27.2448L104.652 27.0868V27.4344L103.277 26.3917V26.8973L103.621 27.9399H102.934V28.635L103.465 28.8246V29.3301H103.121L102.934 28.8246L101.746 28.477V28.8246L102.434 29.3301V29.6777L103.465 29.8356L103.621 30.7203L103.465 31.4154L102.621 31.2259L102.277 32.774ZM94.6211 32.2685V31.921H94.0898L94.6211 31.5734V31.0679C94.2669 30.6045 93.8086 30.4254 93.2461 30.5308V29.8356L93.7461 27.4344H93.4023L93.5898 26.5497L93.4023 26.0442H93.7461V25.6966L93.2461 24.496H94.4336V23.8009H93.7461V23.4533L93.9336 22.4107H94.2773V21.7156L93.5898 21.368L93.7461 20.8625H94.2773L95.2773 22.4107L95.6211 20.8625L95.8086 22.2211L95.6211 22.7582L96.1523 22.9162L96.4648 22.7582V23.1058L95.2773 23.2638L95.1211 24.1484H94.7773L94.6211 24.654H94.0898V25.1911H94.6211L95.2773 25.0015L96.1523 25.1911L96.4648 23.8009L97.1523 23.6113C97.1523 24.4328 97.3294 25.1279 97.6836 25.6966L97.1523 26.3917L97.4961 27.5924L97.3398 28.1295L97.4961 29.6777L96.9961 29.8356L96.8086 30.5308H96.4648L96.1523 31.763L94.6211 32.2685ZM119.465 31.5734L118.434 31.0679L117.934 31.2259L116.746 30.3728V29.8356H116.215L116.402 29.1405L115.715 28.8246L114.684 26.5497L114.871 26.0442L115.027 26.8973H115.371L115.715 26.2022L115.871 26.7393H116.215L117.402 26.5497L118.09 26.8973V26.3917L118.277 25.8546L118.09 25.1911L118.434 24.1484L118.277 23.1058H118.621L118.934 23.2638L119.121 22.2211L118.777 21.368V20.6729H119.121L119.621 20.8625V20.1674L119.277 19.6303L119.465 19.2827L119.277 18.7772L119.965 18.5876L119.809 17.9241H120.309V17.5766L119.965 16.8815H120.465V16.3443L119.809 16.1864V15.6492L120.152 14.6382L120.996 14.2906L121.152 13.5955L120.465 13.0584V12.7108L119.965 12.2053H119.621L119.465 12.5529L118.777 12.0157L118.09 11.5102V11.8578L118.277 12.3633L117.402 11.8578L117.059 11.1627L116.402 11.0047V11.6682H116.059L114.684 10.8151C114.35 11.8472 114.017 12.8899 113.684 13.9431L112.809 14.2906L112.465 12.9004L111.809 12.7108C111.454 12.0157 111.277 11.268 111.277 10.4676L111.465 9.42491L112.465 8.38225L111.621 8.22428V7.68715L112.465 7.87672V7.52917L112.996 7.02364L111.809 6.67609V6.13897L111.965 5.79142L111.809 5.28589V5.63344H112.152L113.34 4.05366H113.84C114.527 4.74876 114.871 5.55972 114.871 6.48652L114.527 7.87672L114.34 8.7298C115.715 9.19321 117.142 9.65661 118.621 10.12L119.621 9.77246L119.809 10.3096H120.309L120.465 9.96203H120.809L121.34 10.12L123.027 9.77246L123.215 10.3096L122.684 11.0047H123.215L124.215 10.6571V11.0047L123.871 12.0157H124.559V12.7108H123.715V13.0584L124.402 13.4059V14.2906L124.215 14.7962L124.402 15.4913L123.871 16.8815H123.527V17.387L123.871 18.0821L123.215 18.2717V18.9352L123.371 20.515L122.871 20.6729V20.3254L123.027 19.6303L122.184 19.4723L121.996 20.8625L122.527 21.0205V22.2211L121.684 22.9162V23.8009L122.184 25.5071L121.684 25.6966V26.3917C121.788 27.5502 122.007 28.6455 122.34 29.6777L121.684 30.0252L121.34 31.5734H120.809V31.2259H120.309L120.152 30.5308H119.809L119.465 31.5734ZM96.1523 30.8783V30.1832H95.6211V30.8783H96.1523ZM117.246 29.8356V29.4881L116.746 29.3301L116.559 29.8356H117.246ZM96.9961 28.477L96.4648 28.2875V28.635L96.9961 28.477ZM120.309 27.7819V26.8973H119.121V27.2448L120.309 27.7819ZM121.34 27.5924L121.496 27.0868H121.152L120.996 27.5924H121.34ZM105.996 27.4344V26.8973H105.496V27.4344H105.996ZM107.371 27.4344V26.8973H106.871V27.4344H107.371ZM102.09 27.2448V26.7393H101.59V27.2448H102.09ZM102.934 26.7393L103.121 26.2022L102.621 26.0442L102.434 26.8973L102.934 26.7393ZM107.871 26.7393V26.2022H107.371V26.5497L107.871 26.7393ZM96.4648 26.5497V26.0442H95.9648V26.5497H96.4648ZM101.246 26.5497V26.0442H100.746V26.5497H101.246ZM105.684 26.3917V25.3491H105.152V26.0442L105.684 26.3917ZM103.809 25.8546V25.3491L103.121 25.0015V25.5071L103.809 25.8546ZM119.277 25.5071L119.465 25.0015H118.777V25.6966L119.277 25.5071ZM102.277 25.0015L101.746 24.8435V25.1911L102.277 25.0015ZM100.902 24.8435V24.3064L99.7148 23.9589V24.8435H100.902ZM103.121 24.654L103.809 23.8009L102.434 23.6113V23.9589L102.621 24.8435L103.121 24.654ZM101.402 23.4533L101.59 22.7582L100.902 22.5687L101.059 21.8736H100.559L99.8711 22.2211V22.5687L101.402 23.4533ZM120.152 23.4533L119.621 22.7582L119.465 23.6113L120.152 23.4533ZM116.902 22.5687L116.059 22.0631L115.215 21.0205L113.996 20.515L113.152 18.2717L113.496 18.0821L114.184 18.4296L114.684 19.1247H115.371L116.059 18.9352V19.4723L115.871 19.9778H116.902V20.3254H117.246C117.246 20.9152 117.413 21.4312 117.746 21.8736L116.902 22.5687ZM102.277 21.368V20.6729H100.402V21.2101L102.277 21.368ZM103.121 21.0205V20.515H102.777L102.621 21.0205H103.121ZM101.934 20.3254V19.8199H101.402V20.3254H101.934ZM96.4648 15.8388V15.3017L96.1523 15.8388H96.4648ZM102.09 12.3633V11.8578H101.746V12.3633H102.09ZM101.402 11.8578V11.3206L101.246 10.8151H100.902L100.746 11.8578H101.402ZM112.309 11.0047L111.809 10.8151V11.1627L112.309 11.0047Z" fill="#483D3F"/>
<path d="M56.6562 36.2496H55.9688H56.3125L56.6562 35.5545H55.625V35.207L55.9688 34.1643H55.625L55.0938 34.5118L54.75 32.9637L54.0625 32.7741L53.7188 31.5735H53.0625L52.5312 30.1833L51.6875 29.8357V29.3302L51 29.1406V28.6351L53.5625 28.4771C54.4792 29.1511 55.5104 29.604 56.6562 29.8357L57.1562 28.8246L57 28.2875L56.8125 27.94L57 27.2449H56.6562V26.8973L57 25.6967H56.6562L56.125 25.8547L55.9688 25.0016L56.4688 23.2638H56.8125V22.9163C56.125 22.5793 55.8438 21.9473 55.9688 21.0205L56.125 20.1675L58.5312 18.7773L58.875 17.9242L60.4062 17.387V16.8815H59.7188V16.534H59.0312L57 16.8815L56.4688 16.6919L56.125 17.5766C55.4375 17.1132 54.6354 16.9342 53.7188 17.0395V17.7346H54.0625L54.5938 17.5766L53.7188 17.7346V18.0821L52.875 18.4297L52.375 18.2717L51.5 18.4297L51.3438 18.0821C51.5729 17.1553 52.0833 16.2917 52.875 15.4913L54.4062 15.1438V14.7962L56.6562 14.4487V13.9431H57.1562V13.5956L53.7188 11.8578L53.5625 11.3207L52.375 10.8152L52.1875 9.26698L53.0625 8.91943L53.2188 8.03476H55.625L55.9688 8.22433L56.125 8.72986H56.4688V9.42496H57L60.4062 5.63349L59.375 5.28594L54.9375 6.32859L54.4062 6.13902C53.7396 6.96051 52.8854 7.30806 51.8438 7.18167L51.6875 6.67615L52.7188 4.93839C53.8438 4.47499 54.9271 3.89573 55.9688 3.20063L56.8125 3.39021L57 3.04265L58 2.85308V3.20063H58.3438L59.9062 2.15798L59.5625 3.04265H59.9062L61.7812 2.34755L62.4688 2.50553C63.3646 2.4634 64.2708 2.41074 65.1875 2.34755L65.375 3.89573L64.8438 4.59084L62.9688 6.32859L62.4688 6.48657L61.7812 7.52923L60.4062 8.91943L59.9062 9.07741V9.77251L60.75 11.1627L60.5938 11.6682H61.25L61.4375 12.2054L63.5 13.0585C63.8333 13.9853 63.9479 14.9647 63.8438 15.9968H64.1875H63.6562V16.3444C63.3229 16.9342 63.1562 17.6819 63.1562 18.5877L61.25 18.9352L61.0938 19.9779L60.0625 20.515L59.375 22.4107H60.0625V22.7583H59.5625V23.2638H59.0312V23.6114C59.8438 24.3065 60.1875 25.2333 60.0625 26.3918L59.2188 26.7393V27.0869L59.5625 27.94H60.0625L60.4062 29.3302H59.9062V29.6777L60.5938 31.2259L60.4062 31.763L60.5938 32.2686L60.25 33.8167L60.4062 34.3539H60.0625L59.9062 33.8167H59.5625L59.2188 35.207C58.4062 35.7967 57.5521 36.1443 56.6562 36.2496ZM66.9062 35.7441V35.049L66.4062 34.8594C65.9479 35.2175 65.4271 35.3333 64.8438 35.207L64.6875 34.3539L64.8438 33.6588H65.7188V32.9637L67.9375 31.0679L68.7812 30.8784L69.125 30.1833L70.5 28.4771L71.875 28.1295V28.8246L72.7188 29.1406C73.3021 29.604 73.4792 30.2464 73.25 31.0679L72.375 31.763L71.5312 31.5735L71.3438 32.6161C70.7812 32.7214 70.5 33.069 70.5 33.6588C70.0417 34.1222 69.4167 34.2907 68.625 34.1643L68.4375 35.3965L68.2812 35.049H67.75L66.9062 35.7441ZM81.9688 35.207C81.1771 35.207 80.4896 34.9753 79.9062 34.5118L79.2188 33.8167L78.375 32.4581H78.0312L77.5312 32.6161L77.1875 31.763L76.3125 31.5735L76.1562 31.0679L77.875 30.5308L78.0312 30.8784C79.4062 30.8784 80.6042 31.1732 81.625 31.763L82.125 32.4581C83.1667 32.5635 84.0833 32.9005 84.875 33.4692L85.2188 34.3539L84.5312 34.8594L84.0312 35.049L82.4688 34.8594L81.9688 35.207ZM72.9062 30.5308V30.0253H72.375V30.5308H72.9062ZM73.9375 29.6777V29.3302L73.4062 28.9826V28.6351L74.0938 28.4771L74.2812 29.6777H73.9375ZM69.6562 27.2449C68.9688 26.3181 68.625 25.2859 68.625 24.1485H69.3125V23.4534H68.7812V22.5687L68.9688 22.0632H68.4375V21.3681L68.625 20.8626L68.4375 20.3254L68.625 19.8199L68.4375 19.1248L68.625 18.2717C68.5 16.713 68.5 15.1543 68.625 13.5956L68.2812 12.5529L68.7812 11.6682L68.625 9.96209H68.9688L70.1562 10.8152L70.5 10.1201H70.8438L71.1875 9.26698L71.6875 9.07741C72.2708 8.04529 72.6771 6.94997 72.9062 5.79147L70.1562 5.63349V6.13902H69.6562L69.3125 5.44392C69.7708 5.1069 69.9375 4.59084 69.8125 3.89573C70.9583 3.55872 72.1042 3.27435 73.25 3.04265L74.2812 3.20063C75.8646 2.63191 77.5729 2.2317 79.4062 2L79.5625 2.85308H80.0938L80.5938 2.34755V2.85308L79.9062 3.73776L80.0938 4.40126L79.9062 5.09637L77 5.63349L76.3125 5.44392C76.4375 6.13902 76.2708 6.78146 75.8125 7.37125H75.2812V8.03476H75.625V8.38231L74.7812 8.91943L73.9375 8.72986V9.26698L74.4375 9.96209L73.75 10.1201L73.5938 10.6572L74.625 10.8152C76.4375 10.3518 78.3125 9.95155 80.25 9.61453L80.5938 10.8152L82.125 11.3207L82.3125 12.0158L81.625 12.9005L82.125 13.248V13.7536L83.1562 14.1011L82.4688 14.4487L82.3125 15.3017L81.9688 15.8389H81.625V16.3444L82.3125 16.6919V17.0395H81.4688V17.5766L81.9688 18.2717H82.4688L82.8125 18.0821L82.125 18.5877V19.1248L82.3125 19.9779C81.75 20.1043 81.4688 20.4518 81.4688 21.0205L80.25 21.2101V21.5577L80.7812 21.8736V22.2212H81.125L81.2812 23.9589L79.9062 25.5071L79.5625 26.2022L78.875 26.5498V25.8547H78.5312L78.375 26.3918H77.875V26.0442L78.0312 25.5071L77.1875 25.1912L77 24.3065H76.3125L75.9688 25.0016L75.625 24.3065H75.2812C74.1562 25.2333 72.9062 25.8125 71.5312 26.0442L70.6875 26.5498L70.8438 26.2022L70.1562 26.0442V26.3918H69.4688V26.8973L69.6562 27.2449ZM59.0312 25.8547V25.3491L58.3438 25.0016V25.5071L59.0312 25.8547ZM56.8125 24.8436V24.3065H56.4688V24.8436H56.8125ZM72.2188 23.6114L72.375 23.1058H72.0312L71.6875 23.8009L72.2188 23.6114ZM77.1875 22.4107L77.3438 21.7156L77.1875 21.2101L77.5312 20.3254L77 20.1675L76.5 20.8626C75.6875 20.8626 75.0625 21.1469 74.625 21.7156V22.0632L74.2812 22.7583H75.125L76.5 22.4107H77.1875ZM80.7812 22.5687V22.0632H80.25V22.5687H80.7812ZM71.6875 22.2212L71.875 21.7156H71.1875V22.4107L71.6875 22.2212ZM72.7188 21.5577V21.2101L72.9062 20.673L72.2188 20.515V21.5577H72.7188ZM74.0938 20.3254L73.75 19.9779V20.3254H74.0938ZM73.75 19.9779V19.6303L74.4375 19.2828L74.9375 19.4724L76.3125 19.1248L76.6562 18.0821H75.9688L75.4688 17.9242L73.75 18.2717L73.0625 18.5877L72.5625 18.4297L71.875 19.8199H72.2188L72.9062 19.6303C73.0104 19.9884 73.2917 20.1043 73.75 19.9779ZM81.8125 19.2828V18.7773H81.4688L81.2812 19.2828H81.8125ZM73.9375 17.5766L74.0938 17.0395H73.25V17.387L73.9375 17.5766ZM78.375 15.9968V15.3017L78.875 13.406L77.3438 12.3633L76.1562 12.9005C75.8021 13.3639 75.2292 13.5956 74.4375 13.5956L73.5938 13.406L73.25 13.9431H72.5625C72.2083 14.6172 72.0938 15.3649 72.2188 16.1864C73.8854 16.1022 75.5417 16.039 77.1875 15.9968L77.875 15.8389L78.375 15.9968ZM71.5312 14.7962L71.1875 14.4487V14.7962H71.5312ZM72.9062 13.406V12.7109H72.5625V13.406H72.9062ZM76.1562 12.2054L76.3125 11.6682H75.8125L75.625 12.2054H76.1562ZM78.0312 12.0158V11.5103H77.5312V12.0158H78.0312ZM53.0625 9.61453L52.7188 9.26698V9.61453H53.0625ZM79.4062 4.93839V4.24329L78.7188 4.05371L78.375 4.93839H79.4062Z" fill="#483D3F"/>
</svg>
