<svg width="218" height="40" viewBox="0 0 218 40" fill="none" xmlns="http://www.w3.org/2000/svg">
<path d="M67.2617 18.8504L67.4021 18.6169L68.6886 18.6169L68.6886 18.4471L68.057 18.3304L67.519 18.3834L67.519 18.2667C67.7841 18.0757 68.174 17.9978 68.6886 18.0332L69.3436 18.2136L69.3436 18.0969L69.2032 17.9165L68.4313 17.683L68.4313 17.5663L68.057 17.5663L67.6594 17.6299L67.6594 17.7467L68.3144 17.3434L68.174 17.1099L68.4313 17.1099L68.4313 17.2267L68.829 17.2267L69.0863 16.8765L68.4313 16.8765L68.4313 16.7597L67.7997 16.7597L67.7997 16.5262L68.3144 16.5262L68.3144 16.4095L68.4313 16.2397L68.3144 16.0062L68.4313 15.8895L68.174 15.7091L67.7997 15.7091L68.057 15.7091L68.057 15.1891L68.4313 15.1891L68.5717 14.7221L68.057 14.7221L68.057 14.5523L68.3144 14.5523L68.4313 14.1384L68.174 14.1384L67.9167 14.3188L67.6594 14.3188L67.6594 14.2021L68.4313 14.0217L69.0863 14.1384L69.0863 13.9686L68.5717 13.8519L67.9167 13.3849L68.057 13.0347L67.9167 12.918L68.5717 12.918L68.5717 12.8013L68.4313 12.6315L67.7997 12.6315L67.7997 12.5147L68.3144 12.1645L67.7997 12.1645L67.7997 12.0478L67.9167 11.878L69.6009 11.7612L69.9752 11.8143C70.1467 12.2034 70.2325 12.5925 70.2325 12.9817L70.1155 13.0984L70.2325 13.3849L69.4605 13.4486L69.4605 13.6184L70.1155 13.6821L70.4898 13.6184L70.4898 14.0217L69.9752 14.0854L69.9752 14.2552L70.2325 14.2552L70.2325 14.5523L70.4898 14.5523L70.6301 14.9556L70.4898 15.0723L70.6301 15.3589L70.1155 16.0593L70.4898 16.0593L70.8874 15.7728L71.0044 16.2928L70.6301 16.2928L70.6301 16.4095L71.0044 16.5262L71.0044 16.643L70.6301 16.643L70.1155 16.5793L70.1155 16.696L71.0044 17.1099L70.7471 17.2797L70.1155 17.2797L69.6009 17.2267L69.4605 17.4601L70.8874 17.5132L70.8874 17.6299L71.1448 17.6299L71.1448 17.7997L71.0044 18.0969L71.1448 18.2667L70.4898 18.3304L70.4898 18.6806L70.7471 18.6806L71.2617 18.4471L71.1448 18.7336L71.2617 18.9034L70.7471 19.0202L70.6301 18.8504L70.2325 18.8504L70.2325 18.9671L69.7179 18.9671L69.7179 19.2006L68.829 19.2537L69.4605 19.1369L69.4605 19.0202L69.2032 19.0202L69.2032 18.6806L68.6886 18.6806L68.4313 18.8504L68.057 19.2006L68.057 19.0839L67.2617 18.8504ZM68.4313 12.5784L69.3436 12.6951L69.3436 12.5784L68.4313 12.398L68.4313 12.5784ZM68.5717 14.4886L68.9459 14.2552L68.6886 14.2552L68.5717 14.4886ZM68.6886 12.0478L68.9459 12.0478L68.9459 11.931L68.6886 11.931L68.6886 12.0478ZM68.6886 16.0593L69.2032 15.8258L68.5717 15.8258L68.6886 16.0593ZM68.6886 17.683L68.9459 17.5663L68.6886 17.5663L68.6886 17.683ZM69.0863 12.2812L69.3436 12.1114L69.0863 12.1114L69.0863 12.2812ZM69.0863 16.4626L69.8582 16.4626L69.9752 16.2928L69.6009 16.2397L69.0863 16.2928L69.0863 16.4626ZM69.3436 15.5923L69.7179 15.5923L69.7179 15.4756L69.3436 15.4756L69.3436 15.5923ZM69.4605 14.7858L70.1155 14.9025L70.3728 14.6054L69.9752 14.6054L69.4605 14.7858ZM69.4605 14.0854L69.9752 14.0854L70.4898 14.0217L70.4898 13.8519L69.7179 13.8519L69.4605 14.0854ZM69.4605 18.2136L69.8582 18.2136L69.8582 18.0332L69.4605 18.0332L69.4605 18.2136ZM69.6009 17.7997L69.8582 17.7997L69.8582 17.683L69.6009 17.683L69.6009 17.7997ZM70.1155 18.0332L70.4898 18.0969L70.4898 17.9802L70.1155 17.9165L70.1155 18.0332ZM70.1155 17.683L70.4898 17.683L70.4898 17.5132L70.1155 17.5132L70.1155 17.683Z" fill="#483D3F"/>
<path d="M64.681 17.7548L64.6917 17.5539L65.521 17.0257L65.463 16.9215L65.0161 17.1091L64.6875 17.3625L64.6476 17.2909C64.7533 17.0648 64.978 16.857 65.3218 16.6674L65.8055 16.5093L65.7656 16.4377L65.6136 16.3845L65.0364 16.5581L64.9966 16.4864L64.7554 16.6401L64.5208 16.8424L64.5606 16.9141L64.8451 16.3976L64.675 16.3119L64.8409 16.2063L64.8807 16.278L65.137 16.1147L65.1833 15.7941L64.7612 16.063L64.7213 15.9913L64.3143 16.2506L64.2346 16.1073L64.5663 15.896L64.5264 15.8244L64.5439 15.6721L64.3888 15.5768L64.4244 15.4572L64.197 15.4521L63.9557 15.6057L64.1216 15.5001L63.9441 15.1809L64.1853 15.0272L64.1165 14.683L63.7848 14.8942L63.7268 14.79L63.8927 14.6844L63.8268 14.3823L63.661 14.4879L63.5567 14.7043L63.3909 14.8099L63.351 14.7383L63.787 14.3107L64.249 14.1135L64.191 14.0092L63.8195 14.1488L63.238 14.1311L63.2089 13.8585L63.0786 13.8444L63.5008 13.5756L63.461 13.5039L63.3126 13.4573L62.9055 13.7166L62.8656 13.6449L63.0778 13.2187L62.7461 13.4299L62.7063 13.3583L62.7237 13.206L63.7694 12.443L64.0287 12.3219C64.2721 12.4904 64.4602 12.694 64.593 12.9329L64.5574 13.0525L64.7306 13.1804L64.2548 13.5364L64.3127 13.6406L64.7566 13.4108L64.9761 13.2181L65.1137 13.4657L64.8038 13.716L64.8617 13.8202L65.0275 13.7146L65.1289 13.897L65.2948 13.7914L65.5229 13.9813L65.4722 14.1106L65.6605 14.2288L65.5678 14.87L65.8091 14.7164L65.9676 14.3773L66.2204 14.6485L65.9792 14.8021L66.019 14.8737L66.3001 14.7918L66.3399 14.8634L66.0987 15.0171L65.7453 15.1892L65.7851 15.2609L66.4993 15.1501L66.3914 15.3599L65.9843 15.6192L65.6345 15.7979L65.6237 15.9988L66.5615 15.4456L66.6013 15.5173L66.7672 15.4116L66.8251 15.5159L66.8361 15.7559L66.9845 15.8025L66.5841 16.1104L66.7036 16.3254L66.8694 16.2198L67.1214 15.8652L67.1438 16.0891L67.2772 16.1453L66.9853 16.4282L66.852 16.372L66.5957 16.5353L66.6355 16.6069L66.3038 16.8182L66.3835 16.9615L65.8287 17.359L66.1959 17.028L66.1561 16.9564L65.9903 17.062L65.8744 16.8536L65.5427 17.0648L65.4348 17.2747L65.3131 17.6433L65.2732 17.5716L64.681 17.7548ZM63.2944 13.4247L63.9223 13.1219L63.8824 13.0502L63.2329 13.314L63.2944 13.4247ZM64.0368 14.5397L64.1983 14.2427L64.0325 14.3484L64.0368 14.5397ZM63.2792 12.9934L63.445 12.8878L63.4052 12.8161L63.2394 12.9217L63.2792 12.9934ZM64.6482 15.4558L64.9002 15.1012L64.4931 15.3605L64.6482 15.4558ZM65.2023 16.4525L65.3283 16.2752L65.1624 16.3808L65.2023 16.4525ZM63.6152 12.9735L63.7231 12.7636L63.5572 12.8692L63.6152 12.9735ZM65.0421 15.5401L65.5396 15.2232L65.557 15.071L65.2977 15.192L64.9841 15.4359L65.0421 15.5401ZM64.911 14.9003L65.1522 14.7466L65.1123 14.675L64.8711 14.8286L64.911 14.9003ZM64.7111 14.3572L65.1731 14.16L65.2375 13.8719L64.9812 14.0352L64.7111 14.3572ZM64.4721 13.9272L64.8038 13.716L65.1137 13.4657L65.0558 13.3614L64.5582 13.6783L64.4721 13.9272ZM65.8809 16.4613L66.1372 16.2981L66.0756 16.1873L65.8193 16.3506L65.8809 16.4613ZM65.8301 16.1496L65.9959 16.044L65.9561 15.9723L65.7902 16.078L65.8301 16.1496ZM66.2414 16.0817L66.5044 15.9671L66.4646 15.8955L66.2016 16.01L66.2414 16.0817ZM66.1219 15.8667L66.3632 15.7131L66.3052 15.6088L66.064 15.7625L66.1219 15.8667Z" fill="#483D3F"/>
<path d="M71.3997 16.1174L71.5697 16.0314L72.3997 16.558L72.4575 16.4537L72.0897 16.1234L71.7246 15.9358L71.7643 15.8641C72.0003 15.8552 72.2783 15.967 72.5983 16.1994L72.9595 16.5783L72.9992 16.5066L72.9701 16.3383L72.5515 15.8789L72.5912 15.8071L72.3497 15.6539L72.0715 15.5303L72.0318 15.602L72.5916 15.6223L72.5805 15.4214L72.7465 15.5267L72.7068 15.5985L72.9633 15.7612L73.2485 15.6514L72.8259 15.3833L72.8656 15.3115L72.4582 15.053L72.5376 14.9096L72.8696 15.1202L72.9093 15.0485L73.0426 14.992L73.0466 14.8007L73.1617 14.7768L73.0571 14.5606L72.8156 14.4074L72.9817 14.5128L73.1586 14.1932L73.4001 14.3464L73.6495 14.117L73.3175 13.9063L73.3753 13.802L73.5413 13.9073L73.7576 13.7009L73.5916 13.5955L73.3642 13.6011L73.1981 13.4958L73.2379 13.424L73.7973 13.6291L74.1801 13.9689L74.2379 13.8646L73.9456 13.5822L73.6819 13.0272L73.8916 12.8695L73.8408 12.7403L74.2634 13.0084L74.3031 12.9367L74.2703 12.7749L73.8629 12.5164L73.9026 12.4446L74.3538 12.4401L74.0217 12.2294L74.0615 12.1577L74.1947 12.1013L75.321 12.7189L75.5445 12.9047C75.5227 13.214 75.4457 13.4882 75.3133 13.7273L75.1981 13.7512L75.176 13.9751L74.6563 13.6983L74.5986 13.8026L74.9995 14.1098L75.2626 14.2239L75.1254 14.4717L74.7717 14.3002L74.7139 14.4045L74.8799 14.5098L74.7788 14.6924L74.9448 14.7977L74.8982 15.103L74.7679 15.1173L74.7609 15.3508L74.1906 15.5705L74.4321 15.7237L74.7861 15.7104L74.6846 16.0778L74.4432 15.9246L74.4035 15.9964L74.6052 16.2213L74.5655 16.293L74.324 16.1398L74.0137 15.89L73.9739 15.9618L74.4066 16.5799L74.1828 16.5789L73.7753 16.3204L73.4614 16.0772L73.2914 16.1632L74.1939 16.7799L74.1542 16.8516L74.3202 16.9569L74.2624 17.0612L74.0708 17.1864L74.1035 17.3482L73.6593 17.1192L73.5401 17.3344L73.7061 17.4397L74.1176 17.5069L73.9447 17.6351L73.9623 17.7873L73.5906 17.6484L73.5729 17.4962L73.3163 17.3334L73.2766 17.4051L72.9446 17.1945L72.8652 17.338L72.2736 17.0067L72.7208 17.1935L72.7605 17.1218L72.5945 17.0165L72.7101 16.8078L72.378 16.5971L72.1543 16.5962L71.7936 16.6582L71.8333 16.5864L71.3997 16.1174ZM74.2884 12.7423L74.8373 13.1874L74.877 13.1157L74.3498 12.6314L74.2884 12.7423ZM73.729 13.9735L74.0499 13.9832L73.8839 13.8779L73.729 13.9735ZM74.635 12.5215L74.801 12.6269L74.8407 12.5551L74.6747 12.4498L74.635 12.5215ZM73.27 14.9865L73.6814 15.0537L73.274 14.7951L73.27 14.9865ZM72.7175 15.9842L72.9232 16.0178L72.7572 15.9124L72.7175 15.9842ZM74.8121 12.8278L75.0359 12.8288L74.8699 12.7234L74.8121 12.8278ZM73.3893 15.397L73.8874 15.713L74.0206 15.6565L73.7972 15.4707L73.4471 15.2927L73.3893 15.397ZM73.8514 14.9676L74.0929 15.1208L74.1326 15.0491L73.8912 14.8959L73.8514 14.9676ZM74.2013 14.5199L74.5842 14.8597L74.8513 14.7825L74.5948 14.6197L74.2013 14.5199ZM74.4397 14.0895L74.7717 14.3002L75.1254 14.4717L75.1832 14.3674L74.6851 14.0514L74.4397 14.0895ZM73.035 16.6262L73.2915 16.789L73.3529 16.6781L73.0964 16.5153L73.035 16.6262ZM73.2664 16.4293L73.4324 16.5346L73.4721 16.4629L73.3061 16.3576L73.2664 16.4293ZM73.5189 16.7834L73.7387 16.9757L73.7785 16.904L73.5587 16.7117L73.5189 16.7834ZM73.6381 16.5682L73.8796 16.7214L73.9374 16.6171L73.6959 16.4639L73.6381 16.5682Z" fill="#483D3F"/>
<path d="M62.3661 38.5198L62.0529 37.9951L60.0307 37.5896L59.7174 37.9951L59.575 37.4703L59.7174 36.8264L59.2617 35.8961L59.8883 35.7769L60.0307 35.3714H59.4326V34.2027H59.8883V33.9403L59.4326 33.6779V33.4156L59.7174 31.9845L59.575 31.6028L60.0307 31.3405V30.935L59.8883 30.5533C60.5149 30.0286 60.7712 29.4164 60.6573 28.7168L61.113 28.192L60.9706 27.8104L61.2839 26.6178L61.113 26.1169L61.5972 25.9738L62.2237 24.662H61.7396V23.6363L60.6573 23.374L60.5149 22.9685H61.113L61.7396 23.1116L62.2237 21.919L62.5086 22.0621H63.1351L63.6193 21.7998L63.9326 22.4438L64.3883 22.5869V22.1814L64.2174 21.919H65.1573L65.3282 21.5374H66.2396V21.7998H65.9263V22.1814L66.4105 22.3245L68.1193 21.919V22.1814L67.806 22.7061H68.1193L68.575 22.5869V22.3245H68.8883V21.919L68.7174 21.6567H69.0307L69.344 22.7061H69.6573L70.5972 22.4438V22.1814L70.4263 21.6567L70.5972 21.3943H71.3661L72.1351 21.6567V22.1814H72.4484L74.0149 21.6567L75.2396 21.919L76.0086 21.6567L76.9484 22.1814V22.4438L76.6351 23.4932L77.0908 23.7556L76.4927 23.8749V24.3996L76.806 25.8546L76.1794 26.7609L76.3218 27.0233H75.8661L75.2396 26.7609V27.1426C76.1699 27.5878 76.844 28.1602 77.2617 28.8599V29.5039L76.806 29.6231L76.1794 30.935L74.9263 31.6028L74.7839 31.9845L75.2396 32.7716L74.7839 33.1532L76.3218 34.3458L76.6351 36.3016L76.0086 37.0887L74.7839 37.3272V37.852L74.9263 38.2575L72.7617 37.5896H73.7016V37.3272L73.3883 36.8264H72.6193V36.564H71.9927V36.8264H71.6794L71.0529 36.3016V35.7769H69.9706V36.1585L70.7396 37.0887H70.4263L69.5149 36.564V36.1585L69.9706 36.0392L70.113 35.2521H69.7997L68.8883 36.564H68.575V36.8264L69.0307 37.3272H68.7174L68.575 36.9456H67.806V37.4703H67.4927L66.8661 37.208L65.0149 37.7327V37.4703L65.4706 36.6832H65.9263V36.3016L63.7617 35.8961L63.4484 36.4209L63.1351 37.0887L63.9326 38.1143L63.306 38.2575V37.5896H62.9927L62.3661 38.5198ZM67.3218 36.9456V36.564H66.8661V36.9456H67.3218ZM67.6351 36.3016L67.806 35.8961H67.1794V36.4209L67.6351 36.3016ZM63.306 35.8961V35.109H63.7617L64.075 35.6338L66.0972 35.8961L66.5529 35.7769L66.8661 35.3714V35.6338H67.1794L67.9484 35.5145V35.2521L67.806 34.8467L66.7237 34.7274L66.2396 34.8467V34.5843L66.5529 33.9403H66.8661L67.1794 34.0834L67.3218 33.821L68.1193 33.9403L69.0307 33.821L69.5149 33.9403V33.6779L69.7997 33.9403H70.4263L71.5086 33.6779V34.2027L71.8218 34.5843H72.306L72.6193 34.3458V34.0834L72.7617 33.821H72.306V33.5587C72.6098 33.2883 72.7143 32.9385 72.6193 32.5092L72.306 31.1973L70.5972 30.6726C70.3883 31.0224 69.9706 31.1576 69.344 31.0781L68.7174 30.8157L68.575 29.7662H68.2617V30.291L67.6351 30.4102C67.7491 29.9809 67.5972 29.7185 67.1794 29.6231L66.5529 30.8157L66.0972 30.935L65.7839 30.4102L66.2396 29.7662H66.7237L66.8661 28.7168L66.7237 28.3351L67.1794 28.7168H67.806L68.1193 28.0728L69.0307 27.9297L70.2839 28.4544V28.8599H70.5972L71.5086 28.7168V28.0728L71.9927 28.5975H72.4484C72.7522 27.8979 72.9611 27.1585 73.075 26.3793L73.5307 25.8546L73.3883 25.1867L73.5307 23.7556L71.3661 22.9685V23.4932H71.0529L70.7396 22.9685L69.7997 22.8492C69.401 22.9287 69.2491 23.1911 69.344 23.6363L68.575 23.2309V22.9685H68.1193V23.374L66.0972 23.7556L64.7016 23.6363V24.8051L64.844 26.7609H64.5307V27.0233L64.7016 27.2857L64.5307 27.6673L64.7016 28.192L64.3883 28.8599H63.9326V29.2415L64.2174 29.5039L63.9326 30.0286L64.2174 30.4102C63.6098 30.3307 63.1446 30.5056 62.8218 30.935L62.6794 31.3405L63.4484 31.4597L63.7617 30.935V31.8413L63.306 32.8908L63.4484 33.4156L62.2237 33.9403V34.465H62.6794V34.2027H62.9927L63.4484 34.5843L62.5086 34.7274V35.3714L63.306 35.8961ZM61.7396 35.7769V35.2521H61.4263L61.113 35.7769H61.7396ZM71.9927 35.6338L71.2237 35.109V35.3714L71.9927 35.6338ZM68.8883 35.5145V34.9898H68.2617V35.5145H68.8883ZM70.7396 35.2521V34.8467H70.113V35.109L70.7396 35.2521ZM72.7617 35.109L72.306 34.9898V35.2521L72.7617 35.109ZM69.2016 34.465V33.9403H68.7174L68.4041 34.465H69.2016ZM65.7839 34.2027V33.9403H65.3282L65.613 33.821L65.9263 33.9403L65.7839 34.2027ZM63.306 33.1532V32.8908H62.9927V33.1532H63.306ZM67.0086 31.0781V30.8157H67.4927L67.0086 31.0781ZM69.5149 30.4102V30.1479H69.2016V30.4102H69.5149ZM70.4263 30.291V30.0286L69.7997 29.7662V30.291H70.4263ZM65.613 29.6231L65.1573 28.5975L65.3282 28.192C65.9358 28.3669 66.2396 28.677 66.2396 29.1222L66.0972 28.7168H65.613V29.3608V29.6231ZM69.9706 29.6231L69.5149 29.5039V29.8855H69.9706V29.6231ZM76.4927 29.6231L76.0086 29.3608L75.6953 29.8855H76.0086L76.4927 29.6231ZM68.575 29.5039L69.344 29.2415V28.8599L68.7174 28.192L68.575 28.9791L68.2617 29.5039H68.575ZM75.2396 26.6178L74.613 26.2362V26.4986L75.2396 26.6178ZM63.306 24.9243L64.075 24.5427L64.2174 23.4932H63.4484C62.9358 23.8431 62.7839 24.3201 62.9927 24.9243H63.306ZM76.4927 23.7556V23.2309H76.1794L76.0086 23.6363L76.4927 23.7556ZM66.4105 22.9685V22.5869H65.9263V22.9685H66.4105ZM76.806 22.4438L75.8661 22.3245V22.8492H76.3218L76.806 22.7061V22.4438ZM71.5086 22.0621V21.5374H71.0529L70.5972 21.6567V22.0621H71.5086Z" fill="#483D3F"/>
<path d="M71.3331 19.2537L70.5474 18.8562L69.7617 18.9646V18.6755L70.1546 18.278L69.3689 18.0792L69.1546 18.4768H68.5474V18.8562L66.976 18.5671L66.4046 17.8805L65.4046 17.6817L65.226 17.9708L65.7974 18.278C65.6784 18.543 65.2855 18.6394 64.6189 18.5671L62.0831 18.1696V18.6755L60.2974 18.8562C59.3927 18.3382 59.0712 17.6817 59.3331 16.8867L59.5117 16.2904C59.1308 16.0253 58.9998 15.6941 59.1189 15.2965L59.5117 14.8087L59.3331 13.7245H59.9046H61.0831V13.4173L62.0831 13.7245L62.2617 13.2186L60.6903 13.0198L60.5117 13.2186H59.3331L60.1189 13.1282V12.4416L59.726 12.3332L60.5117 11.8453H61.2974C61.9403 12.1103 62.7855 12.2067 63.8331 12.1344L64.4403 12.0441L64.6189 12.3332H65.0117V12.5319L64.8331 12.821H65.4046L66.4046 12.1344L66.976 12.0441V12.9295H67.5831L67.976 12.6223V12.9295L69.5474 13.0198V12.7307L68.7617 12.6223L68.5474 12.3332L68.1546 12.2428L68.3689 11.9356H68.7617L70.1546 12.0441V12.2428L72.2974 12.4416V12.1344H73.2974L73.476 12.5319H74.0831V12.3332L76.4403 11.9356V12.1344H77.226L77.4046 12.7307L78.1903 13.2186L78.0117 13.6161L78.1903 14.2124L77.226 14.3208V14.899C77.7498 15.0315 77.9403 15.2965 77.7974 15.6941L78.1903 16.2H77.7974V16.3988L78.1903 16.6879L78.0117 16.977L78.1903 17.6817L77.0117 18.0792L76.8331 18.4768C75.9046 18.4045 75.1189 18.5009 74.476 18.7659L73.8689 18.6755L73.476 19.055L71.3331 19.2537ZM67.3689 17.6817L67.5831 17.3745H66.7974V17.5733L67.3689 17.6817ZM64.4403 17.6817V16.8867L63.8331 16.7782L63.4403 17.2842L63.8331 17.6817H64.4403ZM71.726 17.5733L71.9046 17.2842H71.3331L71.1189 17.5733H71.726ZM68.7617 17.2842V16.7782H68.1546L67.976 17.3745L68.7617 17.2842ZM70.9403 17.1758L71.1189 16.8867L69.9403 16.7782V16.977L70.9403 17.1758ZM71.9046 16.6879L73.6903 16.4891L74.0831 16.8867H74.8689L75.4403 16.7782C75.3212 16.188 75.5236 15.664 76.0474 15.2062H75.6546V14.6099L75.0474 14.5196V14.2124L75.4403 13.8149C74.7974 13.7546 74.1427 13.6583 73.476 13.5257V14.122H73.0831V14.4111H71.9046L71.1189 14.122V13.8149H70.3331V14.2124H69.9403L69.5474 13.8149L68.5474 13.7245L67.976 14.122V13.8149H67.5831L65.6189 14.0136L65.4046 13.6161L66.1903 13.7245L66.4046 13.4173L65.0117 13.1282L64.6189 13.6161V13.327H63.8331L63.2617 13.7245L64.0474 13.9233V14.122H63.2617V14.8087L62.8689 15.2062L63.6546 15.4953V15.8025H63.2617V16.0916C65.9998 16.4891 68.8808 16.6879 71.9046 16.6879ZM61.8689 14.899L62.2617 14.4111H61.6903L60.9046 14.2124L59.9046 14.3208V14.5196L61.0831 14.8087L61.2974 15.0074L61.8689 14.899ZM72.2974 14.3208V14.122L71.726 14.0136V14.2124L72.2974 14.3208ZM62.476 14.122V13.8149H61.8689V14.122H62.476ZM71.9046 13.8149V13.6161H71.5117V13.8149H71.9046ZM71.1189 13.6161L70.726 13.4173V13.6161H71.1189ZM52.0474 13.4173V12.5319L52.2617 12.1344L51.476 11.9356L51.2617 11.6465L51.476 11.4478H52.4403L52.6546 10.7431H53.0474L53.226 10.4539L54.6189 10.3636V10.0564H53.8331L54.4046 9.96607C54.8093 9.76129 55.3331 9.65889 55.976 9.65889L56.1903 8.97226V9.17102H56.5831L57.1546 8.57473H57.7617V8.37597L57.5474 7.97844L57.9403 7.38215H58.3331L58.9403 7.49057L60.9046 6.78586L61.0831 6.00888L62.8689 5.7017L63.0474 5.50293L63.8331 5.41259V5.10541L63.4403 4.70788L64.8331 4.32842L65.4046 3.62372L66.4046 3.53337V3.3346C67.1903 3.12982 67.976 2.93106 68.7617 2.73831V2.53955L67.7617 1.7445L67.3689 1.85291V1.65415L68.1546 1.45539L68.7617 1.05786V1.25662L69.3689 1.34697L69.5474 1.65415H69.9403L70.5474 1.25662H71.1189L72.6903 1.54573L72.9046 1.85291L71.726 2.73831L73.0831 3.02743C73.7498 3.76225 74.6665 4.45491 75.8331 5.10541L76.6189 5.30417V5.61135H77.4046L78.0117 6.09922L78.7974 6.20764L78.976 6.49675L81.9403 7.09304V7.49057L84.8689 8.1772L86.6546 8.97226L87.2617 10.3636L87.0474 10.7431L86.6546 11.5381L85.8689 11.3393V11.0502L85.2617 10.9418V10.7431H84.2974L83.6903 10.4539V10.2552H83.1189V9.46013H82.5117L81.726 9.56855L81.3331 8.77349L81.5474 8.48438H80.9403L80.5474 9.26137H80.1546V9.0626L80.3689 8.77349L79.1903 7.77968H77.7974V8.08686L78.5831 8.1772L78.7974 8.48438L78.5831 8.28562H78.1903L77.6189 8.37597V7.97844L76.226 7.88809L76.0474 7.38215H75.2617V7.18339H75.6546V6.98462L74.2617 6.89428L73.8689 6.00888C73.0831 6.14138 72.6308 6.03899 72.5117 5.7017L72.9046 5.21382H72.2974L71.5117 5.41259L71.3331 4.61753L71.5117 4.32842L70.3331 4.12966L69.9403 3.73213L69.1546 3.62372C67.5831 4.479 66.0117 5.35235 64.4403 6.24378C62.8689 7.1352 61.4284 8.00855 60.1189 8.86384C58.4522 10.3696 56.4165 11.7248 54.0117 12.9295H53.6189L53.4403 13.2186L52.0474 13.4173ZM73.0831 13.1282L73.2974 12.821H72.6903V13.2186L73.0831 13.1282ZM69.9403 12.5319V12.1344H69.3689V12.5319H69.9403ZM53.8331 10.9418V10.6527H53.226V10.9418H53.8331ZM72.2974 10.4539L71.1189 10.1648V9.96607H70.3331V10.2552L70.1546 10.0564H69.5474L68.5474 10.1648V9.96607C67.9046 9.83356 67.2498 9.70106 66.5831 9.56855L66.4046 9.85766H66.7974L63.4403 9.46013V9.26137L63.8331 8.57473C65.1427 8.44222 66.4522 8.30971 67.7617 8.1772L68.3689 8.28562L69.3689 8.1772L69.5474 8.37597L70.5474 8.1772L70.726 8.57473H71.3331L71.5117 8.28562L73.2974 8.08686V8.28562L73.0831 8.66508L74.2617 9.0626H73.8689V9.56855L74.0831 9.96607L73.2974 10.0564C73.2974 10.3214 72.9641 10.4539 72.2974 10.4539ZM84.0831 10.1648L83.9046 9.96607L83.6903 10.1648H84.0831ZM72.9046 9.56855L73.2974 8.77349H72.5117V9.56855H72.9046ZM72.9046 5.01506L73.0831 4.70788L72.1189 4.50912V4.8163L72.9046 5.01506ZM64.8331 4.90664V4.61753H64.4403L64.226 4.90664H64.8331ZM66.0117 4.12966V3.82248L65.4046 3.73213V3.9309L66.0117 4.12966Z" fill="#483D3F"/>
<path d="M4.18359 31.6422V31.2282L4.74609 27.9169L4.35938 26.9009L2.10938 25.6591L1.89844 25.0194L4.74609 23.4013L5.51953 23.8153L6.08203 21.7456H5.13281V20.5039L5.51953 19.676C5.63672 18.1709 5.32031 16.8664 4.57031 15.7626C2.92969 15.9131 1.47656 15.5744 0.210938 14.7466L0 13.9187L0.5625 12.4512H3.97266L4.74609 12.677L5.30859 11.0213L4.92188 7.93567L6.43359 6.6939C7.32422 8.62554 7.76953 10.7579 7.76953 13.0909L8.33203 13.279L9.66797 12.677L9.84375 13.5048H10.2305L10.6172 12.677L11.3906 12.4512L11.0039 11.2471L11.1797 10.6074H10.0547C10.5 8.85132 10.6875 7.07019 10.6172 5.26399H11.5664L11.9531 4.02222L12.6914 5.67791H12.1289V6.27998L13.2539 6.50575V7.3336L13.8516 7.52175V8.12382L13.2539 8.53774V9.17744L14.0273 13.9187H14.4141L15.1523 13.5048L15.5391 14.3327L15.3633 15.3487L15.9258 16.7786L15.75 17.1925H15.3633L14.8008 17.0043C13.6523 17.6817 13.207 18.7102 13.4648 20.09L13.6406 22.1596H15.75V22.9874L14.4141 23.4013L14.0273 25.2452L14.2031 26.2612L13.8516 27.3148L14.0273 28.1426L13.8516 28.9705L14.0273 29.5725L13.6406 29.7607V30.4004L14.0273 31.2282L13.0781 31.6422L11.3906 31.2282L10.4414 31.4164L10.0547 31.2282V30.5885C10.5469 29.6353 10.7344 28.6067 10.6172 27.5029L10.2305 26.6751H7.76953C7.39453 28.2053 6.94922 29.7231 6.43359 31.2282L5.30859 31.4164L4.74609 31.2282L4.18359 31.6422ZM9.49219 23.4013C10.125 23.1254 10.7578 22.8494 11.3906 22.5735L11.5664 21.7456L11.0039 20.5039L10.4414 19.4879L10.6172 17.1925H8.33203C8.16797 18.9987 7.98047 20.7924 7.76953 22.5735L9.49219 23.4013ZM15.1523 16.4023V15.9884L14.8008 16.4023H15.1523ZM10.0547 15.1605V14.5208H9.49219V15.1605H10.0547ZM5.13281 13.279L4.74609 12.8651L4.57031 13.5048L5.13281 13.279ZM12.3398 10.6074L11.7422 10.4192V10.8331L12.3398 10.6074ZM13.8516 5.26399L13.6406 4.43614L14.5898 4.21036V5.26399H13.8516Z" fill="#483D3F"/>
<path d="M151.707 32.1355L151.496 31.4958L152.27 31.3077V30.8938L151.496 30.668V30.0659L150.758 29.4262L151.496 28.5984V28.1844L151.109 27.7705H151.883V27.1684L150.371 26.7545L150.934 23.8571L150.371 23.4431C149.996 22.1888 149.363 21.0098 148.473 19.906C147.84 19.3541 147.148 19.1409 146.398 19.2663L145.625 20.9596L145.449 21.5617C146.082 22.1136 146.27 22.8034 146.012 23.6313L145.449 24.4591L146.012 26.1148L145.801 26.5287H144.852V26.9427L145.449 28.1844H144.852L144.113 27.9963L142.988 28.4102L142.391 28.1844L141.266 28.5984V27.3566L141.09 26.7545L141.828 26.5287C141.711 25.7009 141.898 25.0863 142.391 24.6849L143.164 24.4591V23.8571L141.652 23.4431L141.441 21.7874L140.879 21.5617L140.703 20.9596L141.09 20.3199V21.3735L142.039 21.7874V21.3735H142.602V21.7874H142.988L144.113 21.3735V20.7338H142.391V19.6802L142.602 18.4384H142.215L139.367 20.3199L139.191 19.6802H138.629L138.242 21.5617H137.117L136.906 22.3895L136.344 23.0292L135.781 23.2174L135.57 23.6313L134.832 23.8571L134.445 24.271V23.8571L134.621 23.0292H134.059V23.8571H133.32V23.4431L133.496 22.8034H132.934L132.371 23.4431V22.6153L132.16 21.5617C132.676 21.0098 133.309 20.6586 134.059 20.5081L134.27 19.2663L134.445 18.6642H134.832V18.2503L136.906 18.0245C136.648 16.7953 136.965 16.1054 137.855 15.9549L139.191 16.3688V15.9549L138.418 15.1271H138.98V14.7131H139.578L140.527 15.1271V14.525L140.316 14.1111C140.949 14.2365 141.266 14.0233 141.266 13.4714L141.09 12.6435L141.266 12.0414H140.527V11.6275L140.703 10.5739L139.93 10.16L138.629 10.3858C136.73 9.95929 134.832 9.40739 132.934 8.73006V8.31614L134.832 7.90222L135.008 7.4883C135.828 7.71407 136.648 7.71407 137.469 7.4883L138.242 7.90222L138.98 7.67644L139.578 7.90222L140.879 7.4883L141.441 8.09036L141.828 6.66045L141.652 5.1929L141.441 4.36506L142.039 2.29544L141.266 1.4676V0.639753C142.156 0.765184 142.918 0.62721 143.551 0.22583L143.727 0.8279L143.551 1.4676C144.043 2.17001 144.676 2.38325 145.449 2.1073L145.801 1.88152V2.29544L145.449 3.34907L145.625 3.95114L144.5 4.36506V5.00476H145.238V6.24653L145.801 6.66045L145.625 7.07437H145.238V7.67644L145.625 8.50429H146.012L146.188 8.09036H146.574C147.207 8.51683 147.969 8.65481 148.859 8.50429V9.14399L150.16 8.31614L150.547 9.14399L149.809 9.33213V9.97183H150.371L151.32 9.33213L151.883 7.4883H151.109L150.547 7.67644L151.32 7.4883V7.07437L152.445 6.8486L152.832 5.41868L151.883 4.77898L152.621 5.00476C153.137 4.30234 153.84 4.08911 154.73 4.36506L156.031 5.00476L157.578 4.36506L156.98 4.59083V5.1929L157.367 6.24653L157.191 6.8486L156.242 7.26252L156.031 9.14399L155.68 8.31614L155.117 6.8486H154.168V7.26252L153.008 7.67644L152.445 7.4883V8.09036L152.621 9.33213H153.781V10.16L154.344 10.3858V10.7997H155.117L155.469 9.97183L156.242 10.3858L156.629 10.9878C159.137 10.8624 161.41 11.1383 163.449 11.8157L164.188 11.4017C164.562 9.89657 165.008 8.45411 165.523 7.07437L163.625 6.66045L162.852 6.8486L162.5 6.24653H161.938L161.164 6.8486L160.391 6.66045L159.652 6.8486V6.24653H159.266L158.316 6.66045L158.141 5.41868L158.316 4.77898L159.441 5.1929L160.391 4.77898L160.602 4.17691H160.988L162.5 4.59083V4.17691L164.188 5.00476L164.75 3.76299L165.699 3.53721L166.473 4.17691L166.648 4.77898L167.211 5.00476L167.422 4.36506H168.16L168.371 3.76299H168.758L169.496 3.95114L170.27 3.34907L170.445 3.95114L169.883 4.17691L169.496 5.1929L169.707 6.66045C168.559 8.16562 168.172 9.95929 168.547 12.0414L168.934 15.9549L168.758 16.3688L167.984 16.1807V16.5946L168.16 17.1967L168.934 17.4224L169.109 18.6642L168.758 19.4921L169.496 19.2663V20.3199C169.004 20.8718 168.816 21.5617 168.934 22.3895L169.32 23.0292L169.109 24.271C169.742 25.0988 170.129 26.0647 170.27 27.1684L169.32 29.2381L169.109 28.4102L169.32 27.7705H168.547L168.371 29.0123L167.809 29.2381V29.8401H166.859V30.4798H166.086C165.195 29.9279 164.246 29.652 163.238 29.652L162.289 30.0659C161.164 28.9621 159.91 28.197 158.527 27.7705L158.316 26.9427H157.93L157.754 27.5824L157.93 28.5984H158.703L159.09 29.4262L157.578 29.2381L157.191 28.5984H156.418L155.855 28.8241L155.117 30.0659L155.293 30.668C154.543 30.9439 153.781 31.2199 153.008 31.4958L152.832 31.9097L151.707 32.1355ZM154.73 30.0659L153.957 29.652V30.2541L154.73 30.0659ZM142.039 27.9963L141.652 27.5824V27.9963H142.039ZM143.938 27.3566L144.113 26.7545H143.34V27.1684L143.938 27.3566ZM165.699 26.7545V26.3406L164.75 25.9267L165.348 25.5128L165.523 24.271L164.574 22.2014H163.625V21.1477L163.801 20.3199H163.238L162.852 20.9596L160.988 21.1477V21.5617C160.988 20.8593 160.73 20.4453 160.215 20.3199L159.09 20.7338L158.703 20.5081L158.141 19.2663L157.367 19.0781V19.4921L157.754 19.6802L157.191 19.906L156.418 20.9596L156.242 21.5617L155.68 20.5081H155.117L154.906 22.2014L155.117 22.8034L155.469 23.2174C155.094 23.4933 154.977 23.9072 155.117 24.4591L154.73 25.0988L159.266 25.7009L159.828 25.5128L160.215 26.3406L160.777 26.5287L163.238 26.1148C164.012 26.5413 164.832 26.7545 165.699 26.7545ZM158.141 26.5287V26.1148H157.754V26.5287H158.141ZM145.801 25.7009L145.238 25.5128L145.062 26.1148H145.801V25.7009ZM142.777 23.0292V21.9756L142.602 21.5617H142.215V22.3895L142.039 23.0292H142.777ZM135.957 21.3735L136.168 20.7338L135.395 20.3199V21.1477L135.957 21.3735ZM138.242 21.3735V19.0781H137.855L137.469 19.906L137.68 20.5081H136.906V21.1477L138.242 21.3735ZM149.422 20.0941L149.598 19.0781H148.859V19.906L149.422 20.0941ZM161.938 20.0941L161.164 19.4921V19.906L161.938 20.0941ZM140.141 19.906V19.2663H139.578V19.906H140.141ZM160.777 19.4921V18.8524H160.391V19.4921H160.777ZM140.527 18.8524L140.703 18.4384L141.09 17.8364L142.215 17.6106V17.0085L141.441 16.5946L140.703 17.0085V16.1807H139.93V16.5946L140.141 17.6106L139.93 18.0245L138.98 17.6106L138.805 18.6642L138.418 19.2663L139.191 19.4921L140.527 18.8524ZM146.398 18.8524V18.4384H146.012V18.8524H146.398ZM137.117 18.6642L136.344 18.2503V18.8524L137.117 18.6642ZM152.27 18.4384L151.32 17.8364V18.4384H152.27ZM158.703 18.4384L158.141 18.2503V18.6642L158.703 18.4384ZM144.113 18.4384V17.8364H143.34V18.4384H144.113ZM147.91 18.4384V17.6106H147.348V18.4384H147.91ZM161.727 18.4384L165.137 18.0245V17.6106L164.574 16.5946L164.75 14.7131L163.062 14.9389L161.34 14.1111L160.391 13.4714V14.525C159.758 13.6971 159.008 13.3459 158.141 13.4714L156.98 14.9389L157.191 15.3528L155.469 14.525L154.73 15.3528H155.855V15.7668H155.117V16.3688L156.031 16.7827L156.418 17.4224C158.199 17.5479 159.969 17.8865 161.727 18.4384ZM138.418 17.8364L138.031 17.4224V17.8364H138.418ZM146.188 18.0245V17.6106L145.625 17.4224V17.8364L146.188 18.0245ZM150.547 17.8364V17.1967L150.371 16.5946L150.758 15.541L150.16 15.3528L149.984 13.8853L150.371 13.6971L150.547 14.2992H150.934L151.496 13.0574L150.758 12.6435L149.984 12.4554L151.109 12.0414C150.992 11.339 151.191 10.9878 151.707 10.9878L152.621 11.2136L153.395 10.3858C152.762 9.83386 152.07 9.55791 151.32 9.55791V10.16L150.16 10.7997L149.984 11.6275L149.211 10.7997V9.97183L148.262 10.9878L147.699 10.16L147.137 9.97183V10.7997H146.012L145.625 13.4714L147.348 15.3528V15.7668L150.547 17.8364ZM152.059 17.4224L151.496 17.0085V17.6106L152.059 17.4224ZM138.031 17.1967L137.855 16.3688H137.293V17.4224L138.031 17.6106V17.1967ZM154.52 17.4224V16.7827L154.73 15.9549H154.344L153.957 17.4224H154.52ZM142.777 15.7668L142.215 15.1271L142.039 15.9549L142.777 15.7668ZM153.008 14.9389V14.525L152.445 14.2992V14.7131L153.008 14.9389ZM157.367 13.6971V13.0574H156.805V13.6971H157.367ZM145.238 11.4017L144.289 10.7997V11.2136L145.238 11.4017ZM154.52 9.14399L154.344 8.50429H154.73L154.52 9.14399ZM168.371 9.14399V8.50429H167.809V9.14399H168.371ZM154.52 6.8486V6.02075L153.395 7.07437L154.168 7.26252L154.52 6.8486ZM160.215 6.24653L159.828 5.8326V6.24653H160.215ZM161.551 6.02075V5.60683L161.164 4.77898H160.602V5.41868L161.551 6.02075ZM165.348 4.59083L165.523 3.95114H165.137L164.75 4.77898L165.348 4.59083ZM145.449 3.95114V3.34907H144.852V3.95114H145.449Z" fill="#483D3F"/>
<path d="M96.3711 40C97.6367 39.0216 99.043 38.4697 100.59 38.3443L101.152 38.5325C101.035 37.8551 101.223 37.3785 101.715 37.1025C102.488 37.228 103.062 37.0147 103.438 36.4628L103.648 35.8608L101.539 35.635L101.152 36.2747H100.766C98.4688 35.7228 96.3008 34.895 94.2617 33.7912C95.293 33.7912 96.2539 33.5779 97.1445 33.1515L98.6562 33.7912L98.8672 32.5494L99.8164 32.3236L100.59 32.7375V31.7215L100.379 31.3076L99.4297 31.7215L99.043 30.6679L97.3203 30.254V29.6519H98.0938V29.238L97.1445 28.4102V27.3565L97.3203 26.9426H98.0938V26.3405H96.9336L97.707 24.873L96.5469 24.2709C96.8516 23.0166 96.8516 21.7623 96.5469 20.508L97.707 20.3198L97.8828 18.8523H96.9336V18.4384L97.3203 17.1966H97.707V16.7827H97.3203V15.5409L98.0938 14.2992L97.8828 13.8852L98.2695 12.8692L97.8828 11.6275L98.0938 10.5738H98.4805V12.0414H98.8672L99.4297 10.9878L100.203 10.7996V9.746L101.152 11.4017L102.699 12.0414L102.875 11.6275H103.262L104.422 12.0414L105.547 11.8156L105.934 13.4713L105.16 14.2992H104.422L102.488 13.6971L102.102 13.0574H101.539V13.4713L101.715 14.2992L101.363 14.9389C100.848 15.3402 100.648 15.9548 100.766 16.7827H100.379V18.6642L100.59 19.492L100.203 20.7338H99.8164V21.3735L100.59 21.7874L100.766 22.3895L100.59 23.0292H101.152V23.857L100.59 25.0988L101.152 25.7008L100.766 26.7545H101.539L101.926 25.2869V24.4591L103.438 24.0452L104.035 24.2709V25.0988H104.422L104.984 24.873L105.934 25.2869V25.7008L105.371 26.1148V26.7545L105.934 27.9962L104.422 25.7008L103.648 25.2869H103.262V26.3405L103.648 27.1684H103.262L102.488 26.9426V27.5823L103.262 27.9962V28.4102L102.699 29.238H102.102V29.8401L102.312 30.254H101.926V28.8241L102.102 28.1844L100.379 27.3565V28.8241H99.9922V29.4262L100.59 29.8401V30.6679L101.539 30.8937V31.4958H100.977V32.3236H101.363L101.715 34.2051C102.746 34.2803 103.777 34.3431 104.809 34.3932L107.48 33.7912L108.254 34.2051V33.7912L108.043 32.7375H108.43C108.312 33.4399 108.5 33.8539 108.992 33.9793L110.152 33.7912L110.926 33.9793L112.824 33.5654L113.422 33.7912L114.758 33.1515L115.145 34.8072L115.707 35.0329V34.3932L115.531 33.9793L116.27 34.2051L116.48 33.3772H117.254L117.43 30.0659L117.605 29.0122L117.043 28.8241V28.4102H116.656V27.9962H116.094V27.5823L116.48 25.5127H116.094L115.883 24.4591L115.531 23.857L116.27 21.5616L115.32 20.9595L114.547 21.1477L113.984 20.9595L113.035 21.5616L112.824 21.1477H112.438L111.699 21.7874L110.926 20.3198L111.312 19.2662L110.363 18.6642C109.965 19.6174 109.766 20.6585 109.766 21.7874H109.203L108.992 20.3198H108.605L107.867 21.1477H107.48L106.883 20.0941L105.547 20.7338V18.6642C105.945 17.5604 106.777 17.2092 108.043 17.6105L108.605 19.6802H109.203V18.6642L108.992 18.0245L109.977 17.8363L110.715 18.6642L110.926 17.8363H111.699L112.648 19.6802H113.211V19.2662H114.371L114.547 20.3198H115.32C115.578 18.6642 115.965 17.0712 116.48 15.5409H115.531L115.145 15.7667L114.934 14.9389H114.371L114.16 15.3528L113.035 14.111L112.438 13.8852L112.086 14.7131L112.648 15.3528L111.699 15.5409L111.312 14.2992H110.363L106.883 14.7131V15.127L106.32 13.4713L106.707 12.8692H107.094V12.0414H107.48V12.8692H107.867L108.43 12.6435V13.0574H109.203V12.6435H109.766V13.2832L110.715 13.4713V12.8692L110.539 12.4553L111.699 12.8692V13.4713L111.488 14.111L112.086 14.2992L112.648 13.0574L113.211 12.8692V13.6971H113.598L113.984 13.0574H114.547L115.145 14.7131L116.48 15.3528V14.7131L115.883 13.6971L115.32 13.0574C116.281 13.3333 117.242 13.3333 118.203 13.0574L118.977 13.2832V13.8852H119.363L119.715 13.6971L120.102 14.9389H119.715L118.766 14.7131L118.379 16.5945L119.539 17.0085V16.5945L119.926 18.0245L118.977 18.8523L119.715 20.9595L118.59 21.3735V22.3895L119.539 22.8034L119.152 24.0452L119.715 24.6849L120.102 25.0988C119.727 25.6507 119.598 26.3405 119.715 27.1684L119.926 27.7705C119.551 28.5983 119.363 29.5641 119.363 30.6679L119.539 32.1355L118.977 35.0329L118.203 35.2211V36.0489L118.379 36.6886C118.262 37.7924 117.816 38.6203 117.043 39.1722L118.59 39.5861L119.152 39.1722L119.715 40H114.371L114.16 39.3603L113.598 40H113.211L112.086 39.3603L111.488 38.3443L110.715 37.7046H112.086V37.2907L110.926 36.6886L110.715 35.635H108.254L107.48 36.0489L107.27 36.6886L106.145 37.7046L105.547 37.9304L105.371 38.3443L104.422 39.1722V38.3443H104.035L103.438 39.3603L103.648 39.7742H103.086L102.102 40L101.539 39.7742L96.3711 40ZM116.27 39.1722V38.1185H115.531V38.5325L115.707 39.3603L116.27 39.1722ZM117.254 38.1185L117.43 37.5165H117.043L116.656 38.3443L117.254 38.1185ZM115.145 37.7046V37.2907L114.547 37.1025V37.5165L115.145 37.7046ZM114.16 37.1025L114.371 36.2747H113.984L113.598 37.2907L114.16 37.1025ZM116.656 37.2907V36.8768L115.883 36.2747L116.656 36.0489V35.2211L115.883 35.0329L115.707 35.4468L115.145 35.635V36.2747L116.094 37.2907H116.656ZM111.875 36.4628V36.0489L111.102 35.635V36.4628H111.875ZM106.883 28.1844L107.094 27.1684L106.707 25.9266L107.094 25.2869H107.48L107.656 24.2709L108.605 27.1684L109.203 27.3565L109.977 27.1684V26.3405L109.203 26.1148L108.992 25.2869L109.766 25.0988L109.977 25.9266L111.312 26.7545H110.926V27.1684H110.539L109.766 26.9426V27.5823L110.715 28.1844H109.59L107.656 27.1684L107.27 28.1844H106.883ZM117.992 28.4102V27.5823H117.605L117.43 28.4102H117.992ZM111.875 27.7705V27.1684L112.648 26.3405L113.211 26.5287V25.7008L113.984 27.7705H111.875ZM107.48 26.3405L107.656 25.7008H107.27L107.094 26.3405H107.48ZM111.488 25.9266L111.312 25.0988H112.086L111.488 25.9266ZM103.824 24.873V24.4591H103.438V24.873H103.824ZM117.254 24.873V24.2709H116.656V24.873H117.254ZM105.371 24.4591V23.857L105.758 24.4591H105.371ZM117.605 23.857L117.254 23.4431V23.857H117.605ZM98.2695 23.2173L97.3203 22.6152V23.0292L98.2695 23.2173ZM99.6055 22.8034V22.2013H98.8672V22.8034H99.6055ZM98.2695 22.3895V21.7874H97.707V22.3895H98.2695ZM97.8828 21.7874V21.1477L97.3203 21.7874H97.8828ZM104.598 21.5616L103.648 21.1477L104.035 19.6802L104.211 20.3198H104.809L104.598 21.5616ZM113.211 21.1477V20.508H112.648V21.1477H113.211ZM102.875 20.508L102.488 20.3198L101.926 19.9059L101.539 18.0245L103.438 17.4224L104.035 17.6105V17.0085H104.422L104.598 17.6105L104.422 18.8523L103.438 18.4384L103.262 17.8363H102.699V18.2502L103.262 19.492L102.875 20.508ZM108.254 20.3198V19.6802H107.656L107.094 18.0245L106.531 17.8363L105.758 18.6642V19.2662L106.883 19.6802L108.254 20.3198ZM102.488 19.0781L101.926 18.4384V18.8523L102.488 19.0781ZM98.0938 18.6642V17.8363H97.5312V18.6642H98.0938ZM119.152 17.6105L118.766 17.1966V17.6105H119.152ZM102.312 14.5249L102.102 14.111H102.488L102.699 14.5249H102.312ZM110.152 14.111V13.4713H109.59V13.8852L110.152 14.111ZM107.48 13.8852V13.4713H107.094V13.8852H107.48ZM105.16 13.0574V12.6435L105.371 12.0414H104.984L104.809 13.0574H105.16ZM115.707 9.33208L116.094 8.91816V9.33208H115.707ZM114.547 9.14393L112.824 8.73001V7.67639C113.855 6.99906 114.371 6.03324 114.371 4.77893H114.758L115.32 0.827846L115.883 0.639699L116.867 1.69332L116.094 1.88147L115.883 2.29539L115.32 2.93509H114.934V3.53716H115.531L116.094 3.34901L116.27 2.70931L117.254 2.52117L117.816 3.76294L117.605 4.17686L118.203 5.60677L117.605 5.83255V6.43462H117.992L118.766 6.24647L118.977 7.07432L118.379 8.31609H117.816L117.43 7.67639H115.883V8.09031L114.934 8.50423V9.14393H114.547ZM111.488 8.73001L111.312 7.90216H110.926L109.977 8.31609L107.656 7.48824L107.094 7.67639L106.531 7.26247L105.934 8.09031L105.16 8.50423V7.67639H104.598V8.31609H104.211L103.648 6.6604H103.086L102.699 7.48824L102.102 8.09031C100.836 7.81436 99.6289 7.53841 98.4805 7.26247V6.84854L98.6562 6.43462L97.8828 4.59078C98.5391 4.71621 98.9258 4.50298 99.043 3.95108L97.707 3.53716L97.5312 2.52117L99.2539 2.10724V1.69332L99.043 1.05362L99.2539 0.639699L101.152 0.413923L101.926 0L102.875 0.639699V0.225776L104.598 1.24177L104.809 2.10724H104.422L103.086 1.24177L102.312 1.46754V2.10724H100.766V3.34901L101.363 5.41863L102.312 5.60677C102.57 5.05488 103.074 4.85419 103.824 5.0047V5.60677H105.16L105.758 6.24647L105.934 5.60677L106.883 5.41863L107.867 5.60677V6.0207H108.43L108.992 5.83255L109.203 6.6604L109.766 6.84854V5.83255L110.363 6.6604H111.102L112.086 6.43462L112.648 6.6604L111.875 6.84854V7.26247L112.086 8.31609L111.488 8.73001ZM117.992 7.67639L117.605 7.26247V7.67639H117.992ZM117.043 6.84854L116.656 6.43462V6.84854H117.043ZM106.707 6.6604L106.883 6.0207H106.32V6.6604H106.707ZM110.715 2.70931V1.88147L109.766 1.69332L108.992 2.10724L108.43 1.88147L107.656 2.52117L107.27 1.05362L108.816 1.69332L109.379 1.46754V1.05362H109.766L110.363 1.24177L111.488 0.827846L110.926 1.88147L111.312 2.10724V2.70931H110.715ZM118.59 2.52117L117.605 1.88147L117.43 0.639699L117.992 0.413923V0.827846L117.816 1.46754L118.59 2.52117ZM113.984 2.29539L113.598 2.10724V1.69332L113.984 2.29539ZM105.547 2.10724V1.69332L105.16 0.827846H105.934L106.32 0.639699V1.69332L105.547 2.10724ZM101.152 1.69332L100.59 1.46754V1.88147L101.152 1.69332Z" fill="#483D3F"/>
<path d="M184.336 36.3867L183.211 35.2266L183 33.8906C183 32.8594 183.258 32.0859 183.773 31.5703H184.16V31.1836C183.527 30.668 183.328 29.9648 183.562 29.0742L183.773 28.3008H184.336V27.7383L183.773 27.5273V26.9648L184.898 25.5937L184.16 25.418L183.949 23.6953C184.09 22.5234 184.348 21.4219 184.723 20.3906L184.547 17.8945L184.898 15.3984H185.496L185.672 14.0625L185.109 13.8516C185.672 11.6016 185.602 9.36328 184.898 7.13672L185.496 6.36328L184.723 5.76562V1.33594H185.496L189.855 2.88281L190.805 2.70703L191.754 3.09375L191.965 2.49609L193.477 3.65625V2.88281H194.039L194.812 3.09375V2.70703H195.375V3.26953L195.023 4.21875L196.148 4.60547L197.098 4.21875V4.60547L195.973 5.58984V6.15234L196.711 6.53906L197.309 6.36328L197.66 7.52344L197.098 8.47266C197.473 9.50391 197.789 10.5352 198.047 11.5664L197.484 11.7422V12.3047C198.117 12.3047 198.691 12.5039 199.207 12.9023L199.77 12.6914V13.0781L198.82 14.2383L199.207 15.3984L198.258 15.9961L197.484 15.6094V15.9961H196.711V16.5586H195.762L194.039 15.9961L193.687 17.5078L193.09 17.7187L192.703 17.5078V17.1211L194.25 15.2227V14.625L193.09 14.2383L192.914 15.2227L192.141 14.4492H191.578L192.352 16.5586H191.578L191.016 16.3477V18.1055H190.629V17.5078H189.855V17.1211L190.805 16.3477L189.68 15.7852L188.133 17.332L188.52 18.1055H187.957L187.781 21.375L187.957 21.9375H187.57V22.5352L187.781 23.0977L187.57 24.2578L187.781 24.8203C187.781 27.9141 187.523 30.8672 187.008 33.6797L187.184 34.8398L186.445 35.0508L186.234 35.6133L186.445 36H185.496L184.723 35.6133L184.336 36.3867ZM213.867 32.9062L213.305 32.1328L212.707 31.957L212.531 30.4102L213.094 29.6367L212.531 29.25V28.6875L213.094 27.3516L213.48 26.5781L213.305 26.1914L213.48 25.5937L212.707 25.418V24.8203L212.918 23.8711L212.707 23.3086L213.48 21.375L212.918 20.9883V20.0391L213.094 19.2656H211.582V18.8789H211.195L210.809 19.0547L209.297 18.8789V19.2656H208.523L207.012 18.668L205.676 18.8789L203.391 17.8945L203.18 16.3477H204.902L206.063 16.9453L206.449 16.7344L207.012 16.9453L207.188 16.1719H206.801V15.6094L207.398 15.3984V15.0117L207.188 14.625L208.348 15.3984L207.574 16.9453H207.961L208.348 16.3477L208.523 17.1211L209.684 17.332L210.07 15.7852L210.633 16.3477H211.195L211.758 15.3984L212.145 16.3477L212.707 16.5586L213.094 15.6094L212.918 14.8359L213.48 11.3555L212.531 10.582L212.355 10.9687H211.969V10.1953H211.195V9.80859H211.969V9.42187L211.371 7.69922C210.996 8.47266 210.621 9.24609 210.246 10.0195L210.422 10.793H209.684L208.91 10.582L208.348 10.793L207.398 10.1953L206.801 12.1289H207.188V12.5156L206.801 13.0781L207.188 13.6758L207.012 14.0625L206.449 14.2383L206.238 14.625L204.34 15.0117L203.391 14.4492L202.617 4.42969L203.004 3.48047L204.164 2.70703V2.10937L203.953 1.72266L204.34 1.16016L205.676 0.949219L206.625 1.16016V0.5625H207.012L208.523 0.949219L208.734 0.175781L209.473 0V0.773437H210.246V0.386719C210.996 0.574219 211.758 0.574219 212.531 0.386719L212.707 0.949219H213.305L213.656 0.386719L214.43 0.773437L215.203 0.5625L216.539 1.54687L216.152 2.49609L216.715 2.70703V3.09375L216.539 3.65625L215.941 4.21875L216.539 6.36328L216.926 6.53906V6.92578H216.539V7.52344L216.926 8.26172L216.328 9.80859L216.926 10.1953L216.539 10.9687L217.102 12.5156L216.539 11.9531L215.941 11.5664L215.766 12.1289H216.152V12.5156L215.766 13.0781L215.941 13.4648H216.926L217.102 15.2227L216.328 15.3984V15.7852L217.488 16.3477V17.332H216.539V17.7187L217.664 20.2148L216.328 20.6016V21.1641L217.664 22.3242V23.4844L217.102 25.207L217.488 26.7539L217.277 27.3516L217.488 28.3008L217.277 30.2344L217.488 30.7969L216.539 31.0078L216.152 32.3437H215.59L214.816 32.1328L213.867 32.9062ZM214.254 32.1328L213.48 31.3945V31.7812L214.254 32.1328ZM216.715 28.3008L217.102 27.5273H215.941V27.9141L216.715 28.3008ZM213.48 25.207V24.8203H213.094V25.207H213.48ZM206.801 18.4922L207.012 17.8945H205.852V18.4922H206.801ZM209.859 18.4922L209.473 18.1055V18.4922H209.859ZM212.355 18.2812V17.7187H211.758V18.2812H212.355ZM208.734 17.7187L208.137 17.332V17.8945L208.734 17.7187ZM195.199 17.5078L194.426 17.332V16.9453H195.023L195.199 17.5078ZM204.164 17.332L203.777 16.9453V17.332H204.164ZM191.754 15.7852L191.578 14.8359H191.016V15.6094L191.754 15.7852ZM195.023 15.7852V15.3984H194.637V15.7852H195.023ZM195.586 15.3984L195.973 14.625H195.586L195.023 15.6094L195.586 15.3984ZM208.91 15.0117L210.07 14.4492V14.8359L208.91 15.0117ZM188.344 14.2383V13.8516H187.957V14.2383H188.344ZM190.066 14.0625L190.242 13.6758C191.062 13.5586 191.824 13.6875 192.527 14.0625L193.687 13.2891L194.637 13.6758L196.148 12.1289H195.586L195.023 12.3047L195.375 11.5664H194.812L194.426 9.63281H194.039L193.687 10.4062H192.914L192.352 8.85937H193.301L193.09 9.63281H193.477L193.863 8.85937H194.25L194.637 9.03516L194.812 7.13672L193.477 6.92578L192.914 7.13672L192.703 6.36328C191.953 6.62109 191.52 6.42187 191.402 5.76562L192.141 5.37891L192.352 4.60547L191.965 4.42969V4.04297H191.402L191.016 5.58984L190.418 5.76562V6.36328L191.016 6.75H190.418L188.344 6.36328L188.133 8.08594L189.117 8.47266L190.242 8.85937L190.418 8.26172L191.016 8.08594V8.47266L190.805 9.80859H191.191V10.1953L191.016 11.9531H191.402L191.016 12.3047L189.68 11.5664H189.293L188.344 12.5156V14.0625H189.117V13.6758L189.469 14.2383L190.066 14.0625ZM193.301 11.9531L192.527 11.5664H193.687L193.301 11.9531ZM189.68 10.0195L189.117 9.63281V8.85937H188.73L188.344 10.4062H188.73L189.68 10.0195ZM209.859 9.80859V9.24609H209.297V9.80859H209.859ZM208.91 9.42187L209.086 8.64844H208.523V9.42187H208.91ZM213.48 9.42187L213.094 9.03516L212.918 9.63281L213.48 9.42187ZM212.355 8.64844V7.91016L212.918 8.08594C213.41 7.05469 213.656 5.89453 213.656 4.60547C212.133 3.97266 210.492 3.46875 208.734 3.09375L207.398 3.65625L206.449 3.48047L205.289 3.86719L205.113 5.37891L205.852 5.76562L206.238 6.75L207.398 6.92578L210.07 6.36328L210.422 7.13672L211.195 7.3125L211.758 8.64844H212.355ZM208.91 8.26172V7.69922H208.348V8.26172H208.91ZM204.164 6.36328L204.34 5.58984H203.777L203.391 6.36328H204.164ZM190.418 5.76562L189.68 5.37891V6.15234H190.418V5.76562ZM193.477 5.37891L192.914 4.81641V5.58984L193.477 5.37891ZM204.727 5.20312V4.81641L204.516 4.21875H203.953L203.777 4.81641L204.727 5.20312ZM190.066 4.99219V4.60547H189.68V4.99219H190.066ZM204.902 2.70703L204.516 2.32031V2.70703H204.902ZM204.902 1.93359L204.34 1.72266V2.10937L204.902 1.93359Z" fill="#483D3F"/>
<path d="M194.868 36.3164L194.618 35.5508L194.352 35.1133L194.43 33.9414V33.5977L194.68 33.0039L194.587 31.8008H194.759V31.6289L194.587 31.1914L194.337 31.1133V30.5039L194.509 29.9883L193.821 29.8164C193.717 29.5872 193.493 29.5039 193.149 29.5664L192.977 29.6445L192.384 29.4727L192.462 29.1289C192.222 29.1081 191.998 29.1654 191.79 29.3008L191.524 28.7852H191.696V28.6133C191.363 28.2695 191.222 27.8372 191.274 27.3164L190.852 27.2383L190.93 26.9727L191.618 26.8945L192.04 27.0664V26.7227L191.79 26.3789L191.962 26.2852V25.9414L191.524 25.5195L191.696 25.082H191.446L191.196 25.1758L191.024 24.7383L191.102 24.3945L190.852 24.3164V23.9727L191.024 23.5352L190.759 22.7695L191.696 22.6758V21.9883H192.212V21.8164H192.384L192.805 21.9102V21.6445H192.977V21.1289L193.493 21.3008L193.665 20.707L193.571 20.5352H193.915L194.165 20.6133V20.4414L194.087 20.0977H194.43V19.832L194.337 19.6602C194.847 19.9518 195.243 20.3268 195.524 20.7852V21.0508C194.847 21.8529 194.081 22.5404 193.227 23.1133H193.055V23.5352L193.493 23.8008L193.743 23.707C193.972 24.0508 194.311 24.1654 194.759 24.0508L194.93 23.5352L195.618 23.3633L195.868 23.457C196.097 22.9362 196.326 22.4206 196.555 21.9102H196.727L197.055 22.082V22.2539L196.555 22.5039L196.462 22.7695L196.727 22.8477L196.977 22.7695L197.055 23.5352L197.321 23.6289L197.743 23.457V23.6289L196.977 23.8789V23.6289H196.805V23.1133H196.462L196.134 23.2852V23.5352L196.555 23.8008V23.9727L196.462 24.3164L196.634 24.6602L196.555 25.082L196.29 25.2539L195.962 25.9414H195.79L195.618 25.6914H195.274V25.9414H195.446V26.3789V26.207H195.102V26.8945H194.852L194.68 27.582H194.93V27.2383L195.696 27.1445L195.868 27.4883H196.04L196.134 26.9727H196.462L196.805 27.4102H197.321L198.399 27.6602H198.571L197.743 26.5508H197.571L197.227 26.6289L196.977 25.9414H197.227L197.321 26.207H197.915L197.993 26.5508L197.337 27.6289L198.259 27.0664H198.587L198.852 26.9727L198.68 27.0664V27.4883C198.399 27.4362 198.259 27.5247 198.259 27.7539L198.43 28.0977L197.993 28.2695V28.0977L198.087 27.7539H198.571L198.493 28.0977L198.571 28.3633H198.321V28.8789H198.149L197.899 28.7852L197.634 28.8789V28.707H197.462C197.128 29.0508 196.019 29.4779 196.134 29.9883C196.352 30.5091 196.462 31.082 196.462 31.707L196.384 32.0508L196.634 32.2227V32.4883L196.462 33.3477H196.29V33.5977H196.462L195.634 35.8945L195.29 35.9727L195.212 36.1445L194.868 36.3164ZM192.212 34.6289L190.93 33.8633L190.852 33.1758L191.102 32.7383L190.759 32.4883L190.852 32.2227L190.587 31.6289L190.759 30.8477L190.68 30.5977L191.79 31.1914C192.3 32.1706 192.581 33.2331 192.634 34.3789L192.555 34.5508L192.212 34.6289ZM195.962 33.8633V33.3477H195.696V33.8633H195.962ZM195.196 33.4258V33.0039H195.024L194.68 33.5977H194.93L195.196 33.4258ZM191.352 33.1758L191.102 33.082V33.2539L191.352 33.1758ZM191.868 32.832L191.696 32.6602V32.832H191.868ZM195.618 32.6602V32.3164L195.274 32.0508H195.696V31.8008L195.446 31.1914L195.524 30.8477L195.274 30.7695L195.102 31.1133L194.852 31.1914V31.457H195.102V31.8008L195.024 32.3164L195.618 32.6602ZM191.696 32.4883V32.3164L191.352 32.2227V32.3945L191.696 32.4883ZM199.962 31.1133L199.618 30.8477L199.79 30.2539L199.696 30.082H199.524V30.332L199.102 30.082L198.68 30.1602L198.165 28.8789H197.993V28.707H198.43C198.43 28.4154 198.54 28.181 198.759 28.0039L199.196 27.9258L199.274 28.1758L198.93 28.2695L198.852 28.8789L199.102 28.957L199.196 28.5352H199.446L199.618 29.0508L199.868 29.1289V28.8789L199.962 29.1289L199.868 29.7383L200.134 30.6758L200.462 30.7695L200.04 30.8477L199.962 31.1133ZM195.618 30.5977V30.332L195.79 29.9883L195.696 29.3008H195.524L195.196 30.082V30.4258L195.618 30.5977ZM196.212 30.5977V30.332H195.962V30.5977H196.212ZM199.696 29.8164L199.274 29.4727V29.6445L199.696 29.8164ZM198.93 29.4727V29.1289L198.68 29.0508L198.587 29.3008L198.93 29.4727ZM193.915 29.3008V29.0508L193.571 28.957V29.2227L193.915 29.3008ZM193.743 28.7852V28.5352H193.399V28.7852H193.743ZM196.134 28.6133L196.212 28.2695L195.962 28.1758L195.868 28.707L196.134 28.6133ZM192.134 28.5352V28.3633H191.962V28.5352H192.134ZM194.259 28.4414V28.2695H194.087V28.4414H194.259ZM195.79 28.2695V27.9258L195.868 27.582H195.618L195.524 27.9258H195.274V28.1758L195.79 28.2695ZM197.634 27.9258V27.7539H197.462V27.9258H197.634ZM198.227 27.9258V27.7539H198.055V27.9258H198.227ZM197.993 27.4883L197.821 27.3164V27.4883H197.993ZM193.399 27.0664V26.8945H193.227V27.0664H193.399ZM194.43 26.9727L194.509 26.1133H193.993V26.3789H194.165V26.6289L194.087 26.8945L194.43 26.9727ZM197.087 27.9727V27.8008H196.915V27.9727H197.087ZM192.634 26.457V26.207L192.384 26.0352V25.7695L192.462 25.4258L191.962 25.3477V25.5977L192.212 26.2852L192.634 26.457ZM194.087 26.0352V25.7695H193.821V26.0352H194.087ZM195.868 24.6602L195.618 24.5664V24.7383L195.868 24.6602ZM195.79 24.3945V24.2227L195.868 23.8789H195.446V24.1445L195.524 24.3945H195.79ZM195.352 23.8789V23.5352H195.102V23.8008L195.352 23.8789ZM191.446 23.1914V23.0195L191.102 22.9414V23.1133L191.446 23.1914ZM197.571 23.0195V22.8477L197.665 22.5977L197.493 22.332L197.743 22.8477L197.571 23.0195ZM192.384 22.9414C192.436 22.5352 192.352 22.306 192.134 22.2539V22.4258L192.384 22.9414ZM192.977 22.5039V22.1602H192.727V22.5039H192.977ZM193.571 22.082V21.8164H193.321V21.9883L193.571 22.082ZM194.43 21.7383V21.4727H194.259L194.165 21.7383H194.43ZM193.993 21.3945V21.1289H193.743V21.3945H193.993ZM194.43 21.1289V20.8789H193.993L193.915 21.1289H194.43ZM194.43 20.5352V20.2695H194.165V20.5352H194.43Z" fill="#483D3F"/>
<path d="M191.014 32.923L191.474 32.7927L191.691 33.1696L191.963 33.0924L192.986 33.0421C192.791 33.1521 192.569 33.2216 192.321 33.2508L192.01 33.2577L191.993 33.5224L192.181 33.4693L192.432 33.3169L192.734 33.6697L193.134 33.6537L193.836 33.276L194.113 33.5386L194.823 33.5157L195.027 33.198C194.732 32.6321 194.431 32.1544 194.124 31.7649L193.541 31.849C193.521 31.5623 193.387 31.4544 193.137 31.5252L193.184 31.6905L192.912 31.7678L192.818 31.4371L192.886 31.8845L191.312 32.2214L191.146 32.3497L191.155 32.7045L191.014 32.923Z" fill="#483D3F"/>
<path d="M205.868 36.3164L205.618 34.5508L205.352 34.1133L205.43 33.9414V33.5977L205.68 33.0039L205.587 31.8008H205.759V31.6289L205.587 31.1914L205.337 31.1133V30.5039L205.509 29.9883L204.821 29.8164C204.717 29.5872 204.493 29.5039 204.149 29.5664L203.977 29.6445L203.384 29.4727L203.462 29.1289C203.222 29.1081 202.998 29.1654 202.79 29.3008L202.524 28.7852H202.696V28.6133C202.363 28.2695 202.222 27.8372 202.274 27.3164L201.852 27.2383L201.93 26.9727L202.618 26.8945L203.04 27.0664V26.7227L202.79 26.3789L202.962 26.2852V25.9414L202.524 25.5195L202.696 25.082H202.446L202.196 25.1758L202.024 24.7383L202.102 24.3945L201.852 24.3164V23.9727L202.024 23.5352L201.759 22.7695L202.696 22.6758V21.9883H203.212V21.8164H203.384L203.805 21.9102V21.6445H203.977V21.1289L204.493 21.3008L204.665 20.707L204.571 20.5352H204.915L205.165 20.6133V20.4414L205.087 20.0977H205.43V19.832L205.337 19.6602C205.847 19.9518 206.243 20.3268 206.524 20.7852V21.0508C205.847 21.8529 205.081 22.5404 204.227 23.1133H204.055V23.5352L204.493 23.8008L204.743 23.707C204.972 24.0508 205.311 24.1654 205.759 24.0508L205.93 23.5352L206.618 23.3633L206.868 23.457C207.097 22.9362 207.326 22.4206 207.555 21.9102H207.727L208.055 22.082V22.2539L207.555 22.5039L207.462 22.7695L207.727 22.8477L207.977 22.7695L208.055 23.5352L208.321 23.6289L208.743 23.457V23.6289L207.977 23.8789V23.6289H207.805V23.1133H207.462L207.134 23.2852V23.5352L207.555 23.8008V23.9727L207.462 24.3164L207.634 24.6602L207.555 25.082L207.29 25.2539L206.962 25.9414H206.79L206.618 25.6914H206.274V25.9414H206.446V26.3789V26.207H206.102V26.8945H205.852L205.68 27.582H205.93V27.2383L206.696 27.1445L206.868 27.4883H207.04L207.134 26.9727H207.462L207.805 27.4102H208.321L208.399 27.6602H208.571L208.743 26.5508H208.571L208.227 26.6289L207.977 25.9414H208.227L208.321 26.207H208.915L208.993 26.5508L209.337 26.6289L209.259 27.0664H209.587L209.852 26.9727L209.68 27.0664V27.4883C209.399 27.4362 209.259 27.5247 209.259 27.7539L209.43 28.0977L208.993 28.2695V28.0977L209.087 27.7539H208.571L208.493 28.0977L208.571 28.3633H208.321V28.8789H208.149L207.899 28.7852L207.634 28.8789V28.707H207.462C207.128 29.0508 207.019 29.4779 207.134 29.9883C207.352 30.5091 207.462 31.082 207.462 31.707L207.384 32.0508L207.634 32.2227V32.4883L207.462 33.3477H207.29V33.5977H207.462L207.634 35.8945L207.29 35.9727L207.212 36.1445L205.868 36.3164ZM210.868 35.1445V34.7227L210.446 34.6289V34.3789L210.79 34.2852L211.134 34.3789V33.8633H211.384L211.462 34.7227L211.384 34.8945L211.04 34.9727L210.868 35.1445ZM210.024 34.457V34.2852L210.102 34.0352L209.68 33.8633L209.587 33.5195L209.759 32.832L209.43 32.6602L209.259 30.0508L209.509 29.8008C210.134 29.9154 210.675 30.056 211.134 30.2227L211.212 32.7383C211.493 32.6862 211.634 32.7747 211.634 33.0039H211.462V33.2539H211.805L210.962 33.3477V33.1758H210.352C210.186 33.457 210.134 33.7695 210.196 34.1133L210.274 34.3789L210.024 34.457ZM206.962 33.8633V33.3477H206.696V33.8633H206.962ZM206.196 33.4258V33.0039H206.024L205.68 33.5977H205.93L206.196 33.4258ZM210.618 33.0039V32.6602H210.446L210.352 32.9102L210.618 33.0039ZM206.618 32.6602V32.3164L206.274 32.0508H206.696V31.8008L206.446 31.1914L206.524 30.8477L206.274 30.7695L206.102 31.1133L205.852 31.1914V31.457H206.102L207.102 31.8008L207.024 32.3164L206.618 32.6602ZM210.962 31.1133L210.618 30.8477L210.79 30.2539L210.696 30.082H210.524V30.332L210.102 30.082L209.68 30.1602L209.165 28.8789H208.993V28.707H209.43C209.43 28.4154 209.54 28.181 209.759 28.0039L210.196 27.9258L210.274 28.1758L209.93 28.2695L209.852 28.8789L210.102 28.957L210.196 28.5352H210.446L210.618 29.0508L210.868 29.1289V28.8789L210.962 29.1289L210.868 29.7383L211.134 30.6758L211.462 30.7695L211.04 30.8477L210.962 31.1133ZM206.618 30.5977V30.332L206.79 29.9883L206.696 29.3008H206.524L206.196 30.082V30.4258L206.618 30.5977ZM207.212 30.5977V30.332H206.962V30.5977H207.212ZM210.696 29.8164L210.274 29.4727V29.6445L210.696 29.8164ZM209.93 29.4727V29.1289L209.68 29.0508L209.587 29.3008L209.93 29.4727ZM204.915 29.3008V29.0508L204.571 28.957V29.2227L204.915 29.3008ZM204.743 28.7852V28.5352H204.399V28.7852H204.743ZM207.134 28.6133L207.212 28.2695L206.962 28.1758L206.868 28.707L207.134 28.6133ZM203.134 28.5352V28.3633H202.962V28.5352H203.134ZM205.259 28.4414V28.2695H205.087V28.4414H205.259ZM206.79 28.2695V27.9258L206.868 27.582H206.618L206.524 27.9258H206.274V28.1758L206.79 28.2695ZM207.634 27.9258V27.7539H207.462V27.9258H207.634ZM208.227 27.9258V27.7539H208.055V27.9258H208.227ZM208.993 27.4883L208.821 27.3164V27.4883H208.993ZM204.399 27.0664V26.8945H204.227V27.0664H204.399ZM205.43 26.9727L205.509 26.1133H204.993V26.3789H205.165V26.6289L205.087 26.8945L205.43 26.9727ZM209.087 26.9727V26.8008H208.915V26.9727H209.087ZM203.634 26.457V26.207L203.384 26.0352V25.7695L203.462 25.4258L202.962 25.3477V25.5977L203.212 26.2852L203.634 26.457ZM205.087 26.0352V25.7695H204.821V26.0352H205.087ZM206.868 24.6602L206.618 24.5664V24.7383L206.868 24.6602ZM206.79 24.3945V24.2227L206.868 23.8789H206.446V24.1445L206.524 24.3945H206.79ZM206.352 23.8789V23.5352H206.102V23.8008L206.352 23.8789ZM202.446 23.1914V23.0195L202.102 22.9414V23.1133L202.446 23.1914ZM208.571 23.0195V22.8477L208.665 22.5977L208.493 22.332L208.743 22.8477L208.571 23.0195ZM203.384 22.9414C203.436 22.5352 203.352 22.306 203.134 22.2539V22.4258L203.384 22.9414ZM203.977 22.5039V22.1602H203.727V22.5039H203.977ZM204.571 22.082V21.8164H204.321V21.9883L204.571 22.082ZM205.43 21.7383V21.4727H205.259L205.165 21.7383H205.43ZM204.993 21.3945V21.1289H204.743V21.3945H204.993ZM205.43 21.1289V20.8789H204.993L204.915 21.1289H205.43ZM205.43 20.5352V20.2695H205.165V20.5352H205.43Z" fill="#483D3F"/>
<path d="M207.554 32.6451L206.915 33.9942L207.026 34.3288L207.205 34.39C208.34 34.2277 209.371 33.8454 210.296 33.243L210.78 32.0816L210.539 32.1834L209.745 32.0877L209.179 32.4093L208.906 32.3415L208.69 32.7078L208.231 32.5011L207.554 32.6451Z" fill="#483D3F"/>
</svg>
