<svg width="207" height="40" viewBox="0 0 207 40" fill="none" xmlns="http://www.w3.org/2000/svg">
<path d="M192.268 37.4091L190.751 36.9948L190.41 36.2697L191.091 36.4251V36.1402L190.751 34.5865H191.587V34.1463H191.091V33.7319L190.101 33.4471L189.915 32.8774L190.101 32.0228C189.75 31.5567 189.636 30.987 189.76 30.3137L190.255 29.6145L189.915 28.9153H190.41V28.4751L189.419 28.1903H189.76V27.4911H189.079V27.0508L189.76 26.766L189.915 26.2222H189.079L188.398 26.3517L188.243 26.0668H188.924V25.4971L188.738 25.0828L189.915 24.5131L190.101 23.9434H189.76L189.574 24.2282L189.419 23.2442H189.76L191.091 23.9434V23.3737L189.76 22.2342H190.101L190.937 22.3896L191.091 21.6645L189.76 21.2502V20.6805L190.101 20.1108H190.596L191.773 20.551V19.4116L190.41 18.9714V18.6865L189.915 18.4017H190.41V18.1168L190.255 17.7025L190.751 17.573L190.937 16.7185L190.101 16.2782L190.41 16.1488L191.246 16.4336L191.091 15.8639H190.751L190.255 15.4237L190.937 14.4396L191.246 14.1548L191.432 14.7245L192.268 14.854V15.7085H191.773L191.587 16.7185L191.773 17.1328H192.423L193.104 17.0033L193.599 17.1328V17.832H194.435L194.621 19.5411L193.94 19.4116V19.6965L194.621 20.551L193.94 20.3956V20.9654L194.435 21.6645L194.962 22.2342H194.435L193.94 22.1048V22.3896L194.281 22.804H194.776L196.138 22.5191L196.634 22.6745L199.647 22.1048L199.801 22.5191L199.461 23.3737L199.801 23.788L197.315 24.3847L196.974 24.799L195.798 25.0839L195.302 25.6525C195.86 26.2222 197.242 25.824 197.448 26.48C199.12 27.5849 200.689 28.7675 202.155 30.0277H202.836L203.331 30.4421L204.012 30.7269V31.0118H205.003L205.344 32.7209C203.465 33.2043 201.566 33.2043 199.647 32.7209L197.965 31.425V31.1401L199.461 31.2966L197.625 30.2856L196.974 30.5704L196.789 31.1401V30.5704H196.293L196.953 29.6888L195.302 31.8663L195.117 32.436L194.962 32.7209L195.457 35.7L195.117 36.5546L195.302 36.8394L194.126 37.1243L193.599 36.9948L192.268 37.4091ZM202.495 32.5655L202.65 32.1512H202.155L202 32.5655H202.495ZM191.246 33.2917L190.937 33.0069V33.2917H191.246ZM179.171 33.0069L177.344 32.1782V31.8933L177.684 31.3236L179.171 30.4691L179.356 30.1842L180.347 29.8994L180.533 28.6305L181.524 28.3456L181.864 27.6206H181.369V27.3357L181.71 27.2062L181.864 27.6206H182.36V26.6365L182.205 26.2222H181.864L181.183 26.3517L180.688 26.9214V26.6365L180.874 25.782L181.524 25.0828L180.688 24.7979V25.0828L180.192 24.9274V24.6425L180.347 24.3577L181.369 24.0728V23.6585L179.852 22.9593L179.697 22.3896L181.183 22.1048L181.369 22.6745L183.382 22.804V23.0888H182.886V23.529H183.382L184.218 23.3737L184.372 23.6585L184.063 24.0728L184.899 24.3577L185.549 24.7979V25.0828H185.054V25.3676L185.89 25.4971C186.013 26.0668 186.241 26.5416 186.571 26.9214L185.89 27.4911L186.726 27.6206V28.0608L186.23 28.6305L185.735 29.2002L185.208 29.3297V29.744L185.735 30.1842L184.063 30.4691V30.7539L184.218 31.0388H183.877L183.196 30.5986L183.041 31.0388H182.019V31.3236L182.546 31.4531V31.738H181.369V32.0228L181.71 32.1782L180.874 32.4372L180.688 32.0228H180.347V32.3077H180.007L179.852 32.8774L179.171 33.0069ZM200.483 31.4261L200.637 31.0118H200.142V31.4261H200.483ZM180.007 32.3077V32.0228L179.697 32.3077H180.007ZM196.634 30.2856V29.8712L194.953 30.7269V31.1671L196.634 30.2856ZM197.47 30.1561L196.974 30.0007V30.2856L197.47 30.1561ZM197.47 29.5864L197.129 29.3015L196.974 29.7159L197.47 29.5864ZM191.246 31.1683L190.596 30.8834V31.3236L191.246 31.1683ZM191.432 29.744V29.2002L190.41 29.0448L190.255 29.4591L191.432 29.744ZM198.129 28.7329V28.3186H197.634V28.7329H198.129ZM185.394 28.1903V27.6206H184.899V28.1903H185.394ZM190.751 27.7759L190.255 27.6206V27.9054L190.751 27.7759ZM179.852 25.9373V25.6525L180.347 25.4971V25.782L179.852 25.9373ZM199.823 23.6585L199.483 22.5191L199.637 21.9494L201.991 21.6645L202.331 23.2453L200.814 23.815L200.659 24.4117L200.164 24.2564V23.9704L199.823 23.6585ZM191.773 23.2442L191.246 22.9593V23.3737L191.773 23.2442ZM192.268 22.6745V22.1048H191.773V22.3896L192.268 22.6745ZM191.432 21.6645V21.3797L190.937 21.2502L190.751 21.6645H191.432ZM193.94 18.4017C193.61 18.0219 193.166 17.8838 192.609 17.9873V18.4017H193.94ZM191.927 18.2722V17.9873L192.423 17.4176L190.937 17.2882L190.751 17.7025L191.246 17.9873V18.2722H191.927ZM193.599 16.4336V16.1488L193.785 15.8639H194.126L193.785 15.9934L193.599 16.4336Z" fill="#483D3F"/>
<path d="M179.684 17.188L180.18 16.9954V16.7153L179.344 15.5117V15.3191C181.47 14.8055 183.699 14.4845 186.032 14.3562L186.899 14.4437L190.398 13.971L190.583 13.7784H191.234V13.4808L190.924 13.0956L191.419 12.8155H191.915V12.6229L191.76 12.2377L191.915 12.0452L192.751 12.2377V12.0452C192.421 11.7884 192.307 11.4674 192.41 11.0823H192.751V10.8897L192.255 10.5045H191.419L190.738 10.592L189.902 10.3995L189.562 10.7846L188.044 10.8897L187.054 10.6971V10.9772H186.558C186.558 10.6621 186.28 10.5337 185.722 10.592L185.536 11.1698H185.196L184.36 11.0823L183.864 11.1698L182.533 11.0823L183.183 10.9772V10.6971C182.399 10.6971 181.955 10.5045 181.852 10.1193L182.533 9.92676L182.843 9.05138H183.369V8.75375C183.142 8.18184 183.307 7.73248 183.864 7.40567L184.36 7.31814L184.546 6.74039L184.36 6.54781L184.886 5.77748L185.382 5.67243V5.39231H185.041V5.00715L185.536 4.9021L185.877 4.13177L186.372 4.04423L186.558 2.97628L187.054 2.88874L187.208 2.69616H187.549V2.31099H186.558L190.831 2.50357L190.676 2.31099H190.15V2.59111L189.159 2.31099V2.59111L188.819 2.50357L188.478 2.69616L187.642 2.59111L187.301 2.13592V2.41604L185.939 2.52108V2.3285L185.444 2.13592L185.784 2.03087V1.83829L185.289 1.36559L185.939 1.26054C185.836 0.945405 186.011 0.752823 186.465 0.682793L187.797 0.49021L188.292 0.595255C188.849 0.268448 188.53 0.7003 189.314 0.77033L189.84 0.857868L186.713 0.472703V0.665285H187.208L187.89 0.472703L189.407 0.577748L191.234 0.192583L187.642 0.385165C188.302 0.128388 189.087 0 189.995 0L190.491 0.0875375L189.345 0.262613L190.367 0.35015L191.048 0.262613C191.605 0.647778 191.884 1.06796 191.884 1.52315H191.358V1.71574L191.543 1.90832L191.048 1.99586L190.862 2.29348L190.212 2.38102L189.531 2.18844L188.849 2.29348L190.831 1.6282L189.809 1.73324V2.01336L188.633 1.73324L188.478 2.11841H187.983L191.419 2.01336V2.20595H190.738C190.635 2.7195 190.522 3.26807 190.398 3.85165L189.747 4.04423V4.62198L190.398 5.09468C193.143 5.01298 195.888 4.9838 198.634 5.00715L199.47 5.28727L199.625 5.67243L200.151 6.0576L199.47 6.54781L199.625 7.51072L198.789 7.98342V8.56117L197.272 8.66621V8.8588L197.457 9.15643L198.293 9.34901V9.54159L197.272 9.73417L197.117 10.1193L197.457 10.8897L196.776 11.1698V11.3624H196.281V11.555L196.435 12.4303L196.281 12.6229L195.785 12.7104L195.599 13.3932L196.962 13.5858L197.953 13.4808L199.129 13.7784L200.306 13.3932L200.987 13.5858C201.648 13.2007 202.484 13.0373 203.495 13.0956V13.2882H203.991V13.0956H204.331V13.2882H204.672V13.0081H205.012C205.57 13.3232 205.786 14.7194 205.663 15.1746L206.344 15.4548H206.003L205.848 15.1746L205.353 15.0696V14.5969L204.827 15.6079L204.672 15.5598L204.486 15.7524C203.702 15.8107 203.031 15.9391 202.473 16.1375V15.945L201.637 16.0325L201.142 15.945L200.647 16.1375V15.8399H200.306L199.625 16.2251H199.284L196.962 15.945L196.621 16.3301H196.281L194.113 16.0325L193.927 16.4177H193.091L192.07 16.3301L191.76 16.6102H191.234L190.057 16.3301L189.902 16.6102H189.562L188.385 16.4177L187.054 16.6102L186.899 16.8028H186.558L185.877 16.6102L185.382 16.9954C184.37 16.9954 183.421 16.8378 182.533 16.5227L181.852 17.1005L179.684 17.188ZM204.176 15.5598L203.65 15.3672V15.5598H204.176ZM193.587 11.4674L193.091 11.1698V11.3624L193.587 11.4674ZM198.634 9.05138L198.138 8.8588H198.789L198.634 9.05138ZM193.432 8.56117L194.763 8.47363V8.28105L194.609 7.51072L194.949 7.02051L193.773 6.74039L192.41 6.82793L192.07 6.74039V6.44276H191.079C190.191 6.57115 189.293 6.67036 188.385 6.74039L187.735 6.54781V6.93297L187.89 7.31814L187.394 7.21309V7.40567L187.549 7.98342L186.899 8.17601V8.47363L187.054 9.15643H189.747C190.965 8.88798 192.194 8.68956 193.432 8.56117ZM189.562 5.00715V4.62198H189.221L188.911 5.00715H189.562ZM187.116 2.22345V1.94333H186.28V2.13592L186.125 2.3285H186.465L187.116 2.22345ZM190.831 0.857868L190.336 0.665285V0.962913L190.831 0.857868Z" fill="#483D3F"/>
<path d="M162.062 33.3649L161.16 33.065V32.765L159.383 31.7288L159.082 30.9652C160.066 30.7652 161.06 30.5653 162.062 30.3653L162.5 30.5289L163.266 30.3653L163.402 30.6653H163.703L164.004 29.629L164.141 30.5289H164.605L165.18 29.7654L164.605 29.4927V29.1927L164.879 28.7291L164.742 28.2928L164.879 27.6929L164.004 29.0291L163.84 28.5928H163.102L162.363 28.4292L162.5 27.6929L163.266 27.5293V27.093L162.062 26.0568V25.7568H161.762V25.4568H163.102L163.266 25.8931C163.849 26.0022 164.341 26.3022 164.742 26.793L165.781 28.2928L166.219 28.7291L165.945 29.3291H167.285L167.422 28.4292L167.285 27.9929L167.559 26.793L167.121 25.8931L167.723 24.8569H167.121V25.1569H166.82L166.52 24.9933L166.219 23.4935C165.526 23.4571 164.888 23.6116 164.305 23.957L164.141 23.2208L162.801 22.9208V23.4935H162.5L162.199 23.2208V22.9208L162.801 22.0209H163.539L163.703 21.5573C164.487 21.6664 165.18 21.5664 165.781 21.2574L165.945 21.721H166.52V21.421L167.559 21.121V20.6575L167.422 20.2212L168.324 20.0848L168.461 19.6212H167.422V18.585L167.723 17.9851C166.921 17.5851 166.073 17.4306 165.18 17.5215L164.004 17.8215V17.5215L164.141 16.9488L163.84 16.4853L167.121 15.2854V15.5854H167.723L168.324 15.2854L168.926 15.449L169.5 15.2854L169.965 15.449L171.004 15.1491V14.6855L170.539 13.6493C169.956 13.6493 169.418 13.4038 168.926 12.913L168.023 11.2496H167.559V10.5133L166.82 10.377L165.945 11.2496C165.052 12.8494 164.059 14.3946 162.965 15.8853C162.564 16.2853 162.217 16.7398 161.926 17.2488L160.559 19.4849L160.121 19.6212L159.52 20.8211L159.082 20.9574L158.344 20.2212V19.1849L158.781 17.6851H159.082L159.219 18.1214H159.684V17.2488L160.285 17.0852V16.7852L160.121 16.4853H160.559V16.049L160.422 15.5854L161.324 15.449V15.1491H162.199V14.5492L161.926 13.6493H163.102V13.213L162.801 12.613L163.539 12.4494L163.84 11.5495L164.305 11.4132V11.1132L164.141 10.6769L164.879 10.9769L165.18 9.47708L165.781 9.61343L166.082 9.01351L165.48 8.87716L166.082 8.5772L166.219 7.84093L166.82 7.07739H167.285L168.16 8.11362L169.199 8.27724L169.5 9.01351L170.402 9.31347L170.539 10.077H171.004L171.441 9.91339L171.879 10.6769L172.48 10.8133L172.645 11.4132H173.219V12.0131L173.984 11.8495L174.121 12.3131H174.422L174.559 12.7494H175.16L175.324 13.8129H175.625L175.762 13.213L176.199 13.8129L177.102 13.9492V14.8491H177.402L178.141 14.3855L178.305 15.5854H179.344V16.3489L179.18 16.9488H178.742V17.3852H179.043L179.18 17.8215L178.305 18.4214V19.3213L177.539 19.4849L177.402 19.0213L177.539 18.4214H176.965L176.664 17.9851L175.625 17.5215L175.16 16.6489L174.723 16.4853V17.3852C173.592 17.4215 172.453 17.467 171.305 17.5215L171.004 17.3852L170.703 18.885L170.266 19.4849L170.703 19.7848H170.102V20.3848L171.605 20.8211L172.043 20.6575V21.121H172.344L172.48 21.5573H172.781L173.082 20.8211L175.023 20.6575L175.762 20.9574L176.199 22.1573L175.926 21.8573H175.461L174.121 22.3209V22.7572H173.219L172.48 22.4572V22.7572L171.141 23.0571L170.703 24.257L170.102 26.1931L170.402 26.6294L170.102 27.093H169.363V27.8293H169.664L170.539 27.6929V27.393H171.004V27.8293H171.441V27.5293H172.043V27.093L171.605 26.9294L171.441 26.3567L171.141 26.1931H171.742L171.879 25.2932L173.52 24.3933L173.684 25.1569L172.945 26.6294H173.383L173.82 25.8931H174.285L174.559 26.0568V26.3567H175.324L173.082 26.9294L172.945 27.6929L173.684 27.5293V27.9929L173.52 28.2928H173.219L172.781 28.1292V29.3291L174.559 29.629V30.5289H175.023L175.324 30.3653V30.9652L174.723 31.1288V31.8651L175.461 32.1651V32.6286L175.762 32.765L173.383 31.5651L173.219 31.8651L172.48 31.7288V32.0287L172.645 32.465L172.18 32.1651V31.8651H171.605L170.703 31.5651V32.0287L170.84 32.465L170.102 32.3287L169.664 32.465L168.926 32.0287L168.461 33.065H168.16L167.121 32.6286L165.945 33.065L165.645 32.9013L164.879 33.065L164.305 32.765L164.141 33.2013L162.062 33.3649ZM170.266 31.5651L169.965 31.2652V31.5651H170.266ZM167.285 31.1288V30.8289L166.82 30.6653V30.9652L167.285 31.1288ZM168.16 29.929L167.723 29.629V30.0653L168.16 29.929ZM170.703 29.7654L171.441 29.3291V29.0291L170.84 28.7291L170.539 27.6929L169.5 27.9929V28.2928L170.102 28.7291V29.0291L169.965 29.4927L170.703 29.7654ZM169.363 29.629V29.0291L168.625 28.8928V29.4927L169.363 29.629ZM172.344 28.5928V28.1292H171.605V28.7291L172.344 28.5928ZM163.84 28.2928V27.8293H163.402L163.266 28.2928H163.84ZM164.141 27.5293V27.093H163.703V27.5293H164.141ZM172.645 27.2293V26.9294H172.344V27.2293H172.645ZM175.461 25.8931L174.422 25.2932V24.8569H174.859L175.461 25.8931ZM168.625 25.7568V25.2932H168.324L168.16 25.7568H168.625ZM169.363 25.2932V24.9933H169.062V25.2932H169.363ZM167.723 24.3933L168.023 23.6571L167.285 23.4935L166.984 24.0934L167.121 24.557L167.723 24.3933ZM170.266 24.257L170.402 23.7934L169.363 23.6571V23.957L170.266 24.257ZM170.266 18.585L169.801 18.1214L169.664 18.585H170.266ZM169.062 18.1214V17.6851H168.324L168.023 18.1214H169.062ZM167.559 17.3852L167.723 16.9488H167.285V17.3852H167.559ZM176.199 17.2488L175.926 16.9488L175.762 17.3852L176.199 17.2488ZM174.121 17.0852V16.6489H173.684V16.9488L174.121 17.0852ZM176.801 16.1853L176.5 15.8853V16.1853H176.801ZM172.645 15.749V15.2854H172.344L172.18 15.749H172.645ZM177.266 15.449V14.9855H176.801V15.449H177.266ZM176.363 14.9855L176.5 14.5492L176.062 14.3855L175.926 15.1491L176.363 14.9855ZM173.82 14.8491L174.285 14.1128H173.984L173.383 14.8491H173.82ZM171.605 13.8129L171.879 12.7494H171.441L171.141 13.8129H171.605ZM173.52 13.0493V12.4494H173.219L172.945 13.0493H173.52ZM169.801 11.8495L169.965 11.4132H169.664L169.5 11.8495H169.801ZM172.043 11.8495V11.2496H171.605L171.441 11.8495H172.043ZM168.16 11.2496V10.8133H167.723V11.2496H168.16ZM171.305 10.6769L171.004 10.377V10.8133L171.305 10.6769ZM168.926 9.31347L168.625 9.01351V9.31347H168.926Z" fill="#483D3F"/>
<path d="M125.328 35.1658L125.672 33.2385H125.328L125.172 32.3854L125.828 32.2275L126.016 30.9952H125.516L124.984 31.5324L125.516 30.4897L125.172 29.605C125.839 29.7314 126.234 29.5102 126.359 28.9415L125.328 28.594L125.172 27.8989L125.328 27.5513H126.172V27.0142L125.516 26.8562L126.172 26.3191L126.359 25.8136L126.016 25.466L127.047 25.308V24.7709L126.172 24.6129L125.672 24.7709V24.4233L126.703 23.9178L126.859 23.2227L126.016 22.8752V23.3807L125.672 22.8752C126.005 21.9484 126.12 20.9057 126.016 19.7472L123.984 18.8941L122.953 19.3997V18.8941L121.922 18.5466L121.766 18.041L120.734 17.8515V16.9984L122.109 16.6508L122.609 15.9557C123.297 15.4923 124.036 15.2606 124.828 15.2606L124.984 14.06L124.141 13.5229L123.297 13.8704L121.578 12.8278L121.422 12.3222L120.734 12.1327L120.391 11.6271L119.359 11.2796L119.203 10.7741L118.172 10.4265L118.016 9.73141L119.359 9.19428C121.422 8.39386 123.495 7.70929 125.578 7.14057C127.682 6.55079 129.818 6.02419 131.984 5.56079V5.90834L131.641 6.79302H131.297V7.29855V6.60345H130.766L129.578 7.6461L128.234 7.48812C127.089 8.52024 125.839 9.20481 124.484 9.54183L123.984 9.38386V9.88939L123.641 10.2369V10.7741C125.453 11.9115 127.432 12.6593 129.578 13.0173C131.057 12.0905 132.651 11.5113 134.359 11.2796L134.516 12.6698H133.828L132.828 12.3222L132.641 13.3649H131.797L130.609 13.1753L130.266 14.5655C129.578 14.3338 129.182 14.5023 129.078 15.0711H129.422V15.6082H128.734L128.234 15.4186V15.7662L127.703 16.1137V16.6508L130.109 17.1564L130.953 16.9984V17.3459H131.297L131.641 17.1564V16.8088H132.484L133.516 16.9984V17.3459H134.172L135.547 17.1564V16.8088L135.203 16.1137L135.891 15.9557L136.391 16.6508L136.891 17.6935L136.047 19.0521L136.391 19.7472L137.922 19.9368C137.13 20.1685 136.682 20.6319 136.578 21.327L137.422 20.9794V21.485L137.234 21.8325H136.234L135.359 21.485L135.203 22.0221L134.703 22.1801L134.172 21.6745V22.1801H133.672L132.828 21.8325L132.484 20.7899L132.297 19.9368L131.797 19.5892H131.297L130.953 20.0948L130.453 20.4423V22.5276L130.766 24.9605L132.297 25.466L132.641 26.1611C134.12 26.6245 135.484 27.3196 136.734 28.2464V28.594L136.047 29.9526H136.391V30.3001L135.703 30.4897L135.359 29.9526H134.859L134.016 30.3001L133.516 30.1421L133.172 31.1848H132.141L131.297 30.4897L131.109 29.9526L130.609 29.7946L130.453 30.4897L129.234 30.8373V31.1848L129.422 31.8799L129.078 32.575L129.234 33.4281L130.266 33.5861L130.453 34.2812L129.234 34.6287V33.9336H128.734L128.391 34.8183L127.703 34.9763L127.359 34.4707H126.859L125.328 35.1658ZM149.516 34.1232L149.172 33.4281H148.641L147.984 33.7756L146.953 33.0805L146.266 33.2385L143.703 32.575L143.047 32.0379L142.516 33.0805H142.172L141.672 31.8799H141.172L140.984 32.3854H140.297V32.0379L140.484 31.5324H139.984L138.609 31.6903V29.9526H138.266L137.578 30.3001L137.422 29.7946H138.953L139.109 30.3001H139.641L139.797 29.7946L138.453 28.7519L139.641 28.2464V27.8989L139.297 26.8562L138.766 26.6666L138.453 27.3617L138.766 27.7093H138.109V26.8562L139.297 26.5087V26.1611L140.297 25.624V24.9605H139.797L138.953 25.308V24.9605L139.453 24.7709L139.641 24.2654L139.109 23.3807H139.641V22.8752L138.953 22.6856V22.1801L139.109 21.485L138.266 21.327V20.9794L138.609 20.0948L139.984 19.7472L140.141 19.3997L141.172 19.0521L141.672 19.2417L142.703 18.5466L143.891 19.0521C143.891 19.7472 144.224 20.0948 144.891 20.0948V19.7472L144.578 19.5892V19.2417L145.078 18.8941V19.2417H145.766L146.453 18.8941V18.3886L146.266 18.041L146.453 17.5039L146.266 17.1564H146.953V16.6508L146.609 16.4613C146.672 15.366 146.724 14.2706 146.766 13.1753L145.578 13.5229L144.578 13.3649V13.7125L142.859 13.8704L142.703 13.5229L143.703 13.1753V12.8278L143.047 11.9747C142.234 12.2064 141.776 12.0274 141.672 11.4376L141.828 11.1216L143.703 10.5845L144.234 12.4802H144.578L145.422 10.7741L146.266 10.5845L146.766 10.932V11.2796H147.297V10.932L146.953 10.4265H147.297L147.797 10.5845L148.641 10.2369L148.828 11.1216H149.172L149.516 10.5845L150.703 11.2796H151.203L151.547 10.5845L151.047 10.2369L151.547 11.6271H152.047L151.891 12.1327L152.391 12.3222L152.734 12.1327L152.891 13.3649L152.391 14.06L151.359 14.218V14.7551L152.047 15.0711V15.6082H152.734V15.9557H151.047V16.6508L150.359 17.1564H151.547C150.984 17.5145 150.755 17.9779 150.859 18.5466L151.359 18.8941V19.2417L151.047 19.7472L151.547 20.4423L151.047 20.2843L150.516 19.9368V20.6319L151.203 21.8325L148.484 22.8752L147.109 22.338L145.766 22.6856L144.047 21.1374V21.485L144.234 22.0221L143.547 23.2227C142.63 23.4544 141.891 23.802 141.328 24.2654L141.828 24.4233L143.359 24.2654L143.891 24.4233L144.234 24.2654V24.6129H142.703V24.9605H142.359V25.8136L143.359 26.6666H142.703V27.2038H143.047L143.359 28.2464H142.859V28.594C143.776 29.268 144.859 29.4892 146.109 29.2575L146.266 29.7946H146.609L148.141 29.447L148.828 29.605L149.828 29.2575L150.516 29.605L151.047 29.447L151.547 29.605L152.047 29.447L152.234 30.6477L152.047 31.1848L151.203 31.5324L151.047 32.891H150.703L150.172 32.733L149.672 32.891V33.5861H150.016V34.1232H149.516ZM130.266 33.9336L129.922 33.5861V33.9336H130.266ZM126.359 33.2385V32.733H125.828V33.0805L126.359 33.2385ZM138.953 32.891L139.109 32.3854L139.297 32.733L138.953 32.891ZM120.234 32.575V31.8799C119.318 32.1116 118.745 31.8167 118.516 30.9952V30.3001H119.203C118.891 28.615 118.839 26.951 119.047 25.308L118.859 24.7709L120.047 24.4233L120.234 23.9178H120.578L121.234 24.2654V25.466H121.766L121.922 24.9605H122.609C122.839 26.3296 123.12 27.6566 123.453 28.9415L123.109 29.7946L123.297 30.1421H122.609V31.1848L123.109 32.0379L122.453 32.2275L122.266 31.5324H121.766L121.578 32.0379L121.766 32.575H121.422L120.891 32.2275L120.234 32.575ZM145.422 32.575L144.891 32.3854V32.733L145.422 32.575ZM126.703 32.575V32.2275L126.859 31.6903H126.359V32.575H126.703ZM119.703 31.6903L119.891 30.9952H119.047L118.859 31.5324L119.703 31.6903ZM139.453 31.5324V30.8373H139.109L138.766 31.5324H139.453ZM144.578 31.3428L144.047 30.8373V31.1848L144.578 31.3428ZM120.891 31.1848V30.8373L120.578 31.1848H120.891ZM132.984 30.1421L132.297 29.9526V30.3001L132.984 30.1421ZM134.016 28.9415V28.4044H133.516V28.9415H134.016ZM141.328 28.7519L142.359 27.8989L143.047 28.0568V27.5513L141.828 27.3617C141.495 27.8251 141.047 28.0042 140.484 27.8989V28.2464L141.328 28.7519ZM126.703 28.4044V28.0568H126.359V28.4044H126.703ZM132.141 28.2464V27.7093H131.641V28.2464H132.141ZM121.922 27.3617V26.6666H121.578L121.234 27.3617H121.922ZM120.047 26.8562L120.234 26.3191H119.891V25.466H119.547L119.047 25.624V25.9715L119.359 27.0142L120.047 26.8562ZM122.109 26.1611L122.266 25.624H121.766V26.1611H122.109ZM143.359 25.8136L143.047 25.308H143.703V25.8136H143.359ZM120.891 25.466L121.078 24.9605H120.734L120.578 25.466H120.891ZM141.516 25.308L141.672 24.6129H141.172L140.984 25.308H141.516ZM140.828 24.6129L140.141 24.2654V24.7709L140.828 24.6129ZM141.828 23.3807L142.016 22.5276L141.328 22.1801V22.8752L141.828 23.3807ZM134.172 21.485L133.828 21.1374V21.485H134.172ZM134.172 20.6319L133.672 20.4423V20.7899L134.172 20.6319ZM134.703 19.3997L134.359 19.0521V19.3997H134.703ZM126.359 19.2417V18.5466L125.672 18.199L125.328 18.3886L126.359 19.2417ZM132.641 18.7046L132.828 17.8515H132.297V18.7046H132.641ZM135.547 18.199L135.703 17.6935H135.359L135.047 18.3886L135.547 18.199ZM147.641 18.199L147.297 17.8515V18.199H147.641ZM147.984 17.1564V16.4613H147.641L147.453 17.1564H147.984ZM133.828 16.8088L133.328 16.1137L131.797 15.6082L133.516 15.9557L133.672 14.9131L134.172 14.7551L134.359 15.2606H134.859V14.9131H135.203V15.2606L134.172 16.3033V16.6508L133.828 16.8088ZM127.203 16.6508L127.547 15.7662H127.203L126.859 16.6508H127.203ZM148.828 16.3033V15.7662H148.484V16.3033H148.828ZM150.859 15.0711V14.218H150.359V15.0711H150.859ZM131.453 6.60345V6.25589H131.109V6.60345H131.453Z" fill="#483D3F"/>
<path d="M89.2695 36.5245L89.082 36.019L87.8945 35.861L88.2383 35.6714V35.3239L87.0508 34.8184L86.5195 35.1659C86.3112 34.4708 86.1445 33.8284 86.0195 33.2386C86.3529 32.1011 86.6341 30.9532 86.8633 29.7947H87.3945V29.2575L86.8633 28.9416V28.594H86.3633V27.7094H86.707V26.5087L86.3633 25.8136L86.5195 25.4661L87.0508 25.3081V24.771L86.207 24.613V24.0759H85.8633V23.7283L86.0195 22.8752L85.332 22.5277L84.832 23.2228V22.8752L84.9883 22.1801H84.4883C83.8008 22.5172 83.0091 22.633 82.1133 22.5277V22.0222H81.4258L81.2695 22.5277H80.582L79.3945 22.1801V21.8326H79.0508V21.485H79.7383V21.1375L78.8633 20.7899V20.4424C78.8633 19.7473 79.0924 19.3471 79.5508 19.2417L80.2383 19.3997L80.3945 18.7046H80.7383L80.9258 18.1991L82.8008 17.6936V17.1564L83.3008 16.9985L83.6445 16.1138H84.332V15.6083H83.9883L83.457 15.7662L82.957 14.0601C82.3945 13.4703 82.0508 12.6593 81.9258 11.6272L82.2695 10.9321L81.7695 10.5846L82.2695 10.4266L82.8008 8.8468L87.0508 7.29862L87.207 6.95107L91.3008 6.60352L91.457 7.99372L90.957 9.03638L90.1133 9.19435L89.082 9.03638L87.5508 9.5419V9.88946L86.207 10.4266L85.6758 10.237V10.7741H84.9883V11.6272L85.5195 12.4803L85.8633 12.6699L86.0195 13.7125C86.707 13.5861 87.2799 13.702 87.7383 14.0601L89.6133 13.1754L89.7695 12.6699H90.957V11.9748L93.6758 11.1217L93.8633 12.1327L93.332 12.8278V11.9748H92.9883L91.8008 13.365H91.457V13.8705L92.332 14.0601L92.832 13.5229V13.8705L91.457 14.5656L90.457 14.0601V14.5656L90.6133 15.4187L90.457 15.7662H90.1133L90.2695 15.0711H89.7695L89.4258 16.4613C88.5091 17.0511 87.6029 17.6936 86.707 18.3887L86.5195 17.8515L86.0195 17.6936L85.8633 18.8942L84.832 19.7473V20.4424H86.3633L87.0508 20.2844L88.3945 20.7899L88.7383 19.9368H89.082L89.2695 20.7899H91.1445L91.457 19.3997L91.8008 20.0948H92.332L93.332 19.5893V19.0522C92.6654 19.2839 92.2695 19.1154 92.1445 18.5466L93.332 18.3887L93.8633 19.9368H94.3633L94.5195 19.5893L95.207 21.6746L95.5508 21.8326V22.1801L95.207 24.0759H94.5195L93.5195 23.7283V23.3808H92.832V23.9179H92.332L91.6445 23.5703L91.457 22.8752L90.957 22.5277H90.6133L90.2695 23.9179L90.457 25.1185L90.1133 25.8136L89.6133 25.6241L89.2695 26.3192L90.1133 26.8563L91.457 27.7094L91.6445 28.2465L91.1445 29.2575H91.6445L91.8008 28.752H92.1445L92.332 28.0569H93.6758L94.3633 28.2465L95.0508 28.0569V28.4045L94.5195 29.4471H96.2383L96.3945 30.8373L96.0508 30.1422H95.5508V31.5324L94.8633 31.3429V32.038L95.207 32.891L95.0508 33.5861H94.707L93.332 32.7331V32.3855L93.8633 31.1849H93.332L93.1758 32.038H92.6758L92.1445 30.9953L91.6445 30.8373V31.1849L90.2695 30.1422V30.6477L90.6133 31.6904H89.9258V32.3855L90.457 32.5751V33.0806H90.1133L89.9258 32.5751L88.7383 32.2275V32.5751L89.4258 33.0806V33.4282L90.457 33.5861L90.6133 34.4708L90.457 35.1659L89.6133 34.9763L89.2695 36.5245ZM81.6133 36.019V35.6714H81.082L81.6133 35.3239V34.8184C81.2591 34.355 80.8008 34.1759 80.2383 34.2812V33.5861L80.7383 31.1849H80.3945L80.582 30.3002L80.3945 29.7947H80.7383V29.4471L80.2383 28.2465H81.4258V27.5514H80.7383V27.2038L80.9258 26.1612H81.2695V25.4661L80.582 25.1185L80.7383 24.613H81.2695L82.2695 26.1612L82.6133 24.613L82.8008 25.9716L82.6133 26.5087L83.1445 26.6667L83.457 26.5087V26.8563L82.2695 27.0143L82.1133 27.8989H81.7695L81.6133 28.4045H81.082V28.9416H81.6133L82.2695 28.752L83.1445 28.9416L83.457 27.5514L84.1445 27.3618C84.1445 28.1833 84.3216 28.8784 84.6758 29.4471L84.1445 30.1422L84.4883 31.3429L84.332 31.88L84.4883 33.4282L83.9883 33.5861L83.8008 34.2812H83.457L83.1445 35.5135L81.6133 36.019ZM106.457 35.3239L105.426 34.8184L104.926 34.9763L103.738 34.1233V33.5861H103.207L103.395 32.891L102.707 32.5751L101.676 30.3002L101.863 29.7947L102.02 30.6477H102.363L102.707 29.9526L102.863 30.4898H103.207L104.395 30.3002L105.082 30.6477V30.1422L105.27 29.6051L105.082 28.9416L105.426 27.8989L105.27 26.8563H105.613L105.926 27.0143L106.113 25.9716L105.77 25.1185V24.4234H106.113L106.613 24.613V23.9179L106.27 23.3808L106.457 23.0332L106.27 22.5277L106.957 22.3381L106.801 21.6746H107.301V21.3271L106.957 20.632H107.457V20.0948L106.801 19.9368V19.3997L107.145 18.3887L107.988 18.0411L108.145 17.346L107.457 16.8089V16.4613L106.957 15.9558H106.613L106.457 16.3034L105.77 15.7662L105.082 15.2607V15.6083L105.27 16.1138L104.395 15.6083L104.051 14.9132L103.395 14.7552V15.4187H103.051L101.676 14.5656C101.342 15.5977 101.009 16.6404 100.676 17.6936L99.8008 18.0411L99.457 16.6509L98.8008 16.4613C98.4466 15.7662 98.2695 15.0185 98.2695 14.218L98.457 13.1754L99.457 12.1327L98.6133 11.9748V11.4376L99.457 11.6272V11.2797L99.9883 10.7741L98.8008 10.4266V9.88946L98.957 9.5419L98.8008 9.03638V9.38393H99.1445L100.332 7.80415H100.832C101.52 8.49925 101.863 9.3102 101.863 10.237L101.52 11.6272L101.332 12.4803C102.707 12.9437 104.134 13.4071 105.613 13.8705L106.613 13.5229L106.801 14.0601H107.301L107.457 13.7125H107.801L108.332 13.8705L110.02 13.5229L110.207 14.0601L109.676 14.7552H110.207L111.207 14.4076V14.7552L110.863 15.7662H111.551V16.4613H110.707V16.8089L111.395 17.1564V18.0411L111.207 18.5466L111.395 19.2417L110.863 20.632H110.52V21.1375L110.863 21.8326L110.207 22.0222V22.6857L110.363 24.2654L109.863 24.4234V24.0759L110.02 23.3808L109.176 23.2228L108.988 24.613L109.52 24.771V25.9716L108.676 26.6667V27.5514L109.176 29.2575L108.676 29.4471V30.1422C108.78 31.3007 108.999 32.396 109.332 33.4282L108.676 33.7757L108.332 35.3239H107.801V34.9763H107.301L107.145 34.2812H106.801L106.457 35.3239ZM83.1445 34.6288V33.9337H82.6133V34.6288H83.1445ZM104.238 33.5861V33.2386L103.738 33.0806L103.551 33.5861H104.238ZM83.9883 32.2275L83.457 32.038V32.3855L83.9883 32.2275ZM107.301 31.5324V30.6477H106.113V30.9953L107.301 31.5324ZM108.332 31.3429L108.488 30.8373H108.145L107.988 31.3429H108.332ZM92.9883 31.1849V30.6477H92.4883V31.1849H92.9883ZM94.3633 31.1849V30.6477H93.8633V31.1849H94.3633ZM89.082 30.9953V30.4898H88.582V30.9953H89.082ZM89.9258 30.4898L90.1133 29.9526L89.6133 29.7947L89.4258 30.6477L89.9258 30.4898ZM94.8633 30.4898V29.9526H94.3633V30.3002L94.8633 30.4898ZM83.457 30.3002V29.7947H82.957V30.3002H83.457ZM88.2383 30.3002V29.7947H87.7383V30.3002H88.2383ZM92.6758 30.1422V29.0996H92.1445V29.7947L92.6758 30.1422ZM90.8008 29.6051V29.0996L90.1133 28.752V29.2575L90.8008 29.6051ZM106.27 29.2575L106.457 28.752H105.77V29.4471L106.27 29.2575ZM89.2695 28.752L88.7383 28.594V28.9416L89.2695 28.752ZM87.8945 28.594V28.0569L86.707 27.7094V28.594H87.8945ZM90.1133 28.4045L90.8008 27.5514L89.4258 27.3618V27.7094L89.6133 28.594L90.1133 28.4045ZM88.3945 27.2038L88.582 26.5087L87.8945 26.3192L88.0508 25.6241H87.5508L86.8633 25.9716V26.3192L88.3945 27.2038ZM107.145 27.2038L106.613 26.5087L106.457 27.3618L107.145 27.2038ZM103.895 26.3192L103.051 25.8136L102.207 24.771L100.988 24.2654L100.145 22.0222L100.488 21.8326L101.176 22.1801L101.676 22.8752H102.363L103.051 22.6857V23.2228L102.863 23.7283H103.895V24.0759H104.238C104.238 24.6657 104.405 25.1817 104.738 25.6241L103.895 26.3192ZM89.2695 25.1185V24.4234H87.3945V24.9605L89.2695 25.1185ZM90.1133 24.771V24.2654H89.7695L89.6133 24.771H90.1133ZM88.9258 24.0759V23.5703H88.3945V24.0759H88.9258ZM83.457 19.5893V19.0522L83.1445 19.5893H83.457ZM89.082 16.1138V15.6083H88.7383V16.1138H89.082ZM88.3945 15.6083V15.0711L88.2383 14.5656H87.8945L87.7383 15.6083H88.3945ZM99.3008 14.7552L98.8008 14.5656V14.9132L99.3008 14.7552Z" fill="#483D3F"/>
<path d="M43.6484 40.0001H42.9609H43.3047L43.6484 39.305H42.6172V38.9574L42.9609 37.9148H42.6172L42.0859 38.2623L41.7422 36.7142L41.0547 36.5246L40.7109 35.3239H40.0547L39.5234 33.9337L38.6797 33.5862V33.0807L37.9922 32.8911V32.3856L40.5547 32.2276C41.4714 32.9016 42.5026 33.3545 43.6484 33.5862L44.1484 32.5751L43.9922 32.038L43.8047 31.6905L43.9922 30.9954H43.6484V30.6478L43.9922 29.4472H43.6484L43.1172 29.6051L42.9609 28.7521L43.4609 27.0143H43.8047V26.6668C43.1172 26.3297 42.8359 25.6978 42.9609 24.771L43.1172 23.9179L45.5234 22.5277L45.8672 21.6747L47.3984 21.1375V20.632H46.7109V20.2845H46.0234L43.9922 20.632L43.4609 20.4424L43.1172 21.3271C42.4297 20.8637 41.6276 20.6847 40.7109 20.79V21.4851H41.0547L41.5859 21.3271L40.7109 21.4851V21.8326L39.8672 22.1802L39.3672 22.0222L38.4922 22.1802L38.3359 21.8326C38.5651 20.9058 39.0755 20.0422 39.8672 19.2418L41.3984 18.8942V18.5467L43.6484 18.1991V17.6936H44.1484V17.3461L40.7109 15.6083L40.5547 15.0712L39.3672 14.5657L39.1797 13.0175L40.0547 12.6699L40.2109 11.7852H42.6172L42.9609 11.9748L43.1172 12.4803H43.4609V13.1754H43.9922L47.3984 9.38398L46.3672 9.03643L41.9297 10.0791L41.3984 9.88951C40.7318 10.711 39.8776 11.0585 38.8359 10.9322L38.6797 10.4266L39.7109 8.68888C40.8359 8.22548 41.9193 7.64622 42.9609 6.95112L43.8047 7.14069L43.9922 6.79314L44.9922 6.60357V6.95112H45.3359L46.8984 5.90847L46.5547 6.79314H46.8984L48.7734 6.09804L49.4609 6.25602C50.3568 6.21389 51.263 6.16123 52.1797 6.09804L52.3672 7.64622L51.8359 8.34133L49.9609 10.0791L49.4609 10.2371L48.7734 11.2797L47.3984 12.6699L46.8984 12.8279V13.523L47.7422 14.9132L47.5859 15.4187H48.2422L48.4297 15.9559L50.4922 16.8089C50.8255 17.7357 50.9401 18.7152 50.8359 19.7473H51.1797H50.6484V20.0949C50.3151 20.6847 50.1484 21.4324 50.1484 22.3382L48.2422 22.6857L48.0859 23.7284L47.0547 24.2655L46.3672 26.1612H47.0547V26.5088H46.5547V27.0143H46.0234V27.3619C46.8359 28.057 47.1797 28.9838 47.0547 30.1423L46.2109 30.4898V30.8374L46.5547 31.6905H47.0547L47.3984 33.0807H46.8984V33.4282L47.5859 34.9764L47.3984 35.5135L47.5859 36.0191L47.2422 37.5672L47.3984 38.1044H47.0547L46.8984 37.5672H46.5547L46.2109 38.9574C45.3984 39.5472 44.5443 39.8948 43.6484 40.0001ZM53.8984 39.4946V38.7995L53.3984 38.6099C52.9401 38.968 52.4193 39.0838 51.8359 38.9574L51.6797 38.1044L51.8359 37.4093H52.7109V36.7142L54.9297 34.8184L55.7734 34.6288L56.1172 33.9337L57.4922 32.2276L58.8672 31.88V32.5751L59.7109 32.8911C60.2943 33.3545 60.4714 33.9969 60.2422 34.8184L59.3672 35.5135L58.5234 35.3239L58.3359 36.3666C57.7734 36.4719 57.4922 36.8195 57.4922 37.4093C57.0339 37.8727 56.4089 38.0412 55.6172 37.9148L55.4297 39.147L55.2734 38.7995H54.7422L53.8984 39.4946ZM68.9609 38.9574C68.1693 38.9574 67.4818 38.7257 66.8984 38.2623L66.2109 37.5672L65.3672 36.2086H65.0234L64.5234 36.3666L64.1797 35.5135L63.3047 35.3239L63.1484 34.8184L64.8672 34.2813L65.0234 34.6288C66.3984 34.6288 67.5964 34.9237 68.6172 35.5135L69.1172 36.2086C70.1589 36.3139 71.0755 36.651 71.8672 37.2197L72.2109 38.1044L71.5234 38.6099L71.0234 38.7995L69.4609 38.6099L68.9609 38.9574ZM59.8984 34.2813V33.7758H59.3672V34.2813H59.8984ZM60.9297 33.4282V33.0807L60.3984 32.7331V32.3856L61.0859 32.2276L61.2734 33.4282H60.9297ZM56.6484 30.9954C55.9609 30.0686 55.6172 29.0364 55.6172 27.899H56.3047V27.2039H55.7734V26.3192L55.9609 25.8137H55.4297V25.1186L55.6172 24.613L55.4297 24.0759L55.6172 23.5704L55.4297 22.8753L55.6172 22.0222C55.4922 20.4635 55.4922 18.9048 55.6172 17.3461L55.2734 16.3034L55.7734 15.4187L55.6172 13.7126H55.9609L57.1484 14.5657L57.4922 13.8706H57.8359L58.1797 13.0175L58.6797 12.8279C59.263 11.7958 59.6693 10.7005 59.8984 9.54196L57.1484 9.38398V9.88951H56.6484L56.3047 9.19441C56.763 8.85739 56.9297 8.34133 56.8047 7.64622C57.9505 7.3092 59.0964 7.02484 60.2422 6.79314L61.2734 6.95112C62.8568 6.3824 64.5651 5.98219 66.3984 5.75049L66.5547 6.60357H67.0859L67.5859 6.09804V6.60357L66.8984 7.48825L67.0859 8.15175L66.8984 8.84685L63.9922 9.38398L63.3047 9.19441C63.4297 9.88951 63.263 10.532 62.8047 11.1217H62.2734V11.7852H62.6172V12.1328L61.7734 12.6699L60.9297 12.4803V13.0175L61.4297 13.7126L60.7422 13.8706L60.5859 14.4077L61.6172 14.5657C63.4297 14.1023 65.3047 13.702 67.2422 13.365L67.5859 14.5657L69.1172 15.0712L69.3047 15.7663L68.6172 16.651L69.1172 16.9985V17.504L70.1484 17.8516L69.4609 18.1991L69.3047 19.0522L68.9609 19.5894H68.6172V20.0949L69.3047 20.4424V20.79H68.4609V21.3271L68.9609 22.0222H69.4609L69.8047 21.8326L69.1172 22.3382V22.8753L69.3047 23.7284C68.7422 23.8548 68.4609 24.2023 68.4609 24.771L67.2422 24.9606V25.3081L67.7734 25.6241V25.9717H68.1172L68.2734 27.7094L66.8984 29.2576L66.5547 29.9527L65.8672 30.3003V29.6051H65.5234L65.3672 30.1423H64.8672V29.7947L65.0234 29.2576L64.1797 28.9416L63.9922 28.057H63.3047L62.9609 28.7521L62.6172 28.057H62.2734C61.1484 28.9838 59.8984 29.563 58.5234 29.7947L57.6797 30.3003L57.8359 29.9527L57.1484 29.7947V30.1423H56.4609V30.6478L56.6484 30.9954ZM46.0234 29.6051V29.0996L45.3359 28.7521V29.2576L46.0234 29.6051ZM43.8047 28.5941V28.057H43.4609V28.5941H43.8047ZM59.2109 27.3619L59.3672 26.8563H59.0234L58.6797 27.5514L59.2109 27.3619ZM64.1797 26.1612L64.3359 25.4661L64.1797 24.9606L64.5234 24.0759L63.9922 23.9179L63.4922 24.613C62.6797 24.613 62.0547 24.8974 61.6172 25.4661V25.8137L61.2734 26.5088H62.1172L63.4922 26.1612H64.1797ZM67.7734 26.3192V25.8137H67.2422V26.3192H67.7734ZM58.6797 25.9717L58.8672 25.4661H58.1797V26.1612L58.6797 25.9717ZM59.7109 25.3081V24.9606L59.8984 24.4235L59.2109 24.2655V25.3081H59.7109ZM61.0859 24.0759L60.7422 23.7284V24.0759H61.0859ZM60.7422 23.7284V23.3808L61.4297 23.0333L61.9297 23.2228L63.3047 22.8753L63.6484 21.8326H62.9609L62.4609 21.6747L60.7422 22.0222L60.0547 22.3382L59.5547 22.1802L58.8672 23.5704H59.2109L59.8984 23.3808C60.0026 23.7389 60.2839 23.8548 60.7422 23.7284ZM68.8047 23.0333V22.5277H68.4609L68.2734 23.0333H68.8047ZM60.9297 21.3271L61.0859 20.79H60.2422V21.1375L60.9297 21.3271ZM65.3672 19.7473V19.0522L65.8672 17.1565L64.3359 16.1138L63.1484 16.651C62.7943 17.1144 62.2214 17.3461 61.4297 17.3461L60.5859 17.1565L60.2422 17.6936H59.5547C59.2005 18.3677 59.0859 19.1154 59.2109 19.9369C60.8776 19.8526 62.5339 19.7895 64.1797 19.7473L64.8672 19.5894L65.3672 19.7473ZM58.5234 18.5467L58.1797 18.1991V18.5467H58.5234ZM59.8984 17.1565V16.4614H59.5547V17.1565H59.8984ZM63.1484 15.9559L63.3047 15.4187H62.8047L62.6172 15.9559H63.1484ZM65.0234 15.7663V15.2608H64.5234V15.7663H65.0234ZM40.0547 13.365L39.7109 13.0175V13.365H40.0547ZM66.3984 8.68888V7.99377L65.7109 7.8042L65.3672 8.68888H66.3984Z" fill="#483D3F"/>
<path d="M3.71875 31.1848V30.8373L4.21875 28.0568L3.875 27.2038L1.875 26.1611L1.6875 25.624L4.21875 24.2654L4.90625 24.6129L5.40625 22.8752H4.5625V21.8325L4.90625 21.1374C5.01042 19.8736 4.72917 18.7783 4.0625 17.8515C2.60417 17.9779 1.3125 17.6935 0.1875 16.9984L0 16.3033L0.5 15.0711H3.53125L4.21875 15.2606L4.71875 13.8704L4.375 11.2796L5.71875 10.2369C6.51042 11.8588 6.90625 13.6493 6.90625 15.6082L7.40625 15.7662L8.59375 15.2606L8.75 15.9557H9.09375L9.4375 15.2606L10.125 15.0711L9.78125 14.06L9.9375 13.5229H8.9375C9.33333 12.0484 9.5 10.5529 9.4375 9.03631H10.2812L10.625 7.99365L11.2812 9.38386H10.7812V9.88939L11.7812 10.079V10.7741L12.3125 10.932V11.4376L11.7812 11.7851V12.3222L12.4688 16.3033H12.8125L13.4688 15.9557L13.8125 16.6508L13.6562 17.5039L14.1562 18.7046L14 19.0521H13.6562L13.1562 18.8941C12.1354 19.4628 11.7396 20.3265 11.9688 21.485L12.125 23.2227H14V23.9178L12.8125 24.2654L12.4688 25.8136L12.625 26.6666L12.3125 27.5513L12.4688 28.2464L12.3125 28.9415L12.4688 29.447L12.125 29.605V30.1422L12.4688 30.8373L11.625 31.1848L10.125 30.8373L9.28125 30.9952L8.9375 30.8373V30.3001C9.375 29.4997 9.54167 28.6361 9.4375 27.7093L9.09375 27.0142H6.90625C6.57292 28.2991 6.17708 29.5734 5.71875 30.8373L4.71875 30.9952L4.21875 30.8373L3.71875 31.1848ZM8.4375 24.2654C9 24.0337 9.5625 23.802 10.125 23.5703L10.2812 22.8752L9.78125 21.8325L9.28125 20.9794L9.4375 19.0521H7.40625C7.26042 20.5687 7.09375 22.0747 6.90625 23.5703L8.4375 24.2654ZM13.4688 18.3886V18.041L13.1562 18.3886H13.4688ZM8.9375 17.3459V16.8088H8.4375V17.3459H8.9375ZM4.5625 15.7662L4.21875 15.4186L4.0625 15.9557L4.5625 15.7662ZM10.9688 13.5229L10.4375 13.3649V13.7125L10.9688 13.5229ZM12.3125 9.03631L12.125 8.3412L12.9688 8.15163V9.03631H12.3125Z" fill="#483D3F"/>
</svg>
