<svg width="1674" height="1200" viewBox="0 0 1674 1200" fill="none" xmlns="http://www.w3.org/2000/svg">
<path d="M1581.33 867.24C1493.79 961.57 1364.46 986.735 1254.87 1029.19C1038.42 1108.25 812.573 1078.41 567.738 1041.74C471.182 1027.27 363.205 1009.41 258.73 935.665C214.503 904.445 136.109 842.763 102.946 766.935C75.2541 703.615 71.7183 657.399 67.8657 598.126C54.7187 395.851 129.972 270.018 230.78 229.968C402.473 161.757 592.146 138.606 775.704 105.569C825.204 96.6596 869.934 75.3598 921.423 72.3958C994.255 68.2034 1071.64 82.5588 1148.54 95.2862C1246.97 111.575 1344.55 117.608 1450.68 189.383C1499.96 222.709 1602.14 334.17 1635.74 445.804C1719.17 722.962 1646.22 797.307 1581.33 867.24Z" fill="white" fill-opacity="0.5"/>
<path fill-rule="evenodd" clip-rule="evenodd" d="M2.50517 879.648C-12.2561 927.706 70.5709 973.284 104.328 1022.89C132.604 1064.43 128.045 1117.24 177.679 1137.05C231.218 1158.41 285.836 1148.31 329.134 1126.68C376.279 1103.14 417.589 1068.43 417.885 1017.1C418.199 962.513 382.354 906.1 330.642 864.656C278.127 822.569 211.677 798.575 148.804 801.447C84.142 804.402 18.6311 827.146 2.50517 879.648Z" fill="#BF6E52" fill-opacity="0.5" style="mix-blend-mode:plus-darker"/>
<path fill-rule="evenodd" clip-rule="evenodd" d="M1438.28 123.282C1458.33 124.958 1478.4 113.454 1495.94 123.283C1516.05 134.548 1534.09 158.387 1529.14 180.881C1524.27 202.982 1493.87 204.965 1475.16 217.714C1462.39 226.41 1453.36 239.397 1438.28 242.766C1418.59 247.166 1396.78 250.389 1380.17 238.933C1361.31 225.922 1350.4 203.705 1348.58 180.881C1346.61 156.207 1348.55 124.985 1370.09 112.76C1391.28 100.734 1413.99 121.251 1438.28 123.282Z" fill="#483D3F" fill-opacity="0.3" style="mix-blend-mode:plus-darker"/>
</svg>
