<svg width="371" height="299" viewBox="0 0 371 299" fill="none" xmlns="http://www.w3.org/2000/svg">
<path d="M315.423 56.6684L289.638 76.9638C289.36 77.166 289.026 77.2253 288.707 77.1291C288.388 77.033 288.11 76.789 287.931 76.4487C287.751 76.1084 287.685 75.6986 287.747 75.3059C287.808 74.9133 287.992 74.5686 288.259 74.3448L314.051 54.0403C314.33 53.8239 314.671 53.7548 314.997 53.8483C315.324 53.9417 315.61 54.19 315.792 54.5385C315.974 54.887 316.037 55.3072 315.968 55.7066C315.899 56.1061 315.703 56.452 315.423 56.6684Z" fill="#6F595D"/>
<path d="M290.273 76.0497L90.3584 233.7C90.0806 233.892 89.7513 233.945 89.438 233.847C89.1247 233.749 88.8513 233.509 88.6738 233.174C88.4963 232.84 88.4282 232.438 88.4836 232.05C88.539 231.662 88.7135 231.318 88.9715 231.089L288.893 73.4291C289.172 73.2268 289.506 73.1675 289.825 73.2637C290.144 73.3599 290.422 73.604 290.602 73.9445C290.781 74.285 290.847 74.6951 290.786 75.088C290.724 75.4809 290.54 75.8258 290.273 76.0497Z" fill="#6F595D"/>
<path d="M279.831 52.8058L123.924 175.811L79.9019 210.457C79.6219 210.673 79.2811 210.743 78.9544 210.649C78.6276 210.556 78.3417 210.307 78.1596 209.958C77.9774 209.61 77.914 209.189 77.9831 208.79C78.0523 208.39 78.2484 208.044 78.5283 207.827L278.45 50.1853C278.729 49.983 279.063 49.9237 279.382 50.0199C279.701 50.1161 279.98 50.3602 280.159 50.7007C280.339 51.0412 280.405 51.4513 280.343 51.8441C280.282 52.237 280.098 52.5819 279.831 52.8058Z" fill="#6F595D"/>
<path d="M304.276 29.9925L278.491 50.2878C278.213 50.49 277.879 50.5493 277.56 50.4532C277.241 50.357 276.963 50.113 276.784 49.7727C276.604 49.4324 276.539 49.0226 276.6 48.63C276.661 48.2373 276.845 47.8926 277.112 47.6688L302.904 27.3644C303.183 27.1868 303.509 27.1462 303.817 27.2507C304.125 27.3552 304.392 27.5972 304.566 27.9287C304.74 28.2603 304.807 28.6573 304.755 29.041C304.702 29.4248 304.534 29.7673 304.284 30.0009L304.276 29.9925Z" fill="#6F595D"/>
<path d="M288.466 73.5344C288.994 69.1969 288.401 64.7363 286.772 60.7763C284.901 56.7058 282.108 52.691 278.347 51.5373C276.792 51.0524 277.266 48.0514 278.829 48.5446C283.25 49.9077 286.655 54.308 288.861 59.1424C290.815 63.8008 291.533 69.0682 290.911 74.191C290.729 76.1443 288.283 75.4705 288.466 73.5344Z" fill="#6F595D"/>
<path d="M53.1751 227.431L78.9666 207.126C79.2453 206.924 79.5793 206.865 79.8981 206.961C80.2168 207.057 80.4952 207.301 80.6744 207.641C80.8536 207.981 80.9196 208.391 80.8582 208.784C80.7969 209.177 80.6132 209.521 80.3459 209.745L54.5544 230.05C54.2757 230.252 53.9417 230.311 53.623 230.215C53.3042 230.119 53.0258 229.875 52.8466 229.534C52.6674 229.194 52.6015 228.784 52.6628 228.392C52.7241 227.999 52.9078 227.654 53.1751 227.431Z" fill="#6F595D"/>
<path d="M64.2774 254.057L90.0689 233.753C90.3487 233.536 90.6893 233.467 91.0158 233.561C91.3423 233.654 91.628 233.902 91.81 234.251C91.992 234.599 92.0555 235.02 91.9864 235.419C91.9173 235.818 91.7213 236.164 91.4415 236.381L65.6567 256.676C65.378 256.878 65.044 256.938 64.7252 256.842C64.4065 256.745 64.1281 256.501 63.9489 256.161C63.7697 255.821 63.7038 255.411 63.7651 255.018C63.8264 254.626 64.0101 254.281 64.2774 254.057Z" fill="#6F595D"/>
<path d="M54.4733 230.026C53.7396 232.254 53.4307 234.668 53.5698 237.086C53.7088 239.505 54.2922 241.865 55.276 243.988C56.4286 246.268 57.8898 248.293 59.5946 249.974C61.1842 251.768 63.0722 253.11 65.1206 253.903C66.6901 254.387 66.2077 257.381 64.6448 256.887C62.263 256.014 60.0567 254.508 58.1843 252.477C56.1358 250.499 54.3976 248.076 53.059 245.333C51.9515 242.979 51.263 240.37 51.0399 237.684C50.9177 234.578 51.3301 231.49 52.2502 228.62C52.7908 226.77 55.0288 228.192 54.4939 230.017L54.4733 230.026Z" fill="#6F595D"/>
<path d="M80.1984 210.768C80.0847 211.279 79.8376 211.728 79.4945 212.045C79.3087 212.191 79.094 212.274 78.8718 212.285C79.7095 211.14 80.0256 210.837 79.8894 211.487L79.8204 211.933C79.6861 212.843 79.601 213.764 79.5657 214.69C79.5082 216.66 79.7816 218.632 80.3687 220.483C81.1233 223.115 82.2492 225.571 83.6941 227.737C85.3701 229.891 87.5536 231.341 89.9227 231.873C91.4915 232.34 91.009 235.334 89.4402 234.867C86.7461 234.24 84.2481 232.644 82.2647 230.284C80.4786 227.804 79.0833 224.941 78.1523 221.846C77.406 219.66 77.0344 217.317 77.0611 214.965C77.084 213.826 77.1749 212.693 77.3328 211.574C77.365 211.059 77.4632 210.556 77.6238 210.083C77.7544 209.771 77.9681 209.524 78.2302 209.384C79.3964 208.734 77.5979 210.544 77.9478 209.381C78.5035 207.546 80.7418 208.969 80.1918 210.777L80.1984 210.768Z" fill="#6F595D"/>
<path d="M369.57 39.1565C368.559 42.8063 365.207 44.2665 362.261 43.8155C358.408 43.2276 354.995 40.291 351.375 38.698C343.898 35.4285 335.9 34.5898 328.166 36.2645C323.99 37.1376 320 38.9629 316.398 41.6471C316.342 41.6893 316.275 41.7019 316.21 41.6824C316.145 41.6628 316.089 41.6125 316.053 41.5427C316.018 41.4729 316.006 41.3892 316.021 41.31C316.035 41.2308 316.075 41.1627 316.131 41.1206C322.175 36.7581 329.124 34.5817 336.199 34.8359C343.29 34.9631 350.303 37.0253 356.731 40.8735C358.882 42.1143 361.198 43.3904 363.614 43.2848C364.798 43.3199 365.955 42.9185 366.937 42.1324C367.919 41.3463 368.68 40.2115 369.124 38.8743C369.225 38.5119 369.672 38.7941 369.57 39.1565Z" fill="#6F595D"/>
<path d="M368.939 39.6463C359.515 30.279 350.706 19.846 340.493 11.7791C335.629 7.93317 330.185 4.19506 324.519 2.63237C321.603 1.81614 318.09 2.03852 316.049 4.94113C314.314 7.48048 314.95 10.8203 315.378 13.8145C315.806 16.8086 315.896 19.8373 314.41 22.5551C312.655 25.4231 310.291 27.6369 307.568 28.9615C306.847 29.3546 306.462 27.8967 307.176 27.4953C309.834 26.0301 312.824 23.7223 313.972 20.3177C314.968 17.4162 314.01 14.1448 313.703 11.1533C313.481 9.78251 313.524 8.3736 313.83 7.04112C314.135 5.70864 314.693 4.49021 315.459 3.48493C316.411 2.41595 317.543 1.61595 318.779 1.13914C320.014 0.662324 321.325 0.519839 322.621 0.721337C325.419 1.16592 328.152 2.14707 330.721 3.62888C333.469 5.06341 336.134 6.73727 338.695 8.63748C343.955 12.6277 348.969 17.0998 353.691 22.0146C359.106 27.3882 364.327 33.1193 369.765 38.5178C370.371 39.191 369.565 40.275 368.939 39.6463Z" fill="#6F595D"/>
<path d="M368.059 48.936C366.988 52.7798 363.429 54.32 360.332 53.8331C356.522 53.2258 353.108 50.3858 349.554 48.7027C342.681 45.3193 335.255 44.1353 327.983 45.2631C323.918 45.9566 320.028 47.6696 316.555 50.2965C316.416 50.3827 316.255 50.4018 316.103 50.3499C315.952 50.2979 315.82 50.1788 315.734 50.0156C315.648 49.8525 315.614 49.6571 315.638 49.4675C315.662 49.2779 315.743 49.1077 315.865 48.9901C321.652 44.7634 328.372 42.7918 335.161 43.3295C342.05 43.935 348.8 46.224 355.016 50.0621C357.109 51.2708 359.367 52.5321 361.704 52.4217C362.83 52.4646 363.933 52.0865 364.867 51.3375C365.8 50.5884 366.521 49.5037 366.933 48.2268C367.191 47.2991 368.31 48.0173 368.059 48.936Z" fill="#6F595D"/>
<path d="M367.721 46.4873C366.71 50.1364 363.359 51.5963 360.426 51.1272C356.609 50.529 353.232 47.7132 349.722 46.0627C342.791 42.6417 335.301 41.437 327.964 42.5629C323.83 43.2755 319.875 45.0212 316.342 47.6933C316.286 47.7354 316.218 47.7481 316.153 47.7285C316.089 47.7089 316.032 47.6587 315.997 47.5889C315.961 47.5191 315.95 47.4354 315.964 47.3562C315.979 47.2771 316.018 47.2089 316.074 47.1668C321.802 42.9662 328.464 41.0148 335.189 41.5677C342.015 42.1655 348.705 44.4309 354.865 48.2311C357.016 49.4717 359.339 50.7558 361.746 50.6419C362.936 50.6816 364.1 50.2793 365.086 49.4878C366.072 48.6963 366.835 47.5522 367.275 46.2052C367.376 45.8429 367.823 46.125 367.728 46.4957L367.721 46.4873Z" fill="#6F595D"/>
<path d="M368.971 44.1872C367.872 48.0503 364.334 49.7464 361.179 49.3757C357.319 48.9102 353.847 46.0553 350.265 44.3734C343.266 40.9893 335.714 39.8675 328.339 41.1168C324.193 41.8987 320.234 43.697 316.696 46.4057C316.529 46.5355 316.325 46.5773 316.13 46.5219C315.934 46.4665 315.763 46.3184 315.654 46.1102C315.545 45.9021 315.507 45.6509 315.548 45.4119C315.589 45.1729 315.705 44.9657 315.872 44.8359C321.751 40.4522 328.595 38.3475 335.533 38.7902C342.706 39.1131 349.38 41.7352 355.889 45.4199C358.017 46.6183 360.343 47.824 362.716 47.5725C363.786 47.5248 364.817 47.1021 365.687 46.3541C366.556 45.6061 367.229 44.5638 367.626 43.3497C367.937 42.2361 369.283 43.0911 368.971 44.1872Z" fill="#6F595D"/>
<path d="M362.156 42.4183L360.836 44.2237C361.506 44.4663 362.193 44.6263 362.887 44.7015C365.7 45.0276 368.819 43.4521 369.571 40.1981L369.539 39.574C356.791 26.9261 343.373 10.2798 328.078 3.35861C325.695 2.09822 323.129 1.48174 320.557 1.55157C318.015 1.83747 315.455 3.57567 314.581 6.51429C313.28 10.7783 315.753 15.667 314.759 19.9936C313.876 23.7236 310.331 26.7895 307.296 28.3433L306.81 29.3415C308.37 30.5126 309.806 31.9202 311.084 33.5301L312.164 32.2757C314.551 31.1634 318.474 27.3568 319.225 24.4767C320.079 21.1393 318.175 17.1776 319.224 13.9259C319.656 12.8267 320.333 11.9057 321.179 11.2679C322.024 10.6301 323.003 10.3012 324.005 10.319C326.06 10.3609 328.094 10.9449 329.967 12.0316C341.92 18.2191 352.284 31.8836 362.156 42.4183Z" fill="#6F595D"/>
<path d="M366.849 47.8874C367.698 44.9662 368.426 41.9914 369.03 38.974C369.237 38.002 370.468 38.3326 370.268 39.2956C369.633 42.4398 368.861 45.5472 367.979 48.599C367.939 48.6901 367.883 48.7701 367.817 48.8341C367.751 48.8981 367.674 48.945 367.592 48.9719C367.51 48.9989 367.425 49.0054 367.34 48.9911C367.255 48.9768 367.173 48.9419 367.099 48.8886C366.952 48.7912 366.839 48.6282 366.786 48.4338C366.732 48.2393 366.741 48.0286 366.811 47.8456L366.849 47.8874Z" fill="#6F595D"/>
<path d="M278.206 51.192C278.206 51.192 278.206 51.192 278.153 51.2645L278.378 50.9565C278.285 51.1182 278.211 51.2951 278.157 51.4823L278.259 51.1196C278.205 51.3061 278.172 51.5014 278.161 51.7002L278.191 51.3062C278.18 51.3781 278.177 51.4515 278.18 51.5248C278.199 51.7231 278.175 51.9228 278.111 52.1039C278.073 52.3079 277.989 52.4935 277.869 52.6395C277.765 52.7987 277.626 52.9176 277.468 52.9826C277.33 53.0832 277.17 53.1336 277.008 53.1282L276.688 53.1009C276.47 53.0429 276.268 52.9147 276.102 52.7295L275.854 52.4544C275.737 52.2285 275.667 51.9709 275.653 51.7058L275.65 51.5054C275.661 51.3216 275.666 51.1295 275.684 50.9367C275.698 50.8074 275.722 50.6804 275.757 50.558C275.808 50.3105 275.879 50.0702 275.969 49.8408C276.072 49.6093 276.188 49.3877 276.318 49.1776C276.425 49.0234 276.563 48.9054 276.718 48.8345C276.861 48.7468 277.018 48.6972 277.179 48.689C277.339 48.6808 277.5 48.7142 277.651 48.787C277.813 48.8417 277.962 48.9451 278.085 49.0876L278.332 49.3628C278.452 49.5911 278.524 49.8513 278.541 50.1197L278.518 50.5046C278.473 50.77 278.374 51.0153 278.229 51.2171L278.206 51.192Z" fill="#6F595D"/>
<path d="M53.203 236.943C46.8411 243.109 38.3328 245.856 30.4458 247.567C22.1086 249.354 13.4806 249.191 5.3496 252.242C4.76459 252.413 4.19693 252.658 3.65584 252.974C3.14154 253.324 2.97128 253.463 3.21815 254.132C3.74599 255.72 4.42022 257.257 5.01705 258.807L11.6697 276.184C12.6182 279.049 13.7558 281.818 15.0709 284.463C17.807 289.292 22.9767 287.16 25.0415 282.846C26.0672 280.698 26.5865 278.219 27.4654 275.973C28.4167 273.613 29.6195 271.423 31.0428 269.461C34.4772 264.597 38.7435 260.608 42.8551 256.644C46.9667 252.681 51.1243 249.064 55.953 246.783C57.4504 246.096 58.2314 249.033 56.7349 249.738C52.0442 251.942 47.9551 255.651 44.0469 259.43C40.1388 263.209 36.1647 266.948 32.9227 271.548C31.3562 273.726 30.0953 276.212 29.1897 278.907C28.499 281.504 27.5005 283.956 26.2258 286.182C23.9129 289.662 19.4437 291.618 15.9539 289.404C13.7031 287.973 12.4697 285.207 11.4397 282.535C10.2319 279.436 9.05155 276.318 7.85038 273.209L4.35837 264.123C3.18817 261.066 1.8048 258.002 0.808397 254.874C-0.0375749 252.193 1.67152 250.508 3.53819 249.689C5.87488 248.726 8.27386 247.993 10.7126 247.498C15.2731 246.498 19.907 246.105 24.4777 245.444C29.1861 244.831 33.8339 243.718 38.3695 242.117C43.2515 240.609 47.8377 237.973 51.886 234.347C53.137 233.14 54.5049 235.759 53.2605 236.958L53.203 236.943Z" fill="#6F595D"/>
<path d="M53.8221 243.768C47.1387 250.672 37.7522 252.538 29.2909 253.772C24.807 254.428 20.2969 254.71 15.8496 255.391C13.4532 255.722 11.0778 256.228 8.73581 256.905C7.59175 257.277 6.5025 257.612 5.40442 258.052C5.08689 258.155 4.78242 258.308 4.49865 258.509C4.27551 258.684 4.08418 258.914 3.93594 259.184C3.78769 259.453 3.68555 259.758 3.6355 260.08C3.62189 260.788 4.49651 262.087 4.77732 262.727L16.6133 289.19C17.8847 292.014 19.2786 295.434 21.9503 296.511C22.9547 296.892 24.0118 296.987 25.0405 296.787C26.0692 296.588 27.042 296.101 27.8842 295.362C30.029 293.473 30.7633 290.346 31.4649 287.412C32.8152 282.205 35.2064 277.521 38.4227 273.783C41.8815 269.617 45.5235 265.688 49.333 262.011C52.8759 258.471 56.6468 254.953 60.9683 252.918C61.7163 252.565 62.0962 254.039 61.3624 254.39C57.2071 256.347 53.5807 259.779 50.1647 263.165C46.3365 266.864 42.6792 270.82 39.2089 275.017C37.364 277.218 35.765 279.711 34.4523 282.433C33.4246 285.033 32.5966 287.748 31.979 290.546C30.6185 295.441 27.2809 299.111 22.8166 298.344C17.7511 297.467 15.5489 290.012 13.3741 285.183L2.97792 261.929C2.56135 260.99 2.10145 260.036 2.40944 258.982C3.06515 256.539 6.40768 256.029 8.1388 255.487C12.8255 254.227 17.5934 253.423 22.3983 253.084C27.6555 252.648 32.8779 251.802 38.034 250.551C43.4427 249.115 48.8822 246.891 53.1614 242.493C53.7679 241.868 54.452 243.186 53.8521 243.802L53.8221 243.768Z" fill="#6F595D"/>
<path d="M52.308 241.799C45.7995 248.52 36.6731 250.346 28.4228 251.552C24.0161 252.195 19.5765 252.474 15.1773 253.126C12.7521 253.46 10.3485 253.973 7.97926 254.662C6.93153 254.977 5.87894 255.336 4.85067 255.755C3.82241 256.174 2.56518 256.832 2.98188 258.609C3.27655 259.461 3.63643 260.279 4.05654 261.05L15.6232 286.951C16.9114 289.827 18.3487 293.262 21.1129 294.344C22.1452 294.729 23.2304 294.823 24.2865 294.618C25.3425 294.413 26.3416 293.915 27.2084 293.16C29.3258 291.289 30.1079 288.264 30.8153 285.305C32.1029 280.244 34.4032 275.684 37.5081 272.037C40.9002 267.941 44.4722 264.077 48.2088 260.46C51.6921 257 55.3734 253.531 59.5978 251.535C59.8953 251.389 60.0263 252.011 59.7553 252.121C55.5999 254.078 51.926 257.556 48.4976 260.977C44.7312 264.607 41.1387 268.5 37.7372 272.636C35.8765 274.887 34.2749 277.44 32.9751 280.228C32.0568 282.771 31.2992 285.401 30.7091 288.094C29.4139 292.603 26.2892 296 22.1754 295.293C17.352 294.439 15.2882 287.335 13.2481 282.787L2.97896 259.804C2.61854 258.994 2.18561 258.152 2.44986 257.213C3.0517 255.105 6.17638 254.632 7.66398 254.181C12.2549 252.939 16.9273 252.155 21.6362 251.837C26.9108 251.393 32.1494 250.531 37.3197 249.257C42.6022 247.845 47.923 245.654 52.0936 241.348C52.3057 241.057 52.6038 241.618 52.3682 241.866L52.308 241.799Z" fill="#6F595D"/>
<path d="M51.5572 240.995C45.0831 247.687 35.9912 249.486 27.7639 250.716C23.4065 251.349 19.0163 251.616 14.6663 252.256C12.3401 252.572 10.0347 253.062 7.76309 253.725C6.7079 254.032 5.65538 254.391 4.62717 254.81C3.96056 255.088 3.04463 255.484 2.99968 256.551C2.97502 257.181 3.75587 258.311 4.01898 258.882L11.717 276.085L15.5563 284.635C16.7405 287.28 18.042 290.417 20.4767 291.576C21.4414 291.988 22.4673 292.115 23.4697 291.946C24.4721 291.776 25.4223 291.315 26.2421 290.601C28.1777 288.923 28.9222 286.136 29.5579 283.441C30.8215 278.332 33.1034 273.714 36.1992 270.003C39.6492 265.837 43.2896 261.916 47.1035 258.258C50.5317 254.837 54.1749 251.457 58.3443 249.499C59.2443 249.069 59.71 250.835 58.8166 251.256C54.7794 253.163 51.2486 256.52 47.9282 259.831C44.226 263.396 40.6941 267.218 37.3492 271.28C35.5484 273.452 33.995 275.914 32.7296 278.602C31.7902 281.111 31.0168 283.713 30.4169 286.383C29.0484 291.122 25.6936 294.592 21.3757 293.773C16.4858 292.861 14.3637 285.725 12.276 281.075L4.09779 262.797L2.01939 258.19C1.7897 257.791 1.62894 257.34 1.54737 256.865C1.46579 256.389 1.46519 255.901 1.54555 255.43C2.16236 253.059 5.20684 252.546 6.87561 252.033C11.4454 250.761 16.1008 249.958 20.7944 249.631C25.9832 249.21 31.1377 248.382 36.2269 247.152C41.4109 245.762 46.6284 243.637 50.725 239.414C51.4526 238.661 52.2631 240.235 51.5422 240.978L51.5572 240.995Z" fill="#6F595D"/>
<path d="M368.911 39.6817C359.43 30.3174 350.625 19.806 340.334 11.7345C335.561 8.00565 330.216 4.42761 324.691 2.85776C321.74 2.03466 318.24 2.23898 316.175 5.22969C314.434 7.79539 315.02 11.1117 315.46 14.2182C315.901 17.3246 315.981 20.1452 314.533 22.7742C312.803 25.59 310.48 27.7673 307.806 29.0791C307.229 29.404 306.915 28.2206 307.492 27.9131C310.164 26.4298 313.16 24.1131 314.341 20.6633C315.318 17.8062 314.435 14.618 314.124 11.6875C313.812 8.75704 314.077 6.18831 315.688 4.13329C316.618 3.04891 317.735 2.23358 318.96 1.74474C320.184 1.2559 321.487 1.10544 322.776 1.30396C325.407 1.71463 327.98 2.6183 330.405 3.9834C333.235 5.42638 335.977 7.12573 338.609 9.06717C343.795 12.9946 348.74 17.3913 353.403 22.2198C358.89 27.6245 364.119 33.3638 369.571 38.779C370.058 39.3191 369.39 40.2136 368.911 39.6817Z" fill="white"/>
<path d="M51.9824 239.168L52.7451 242.725C52.8256 243.05 52.8198 243.395 52.7286 243.711C52.6375 244.026 52.4658 244.296 52.2387 244.479C49.3935 246.618 46.3561 248.353 43.1829 249.654C41.8694 250.183 40.8496 247.704 42.1245 246.836C44.8483 245.049 47.3845 242.869 49.6804 240.341L51.3043 242.702L43.1349 247.596C41.745 248.435 40.3665 246.018 41.7675 244.978L48.9301 239.672L49.9809 242.482C45.9703 244.953 41.7416 246.869 37.371 248.195C35.824 248.597 35.0296 245.81 36.5827 245.25C38.9728 244.45 41.3014 243.409 43.5449 242.137L44.6033 244.955C40.7097 247.222 36.6326 248.997 32.4332 250.254C32.2769 250.313 32.112 250.334 31.9479 250.315C31.7837 250.296 31.6236 250.238 31.4765 250.143C31.3294 250.048 31.1983 249.92 31.0907 249.764C30.9831 249.608 30.9011 249.428 30.8493 249.235C30.7976 249.041 30.7771 248.838 30.7891 248.637C30.801 248.435 30.8452 248.239 30.9191 248.061C30.993 247.882 31.0951 247.723 31.2196 247.594C31.3442 247.465 31.4887 247.368 31.6449 247.309C35.0712 245.949 38.709 245.508 42.3167 246.014C43.6233 246.184 43.5816 248.569 42.4684 248.992C40.3395 249.805 38.2467 250.723 36.1901 251.747L35.4019 248.802C37.4314 247.871 39.5138 247.114 41.6342 246.538C41.7904 246.478 41.9553 246.458 42.1194 246.477C42.2836 246.496 42.4438 246.554 42.5909 246.649C42.7379 246.743 42.869 246.872 42.9766 247.028C43.0842 247.184 43.1662 247.364 43.218 247.557C43.2698 247.751 43.2903 247.954 43.2783 248.155C43.2663 248.357 43.2221 248.552 43.1483 248.731C43.0744 248.91 42.9723 249.068 42.8477 249.198C42.7232 249.327 42.5787 249.424 42.4224 249.483C39.8073 250.635 37.1061 251.486 34.3531 252.024C32.9697 252.295 32.4777 249.318 33.8575 248.977C35.506 248.613 37.1251 248.087 38.6995 247.403L39.2017 250.441L29.869 251.711C28.4746 251.904 27.9954 249.04 29.3668 248.673L35.7787 247.151L36.2744 250.198C32.4976 250.03 28.7283 250.436 25.052 251.407C23.506 251.826 22.6921 248.934 24.2638 248.462C26.5455 247.793 28.7615 246.84 30.878 245.619L31.9364 248.437C28.6813 249.511 25.401 250.414 22.0955 251.147L21.5999 248.1C25.5459 248.291 29.6177 246.635 33.5267 248.33C33.8407 248.398 34.1249 248.607 34.3228 248.918C34.5207 249.228 34.6178 249.617 34.5946 250.005C34.5715 250.394 34.4298 250.755 34.1979 251.016C33.966 251.276 33.6608 251.418 33.3432 251.412L25.2543 253.011C23.8643 253.291 23.3873 250.33 24.7521 249.973C27.5752 249.304 30.4398 248.899 33.3216 248.76C34.9703 248.684 35.0233 251.536 33.4711 251.833C30.4819 252.435 27.4641 252.831 24.432 253.018C22.7842 253.111 22.7077 250.217 24.275 249.936C26.8277 249.485 29.4112 249.297 31.9985 249.377C32.3186 249.384 32.6271 249.541 32.8606 249.816C33.0941 250.092 33.2349 250.464 33.254 250.858C33.2732 251.251 33.1692 251.635 32.9635 251.931C32.7578 252.228 32.4659 252.413 32.1479 252.451C27.125 253.117 22.0454 253.227 16.995 253.353C16.6629 253.37 16.3362 253.224 16.0867 252.947C15.8371 252.67 15.6853 252.285 15.6644 251.876C15.6436 251.467 15.7556 251.069 15.9757 250.768C16.1958 250.467 16.506 250.288 16.8381 250.271L23.476 249.427L23.6255 252.501C20.9119 252.711 18.2285 253.26 15.6166 254.139L14.8283 251.194C17.3532 250.476 19.947 250.145 22.5512 250.207C23.8467 250.298 24.5305 252.865 23.0534 253.245C19.9156 253.994 16.6815 254.038 13.5066 253.374C12.3173 253.138 12.1233 250.721 13.355 250.396C16.0154 249.63 18.617 248.602 21.1347 247.32L21.6369 250.359C16.3587 250.509 11.1363 251.536 6.11123 253.41L5.61562 250.363C9.27677 249.696 13.0414 249.112 16.6617 250.568C16.9756 250.636 17.2599 250.846 17.4578 251.156C17.6557 251.467 17.7528 251.855 17.7296 252.244C17.7065 252.632 17.5648 252.993 17.3329 253.254C17.101 253.514 16.7958 253.656 16.4782 253.65L7.94182 254.818L7.78488 251.736L14.743 251.329C16.1578 251.257 16.6458 254.017 15.2386 254.377C12.9541 254.918 10.6523 255.352 8.33322 255.68L8.17628 252.598C9.67218 252.455 11.1585 252.207 12.6279 251.856L13.1235 254.903C10.3175 254.998 7.54292 255.56 4.87503 256.572L4.10092 253.626L6.05016 253.047C7.31769 252.729 8.51262 255.025 7.10855 255.864L4.80526 257.151L4.03644 254.31C4.95156 254.123 5.84244 253.799 6.68952 253.346L7.18513 256.393C6.33581 256.496 5.49827 256.699 4.6841 257C4.45032 257.08 4.20154 257.074 3.96734 256.984C3.73313 256.895 3.52335 256.725 3.36297 256.495C3.20259 256.265 3.09836 255.985 3.06265 255.687C3.02694 255.39 3.06127 255.088 3.16156 254.817C3.45222 253.877 3.86239 253.002 4.37704 252.224L5.07419 254.772C4.97516 254.746 4.87323 254.744 4.77449 254.767C4.67574 254.79 4.5822 254.837 4.49944 254.906C3.53261 255.558 1.96376 254.276 2.68777 252.895L3.05596 252.187L4.86763 254.198L4.13954 254.802L4.70793 253.429C4.83018 254.507 4.8784 255.594 4.85207 256.678C4.78823 258.627 2.30659 258.78 2.35451 256.796C2.37508 255.715 2.32465 254.632 2.20373 253.557C2.18771 253.283 2.23208 253.012 2.33215 252.77C2.43222 252.528 2.58426 252.325 2.77212 252.184L3.50022 251.579C4.45997 250.788 5.99037 252.29 5.31189 253.59L4.93707 254.308L3.1254 252.296C3.86042 251.766 4.72703 251.568 5.57912 251.735C5.79368 251.796 5.99274 251.925 6.15671 252.108C6.32068 252.292 6.44389 252.523 6.51424 252.78C6.58459 253.037 6.59963 253.311 6.5579 253.575C6.51617 253.838 6.41911 254.083 6.27625 254.283C5.9146 254.864 5.62939 255.511 5.43074 256.203L3.91571 254.028C4.9365 253.66 5.98522 253.41 7.04807 253.284C8.54906 253.094 8.74441 255.676 7.55031 256.322C6.49741 256.848 5.39494 257.218 4.2659 257.423C3.06468 257.65 2.40115 255.205 3.50373 254.573L5.80702 253.286L6.8579 256.095L4.88345 256.598C3.34314 256.99 2.52879 254.23 4.10931 253.652C6.977 252.563 9.95892 251.956 12.975 251.847C14.3566 251.82 14.8836 254.508 13.4772 254.885C11.7928 255.301 10.0893 255.603 8.37434 255.791C6.75176 255.961 6.63332 252.938 8.21742 252.709C10.3232 252.419 12.4096 252.024 14.5397 251.514L15.0352 254.562L8.07714 254.968C6.4435 255.06 6.3352 252.098 7.92019 251.886L16.4566 250.718L16.2656 253.792C12.8411 252.421 9.31217 253.038 5.82831 253.704C4.40161 253.96 4.03337 251.185 5.3327 250.657C10.5597 248.705 15.9923 247.635 21.4831 247.477C21.7985 247.439 22.1165 247.549 22.3737 247.785C22.6309 248.02 22.8084 248.365 22.8709 248.749C22.9334 249.134 22.8763 249.53 22.711 249.859C22.5456 250.188 22.2842 250.425 21.9787 250.524C19.5069 251.727 16.9559 252.68 14.3507 253.374L14.199 250.397C16.9503 250.989 19.7552 250.97 22.4801 250.342L22.9823 253.38C20.5905 253.309 18.2068 253.598 15.8841 254.239C14.342 254.597 13.5361 251.862 15.0958 251.294C17.9108 250.341 20.8031 249.743 23.7285 249.51C25.3462 249.384 25.4704 252.38 23.8779 252.584L17.2475 253.436L17.0905 250.354C22.1493 250.254 27.2271 250.109 32.2509 249.46L32.4003 252.534C29.8154 252.457 27.2344 252.647 24.6844 253.101L24.5275 250.019C27.5597 249.831 30.5774 249.436 33.5666 248.834L33.716 251.908C31.0548 252.021 28.4084 252.377 25.7986 252.975L25.2963 249.936L33.3291 248.209L33.1456 251.291C29.4616 249.698 25.6096 251.352 21.8532 251.124C20.5512 251.042 19.8796 248.44 21.3576 248.077C24.6593 247.362 27.9374 246.462 31.1919 245.377C32.4824 244.953 33.6062 247.383 32.2428 248.186C29.9395 249.539 27.5277 250.603 25.0428 251.363L24.2545 248.418C28.1403 247.372 32.127 246.925 36.1232 247.089C37.4451 247.144 38.0742 249.748 36.6254 250.128L30.2134 251.65L29.7179 248.603L39.0505 247.333C40.5316 247.17 40.7995 249.784 39.5461 250.38C37.9726 251.067 36.3532 251.594 34.7042 251.954L34.2019 248.915C36.7389 248.403 39.2267 247.602 41.6333 246.521L42.4216 249.466C40.3012 250.042 38.2188 250.798 36.1892 251.73C34.6715 252.427 33.935 249.523 35.4009 248.785C37.4487 247.772 39.5415 246.854 41.6792 246.029L41.8308 249.007C38.6375 248.604 35.4253 249.035 32.4058 250.273L31.6175 247.328C35.8175 246.073 39.8949 244.298 43.7876 242.029C45.0648 241.344 46.147 244.074 44.8385 244.839C42.4091 246.237 39.887 247.387 37.2972 248.278L36.5089 245.333C40.8796 244.001 45.1101 242.088 49.1264 239.627C50.4084 238.899 51.3863 241.529 50.1772 242.437L43.1349 247.596L41.7675 244.978L49.9037 240.129C51.0394 239.451 52.6623 241.237 51.5266 242.473C49.0736 245.196 46.3663 247.554 43.4588 249.5L42.4079 246.691C45.374 245.469 48.2145 243.846 50.8779 241.851L50.379 243.614L49.6163 240.056C49.1991 238.131 51.5785 237.224 51.9957 239.149L51.9824 239.168Z" fill="#6F595D"/>
<path d="M14.896 287.709C11.1771 278.201 7.29164 268.792 3.23955 259.481C2.48094 257.741 4.58217 256.071 5.32188 257.856C9.36341 267.145 13.2514 276.557 16.9858 286.092C17.6683 287.862 15.6208 289.477 14.896 287.709Z" fill="#6F595D"/>
<path d="M15.868 286.714C11.3579 277.07 7.17558 267.218 3.32117 257.159C2.6304 255.363 4.99677 254.479 5.68665 256.257C9.45751 266.061 13.5477 275.674 17.9573 285.098C18.7637 286.809 16.6827 288.451 15.868 286.714Z" fill="#6F595D"/>
<path d="M16.518 292.959C14.5606 290.497 13.0683 287.538 12.1511 284.3C12.0855 284.044 12.0746 283.773 12.1194 283.513C12.1642 283.253 12.2632 283.014 12.4067 282.817C12.5503 282.621 12.7335 282.475 12.9386 282.393C13.1436 282.311 13.3636 282.296 13.577 282.35C14.5667 282.73 15.4563 283.441 16.1457 284.401L16.3702 284.65C16.3702 284.65 16.6876 284.92 16.4825 284.774L17.0847 285.23C17.625 285.603 18.0753 286.148 18.3865 286.806C18.5571 287.155 18.6143 287.568 18.5464 287.961C18.4784 288.354 18.2905 288.696 18.021 288.919C17.7422 289.128 17.4059 289.193 17.0835 289.101C16.7611 289.008 16.478 288.766 16.2942 288.425C15.6844 287.405 15.0702 286.298 14.4982 285.188C14.3177 284.843 14.2548 284.426 14.3233 284.03C14.3919 283.633 14.5862 283.29 14.8637 283.075C15.1412 282.861 15.479 282.792 15.8029 282.885C16.1267 282.978 16.4101 283.224 16.5906 283.57C17.1476 284.662 17.7244 285.728 18.3865 286.806L16.2942 288.425C16.2942 288.425 16.1273 288.06 16.2057 288.212C16.284 288.365 16.0859 288.079 16.0635 288.055L15.7491 287.706C15.3512 287.411 14.969 287.085 14.605 286.73C14.3206 286.414 14.0436 286.107 13.7593 285.791L13.5422 285.55C13.4 285.392 13.7755 285.694 13.4898 285.492L13.293 285.371C13.4757 285.492 13.2931 285.371 13.157 285.335L14.5829 283.385C15.3535 286.11 16.5965 288.606 18.2247 290.699C18.4728 290.975 18.6238 291.358 18.6445 291.764C18.6652 292.17 18.5539 292.567 18.335 292.866C18.1162 293.165 17.8077 293.343 17.4775 293.36C17.1473 293.376 16.8224 293.231 16.5743 292.956L16.518 292.959Z" fill="#6F595D"/>
<path d="M52.155 235.284C45.8332 241.413 37.4339 244.085 29.6143 245.74C21.2689 247.519 12.6476 247.364 4.50931 250.424C3.10288 250.95 1.07546 251.542 1.70562 253.885C2.23668 255.485 2.83982 257.049 3.51217 258.57L6.78636 267.135L10.1796 275.947C11.1536 278.918 12.3274 281.788 13.6886 284.527C16.893 290.188 22.9512 287.941 25.3933 282.813C26.4192 280.665 26.946 278.193 27.8175 275.94C28.7325 273.682 29.8851 271.586 31.2462 269.705C34.6278 264.914 38.8198 260.989 42.8645 257.098C46.9092 253.207 50.9491 249.64 55.7291 247.37C56.0277 247.242 56.1653 247.855 55.88 247.965C51.1057 250.208 46.9465 253.939 42.9566 257.792C38.9667 261.645 34.9308 265.431 31.6222 270.123C29.9887 272.393 28.6708 274.981 27.72 277.787C27.0707 280.285 26.122 282.643 24.9049 284.785C22.8619 287.858 18.9531 289.681 15.8179 287.745C13.8313 286.493 12.731 283.973 11.7886 281.629C10.5807 278.529 9.40018 275.411 8.19891 272.302L4.70658 263.216C3.52965 260.167 2.14527 257.085 1.15631 253.966C0.536369 251.963 1.8671 250.926 3.24831 250.323C5.58478 249.347 7.98681 248.611 10.43 248.123C14.9002 247.153 19.4505 246.782 23.9667 246.159C28.7664 245.505 33.5023 244.34 38.1215 242.679C42.9856 240.946 47.8913 238.636 51.8502 234.732C52.1076 234.492 52.3757 235.019 52.1249 235.25L52.155 235.284Z" fill="white"/>
<path d="M5.54276 259.223C5.36747 257.596 6.51748 256.583 7.52926 255.928C8.61366 255.216 9.73937 254.6 10.8979 254.086C11.083 254.025 11.2811 254.053 11.4536 254.162C11.6261 254.271 11.7607 254.455 11.831 254.677C11.8816 254.905 11.8626 255.147 11.7776 255.356C11.6926 255.565 11.5475 255.727 11.3697 255.811C10.4323 256.218 9.51868 256.7 8.63484 257.254C8.19498 257.494 7.78082 257.797 7.40104 258.157C7.27637 258.256 7.17703 258.396 7.11394 258.561C7.05086 258.726 7.02647 258.911 7.04348 259.094C7.05585 259.339 6.9886 259.578 6.85649 259.759C6.72438 259.94 6.53822 260.047 6.3389 260.057C6.14021 260.064 5.94557 259.975 5.79639 259.81C5.6472 259.644 5.55525 259.415 5.5401 259.171L5.54276 259.223Z" fill="#6F595D"/>
<path d="M311.134 40.079C294.573 52.969 277.997 65.8422 261.405 78.6986C244.814 91.555 228.129 104.44 211.351 117.352C194.8 130.066 178.242 142.784 161.677 155.505L61.8459 232.246L55.6748 236.942C52.9537 239.035 50.1864 233.786 52.9216 231.692L152.745 154.943C169.296 142.229 185.851 129.503 202.411 116.765C218.97 104.027 235.583 91.2218 252.249 78.3498C268.919 65.4485 285.578 52.5185 302.226 39.5599C304.287 37.9885 306.326 36.4037 308.344 34.8054C311.064 32.6951 313.816 37.9269 311.134 40.079Z" fill="#6F595D"/>
<path d="M312.19 45.2755C295.511 58.2369 278.82 71.1727 262.116 84.0828C245.411 96.993 228.611 109.94 211.716 122.924C195.062 135.715 178.407 148.509 161.749 161.306L61.2323 238.396L55.0605 243.092C54.9211 243.179 54.7592 243.198 54.6064 243.146C54.4537 243.093 54.3211 242.974 54.2345 242.809C54.1478 242.645 54.1134 242.449 54.1378 242.258C54.1623 242.067 54.2439 241.896 54.3667 241.778L154.87 164.706C171.523 151.915 188.181 139.118 204.844 126.315C221.506 113.513 238.22 100.64 254.984 87.6975C271.771 74.7247 288.545 61.7321 305.306 48.7198L311.478 44.0234C311.617 43.9152 311.786 43.8802 311.949 43.9262C312.111 43.9722 312.254 44.0953 312.345 44.2684C312.436 44.4416 312.468 44.6507 312.434 44.8497C312.4 45.0486 312.303 45.2212 312.164 45.3294L312.19 45.2755Z" fill="#6F595D"/>
</svg>
