<svg width="84" height="47" viewBox="0 0 84 47" fill="none" xmlns="http://www.w3.org/2000/svg">
<path fill-rule="evenodd" clip-rule="evenodd" d="M83.9015 23.3242C84.1642 27.4982 80.2408 31.1825 77.338 34.9545C74.2106 39.0186 72.7965 44.3811 66.216 46.3061C59.5754 48.2486 51.8696 45.6133 44.7529 44.4864C39.0831 43.5886 34.3617 41.5484 28.82 40.3845C21.6818 38.8853 12.7652 39.9374 7.42664 36.6467C2.03606 33.3239 1.61236 28.0212 1.14255 23.3242C0.652572 18.4255 0.602882 13.2331 4.66288 9.01533C8.70726 4.81374 15.6481 1.61759 23.2773 0.329097C30.3752 -0.869663 37.4838 1.53951 44.7529 2.24455C50.8404 2.83499 57.1876 2.39904 62.661 4.14896C68.2579 5.93835 72.3466 8.99084 75.9067 12.2048C79.678 15.6095 83.6421 19.2009 83.9015 23.3242Z" fill="#BF6E52"/>
</svg>
