<svg width="412" height="6" viewBox="0 0 412 6" fill="none" xmlns="http://www.w3.org/2000/svg">
<path d="M13.7101 5.18711C14.0638 5.18711 14.5756 5.33944 14.7356 5.15259C14.9949 4.85005 15.2435 5.26742 15.4616 5.00608C15.5435 4.90746 15.8675 5.02898 16.0793 5.06186C16.2997 5.09598 16.5169 5.16255 16.7381 5.17837C16.8287 5.18503 16.9256 5.0964 17.0193 5.05104C16.9166 5.01234 16.7966 4.99694 16.7158 4.92869C16.6405 4.86544 16.5609 4.74143 16.5687 4.65321C16.5758 4.57331 16.6981 4.44472 16.7719 4.44305C17.0699 4.43723 17.3484 4.39603 17.632 4.66403C18.0747 5.08267 18.3461 5.08599 18.8148 4.64696C19.2282 4.25994 19.8196 4.64198 20.1726 4.18047C20.3561 4.4364 20.489 4.7485 20.8216 4.8388C20.8165 5.35982 20.9734 5.02316 21.1812 4.96864C21.3985 4.91163 21.6687 4.5425 21.9331 4.92452C21.9362 4.92952 22.1441 4.79095 22.2413 4.70106C22.3068 4.63989 22.3574 4.47302 22.3943 4.47968C22.5939 4.51588 22.954 4.24537 22.9991 4.01858C23.0077 3.97613 23.1249 3.95783 23.434 3.87085C23.5779 3.85629 23.4956 3.91996 23.4132 3.92038C23.3395 3.92038 23.1987 3.83631 23.203 3.81342C23.2261 3.68775 23.2849 3.56915 23.3316 3.44805C23.4359 3.55875 23.5407 3.66944 23.434 3.87085C23.2199 4.08392 23.2473 4.23913 23.2752 4.39477C23.5615 4.30821 23.9615 4.73685 24.1501 4.1634C24.1846 4.05895 24.3568 4.00567 24.4654 3.92869C24.5058 4.06435 24.6164 4.27951 24.5741 4.32154C24.3929 4.50215 24.3709 4.64405 24.589 4.77472C24.709 4.84671 24.9004 4.94949 24.9835 4.89872C25.5291 4.56539 26.0479 4.59162 26.6021 4.88084C26.7092 4.9366 26.9601 4.81216 27.0723 4.69397C27.2241 4.53459 27.3104 4.30281 27.4163 4.09724C27.6959 3.55334 28.1485 3.49256 28.5438 3.9549C28.5752 3.99194 28.5779 4.07309 28.5689 4.12927C28.554 4.2204 28.5183 4.30739 28.4913 4.39644C28.5983 4.3902 28.7744 4.42475 28.8015 4.37231C29.1313 3.73228 29.5333 3.41893 30.1992 3.90956C30.2659 3.95867 30.4271 3.43391 30.5244 3.91497C30.5373 3.97947 30.3526 4.15674 30.2483 4.16798C29.9357 4.2021 29.6176 4.1734 29.3023 4.18588C29.2399 4.18838 29.1803 4.26534 29.1196 4.30821C29.1823 4.3494 29.2513 4.43388 29.3074 4.42515C29.9855 4.31736 30.7118 4.69731 31.3499 4.20044C31.9382 4.32653 32.4492 3.91578 33.0207 3.92993C33.4607 3.94075 33.5101 3.7514 33.2544 3.41849C33.1069 3.22664 33.0728 2.96782 33.2995 2.94951C33.5517 2.92912 34.0188 2.69441 34.0713 3.15883C34.1368 3.73852 34.3514 3.94575 34.8777 3.94283C35.0812 3.94159 35.2804 4.12469 35.4918 4.17046C35.6307 4.20043 35.906 4.16506 35.9193 4.10722C36.0966 3.33402 36.7751 3.59244 37.0284 3.72394C37.5108 3.97363 37.8634 4.03189 38.2791 3.68274C38.3277 3.64196 38.4344 3.68775 38.5117 3.67484C38.6952 3.64405 38.8776 3.60161 39.0603 3.56415C38.8823 3.4339 38.7035 3.30573 38.5274 3.17298C38.4732 3.13219 38.4274 3.07893 38.3779 3.03107C38.4427 2.99486 38.5046 2.93744 38.5729 2.92703C38.6889 2.90955 38.8933 2.87999 38.9149 2.92868C39.28 3.74932 40.1506 3.18462 40.6695 3.64779C40.7966 3.76099 41.2688 3.58579 41.4829 3.4081C41.8386 3.11305 42.0657 3.98793 42.3441 4.36163C42.563 4.65584 42.772 4.73283 42.8748 4.23138C42.9309 3.95797 43.1469 3.97213 43.3121 4.14774C43.7882 4.65419 43.8697 4.67584 44.2019 4.25137C44.2909 4.13776 44.2866 3.93634 44.3815 3.83439C44.5349 3.66918 44.9514 3.82938 44.9902 4.07324C45.0279 4.31128 44.9404 4.56596 45.3295 4.56096C45.653 4.5568 45.7264 4.43405 45.7221 4.12361C45.7205 4.015 45.8609 3.81192 45.9421 3.80817C46.5727 3.78154 47.21 3.7449 47.8344 3.81648C48.0987 3.84686 48.3376 4.25967 48.5878 4.25967C48.8384 4.25967 49.0812 3.83937 49.3408 3.82189C49.7377 3.79484 50.1844 3.62339 50.5601 4.01665C50.7523 4.21765 51.0068 3.64505 51.3229 4.01833C51.428 4.14234 51.8045 4.0974 52.0402 4.27509C52.1124 4.32961 52.3544 4.06119 52.5202 4.05953C52.8579 4.05536 53.2199 4.06866 53.5286 4.19475C53.7917 4.30212 53.7427 4.16772 53.7702 4.01833C53.8258 3.71704 54.0184 3.72202 54.1871 3.87058C54.5792 4.21598 54.7259 4.11278 54.7232 3.59842C54.7228 3.50021 54.8036 3.4016 54.8471 3.30298C54.8828 3.41284 54.8883 3.56097 54.9601 3.62547C55.1236 3.77154 55.3122 3.89306 55.506 3.99168C55.5934 4.03621 55.7166 4.00208 55.8233 4.00375C55.8197 3.86059 55.8727 3.65711 55.8037 3.58511C55.5378 3.30838 55.8448 3.20227 55.9425 3.14276C56.3335 2.90514 56.5963 2.99044 56.8908 3.4715C57.1171 3.84104 57.4842 3.54724 57.7352 3.73576C58.2337 3.25927 58.9721 3.83064 59.4592 3.29381C59.4785 3.273 59.5695 3.2859 59.5703 3.29172C59.6569 3.89805 60.0526 3.67334 60.3985 3.67168C60.8154 3.66959 61.2316 3.7678 61.6496 3.78902C62.083 3.81149 62.5187 3.81108 62.9521 3.78902C63.3701 3.7678 63.7859 3.68373 64.2039 3.67124C64.4306 3.66459 64.6608 3.79028 64.8875 3.78321C65.144 3.7753 65.4033 3.62838 65.6523 3.65169C65.8284 3.66833 65.9825 3.95008 66.1578 3.96507C66.3876 3.98462 66.6253 3.82607 66.8645 3.80152C67.1775 3.76947 67.496 3.80025 67.8109 3.78402C67.8438 3.78235 67.9156 3.60966 67.8929 3.57803C67.6983 3.30629 67.4858 3.04911 66.9281 2.78777C66.772 2.78777 66.9677 2.7807 67.1618 2.79318C67.203 2.7961 67.2811 2.88849 67.2728 2.90888C67.2022 3.08491 67.1324 3.26801 67.0218 3.41407C66.9963 3.44778 66.8155 3.32709 66.703 3.31461C66.5998 3.30296 66.49 3.33376 66.3865 3.36081C66.301 3.38328 66.1571 3.47192 66.1476 3.45611C66.0496 3.29631 65.9739 3.1211 65.8919 2.95048C66.0033 2.89638 66.1108 2.82191 66.2276 2.79362C66.339 2.76657 66.4602 2.78777 66.9281 2.78777C67.3215 2.36663 67.6368 2.6105 67.8215 2.53393C68.2988 2.33668 68.1297 3.0641 68.4333 3.0279C68.8737 2.97505 69.0036 3.14484 68.9549 3.58595C68.949 3.64088 69.2016 3.81025 69.2777 3.7778C69.5142 3.67584 69.7173 3.49107 69.9456 3.36289C70.0346 3.31296 70.2393 3.28964 70.2511 3.31877C70.4762 3.86809 70.9402 3.49689 71.243 3.63713C71.4849 3.74949 71.6136 3.86059 71.8367 3.63337C71.9042 3.56471 72.1348 3.57845 72.2242 3.6492C72.7015 4.02456 72.7305 3.71619 72.7384 3.3092C72.7399 3.23096 72.8344 3.15523 72.8862 3.07824C72.9137 3.14982 72.9705 3.22555 72.9631 3.29297C72.9247 3.64503 73.0019 3.85186 73.3957 3.7986C73.7016 3.75698 74.0671 3.85561 74.3036 3.70746C74.4722 3.60176 74.4789 3.15939 74.8326 3.30171C75.0358 3.38327 75.1852 3.60841 75.3864 3.7037C75.5496 3.78111 75.8276 3.85477 75.9257 3.76738C76.2469 3.48107 76.4857 3.46318 76.8457 3.72286C77.0403 3.8631 77.4846 4.01664 77.4733 3.41448C77.5517 3.42322 77.6297 3.43239 77.7082 3.44112C77.676 3.70787 77.7835 3.80359 78.0376 3.7986C78.7086 3.78486 79.3801 3.80027 80.0511 3.78653C80.1401 3.78487 80.2837 3.69539 80.3013 3.62006C80.3229 3.52685 80.2656 3.37913 80.1962 3.30298C80.0958 3.1927 79.9405 3.14026 79.8327 3.03539C79.7393 2.94426 79.6793 2.81442 79.6044 2.70164C79.7307 2.65504 79.9244 2.52895 79.9719 2.57472C80.2374 2.83065 80.4629 2.88057 80.8045 2.68498C80.948 2.603 81.2994 2.72204 81.4332 2.87268C81.7289 3.20477 82.0375 3.31503 82.4631 3.3092C82.8466 3.30421 83.2196 3.40951 83.4133 3.89682C83.5467 4.23265 83.6687 3.71204 83.8251 3.79735C84.3954 4.10863 84.9519 4.17438 85.5327 3.80693C85.6292 3.74575 85.8755 3.79569 85.9571 3.88849C86.5457 4.55848 87.4568 4.02206 88.0737 4.5489C88.442 4.28548 88.9722 4.40865 89.2726 3.97586C89.4523 3.71702 89.6389 3.72411 89.8499 3.96214C89.9103 4.02998 90.0727 4.05827 90.1602 4.02414C90.361 3.94591 90.1754 3.4428 90.5382 3.56223C90.6971 3.61466 90.7822 4.00543 90.9218 4.02041C91.2524 4.0562 91.6113 4.00917 91.9305 3.90139C92.2737 3.7857 92.5902 3.69289 92.8937 3.94424C93.1043 4.1186 93.2969 4.53685 93.4228 3.87518C93.4349 3.81234 93.7757 3.78986 93.962 3.79943C94.9982 3.85312 96.0026 3.70039 96.9854 3.3475C97.0984 3.30714 97.2631 3.36913 97.3843 3.42822C97.5843 3.5256 97.7651 3.66501 97.9592 3.77696C98.4451 4.05744 98.8479 4.11195 99.6715 4.05036C99.9029 4.03288 100.211 3.96879 100.356 4.09364C100.684 4.37578 100.691 4.24096 100.725 3.91678C100.731 3.8606 101.073 3.75365 101.12 3.80733C101.566 4.31753 102.291 3.76032 102.714 4.29673C103.22 4.17896 103.728 4.06327 104.233 3.94259C104.37 3.91013 104.535 3.79069 104.632 3.83771C104.866 3.9509 105.067 4.13941 105.282 4.29755C105.493 3.94923 105.703 4.27466 105.916 4.29214C106.19 4.31461 106.509 4.39159 106.736 4.27923C107.326 3.9871 107.936 4.09072 108.54 4.0387C109.103 3.99001 109.672 3.92509 110.214 3.7732C110.457 3.70537 110.614 3.6671 110.861 3.77363C111.09 3.87309 111.433 3.86643 111.387 3.39535C111.538 3.44446 111.689 3.49357 111.949 3.46985C112.021 3.4453 111.983 3.49397 111.946 3.54308C111.911 3.50563 111.876 3.46818 111.841 3.43114C111.887 3.39244 111.932 3.34916 111.983 3.31961C111.992 3.31462 112.031 3.36748 111.949 3.46985C112.017 3.99211 112.464 3.85687 112.518 3.65087C112.675 3.05703 112.877 3.24095 113.117 3.52268C113.351 3.79942 113.606 3.89889 113.92 3.72286C114.388 3.46027 114.836 3.36622 115.283 3.78028C115.318 3.81191 115.577 3.68249 115.577 3.62547C115.588 2.90554 115.898 2.51563 116.486 2.54226C116.591 2.54726 116.693 2.60717 116.797 2.64129C116.728 2.7291 116.655 2.81358 116.592 2.90555C116.505 3.03164 116.426 3.16356 116.344 3.29256C116.648 3.32211 117.176 3.27093 117.216 3.39619C117.343 3.79153 117.402 3.75281 117.697 3.55971C118.033 3.33999 118.426 3.12277 118.758 3.67874C118.837 3.81024 119.266 3.87601 119.392 3.77447C119.802 3.44155 120.141 3.72951 120.516 3.78569C120.839 3.83397 121.165 4.29632 121.513 3.8036C121.556 3.74326 121.748 3.82481 121.856 3.79027C122.412 3.61299 122.912 4.03704 123.482 3.91511C124.044 3.79484 124.636 3.81732 125.216 3.80401C125.351 3.80068 125.488 3.94592 125.625 3.948C125.736 3.94966 125.855 3.84811 125.957 3.77195C125.991 3.74657 126.006 3.61384 125.993 3.60635C125.864 3.5356 125.727 3.48108 125.592 3.42157C125.785 3.13027 125.968 2.83064 126.181 2.55682C126.214 2.51437 126.437 2.55473 126.482 2.62298C126.604 2.81191 126.727 3.02748 126.762 3.24804C126.815 3.58761 126.867 3.50855 127.089 3.36498C127.264 3.25137 127.55 3.25595 127.764 3.30963C127.923 3.34958 128.045 3.55223 128.183 3.68206C127.78 4.16354 128.109 4.13777 128.379 3.94884C128.648 3.76074 128.852 3.74034 129.117 3.8864C129.241 3.95423 129.385 3.98004 129.519 4.02498C129.473 3.90638 129.427 3.78778 129.381 3.66959C129.562 3.62756 129.792 3.49106 129.914 3.56264C130.195 3.72785 130.423 3.98045 130.678 3.55057C131.097 3.78653 131.644 3.70496 131.978 4.15731C132.123 4.35457 132.322 4.37954 132.458 4.16689C132.667 3.84105 132.868 3.81898 133.172 4.03829C133.436 4.22847 133.649 4.33377 134.063 4.10072C134.495 3.85811 135.145 4.08116 135.694 4.03288C135.995 4.00625 136.251 3.77737 136.533 4.17062C136.646 4.32751 137.084 4.37703 137.287 4.27674C137.957 3.94466 138.564 3.96673 139.243 4.26968C139.51 4.3887 140.046 4.52102 140.106 3.85727C140.404 4.08157 140.64 4.01541 140.969 3.82981C141.191 3.70539 141.628 4.04704 141.88 3.94134C142.199 3.80651 142.406 3.88765 142.706 3.93426C143.38 4.03954 144.052 4.35832 144.774 4.06826C145.024 3.96797 145.247 4.02873 145.318 3.63713C145.361 3.40159 145.625 3.21267 145.882 3.51354C145.991 3.39369 146.188 3.27842 146.194 3.15358C146.214 2.70664 146.316 2.78695 146.563 3.01375C146.654 3.09781 146.866 3.02499 147.02 3.04746C147.06 3.05328 147.088 3.14942 147.122 3.20435C147.054 3.23348 146.986 3.26218 146.919 3.29172C146.851 3.32127 146.784 3.35167 146.717 3.38205C146.977 3.54268 147.167 3.76738 147.339 4.0308C147.381 4.09405 147.725 4.02415 147.856 3.91554C148.361 3.49689 148.352 3.47859 148.672 3.76906C148.791 3.87809 148.914 3.99128 149.005 4.12569C149.23 4.45736 149.303 4.11154 149.423 4.0229C149.477 3.98378 149.533 3.88141 149.522 3.82232C149.439 3.39577 150.192 3.67458 150.015 3.16605C150.014 3.16272 150.202 3.05162 150.304 3.04621C150.62 3.02957 150.937 3.0258 151.251 3.05244C151.315 3.05785 151.427 3.2289 151.415 3.3063C151.324 3.91721 151.862 3.88017 152.135 4.01833C152.392 4.14858 152.839 4.17521 153.051 4.01749C153.415 3.74575 153.645 4.04871 153.932 4.07035C154.045 4.07867 154.157 4.17396 154.267 4.16813C154.804 4.139 155.401 3.91636 155.857 4.09905C156.244 4.25427 156.559 3.89181 156.942 4.17687C157.153 4.33376 157.625 4.12402 157.969 4.03705C158.141 3.99377 158.292 3.8556 158.451 3.75781C158.536 3.70579 158.65 3.5818 158.697 3.60635C158.878 3.69998 159.038 3.84105 159.205 3.96423C159.442 3.57888 159.534 4.14524 159.756 4.05993C159.909 4.00126 159.998 3.71287 160.305 3.97837C160.569 4.20684 160.995 3.99043 161.368 3.83604C161.622 3.73075 161.999 4.32917 162.372 3.87391C163.217 3.88015 164.064 3.87641 164.909 3.89971C165.127 3.90554 165.379 4.09821 165.554 4.02996C166.81 3.53808 168.102 3.87892 169.372 3.8115C169.93 3.78195 170.529 3.6263 171.059 4.03413C171.15 4.10404 171.378 4.05701 171.498 3.98211C171.662 3.87849 171.887 3.55266 171.908 3.56972C172.604 4.13568 173.436 3.56055 174.157 3.88473C174.392 3.99043 174.776 4.13525 174.905 4.02206C175.462 3.53434 176.22 4.08075 176.752 3.55557C176.824 3.484 177.091 3.52062 177.186 3.60759C177.698 4.07368 178.43 3.50481 178.921 4.03997C178.941 4.06161 179.05 3.98795 179.119 3.96214C179.36 3.87226 179.617 3.814 179.84 3.68791C180.145 3.51604 180.38 3.98379 180.626 3.78321C180.875 3.58013 181.051 3.76364 181.268 3.77571C182.095 3.82274 182.927 3.76363 183.755 3.80441C189.182 4.06994 205.602 4.46948 206.028 3.84645C206.074 3.77987 206.251 3.7753 206.355 3.80152C206.603 3.86436 206.843 3.96506 207.088 4.04538C207.298 4.11404 207.459 3.62299 207.753 4.01957C207.837 4.13318 208.304 3.99669 208.609 3.90764C209.253 3.71996 209.964 3.60383 210.606 4.04411C210.888 4.23762 211.171 4.12944 211.479 4.07035C211.749 4.01874 212.055 3.64003 212.345 4.04619C213.229 4.11319 214.092 3.99586 214.929 3.68666C214.99 3.66419 215.086 3.57428 215.091 3.58136C215.429 4.01165 215.919 3.65502 216.294 3.84769C216.395 3.89971 216.472 4.01292 216.546 4.1103C216.657 4.25595 216.714 4.24594 216.892 4.14898C217.396 3.87391 218.042 4.24428 218.529 3.79484C219.646 4.29921 220.893 4.07243 222.039 4.51146C222.439 4.6646 222.987 4.38079 223.468 4.29798C223.792 4.24221 224.832 4.3138 225.125 4.40618C231.222 6.32342 235.138 4.11715 240.285 2.79069C240.431 2.75324 240.595 2.77321 240.729 2.71287C241.015 2.5847 241.084 2.26426 240.892 2.02498C240.79 1.89763 240.684 1.76448 240.556 1.6721C240.152 1.3808 240.489 2.69933 240.654 2.52913C240.741 2.44049 240.876 2.40553 240.99 2.34603C240.876 2.23159 240.759 2.01645 240.65 2.02145C240.304 2.03768 240.104 1.97318 239.978 1.57368C239.943 1.46215 239.422 1.59613 239.23 1.45422C238.711 1.06971 238.101 2.60103 237.602 2.21401C237.339 2.0101 237.256 2.18822 237.069 2.21277C236.709 2.26021 236.368 2.40543 235.955 2.26852C235.524 2.12537 235.015 2.26313 234.544 2.22984C233.941 2.18697 233.332 2.36382 232.729 2.01717C232.498 1.884 232.078 1.90523 231.727 2.11871C226.959 5.01314 195.238 -0.336118 187.555 0.137147C186.599 0.196656 185.644 1.15605 184.692 1.2605C184.481 1.28339 184.27 0.524599 184.081 0.636959C183.82 0.793013 183.588 1.08679 183.309 0.656084C183.283 0.615718 183.076 0.646525 183.004 0.709779C182.666 1.00732 182.358 0.964036 182.112 0.613642C181.871 0.270322 181.471 1.14855 181.266 1.27713C180.671 1.64958 180.054 0.559538 179.454 0.629034C179.336 0.642767 179.194 0.675636 179.103 0.622786C178.811 0.452998 178.534 1.12482 178.258 0.925072C177.872 0.645422 177.713 1.12773 177.433 1.18849C177.098 1.2609 176.748 0.405569 176.532 0.758876C176.512 0.792168 176.373 0.743064 176.289 0.733908C175.579 0.654841 174.907 1.18976 174.177 1.25384C174.029 1.26674 173.767 1.28588 173.756 1.34498C173.623 2.02662 173.373 0.912436 173.077 0.604904C172.977 0.500452 172.813 1.24676 172.696 1.26382C171.977 1.36994 173.077 0.996588 170.522 0.966616C170.349 1.07981 170.064 1.00699 169.83 1.00865C169.238 1.0124 168.642 1.05443 168.055 0.996588C167.532 0.944986 166.953 1.26626 166.487 0.771878C166.053 1.34449 165.345 0.708188 164.874 1.17802C164.808 1.24418 164.612 1.17928 164.48 1.15264C164.299 1.11602 164.125 1.03904 163.944 1.01366C163.577 0.962054 163.262 1.43853 162.815 1.03779C162.573 0.820558 162.046 1.17801 161.746 0.770608C161.448 0.910433 161.111 0.997417 160.865 1.20591C160.625 1.40857 160.482 1.55672 160.262 1.21673C160.203 1.12517 160.013 1.00658 160.001 1.02031C159.501 1.57254 159.016 1.00449 158.529 1.01947C158.45 1.02197 158.367 1.13974 158.299 1.21756C157.935 1.63537 157.273 0.91486 156.794 0.680154C156.378 0.476659 155.955 1.24545 155.485 1.24461C155.083 1.24378 154.684 1.07981 154.279 1.01531C154.004 0.971196 153.614 0.4442 153.597 0.737582C153.595 0.784607 153.751 0.832456 153.82 0.896126C153.877 0.948977 153.915 1.02597 153.962 1.09213C153.663 1.05343 153.284 1.41716 153.082 0.893231C153.017 0.865349 152.951 0.837868 152.886 0.810403C152.951 0.754223 153.017 0.698057 153.082 0.641877C152.882 0.116702 152.442 1.22214 152.215 1.33783C151.453 1.72734 150.673 0.521195 149.914 0.641877C149.624 0.150825 149.331 0.492883 149.045 0.643528C148.556 0.901538 148.083 1.06259 147.557 0.703877C147.281 0.515779 147.146 0.675992 147.147 1.01723C147.147 1.14332 147.033 0.398271 146.971 0.524779C146.875 0.434475 146.776 1.21864 146.684 1.12459C146.611 1.05135 146.546 0.905289 146.477 0.904457C146.17 0.899879 145.779 0.819977 145.574 0.98477C145.249 1.24653 145.131 1.04803 144.884 0.920687C144.741 0.84703 144.286 0.673491 144.303 1.22655C144.304 1.24403 144.13 1.30978 144.096 1.2794C143.917 1.11669 143.772 0.906959 143.581 0.763388C143.485 0.690563 143.252 0.655193 143.195 0.718863C142.927 1.01516 142.605 0.861586 142.309 0.890716C141.629 0.957299 140.932 0.749245 140.265 1.12294C140.078 1.22781 139.77 1.18743 139.508 0.976033C138.904 0.490807 138.348 0.514939 137.748 0.944817C137.684 0.990593 137.635 1.06134 137.58 1.12043C137.358 0.549061 136.994 1.14956 136.657 1.00016C134.44 0.017684 113.748 0.662712 110.883 0.521452C110.815 0.518122 110.745 0.469424 110.684 0.428642C110.473 0.288401 110.367 -0.141884 110.037 0.0749281C109.871 0.183958 109.838 0.500649 109.685 0.656704C109.464 0.881006 109.184 0.87766 108.971 0.618401C108.736 0.330845 108.548 0.141086 108.466 0.710373C108.41 0.695392 108.309 0.687907 108.305 0.664603C108.27 0.41991 108.344 0.216004 107.946 0.457368C107.549 0.698317 107.012 0.758237 106.537 0.754492C106.105 0.751163 105.647 0.620082 105.253 0.426991C104.817 0.213508 104.495 0.185201 104.107 0.536843C103.707 0.899722 103.158 0.902632 102.761 0.548908C102.529 0.3425 102.321 0.254294 102.033 0.269691C101.679 0.288002 101.306 0.343765 100.972 0.253461C100.669 0.17148 100.513 0.538087 100.17 0.396181C99.9719 0.314617 99.6327 0.658359 99.3417 0.761146C99.2734 0.785283 99.1425 0.609262 99.0405 0.525617C98.9613 0.633399 98.8671 0.732434 98.8067 0.851035C98.6804 1.09906 98.4393 1.11987 98.3745 0.91804C98.2887 0.650874 98.2475 0.479831 97.9376 0.520613C97.5427 0.572632 97.1588 0.559324 96.8968 0.150669C96.8732 0.114049 96.7054 0.123193 96.6591 0.170633C96.2504 0.591357 95.6716 0.44987 95.1935 0.66252C94.9723 0.760731 94.5727 0.572213 94.3264 0.398264C94.0573 0.208501 93.9142 0.275084 93.7448 0.48607C93.5883 0.680826 93.402 0.749504 93.1537 0.801938C92.8533 0.865608 92.6478 0.412848 92.3686 0.69333C92.0034 1.05912 91.8579 0.496056 91.5646 0.459019C91.2838 0.423647 91.0547 0.00210065 90.972 0.639635C90.9704 0.65212 90.8159 0.658774 90.7382 0.64088C90.1421 0.504801 89.5574 0.357075 88.9762 0.745755C88.8342 0.840636 88.593 0.791115 88.4004 0.772805C87.9306 0.728694 87.4168 0.508556 87.0054 0.645884C86.4787 0.821497 86.099 0.315885 85.6296 0.504815C85.3488 0.146097 84.9593 0.662111 84.5821 0.315461C84.3542 0.10614 83.7855 0.206433 83.4031 0.509387C83.2765 0.609678 83.0192 0.540168 82.8235 0.521858C82.4913 0.490231 82.107 0.672921 81.8571 0.27467C81.6457 0.628393 81.3108 0.512705 81.0104 0.523941C80.8531 0.529767 80.6825 0.566807 80.5402 0.517286C80.1256 0.373299 79.7475 -0.175168 79.3326 0.0562085C78.8734 0.312138 78.4431 0.248046 77.9956 0.268853C77.5238 0.290493 77.0493 0.257622 76.5779 0.283839C76.4461 0.29133 76.3265 0.459018 76.19 0.483987C76.1198 0.496888 76.0253 0.356651 75.9417 0.28549C75.8861 0.420321 75.8433 0.563897 75.7692 0.686244C75.737 0.739094 75.6386 0.776128 75.5727 0.771967C75.2684 0.75324 74.8585 0.838978 74.6824 0.664197C74.2189 0.205188 73.8957 0.916384 73.5408 0.734528C73.2411 0.58097 73.0388 0.275913 72.6223 0.492724C72.2618 0.680406 71.7677 0.32378 71.4226 0.763229C71.3735 0.825651 71.197 0.775306 71.0794 0.77697C70.5499 0.785293 70.0362 0.776557 69.5134 1.00336C69.1243 1.17231 68.8039 0.387457 68.3 0.72828C67.7399 0.32337 66.9238 0.682485 66.4351 0.0332982C66.4198 0.012907 66.1241 0.139008 66.11 0.224734C66.0598 0.528104 66.0241 0.416569 65.7884 0.367048C65.166 0.236794 64.5287 0.15358 63.8769 0.449876C63.5106 0.616334 63.0321 0.493574 62.6077 0.536437C62.4995 0.547257 62.4034 0.693329 62.3014 0.833154C62.3014 0.851881 62.3014 0.814424 62.3014 0.77697C62.3626 0.800275 62.4316 0.813168 62.4811 0.853118C62.4956 0.865187 62.4563 0.952589 62.4418 1.00544C62.3948 0.966738 62.3481 0.928035 62.3014 0.833154C61.9818 0.6101 61.8281 -0.146476 61.2833 0.460264C61.228 0.521853 61.0374 0.53851 60.9755 0.486908C60.3766 -0.0103857 59.8365 0.364559 59.2804 0.583452C59.0745 0.6646 58.8592 0.752814 58.6443 0.766963C58.3799 0.784025 58.0521 0.819404 57.8583 0.679995C57.5207 0.437382 57.3638 0.913459 57.0575 0.79569C56.8128 0.701641 56.5065 0.809416 56.2355 0.767801C55.9468 0.72369 55.6719 0.573879 55.3832 0.534761C55.0722 0.49273 54.6565 0.392438 54.4573 0.554318C54.0937 0.848949 53.8482 0.417841 53.5686 0.531865C53.2964 0.64256 53.0501 0.823145 52.7787 0.935921C52.663 0.984194 52.4716 0.994606 52.3842 0.924694C51.9869 0.60551 51.5469 0.85269 51.1335 0.788604C51.0754 0.779448 50.9503 0.918877 50.9327 1.00668C50.8554 1.39911 50.6354 1.37205 50.4617 1.14691C50.2056 0.815246 49.9004 0.738263 49.5333 0.776132C49.236 0.806927 48.9502 0.734526 48.6552 0.987126C48.5219 1.10157 48.1121 0.779048 47.8344 0.794445C47.3928 0.818582 46.7939 0.80485 46.5566 1.087C46.2021 1.50814 45.9527 0.956324 45.6926 1.16731C45.426 1.38412 45.1506 1.59218 44.8612 1.77154C44.7957 1.81191 44.6435 1.73618 44.5557 1.67459C44.5153 1.64629 44.4996 1.49938 44.5318 1.44737C44.6157 1.3117 44.742 1.20601 44.831 1.07326C44.8792 1.00126 44.8863 0.898486 44.9118 0.809431C44.8373 0.798611 44.7345 0.748247 44.6922 0.782787C44.4012 1.01749 44.1486 1.1648 43.7619 0.900133C43.6521 0.825227 43.3054 1.2472 43.0654 1.25011C42.8167 1.25344 42.6324 0.86269 42.2829 1.22807C42.0139 1.50938 41.5719 0.732701 41.1323 0.891668C41.1648 0.994872 41.2982 1.14802 41.4315 1.30116C41.3676 1.33861 41.2719 1.42557 41.2452 1.40601C41.0782 1.28283 40.9264 1.13636 40.7695 0.997787C40.837 0.968657 40.904 0.939525 41.1323 0.891668C41.104 0.454299 40.8017 0.6711 40.5699 0.714379C40.3942 0.747255 40.2189 0.920367 40.0612 0.896646C39.5698 0.823405 39.2404 0.252464 38.565 0.611181C38.0944 0.861285 37.4104 0.661115 36.8217 0.659034C36.0291 0.656121 35.2291 0.596603 34.5149 1.08641C34.4321 1.143 34.2478 1.18337 34.2082 1.13718C33.9823 0.872511 33.7913 0.811762 33.5344 1.10431C33.4854 1.16049 33.2795 1.05313 33.1438 1.03482C32.8073 0.98946 32.47 0.943271 32.1319 0.913308C31.7695 0.881265 31.5464 1.0573 31.488 1.44848C31.4452 1.73395 31.3264 1.65362 31.2177 1.50131C30.9785 1.16465 30.7969 1.08558 30.7173 1.60326C30.6616 1.5862 30.6071 1.56125 30.5506 1.55376C30.4687 1.54335 30.3855 1.54583 30.3028 1.5425C30.3028 1.66735 30.3028 1.79219 30.3028 1.91745C30.3683 1.94533 30.4338 1.97281 30.4993 2.00028C30.4338 2.05646 30.3683 2.11264 30.2153 2.1193C30.2322 2.20336 30.293 2.24538 30.2985 2.29448C30.3373 2.64321 30.1138 2.80135 29.8596 2.91662C29.8071 2.94034 29.7016 2.90207 29.6565 2.85421C29.6114 2.80635 29.5717 2.67402 29.598 2.64197C29.7576 2.44722 29.9369 2.2712 30.2153 2.1193C30.3028 2.08518 30.3028 2.0011 30.3028 1.91745C30.0176 1.53918 29.6196 1.80054 29.2803 1.73562C28.5434 1.59413 27.8237 1.32111 27.0476 1.4006C26.6519 1.44096 26.7648 1.69316 26.7476 1.91705C26.9727 1.91705 27.1986 1.92994 27.4225 1.91413C27.7943 1.88832 28.0693 2.00403 28.1697 2.47594C28.1697 2.49466 28.1697 2.45721 28.1697 2.41975C28.2309 2.44306 28.2999 2.45596 28.3493 2.49549C28.3638 2.50756 28.3246 2.59494 28.3101 2.64779C28.263 2.60909 28.2163 2.5704 28.1697 2.47594C27.6759 2.74352 27.2182 3.29823 26.5833 2.67568C26.5099 2.60369 26.3832 2.59286 26.2813 2.55333C26.4099 2.49507 26.5829 2.47217 26.6554 2.36939C26.7346 2.25661 26.7205 2.07144 26.7476 1.91705C26.3577 2.00444 26.646 1.24663 26.166 1.40268C25.924 1.48133 25.6106 1.37646 25.4071 1.49922C25.2965 1.56581 25.3714 1.9416 25.3185 2.16632C25.2769 2.34359 25.1678 2.50298 25.0419 2.76016C25.1196 2.7406 25.1604 2.67485 25.1992 2.67652C25.302 2.68068 25.4036 2.71355 25.5055 2.73519C25.4918 2.79054 25.4781 2.89374 25.4651 2.89333C25.3377 2.89166 25.2098 2.87335 25.0419 2.76016C24.9706 2.67069 24.8431 2.63947 24.7368 2.67692C24.5172 2.75391 24.4878 3.22665 24.1642 3.02899C24.1093 2.99569 24.2529 2.60367 24.2976 2.37604C24.3086 2.31986 24.2929 2.25828 24.2897 2.19918C24.1831 2.20751 24.0301 2.17255 23.9795 2.23373C23.8881 2.34317 23.8583 2.51006 23.8026 2.65279C23.747 2.52171 23.7183 2.36439 23.6305 2.26535C23.4308 2.04063 23.2559 1.68609 22.8845 2.09017C22.7826 2.20128 22.5206 2.15549 22.3311 2.16548C21.9927 2.18296 21.6315 2.08558 21.3534 2.40726C21.3464 2.41558 21.162 2.25121 21.0601 2.16756C20.7816 2.50214 20.2259 2.49175 20.1027 3.02982C20.0976 3.05271 19.9541 3.03979 19.8753 3.04354C19.8812 2.56539 19.6913 2.55666 19.3854 2.81009C19.3286 2.85712 19.2215 2.93369 19.1991 2.91497C18.6285 2.4364 18.0708 2.80177 17.5006 2.91205C17.1578 2.97863 16.8056 2.952 16.5735 2.57164C16.4507 2.37023 16.2797 2.35982 16.0891 2.53169C15.7149 2.86918 15.4365 3.6041 14.7851 2.92911C14.7011 3.09474 14.647 3.29448 14.5242 3.416C14.4015 3.5371 14.2101 3.57997 14.0489 3.65737C14.0156 3.46345 13.9693 3.27034 13.9575 3.07476C13.954 3.0165 14.0599 2.95824 14.0944 2.88832C14.1179 2.84047 14.1042 2.77264 14.1073 2.71355C13.8246 2.83257 13.5418 2.95157 13.2587 3.07059C13.363 3.10513 13.5257 3.10721 13.5618 3.18004C13.7116 3.48216 13.9944 3.87958 13.9085 4.1043C13.785 4.42806 14.0313 4.81509 13.7144 5.06478C13.694 5.08018 13.7101 5.14507 13.7101 5.18711ZM101.542 3.29216C101.578 3.29216 101.613 3.29216 101.648 3.29216C101.626 3.35708 101.614 3.43029 101.576 3.48273C101.565 3.49854 101.483 3.45652 101.433 3.44112C101.469 3.39119 101.506 3.34166 101.866 3.14565C101.829 3.19434 101.791 3.24305 101.754 3.29216C101.719 3.2547 101.683 3.21724 101.649 3.17979C101.695 3.14109 101.74 3.09781 101.791 3.06826C101.8 3.06285 101.838 3.11654 101.542 3.29216ZM79.2616 1.53144C79.2969 1.53144 79.3322 1.53144 79.3675 1.53144C79.3456 1.59636 79.3334 1.6696 79.2957 1.72204C79.2844 1.73743 79.202 1.6958 79.1522 1.68041C79.1887 1.63047 79.2252 1.58096 79.5852 1.38496C79.5479 1.43365 79.5107 1.48233 79.473 1.53144C79.4377 1.49398 79.4024 1.45654 79.3675 1.4195C79.4142 1.3808 79.4585 1.3375 79.5103 1.30754C79.5189 1.30255 79.5577 1.35582 79.2616 1.53144ZM16.7915 3.67777C16.8511 3.5937 16.9111 3.51006 16.9707 3.42641C17.0692 3.51047 17.1672 3.59412 17.1707 3.97697C17.2798 3.81967 17.3405 3.68276 17.3758 3.68983C17.5017 3.71563 17.619 3.78969 17.7394 3.84545C17.6715 3.95698 17.6241 4.12262 17.5292 4.1634C17.4582 4.19378 17.3256 4.06353 17.2652 3.67777C17.1072 3.67777 16.9492 3.67777 16.6856 3.67777C16.7209 3.67777 16.7562 3.67777 16.7915 3.67777C16.7695 3.74268 16.7574 3.81593 16.7201 3.86836C16.7087 3.88376 16.6264 3.84213 16.5766 3.82673C16.6131 3.77721 16.6495 3.7277 16.7915 3.67777ZM34.8059 2.02941C34.8059 1.99196 34.8059 1.95449 34.8059 1.91745C34.8671 1.94076 34.9361 1.95368 34.9855 1.99363C35 2.00569 34.9608 2.09307 34.9463 2.14592C34.8992 2.10722 34.8525 2.06851 34.4839 1.30405C34.6102 1.49881 34.7106 1.64779 34.8 1.80384C34.8063 1.81508 34.7349 1.90831 34.6945 1.91247C34.507 1.93287 34.3129 1.93494 34.3353 1.64281C34.3404 1.57498 34.3906 1.51131 34.8059 2.02941ZM67.0418 2.14649C67.0418 2.10903 67.0418 2.0716 67.0418 2.03414C67.103 2.05745 67.172 2.07034 67.2214 2.11029C67.2363 2.12236 67.1967 2.20976 67.1822 2.26261C67.1356 2.22391 67.0885 2.18521 66.8751 1.48358C66.9324 1.63215 66.9936 1.77237 67.0355 1.91886C67.0426 1.94382 66.9681 1.99502 66.9312 2.03455C66.8202 1.89806 66.7089 1.76157 66.5979 1.62549C66.6591 1.59386 66.7206 1.56222 67.0418 2.14649ZM149.718 2.00958C149.779 1.92219 149.827 1.85269 149.875 1.7832C149.917 1.84104 149.997 1.90097 149.994 1.95632C149.989 2.06036 149.936 2.16188 149.904 2.26467C149.849 2.18935 149.794 2.11404 148.888 1.33002C149.083 1.41533 149.214 1.47984 149.35 1.53019C149.486 1.58055 149.627 1.61674 149.765 1.6596C149.61 1.7008 149.453 1.7395 149.299 1.78444C149.23 1.80442 149.132 1.81691 149.103 1.86851C149.029 1.99627 148.988 2.14443 148.934 2.28425C148.824 2.0845 148.66 1.89389 148.628 1.68124C148.61 1.56639 148.821 1.41366 149.718 2.00958ZM46.2033 2.11944C46.1382 2.0824 46.0731 2.04538 46.008 2.00834C46.0539 1.93302 46.1131 1.78694 46.1441 1.79318C46.6868 1.90554 47.3241 2.67458 47.3649 3.25594C47.37 3.32876 47.3289 3.40533 47.3092 3.48024C47.2257 3.43363 47.1128 3.40908 47.0649 3.33625C46.9618 3.17853 46.9123 2.98004 46.8021 2.82981C46.7268 2.72702 46.5864 2.67792 46.4751 2.60426C46.4378 2.75948 46.0719 2.76822 46.3021 3.05287C46.3351 3.09365 46.2849 3.21016 46.2735 3.29172C46.1696 3.2551 45.9813 3.22806 45.9766 3.18103C45.9582 2.98794 45.9766 2.78444 46.0182 2.59385C46.0542 2.42947 46.1394 2.27716 46.2033 2.11944ZM35.3554 2.20668C35.6028 2.0681 35.7444 1.9212 35.8707 1.93493C36.0401 1.95324 36.2197 2.0681 36.3539 2.19169C36.4731 2.30155 36.6068 2.47926 36.6076 2.62783C36.6088 2.81592 36.0825 3.04272 35.9201 2.91205C35.7271 2.75682 35.5954 2.51587 35.3554 2.20668ZM88.3094 1.79277C88.7781 1.75407 89.0067 1.92845 89.0703 2.2855C89.0816 2.34875 88.9012 2.50897 88.7946 2.52728C88.4459 2.58637 88.2153 2.39203 88.1506 2.03539C88.1349 1.94925 88.2831 1.83023 88.3094 1.79277ZM24.5941 3.39893C24.6525 3.30363 24.7078 3.17796 24.7298 3.1842C25.0749 3.28241 25.4177 3.39187 25.755 3.51754C25.7895 3.53045 25.8197 3.68442 25.791 3.73103C25.7401 3.81426 25.6173 3.93702 25.5687 3.91746C25.2973 3.81093 25.0674 3.57539 24.7345 3.66402C24.709 3.6711 24.6368 3.48216 24.5941 3.39893ZM109.473 1.02832C109.863 1.15067 110.074 1.58802 109.892 1.94715C109.858 2.01457 109.608 2.04578 109.601 2.0283C109.479 1.72826 109.379 1.41783 109.283 1.10655C109.282 1.10281 109.407 1.05537 109.473 1.02832ZM22.4218 3.17922C22.5269 3.17922 22.5978 3.17547 22.5982 3.17963C22.6292 3.48383 22.6547 3.78929 22.6806 4.09391C22.599 4.0652 22.4676 4.05936 22.4441 4.00318C22.3578 3.79636 22.2896 3.57581 22.2555 3.35359C22.2464 3.29616 22.3876 3.21335 22.4218 3.17922ZM26.162 2.89914C26.3483 3.13968 26.526 3.36898 26.7033 3.59786C26.6374 3.62449 26.5731 3.66735 26.5052 3.67484C26.0879 3.72187 25.9514 3.56374 26.0385 3.13178C26.0526 3.06186 26.1067 3.00068 26.162 2.89914ZM72.5019 2.2859C72.4246 2.2859 72.3399 2.30796 72.2724 2.28049C72.1811 2.24346 72.0842 2.18477 72.0265 2.10529C71.9948 2.06159 72.0383 1.9559 72.0477 1.8785C72.1293 1.90138 72.2101 1.93135 72.2932 1.94674C72.474 1.98004 72.6576 1.99709 72.8356 2.04121C72.8764 2.05161 72.9078 2.14193 72.9254 2.20102C72.9309 2.21891 72.8776 2.27967 72.8486 2.28217C72.7336 2.29174 72.6176 2.2859 72.5019 2.2859ZM18.2928 3.57081C18.3799 3.7743 18.4485 3.85961 18.4442 3.94034C18.4343 4.11721 18.5587 4.37689 18.2689 4.42349C18.1795 4.43806 18.0747 4.34693 17.9767 4.30407C18.0653 4.09849 18.1543 3.89249 18.2928 3.57081ZM36.9472 3.45471C36.8472 3.41309 36.7919 3.40601 36.7864 3.38478C36.7731 3.33193 36.7594 3.24829 36.786 3.21999C36.8892 3.11179 37.001 3.00735 37.1257 2.93036C37.1727 2.90123 37.2626 2.95033 37.3328 2.96406C37.3061 3.04937 37.301 3.15674 37.2476 3.21458C37.1527 3.3182 37.0284 3.39228 36.9472 3.45471ZM37.4504 1.78555C37.5551 1.98489 37.663 2.11306 37.6379 2.15842C37.5779 2.26662 37.4551 2.3357 37.3578 2.42059C37.2971 2.33778 37.1747 2.23913 37.1892 2.17546C37.2159 2.05936 37.3237 1.96408 37.4504 1.78555ZM64.6373 1.3608C64.6981 1.206 64.722 1.13568 64.755 1.07077C64.7604 1.05995 64.8197 1.05994 64.8299 1.0745C64.9381 1.22639 65.0511 1.37622 65.1385 1.54101C65.1597 1.58096 65.0954 1.67543 65.0624 1.74035C65.0569 1.75117 65.0013 1.75116 64.9867 1.73618C64.8597 1.6051 64.7369 1.469 64.6373 1.3608ZM50.0263 1.14651C50.1138 1.35416 50.1981 1.47151 50.1989 1.59011C50.1993 1.65378 50.0098 1.78861 49.9867 1.77113C49.8875 1.69623 49.7934 1.58679 49.7518 1.46819C49.7365 1.42491 49.8718 1.3217 50.0263 1.14651ZM31.6001 3.38686C31.788 3.27575 31.9088 3.16131 31.9516 3.18753C32.0535 3.2512 32.1186 3.38103 32.1986 3.48465C32.1206 3.54916 32.0272 3.67902 31.9676 3.66362C31.8582 3.63532 31.7684 3.52128 31.6001 3.38686ZM65.0322 2.77279C65.1405 2.92302 65.2424 3.0645 65.3444 3.20641C65.2797 3.23471 65.1829 3.30671 65.1558 3.28383C65.0605 3.20351 64.9758 3.09906 64.9165 2.9867C64.8997 2.95383 64.9813 2.86267 65.0322 2.77279ZM59.9648 2.17979C59.9071 2.34749 59.8832 2.4174 59.8593 2.48773C59.7252 2.3787 59.591 2.26926 59.4569 2.16023C59.5165 2.1182 59.5832 2.03372 59.6338 2.04329C59.7499 2.06493 59.8577 2.13276 59.9648 2.17979ZM147.68 2.15357C147.791 2.02374 147.891 1.90595 147.991 1.78777C148.03 1.89181 148.126 2.0537 148.094 2.08865C148.011 2.18353 147.874 2.22806 147.753 2.27841C147.744 2.28216 147.695 2.17771 147.68 2.15357ZM15.047 3.88917C15.202 3.95741 15.2667 3.98613 15.3314 4.01484C15.2227 4.15092 15.1137 4.28698 15.0051 4.42306C14.9686 4.35856 14.8921 4.2845 14.9035 4.23165C14.929 4.11055 14.998 3.99944 15.047 3.88917ZM93.7879 2.87934C93.8522 2.71496 93.8793 2.6463 93.9063 2.57805C94.0346 2.69332 94.1628 2.809 94.2911 2.92427C94.2303 2.96297 94.1605 3.04413 94.1107 3.03207C93.9965 3.0046 93.8922 2.93136 93.7879 2.87934ZM153.572 3.17189C153.431 3.28675 153.297 3.39493 153.164 3.50312C153.137 3.43446 153.07 3.33127 153.09 3.30298C153.166 3.20185 153.264 3.11195 153.371 3.04911C153.402 3.0308 153.488 3.11779 153.572 3.17189ZM82.969 1.31171C82.8768 1.38203 82.7858 1.47358 82.6776 1.52311C82.6329 1.5435 82.5513 1.47442 82.4866 1.44612C82.5952 1.31004 82.7043 1.17395 82.8129 1.03787C82.8498 1.10196 82.8862 1.16647 82.969 1.31171ZM121.551 1.8993C121.549 1.93384 121.454 1.96298 121.403 1.99419C121.376 1.88475 121.337 1.77612 121.33 1.66501C121.31 1.4231 121.56 1.74184 121.551 1.8993ZM94.5856 2.54683C94.6727 2.60426 94.768 2.64129 94.7664 2.67083C94.7593 2.78194 94.7205 2.89056 94.6935 3.00001C94.6413 2.9688 94.5472 2.93966 94.5452 2.90512C94.5389 2.79567 94.5672 2.68333 94.5856 2.54683ZM66.5586 1.0795C66.5045 1.17189 66.47 1.27343 66.4418 1.27135C66.3371 1.26386 66.2347 1.22264 66.1312 1.19393C66.161 1.13858 66.188 1.03871 66.2206 1.03663C66.3245 1.02997 66.43 1.06036 66.5586 1.0795ZM62.0551 3.09198C62.001 3.18437 61.9661 3.28549 61.9382 3.28383C61.8335 3.27633 61.7312 3.23512 61.6281 3.20641C61.6579 3.15106 61.6849 3.05119 61.7175 3.04911C61.821 3.04245 61.9265 3.07242 62.0551 3.09198ZM60.3758 2.76905C60.455 2.81233 60.5484 2.86351 60.6421 2.91469C60.5821 2.95673 60.5181 3.03829 60.4632 3.03163C60.3621 3.01998 60.2664 2.95631 60.1679 2.91469C60.2279 2.87266 60.2876 2.83064 60.3758 2.76905ZM55.9343 2.64005C55.8413 2.70497 55.7774 2.78653 55.7225 2.77987C55.6213 2.76822 55.5252 2.70455 55.4272 2.66293C55.4872 2.6209 55.548 2.54349 55.6068 2.54516C55.7088 2.54849 55.8088 2.60093 55.9343 2.64005ZM51.7602 2.48565C51.9414 2.56555 52.0065 2.59426 52.0716 2.62339C52.0037 2.67874 51.9422 2.75864 51.8661 2.78028C51.812 2.79568 51.7378 2.7316 51.6727 2.70289C51.7084 2.61383 51.7441 2.52476 51.7602 2.48565ZM51.4484 2.91221C51.4123 2.9276 51.3288 2.97505 51.2402 2.99003C51.2241 2.99294 51.1543 2.85269 51.1688 2.79527C51.1892 2.71412 51.2649 2.64877 51.317 2.57678C51.3441 2.64628 51.3711 2.71537 51.4484 2.91221ZM42.1053 3.04995C42.1237 3.18728 42.1523 3.29881 42.1461 3.40826C42.1441 3.4428 42.05 3.47191 41.9978 3.50312C41.9708 3.39368 41.9316 3.28467 41.9249 3.17397C41.9229 3.14443 42.0182 3.10738 42.1053 3.04995ZM73.1953 1.0795C73.1411 1.17189 73.1066 1.27343 73.0784 1.27135C72.9737 1.26386 72.8713 1.22264 72.7682 1.19393C72.798 1.13858 72.825 1.03871 72.8576 1.03663C72.9611 1.02997 73.067 1.06036 73.1953 1.0795ZM21.4205 3.12304C21.6017 3.20336 21.6668 3.23207 21.7319 3.26078C21.664 3.31613 21.6025 3.39603 21.5264 3.41767C21.4722 3.43307 21.3985 3.36897 21.333 3.34026C21.3687 3.2512 21.4044 3.16216 21.4205 3.12304ZM18.9732 3.43599C19.0603 3.49342 19.156 3.53044 19.154 3.55999C19.147 3.6711 19.1081 3.77972 19.0811 3.88917C19.0289 3.85754 18.9348 3.82881 18.9328 3.79427C18.9266 3.68441 18.9548 3.57248 18.9732 3.43599ZM159.839 1.89989C159.865 1.92777 159.917 1.96188 159.913 1.98269C159.9 2.04178 159.865 1.2239 159.839 1.28008C159.812 1.2522 159.76 2.08964 159.765 2.06925C159.777 2.00974 159.812 1.95565 159.839 1.89989ZM156.791 3.32835C156.823 3.36206 156.849 3.38995 156.876 3.41783C156.823 3.44571 156.772 3.48315 156.717 3.49647C156.697 3.50105 156.665 3.44571 156.638 3.41783C156.69 3.38745 156.742 3.35748 156.791 3.32835ZM34.3659 3.01275C34.3976 2.97905 34.4239 2.95115 34.4502 2.92327C34.4764 2.97904 34.5118 3.03314 34.5243 3.09223C34.5286 3.11262 34.4764 3.14718 34.4502 3.17506C34.4219 3.12013 34.3933 3.06561 34.3659 3.01275ZM91.8956 1.44195C91.8638 1.47566 91.8375 1.50356 91.8113 1.53144C91.785 1.47567 91.7497 1.42157 91.7371 1.36248C91.7328 1.34167 91.785 1.30756 91.8113 1.27968C91.8399 1.33461 91.8681 1.3891 91.8956 1.44195ZM94.3844 3.32835C94.4342 3.35748 94.4856 3.38787 94.5374 3.41783C94.5111 3.44571 94.4789 3.50105 94.4593 3.49647C94.4036 3.48357 94.3526 3.44571 94.3001 3.41783C94.3264 3.38995 94.3526 3.36164 94.3844 3.32835ZM45.1506 2.3221C45.1824 2.35581 45.2087 2.3837 45.235 2.41158C45.1824 2.43946 45.1314 2.47693 45.0757 2.49024C45.0565 2.49482 45.024 2.43946 44.9977 2.41158C45.0495 2.38162 45.1008 2.35123 45.1506 2.3221ZM43.6603 2.82524C43.7101 2.85437 43.7615 2.88432 43.8129 2.91469C43.7866 2.94258 43.7544 2.99793 43.7348 2.99336C43.6791 2.98004 43.6286 2.94258 43.5756 2.91469C43.6023 2.88681 43.6286 2.85895 43.6603 2.82524ZM20.4996 3.89333C20.4498 3.8642 20.3984 3.83381 20.3467 3.80385C20.373 3.77597 20.4051 3.72061 20.4247 3.72519C20.4804 3.7385 20.5314 3.77597 20.584 3.80385C20.5577 3.83173 20.5314 3.85962 20.4996 3.89333ZM48.638 3.5797C48.6878 3.60883 48.7392 3.6392 48.7905 3.66916C48.7643 3.69704 48.7321 3.7524 48.7125 3.74782C48.6564 3.73451 48.6058 3.69704 48.5533 3.66916C48.5799 3.64128 48.6062 3.61341 48.638 3.5797ZM66.4147 2.3221C66.4645 2.35123 66.5159 2.38162 66.5677 2.41158C66.5414 2.43946 66.5092 2.49482 66.4896 2.49024C66.4339 2.47693 66.3833 2.43946 66.3304 2.41158C66.3571 2.3837 66.3833 2.35581 66.4147 2.3221ZM40.5287 2.7614C40.5605 2.72769 40.5867 2.69983 40.613 2.67194C40.6393 2.72771 40.6746 2.78178 40.6871 2.84088C40.6915 2.86168 40.6393 2.89539 40.613 2.92327C40.5844 2.86876 40.5562 2.81425 40.5287 2.7614ZM71.6638 1.27968C71.69 1.30756 71.7422 1.34167 71.7379 1.36248C71.7253 1.42157 71.69 1.47567 71.6638 1.53144C71.6375 1.50356 71.5853 1.46942 71.5896 1.44861C71.6022 1.38952 71.6375 1.33586 71.6638 1.27968ZM73.7628 3.32835C73.8126 3.35748 73.864 3.38787 73.9153 3.41783C73.8891 3.44571 73.8569 3.50105 73.8373 3.49647C73.7816 3.48357 73.731 3.44571 73.678 3.41783C73.7047 3.38995 73.731 3.36164 73.7628 3.32835ZM146.175 2.37539C146.148 2.42824 146.119 2.48274 146.091 2.53726C146.065 2.50938 146.013 2.47526 146.017 2.45446C146.029 2.39536 146.065 2.34168 146.091 2.2855C146.117 2.3138 146.143 2.34168 146.175 2.37539ZM151.627 1.44195C151.595 1.47566 151.569 1.50356 151.543 1.53144C151.516 1.47567 151.481 1.42157 151.469 1.36248C151.464 1.34209 151.516 1.30756 151.543 1.27968C151.571 1.33461 151.599 1.3891 151.627 1.44195ZM154.979 2.41158C154.953 2.43946 154.921 2.49482 154.901 2.49024C154.846 2.47693 154.795 2.43946 154.742 2.41158C154.768 2.3837 154.801 2.32834 154.82 2.33292C154.876 2.34624 154.927 2.3837 154.979 2.41158ZM9.68073 3.42641C9.59287 4.0061 9.55718 4.05812 9.22931 3.80593C8.78025 3.46053 8.30492 3.3848 7.78448 3.42641C7.7586 3.49591 7.73234 3.56539 7.70645 3.63489C7.65351 3.56539 7.60055 3.49591 7.54761 3.42641C7.40171 3.39687 7.25071 3.38313 7.11031 3.33528C6.82087 3.23748 6.67421 3.32694 6.67853 3.63197C6.6797 3.72103 6.72361 3.80926 6.74792 3.8979C6.61968 3.85712 6.46909 3.84672 6.37025 3.76557C6.29848 3.7069 6.29535 3.55457 6.26123 3.44429C6.21613 3.53793 6.18317 3.64238 6.1216 3.72145C6.0765 3.77971 5.98632 3.84713 5.92867 3.83631C5.78983 3.81009 5.58311 3.65487 5.53566 3.70189C5.22779 4.0061 4.97093 4.02274 4.61992 3.74642C4.46422 3.62366 4.16852 3.65736 3.94418 3.68691C3.63475 3.72811 3.85751 3.85337 3.91006 3.98571C3.95713 4.10348 3.90458 4.26618 3.89595 4.40892C3.76143 4.36564 3.58768 4.3648 3.49866 4.27242C2.97469 3.72685 2.86606 3.64073 2.56604 3.68109C2.49662 3.69025 2.43191 3.73894 2.36523 3.76974C2.39935 3.82883 2.42327 3.89999 2.46954 3.94535C2.72447 4.19504 2.98765 4.43555 3.24297 4.68524C3.49593 4.93284 3.7426 5.18712 3.99203 5.43889C4.08655 5.35525 4.17515 5.21001 4.27634 5.19919C4.57362 5.16674 4.87639 5.18754 5.1772 5.18754C5.12543 5.03273 5.07368 4.87834 5.02191 4.72354C5.17918 4.78055 5.34902 4.81508 5.48903 4.90288C5.56825 4.95282 5.59883 5.08974 5.65138 5.18754C5.69099 5.18754 5.76197 5.17755 5.76511 5.18878C5.82707 5.4135 5.82472 5.78262 5.94826 5.83797C6.21651 5.95782 6.54791 5.93118 6.85382 5.93575C6.99815 5.93784 7.14288 5.87459 7.2876 5.84089C7.12562 5.79053 6.96402 5.7385 6.80087 5.69189C6.76401 5.68149 6.71969 5.6998 6.68361 5.68857C6.57889 5.65528 6.47652 5.61367 6.37299 5.57539C6.4777 5.4572 6.58009 5.23995 6.68755 5.23704C7.20484 5.22289 7.77508 4.94491 8.21002 5.50338C8.25944 5.56663 8.38963 5.62365 8.45355 5.59868C9.10811 5.34566 9.12969 5.31237 9.59129 5.73726C9.96662 6.08224 9.91917 5.7951 9.91603 5.54209C9.90976 5.04687 10.0784 5.20833 10.2667 5.4318C10.4647 5.66651 10.6114 5.79135 10.9385 5.52835C11.2106 5.30945 11.6268 5.28949 11.9813 5.18878C12.1597 5.13801 12.4029 5.16548 12.5092 5.04771C12.6492 4.89291 12.7218 4.63655 12.7531 4.41308C12.7974 4.09764 12.7841 3.80759 12.9767 3.49839C13.1798 3.17214 12.9602 2.9341 12.5406 2.92411C12.3437 2.91953 12.1456 2.91329 11.9491 2.92619C11.7613 2.93826 11.5746 2.97406 11.3871 2.99945C11.4781 3.37523 11.7723 3.0652 11.9307 3.18131C12.0586 3.27494 12.157 3.41308 12.2684 3.53126C12.0531 3.71436 12.0558 3.89165 12.2802 4.06394C12.1311 4.1867 11.9903 4.32778 11.8248 4.416C11.795 4.43181 11.6197 4.2433 11.5856 4.12553C11.4965 3.8155 11.2718 3.96738 11.0502 3.92993C11.0326 3.92993 11.0679 3.92993 11.1032 3.92993C11.0812 3.99527 11.0691 4.06809 11.0314 4.12053C11.02 4.13634 10.9377 4.09432 10.8879 4.07892C10.9244 4.0294 10.9608 3.97945 11.0502 3.92993C11.1401 3.6636 11.0871 3.43016 10.8506 3.29532C10.7988 3.26578 10.6784 3.29491 10.6329 3.34277C10.2745 3.72313 10.2776 3.72645 9.68073 3.42641ZM8.6481 4.46886C8.67987 4.50257 8.70613 4.53043 8.73241 4.55831C8.67985 4.5862 8.62929 4.62366 8.57321 4.63698C8.5536 4.64155 8.52181 4.5862 8.49553 4.55831C8.5473 4.52794 8.59869 4.49799 8.6481 4.46886ZM4.89287 5.42683C4.99444 5.41601 5.08308 5.27118 5.1772 5.18754C5.33525 5.18754 5.49333 5.18754 5.65138 5.18754C5.62628 5.84005 5.62665 5.83631 5.09602 5.73352C4.99405 5.71355 4.84582 5.68566 4.78699 5.74142C4.38303 6.12677 3.90341 5.865 3.46573 5.93492C3.41161 5.94366 3.34412 5.85919 3.28255 5.81757C3.34255 5.77512 3.39747 5.71686 3.46297 5.69314C3.64769 5.62614 3.95399 5.85171 3.99203 5.43889C4.29284 5.43889 4.5952 5.45928 4.89287 5.42683ZM0.603912 5.16839C0.492923 5.10472 0.465462 4.83297 0.44899 4.65153C0.443107 4.5862 0.581147 4.5063 0.653702 4.43264C0.739199 4.53376 0.840391 4.62489 0.907455 4.7385C1.06864 5.01066 1.19887 5.33236 1.55498 4.94784C1.5687 4.93328 1.75342 5.09681 1.85892 5.17712C1.7844 5.28366 1.70987 5.3902 1.60869 5.53543C1.22434 5.4031 0.890602 5.33235 0.603912 5.16839ZM1.89069 5.78178C1.99854 5.66734 2.12912 5.44179 2.20992 5.4601C2.40836 5.50546 2.58445 5.66318 2.76956 5.77553C2.63269 5.8467 2.49584 5.91828 2.34171 5.99859C2.17542 5.91911 2.03305 5.85045 1.89069 5.78178ZM13.7101 5.18711C13.6077 5.33775 13.5049 5.48839 13.4026 5.63904C13.3469 5.58036 13.2363 5.5063 13.2465 5.4651C13.2747 5.349 13.352 5.24661 13.3838 5.18711C13.5626 5.18711 13.6363 5.18711 13.7101 5.18711ZM19.509 4.94368C19.5415 4.94576 19.569 5.04563 19.5984 5.10098C19.4952 5.12969 19.3925 5.17088 19.2878 5.17837C19.2595 5.18045 19.225 5.07891 19.1709 4.98653C19.3003 4.96697 19.4058 4.93702 19.509 4.94368ZM21.164 2.16881C21.1287 2.13135 21.0934 2.09392 21.0581 2.05646C21.1052 2.01776 21.1495 1.97448 21.2009 1.94494C21.2095 1.93994 21.2483 1.9932 21.2758 2.02233C21.2385 2.07102 21.2012 2.1197 21.164 2.16881ZM99.3833 0.273831C99.348 0.236378 99.3127 0.198943 99.2774 0.161489C99.3244 0.122788 99.3687 0.0795065 99.4201 0.0499602C99.4287 0.0449664 99.4676 0.0982224 99.495 0.127353C99.4582 0.176042 99.4209 0.224726 99.3833 0.273831ZM9.68073 3.31404C9.64543 3.3515 9.61013 3.38896 9.57483 3.42641C9.53836 3.37647 9.49756 3.32944 9.46971 3.27493C9.46501 3.26577 9.51562 3.22458 9.54308 3.19545C9.58857 3.23499 9.63484 3.27451 9.68073 3.31404ZM7.54761 3.42641C7.57349 3.35692 7.59937 3.2874 7.62526 3.21791C7.6782 3.2874 7.73154 3.35692 7.78448 3.42641C7.70605 3.42641 7.62683 3.42641 7.54761 3.42641ZM116.344 3.29256C116.322 3.35748 116.31 3.43029 116.272 3.48273C116.261 3.49854 116.179 3.45652 116.129 3.44112C116.165 3.39119 116.202 3.34168 116.238 3.29216C116.273 3.29216 116.309 3.29256 116.344 3.29256ZM1.97734 4.43223C1.95106 4.40435 1.89893 4.37023 1.90324 4.34984C1.9154 4.29074 1.95106 4.23664 1.97734 4.18088C2.00362 4.20876 2.02991 4.23704 2.06168 4.27034C2.03422 4.32319 2.00558 4.37772 1.97734 4.43223ZM153.082 0.641877C153.148 0.669343 153.214 0.697646 153.28 0.725111C153.214 0.781291 153.148 0.837051 153.082 0.893231C153.082 0.809585 153.082 0.725939 153.082 0.641877ZM153.557 1.13641C153.505 1.16429 153.454 1.20173 153.398 1.21505C153.379 1.21963 153.346 1.16429 153.32 1.13641C153.372 1.10645 153.423 1.07606 153.473 1.04693C153.504 1.08064 153.531 1.10853 153.557 1.13641Z" fill="black" fill-opacity="0.5"/>
<path fill-rule="evenodd" clip-rule="evenodd" d="M235.951 4.96864C235.743 5.02316 234.995 5.00069 235 4.47968C234.521 4.34962 236.111 4.16961 237.092 3.65818C237.126 3.77592 237.167 3.89155 237.214 4.00318C237.237 4.05936 237.369 4.0652 237.45 4.09391L237.444 4.02535C237.429 3.8499 237.415 3.67423 237.398 3.49874C238.054 3.15719 238.628 2.84983 238.646 2.71518C238.75 2.82159 238.927 3.02485 238.934 3.02899C239.257 3.22665 239.287 2.75391 239.506 2.67692C239.613 2.63947 239.74 2.67069 239.811 2.76016C239.979 2.87335 240.107 2.89166 240.235 2.89333C240.248 2.89374 240.261 2.79054 240.275 2.73519C240.173 2.71355 240.072 2.68068 239.969 2.67652C239.93 2.67485 239.889 2.7406 239.811 2.76016C240.711 0.923462 240.339 2.18123 241.517 1.91705C241.49 2.07144 241.504 2.25661 241.425 2.36939C241.352 2.47217 241.179 2.49507 241.051 2.55333C241.153 2.59286 241.279 2.60369 241.353 2.67568C241.988 3.29823 242.445 2.74352 242.939 2.47594C242.986 2.5704 243.033 2.60909 243.08 2.64779C243.094 2.59494 243.133 2.50756 243.119 2.49549C243.069 2.45596 243 2.44306 242.939 2.41975V2.47594C242.839 2.00403 242.564 1.88832 242.192 1.91413C241.968 1.92994 241.742 1.91705 241.517 1.91705C241.534 1.69316 241.421 1.44096 241.817 1.4006C242.593 1.32111 243.313 1.59413 244.05 1.73562C244.389 1.80054 244.787 1.53918 245.072 1.91745C245.072 2.0011 245.072 2.08518 244.985 2.1193C244.706 2.2712 244.527 2.44722 244.368 2.64197C244.341 2.67402 244.381 2.80635 244.426 2.85421C244.471 2.90207 244.577 2.94034 244.629 2.91662C244.883 2.80135 245.107 2.64321 245.068 2.29448C245.063 2.24538 245.002 2.20336 244.985 2.1193C245.138 2.11264 245.203 2.05646 245.269 2.00028C245.203 1.97281 245.138 1.94533 245.072 1.91745V1.5425C245.155 1.54583 245.238 1.54335 245.32 1.55376C245.377 1.56125 245.431 1.5862 245.487 1.60326C245.566 1.08558 245.748 1.16465 245.987 1.50131C246.096 1.65362 246.215 1.73395 246.258 1.44848C246.316 1.0573 246.539 0.881265 246.901 0.913308C247.225 0.941999 247.548 0.985568 247.87 1.02904L247.913 1.03482C248.049 1.05313 248.255 1.16049 248.304 1.10431C248.561 0.811762 248.752 0.872511 248.978 1.13718C249.017 1.18337 249.202 1.143 249.284 1.08641C249.999 0.596603 250.799 0.656121 251.591 0.659034C252.18 0.661115 252.864 0.861285 253.335 0.611181C254.01 0.252464 254.339 0.823405 254.831 0.896646C254.988 0.920367 255.164 0.747255 255.339 0.714379C255.571 0.6711 255.874 0.454299 255.902 0.891668C255.674 0.939525 255.607 0.968657 255.539 0.997787C255.696 1.13636 255.848 1.28283 256.015 1.40601C256.041 1.42557 256.137 1.33861 256.201 1.30116C256.068 1.14802 255.934 0.994872 255.902 0.891668C256.341 0.732701 256.783 1.50938 257.052 1.22807C257.402 0.86269 257.586 1.25344 257.835 1.25011C258.075 1.2472 258.422 0.825227 258.531 0.900133C258.918 1.1648 259.171 1.01749 259.462 0.782787C259.504 0.748247 259.607 0.798611 259.681 0.809431C259.656 0.898486 259.649 1.00126 259.601 1.07326C259.512 1.20601 259.385 1.3117 259.301 1.44737C259.269 1.49938 259.285 1.64629 259.325 1.67459C259.413 1.73618 259.565 1.81191 259.631 1.77154C259.92 1.59218 260.195 1.38412 260.462 1.16731C260.722 0.956324 260.972 1.50814 261.326 1.087C261.563 0.80485 262.162 0.818582 262.604 0.794445C262.882 0.779048 263.291 1.10157 263.425 0.987126C263.72 0.734526 264.006 0.806927 264.303 0.776132C264.67 0.738263 264.975 0.815246 265.231 1.14691C265.405 1.37205 265.625 1.39911 265.702 1.00668C265.72 0.918877 265.845 0.779448 265.903 0.788604C266.316 0.85269 266.756 0.60551 267.154 0.924694C267.241 0.994606 267.433 0.984194 267.548 0.935921C267.82 0.823145 268.066 0.64256 268.338 0.531865C268.618 0.417841 268.863 0.848949 269.227 0.554318C269.426 0.392438 269.842 0.49273 270.153 0.534761C270.441 0.573879 270.716 0.72369 271.005 0.767801C271.276 0.809416 271.582 0.701641 271.827 0.79569C272.133 0.913459 272.29 0.437382 272.628 0.679995C272.822 0.819404 273.149 0.784025 273.414 0.766963C273.619 0.753428 273.825 0.672108 274.023 0.594037L274.05 0.583452C274.606 0.364559 275.146 -0.0103857 275.745 0.486908C275.807 0.53851 275.998 0.521853 276.053 0.460264C276.598 -0.146476 276.751 0.6101 277.071 0.833154C277.118 0.928035 277.164 0.966738 277.211 1.00544C277.226 0.952589 277.265 0.865187 277.251 0.853118C277.21 0.820109 277.156 0.805571 277.103 0.788369C277.194 0.663706 277.281 0.546103 277.377 0.536437C277.802 0.493574 278.28 0.616334 278.646 0.449876C279.298 0.15358 279.936 0.236794 280.558 0.367048C280.794 0.416569 280.829 0.528104 280.88 0.224734C280.894 0.139008 281.189 0.012907 281.205 0.0332982C281.693 0.682485 282.509 0.32337 283.069 0.72828C283.573 0.387457 283.894 1.17231 284.283 1.00336C284.806 0.776557 285.319 0.785293 285.849 0.77697C285.967 0.775306 286.143 0.825651 286.192 0.763229C286.537 0.32378 287.031 0.680406 287.392 0.492724C287.808 0.275913 288.011 0.58097 288.31 0.734528C288.665 0.916384 288.988 0.205188 289.452 0.664197C289.628 0.838978 290.038 0.75324 290.342 0.771967C290.408 0.776128 290.507 0.739094 290.539 0.686244C290.613 0.563897 290.656 0.420321 290.711 0.28549C290.795 0.356651 290.889 0.496888 290.96 0.483987C291.096 0.459018 291.216 0.29133 291.347 0.283839C291.819 0.257622 292.293 0.290493 292.765 0.268853C293.213 0.248046 293.643 0.312138 294.102 0.0562085C294.517 -0.175168 294.895 0.373299 295.31 0.517286C295.452 0.566807 295.623 0.529767 295.78 0.523941C296.08 0.512705 296.415 0.628393 296.627 0.27467C296.876 0.672921 297.261 0.490231 297.593 0.521858C297.789 0.540168 298.046 0.609678 298.173 0.509387C298.555 0.206433 299.124 0.10614 299.352 0.315461C299.729 0.662111 300.118 0.146097 300.399 0.504815C300.869 0.315885 301.248 0.821497 301.775 0.645884C302.186 0.508556 282.7 0.728694 283.17 0.772805C283.363 0.791115 283.604 0.840636 283.746 0.745755C284.312 0.367151 284.881 0.497501 285.461 0.630282L285.508 0.64088C285.585 0.658774 285.74 0.65212 285.742 0.639635C285.824 0.00210065 286.053 0.423647 286.334 0.459019C286.627 0.496056 286.773 1.05912 287.138 0.69333C287.417 0.412848 287.623 0.865608 287.923 0.801938C288.172 0.749504 288.358 0.680826 288.514 0.48607C288.684 0.275084 288.827 0.208501 289.096 0.398264C289.342 0.572213 289.742 0.760731 289.963 0.66252C290.441 0.44987 291.02 0.591357 291.429 0.170633C291.475 0.123193 291.643 0.114049 291.666 0.150669C291.928 0.559324 292.312 0.572632 292.707 0.520613C293.005 0.481462 293.054 0.637534 293.134 0.88646L293.144 0.91804C293.209 1.11987 293.45 1.09906 293.576 0.851035C293.637 0.732434 293.731 0.633399 293.81 0.525617C293.912 0.609262 294.043 0.785283 294.111 0.761146C294.402 0.658359 294.741 0.314617 294.939 0.396181C295.283 0.538087 295.438 0.17148 295.742 0.253461C296.076 0.343765 296.448 0.288002 296.803 0.269691C297.09 0.254294 297.299 0.3425 297.53 0.548908C297.927 0.902632 298.476 0.899722 298.877 0.536843C299.264 0.185201 299.587 0.213508 300.023 0.426991C300.417 0.620082 300.875 0.751163 301.306 0.754492C301.781 0.758237 302.318 0.698317 302.716 0.457368C303.114 0.216004 303.04 0.41991 303.075 0.664603C303.078 0.687907 303.179 0.695392 303.235 0.710373C303.318 0.141086 303.505 0.330845 303.741 0.618401C303.953 0.87766 304.233 0.881006 304.454 0.656704C304.608 0.500649 304.641 0.183958 304.807 0.0749281C305.136 -0.141884 305.243 0.288401 305.453 0.428642L305.463 0.435121C305.522 0.474411 305.588 0.518297 305.653 0.521452C308.518 0.662712 329.209 0.017684 331.427 1.00016C331.764 1.14956 332.128 0.549061 332.349 1.12043C332.405 1.06134 332.454 0.990593 332.518 0.944817C333.117 0.514939 333.673 0.490807 334.277 0.976033C334.54 1.18743 334.847 1.22781 335.034 1.12294C335.702 0.749245 336.398 0.957299 337.078 0.890716C337.375 0.861586 337.697 1.01516 337.965 0.718863C338.022 0.655193 338.255 0.690563 338.351 0.763388C338.541 0.906959 338.686 1.11669 338.866 1.2794C338.9 1.30978 339.073 1.24403 339.072 1.22655C339.055 0.673491 339.511 0.84703 339.654 0.920687C339.9 1.04803 340.019 1.24653 340.344 0.98477C340.548 0.819977 340.939 0.899879 341.246 0.904457C341.316 0.905289 341.381 1.05135 341.453 1.12459C341.546 1.21864 341.644 0.434475 341.74 0.524779C341.802 0.398271 341.917 1.14332 341.916 1.01723C341.915 0.675992 342.05 0.515779 342.326 0.703877C342.852 1.06259 343.326 0.901538 343.815 0.643528C344.1 0.492883 344.394 0.150825 344.684 0.641877C345.205 0.559028 345.736 1.1015 346.264 1.32374C346.248 1.33846 346.236 1.35225 346.238 1.36248C346.251 1.42157 346.286 1.47567 346.312 1.53144L346.397 1.44195C346.382 1.41433 346.367 1.38626 346.353 1.35791C346.564 1.43139 346.775 1.44496 346.985 1.33783C347.211 1.22214 347.652 0.116702 347.852 0.641877L347.656 0.810403C347.721 0.837868 347.787 0.865349 347.852 0.893231C347.923 1.07749 348.016 1.15196 348.119 1.17276C348.137 1.19615 348.155 1.21799 348.168 1.21505C348.2 1.20727 348.231 1.19126 348.262 1.17373C348.417 1.15176 348.584 1.07306 348.731 1.09213C348.685 1.02597 348.647 0.948977 348.589 0.896126C348.52 0.832456 348.364 0.784607 348.367 0.737582C348.383 0.4442 348.774 0.971196 349.049 1.01531C349.453 1.07981 349.853 1.24378 350.255 1.24461C350.724 1.24545 351.148 0.476659 351.563 0.680154C352.043 0.91486 352.705 1.63537 353.069 1.21756C353.136 1.13974 353.22 1.02197 353.298 1.01947C353.785 1.00449 354.271 1.57254 354.77 1.02031C354.782 1.00658 354.972 1.12517 355.031 1.21673C355.251 1.55672 355.395 1.40857 355.634 1.20591C355.88 0.997417 356.218 0.910433 356.515 0.770608C356.815 1.17801 357.342 0.820558 357.585 1.03779C358.032 1.43853 358.346 0.962054 358.713 1.01366C358.894 1.03904 359.069 1.11602 359.249 1.15264C359.382 1.17928 359.578 1.24418 359.644 1.17802C360.115 0.708188 360.822 1.34449 361.257 0.771878C361.723 1.26626 362.301 0.944986 362.824 0.996588C363.411 1.05443 364.008 1.0124 364.6 1.00865C364.833 1.00699 365.118 1.07981 365.291 0.966616C367.847 0.996588 366.746 1.36994 367.465 1.26382C367.583 1.24676 367.746 0.500452 367.847 0.604904C368.143 0.912436 368.392 2.02662 368.525 1.34498C368.536 1.28917 368.77 1.269 368.921 1.25606L368.946 1.25384C369.677 1.18976 370.349 0.654841 371.059 0.733908C371.143 0.743064 371.281 0.792168 371.302 0.758876C371.518 0.405569 371.867 1.2609 372.202 1.18849C372.483 1.12773 348.642 0.645422 349.027 0.925072C349.303 1.12482 349.58 0.452998 349.872 0.622786C349.963 0.675636 350.106 0.642767 350.223 0.629034C350.824 0.559538 351.44 1.64958 352.035 1.27713C352.241 1.14855 352.64 0.270322 352.881 0.613642C353.127 0.964036 353.436 1.00732 353.774 0.709779C353.845 0.646525 354.052 0.615718 354.079 0.656084C354.358 1.08679 354.589 0.793013 354.851 0.636959C355.04 0.524599 355.251 1.28339 355.461 1.2605C356.414 1.15605 357.369 0.196656 358.325 0.137147C366.007 -0.336118 397.728 5.01314 402.497 2.11871C402.848 1.90523 403.267 1.884 403.499 2.01717C404.102 2.36382 404.711 2.18697 405.313 2.22984C405.785 2.26313 406.293 2.12537 406.725 2.26852C407.138 2.40543 407.479 2.26021 407.838 2.21277C408.026 2.18822 408.109 2.0101 408.372 2.21401C408.871 2.60103 409.48 2.06971 410 2.45422C410.191 2.59613 410.712 2.46215 410.748 2.57368C410.837 2.85661 410.964 2.97151 411.153 3.00871C411.201 3.29306 411.337 3.61911 411.424 3.52913C411.51 3.44049 411.646 3.40553 411.759 3.34603C411.646 3.23159 411.528 3.01645 411.42 3.02145C411.319 3.02618 411.23 3.02404 411.153 3.00871C411.109 2.75517 411.135 2.53479 411.325 2.6721C411.452 2.76328 411.557 2.89416 411.657 3.01997L411.661 3.02498C411.853 3.26426 411.784 3.5847 411.499 3.71287C411.364 3.77321 411.2 3.75324 411.055 3.79069C405.907 5.11715 401.991 6.32342 395.895 4.40618C395.601 4.3138 394.561 4.24221 394.238 4.29798C393.757 4.38079 393.209 4.6646 392.809 4.51146C391.663 4.07243 390.416 4.29921 389.299 3.79484C388.811 4.24428 388.165 3.87391 387.661 4.14898C387.483 4.24594 387.426 4.25595 387.316 4.1103C387.242 4.01292 387.165 3.89971 387.064 3.84769C386.688 3.65502 386.199 4.01165 385.861 3.58136C385.855 3.57428 385.76 3.66419 385.699 3.68666C384.861 3.99586 383.999 4.11319 383.114 4.04619C382.824 3.64003 382.519 4.01874 382.248 4.07035C381.941 4.12944 381.658 4.23762 381.376 4.04411C380.733 3.60383 380.022 3.71996 379.379 3.90764L379.377 3.90828C379.071 3.99735 378.606 4.13291 378.522 4.01957C378.229 3.62299 378.067 4.11404 377.858 4.04538C377.613 3.96506 377.373 3.86436 377.125 3.80152C377.021 3.7753 376.843 3.77987 376.798 3.84645C376.371 4.46948 359.951 4.06994 354.524 3.80441C353.697 3.76363 352.865 3.82274 352.038 3.77571C351.821 3.76364 351.644 3.58013 351.395 3.78321C351.15 3.98379 350.914 3.51604 350.61 3.68791C350.387 3.814 350.13 3.87226 349.888 3.96214C349.819 3.98795 349.71 4.06161 349.69 4.03997C349.2 3.50481 372.468 4.07368 371.956 3.60759C371.86 3.52062 371.594 3.484 371.522 3.55557C370.989 4.08075 370.231 3.53434 369.674 4.02206C369.545 4.13525 369.161 3.99043 368.927 3.88473C368.206 3.56055 367.374 4.13568 366.677 3.56972C366.657 3.55266 366.432 3.87849 366.267 3.98211C366.148 4.05701 365.92 4.10404 365.829 4.03413C365.298 3.6263 364.699 3.78195 364.142 3.8115C362.871 3.87892 361.579 3.53808 360.324 4.02996C360.148 4.09821 359.897 3.90554 359.678 3.89971C358.833 3.87641 357.987 3.88015 357.141 3.87391C356.768 4.32917 356.392 3.73075 356.137 3.83604C355.764 3.99043 355.339 4.20684 355.074 3.97837C354.767 3.71287 354.679 4.00126 354.526 4.05993C354.303 4.14524 354.212 3.57888 353.975 3.96423C353.807 3.84105 353.648 3.69998 353.467 3.60635C353.42 3.5818 353.306 3.70579 353.221 3.75781C353.061 3.8556 352.91 3.99377 352.739 4.03705C352.394 4.12402 351.923 4.33376 351.712 4.17687C351.328 3.89181 351.014 4.25427 350.627 4.09905C350.171 3.91636 349.573 4.139 349.036 4.16813C348.927 4.17396 348.815 4.07867 348.701 4.07035C348.415 4.04871 348.184 3.74575 347.82 4.01749C347.609 4.17521 347.161 4.14858 346.904 4.01833C346.631 3.88017 346.094 3.91721 346.185 3.3063C346.196 3.2289 346.084 3.05785 346.021 3.05244C345.706 3.0258 345.389 3.02957 345.074 3.04621C344.971 3.05162 344.783 3.16272 344.784 3.16605C344.962 3.67458 344.208 3.39577 344.291 3.82232C344.303 3.88141 344.246 3.98378 344.193 4.0229C344.072 4.11154 343.999 4.45736 343.774 4.12569C343.683 3.99128 343.561 3.87809 343.441 3.76906C343.121 3.47859 343.13 3.49689 342.626 3.91554C342.495 4.02415 342.15 4.09405 342.109 4.0308C341.936 3.76738 341.747 3.54268 341.487 3.38205L341.491 3.38028C341.556 3.35049 341.622 3.3207 341.688 3.29172C341.756 3.26218 341.824 3.23348 341.891 3.20435C341.857 3.14942 341.83 3.05328 341.79 3.04746C341.635 3.02499 341.424 3.09781 341.332 3.01375C341.086 2.78695 340.983 2.70664 340.963 3.15358C340.957 3.27842 340.76 3.39369 340.651 3.51354C340.395 3.21267 340.13 3.40159 340.087 3.63713C340.017 4.02873 339.793 3.96797 339.544 4.06826C338.821 4.35832 338.149 4.03954 337.475 3.93426C337.175 3.88765 336.969 3.80651 336.649 3.94134C336.398 4.04704 335.96 3.70539 335.739 3.82981C335.409 4.01541 335.174 4.08157 334.876 3.85727C334.816 4.52102 334.279 4.3887 334.013 4.26968C333.334 3.96673 332.726 3.94466 332.056 4.27674C331.854 4.37703 331.415 4.32751 331.303 4.17062C331.021 3.77737 330.765 4.00625 330.464 4.03288C329.914 4.08116 329.265 3.85811 328.833 4.10072C328.418 4.33377 328.205 4.22847 327.941 4.03829C327.637 3.81898 327.436 3.84105 327.227 4.16689C327.091 4.37954 326.893 4.35457 326.747 4.15731C326.414 3.70496 325.866 3.78653 325.447 3.55057C325.193 3.98045 324.964 3.72785 324.683 3.56264C324.562 3.49106 324.331 3.62756 324.15 3.66959C324.195 3.78437 324.24 3.89955 324.285 4.01473L324.289 4.02498C324.154 3.98004 324.01 3.95423 323.887 3.8864C323.621 3.74034 323.417 3.76074 323.148 3.94884C322.878 4.13777 322.549 4.16354 322.953 3.68206C322.814 3.55223 322.692 3.34958 322.533 3.30963C322.319 3.25595 322.033 3.25137 321.859 3.36498C321.637 3.50855 321.584 3.58761 321.531 3.24804C321.497 3.02748 321.374 2.81191 321.251 2.62298C321.207 2.55473 320.984 2.51437 320.951 2.55682C320.737 2.83064 320.554 3.13027 320.361 3.42157C320.496 3.48108 320.633 3.5356 320.762 3.60635C320.776 3.61384 320.761 3.74657 320.726 3.77195C320.624 3.84811 320.506 3.94966 320.395 3.948C320.258 3.94592 320.121 3.80068 319.985 3.80401C319.406 3.81732 318.814 3.79484 318.251 3.91511C317.681 4.03704 317.181 3.61299 316.626 3.79027C316.517 3.82481 316.325 3.74326 316.282 3.8036C315.935 4.29632 315.608 3.83397 315.285 3.78569C314.911 3.72951 314.571 3.44155 314.161 3.77447C314.036 3.87601 313.606 3.81024 313.527 3.67874C313.195 3.12277 312.802 3.33999 312.466 3.55971L312.465 3.56033C312.171 3.75289 312.113 3.79111 311.986 3.39619C311.945 3.27093 311.418 3.32211 311.113 3.29256C311.196 3.16356 311.275 3.03164 311.362 2.90555C311.425 2.81358 311.498 2.7291 311.566 2.64129C311.463 2.60717 311.36 2.54726 311.256 2.54226C310.667 2.51563 310.358 2.90554 310.347 3.62547C310.346 3.68249 310.087 3.81191 310.053 3.78028C309.606 3.36622 309.158 3.46027 308.69 3.72286C308.375 3.89889 308.121 3.79942 307.886 3.52268C307.647 3.24095 307.445 3.05703 307.288 3.65087C307.236 3.84904 306.82 3.98174 306.728 3.52655C306.76 3.48391 306.783 3.44807 306.719 3.46985C306.8 3.36748 306.762 3.31462 306.753 3.31961C306.702 3.34916 306.657 3.39244 306.61 3.43114L306.651 3.47454C306.432 3.48472 306.294 3.44003 306.156 3.39535C306.202 3.86643 305.86 3.87309 305.63 3.77363C305.384 3.6671 305.226 3.70537 304.984 3.7732C304.441 3.92509 303.872 3.99001 303.31 4.0387C302.706 4.09072 302.096 3.9871 301.506 4.27923C301.279 4.39159 300.96 4.31461 300.685 4.29214C300.472 4.27466 300.263 3.94923 300.052 4.29755C299.837 4.13941 299.635 3.9509 299.401 3.83771C299.304 3.79069 299.139 3.91013 299.003 3.94259C298.497 4.06327 297.99 4.17896 297.483 4.29673C297.06 3.76032 296.336 4.31753 295.89 3.80733C295.843 3.75365 295.501 3.8606 295.495 3.91678L295.493 3.93452C295.46 4.24579 295.447 4.37058 295.126 4.09364C294.981 3.96879 294.672 4.03288 294.441 4.05036C293.617 4.11195 293.215 4.05744 292.729 3.77696C292.535 3.66501 292.354 3.5256 292.154 3.42822C292.033 3.36913 291.868 3.30714 291.755 3.3475C290.772 3.70039 289.768 3.85312 288.732 3.79943C288.545 3.78986 288.204 3.81234 288.192 3.87518C288.066 4.53685 287.874 4.1186 287.663 3.94424C287.36 3.69289 287.043 3.7857 286.7 3.90139C286.381 4.00917 286.022 4.0562 285.691 4.02041C285.552 4.00543 285.467 3.61466 285.308 3.56223C284.945 3.4428 285.13 3.94591 284.93 4.02414C284.842 4.05827 284.68 4.02998 284.619 3.96214C284.408 3.72411 284.222 3.71702 284.042 3.97586C283.742 4.40865 283.211 4.28548 282.843 4.5489C282.226 4.02206 301.315 4.55848 300.727 3.88849C300.645 3.79569 300.399 3.74575 300.302 3.80693C299.721 4.17438 299.165 4.10863 298.595 3.79735C298.438 3.71204 298.316 4.23265 298.183 3.89682C297.989 3.40951 297.616 3.30421 297.233 3.3092C296.807 3.31503 296.498 3.20477 296.203 2.87268C296.069 2.72204 295.718 2.603 295.574 2.68498C295.232 2.88057 295.007 2.83065 294.741 2.57472C294.694 2.52895 294.5 2.65504 294.374 2.70164C294.449 2.81442 294.509 2.94426 294.602 3.03539C294.71 3.14026 294.865 3.1927 294.966 3.30298C295.035 3.37913 295.092 3.52685 295.071 3.62006C295.053 3.69539 294.91 3.78487 294.821 3.78653C294.15 3.80027 293.478 3.78486 292.807 3.7986C292.553 3.80359 292.446 3.70787 292.478 3.44112C292.399 3.43239 292.321 3.42322 292.243 3.41448C292.254 4.01664 291.81 3.8631 291.615 3.72286C291.255 3.46318 291.016 3.48107 290.695 3.76738C290.597 3.85477 290.319 3.78111 290.156 3.7037C289.955 3.60841 289.805 3.38327 289.602 3.30171C289.248 3.15939 289.242 3.60176 289.073 3.70746C288.837 3.85561 288.471 3.75698 288.165 3.7986C287.771 3.85186 287.694 3.64503 287.733 3.29297C287.74 3.22555 287.683 3.14982 287.656 3.07824C287.604 3.15523 287.509 3.23096 287.508 3.3092C287.5 3.71619 287.471 4.02456 286.994 3.6492C286.904 3.57845 286.674 3.56471 286.606 3.63337C286.383 3.86059 286.254 3.74949 286.012 3.63713C285.71 3.49689 285.246 3.86809 285.021 3.31877C285.009 3.28964 284.804 3.31296 284.715 3.36289C284.487 3.49107 284.284 3.67584 284.047 3.7778C283.971 3.81025 283.719 3.64088 283.724 3.58595C283.773 3.14484 283.643 2.97505 283.203 3.0279C282.899 3.0641 283.068 2.33668 282.591 2.53393C282.407 2.61038 282.092 2.3674 281.699 2.78578C281.632 2.78566 281.612 2.78777 281.698 2.78777C281.23 2.78777 281.109 2.76657 280.997 2.79362C280.88 2.82191 280.773 2.89638 280.661 2.95048C280.743 3.1211 280.819 3.29631 280.917 3.45611C280.927 3.47192 281.071 3.38328 281.156 3.36081L281.171 3.3568C281.27 3.33083 281.374 3.30353 281.473 3.31461C281.585 3.32709 281.766 3.44778 281.791 3.41407C281.891 3.28246 281.958 3.12077 282.021 2.96129C282.349 3.16393 282.511 3.36657 282.662 3.57803C282.685 3.60966 282.613 3.78235 282.58 3.78402C282.265 3.80025 281.947 3.76947 281.634 3.80152C281.395 3.82607 281.157 3.98462 280.927 3.96507C280.752 3.95008 280.598 3.66833 280.422 3.65169C280.173 3.62838 279.914 3.7753 279.657 3.78321C279.43 3.79028 279.2 3.66459 278.973 3.67124C278.555 3.68373 278.14 3.7678 277.722 3.78902C277.288 3.81108 276.853 3.81149 276.419 3.78902C276.001 3.7678 275.585 3.66959 275.168 3.67168C274.822 3.67334 274.426 3.89805 274.34 3.29172C274.339 3.2859 274.248 3.273 274.229 3.29381C273.742 3.83064 273.003 3.25927 272.505 3.73576C272.254 3.54724 271.887 3.84104 271.66 3.4715C271.366 2.99044 271.103 2.90514 270.712 3.14276C270.614 3.20227 270.307 3.30838 270.573 3.58511C270.642 3.65711 270.589 3.86059 270.593 4.00375C270.486 4.00208 270.363 4.03621 270.275 3.99168C270.082 3.89306 269.893 3.77154 269.73 3.62547C269.658 3.56097 269.652 3.41284 269.617 3.30298C269.573 3.4016 269.492 3.50021 269.493 3.59842C269.495 4.11278 269.349 4.21598 268.957 3.87058C268.788 3.72202 268.595 3.71704 268.54 4.01833C268.512 4.16772 268.561 4.30212 268.298 4.19475C267.989 4.06866 267.627 4.05536 267.29 4.05953C267.124 4.06119 266.882 4.32961 266.81 4.27509C266.574 4.0974 266.198 4.14234 266.092 4.01833C265.776 3.64505 265.522 4.21765 265.33 4.01665C264.954 3.62339 264.507 3.79484 264.11 3.82189C263.851 3.83937 263.608 4.25967 263.357 4.25967C263.107 4.25967 262.868 3.84686 262.604 3.81648C261.98 3.7449 261.342 3.78154 260.712 3.80817C260.63 3.81192 260.49 4.015 260.492 4.12361C260.496 4.43405 260.423 4.5568 260.099 4.56096C259.71 4.56596 259.797 4.31128 259.76 4.07324C259.721 3.82938 259.304 3.66918 259.151 3.83439C259.056 3.93634 259.06 4.13776 258.971 4.25137C258.639 4.67584 258.558 4.65419 258.082 4.14774C257.916 3.97213 257.7 3.95797 257.644 4.23138C257.542 4.73283 257.333 4.65584 257.114 4.36163C256.835 3.98793 256.608 3.11305 256.252 3.4081C256.038 3.58579 255.566 3.76099 255.439 3.64779C254.92 3.18462 254.05 3.74932 253.684 2.92868C253.663 2.87999 253.458 2.90955 253.342 2.92703C253.274 2.93744 253.212 2.99486 253.147 3.03107C253.197 3.07893 253.243 3.13219 253.297 3.17298C253.473 3.30573 253.652 3.4339 253.83 3.56415C253.647 3.60161 253.465 3.64405 253.281 3.67484C253.204 3.68775 253.097 3.64196 253.049 3.68274C252.633 4.03189 252.28 3.97363 251.798 3.72394C251.545 3.59244 250.866 3.33402 250.689 4.10722C250.676 4.16506 250.4 4.20043 250.261 4.17046C250.05 4.12469 249.851 3.94159 249.647 3.94283C249.121 3.94575 248.906 3.73852 248.841 3.15883C248.788 2.69441 248.321 2.92912 248.069 2.94951C247.842 2.96782 247.876 3.22664 248.024 3.41849C248.28 3.7514 248.23 3.94075 247.79 3.92993C247.219 3.91578 246.708 4.32653 246.119 4.20044C245.481 4.69731 244.755 4.31736 244.077 4.42515C244.021 4.43388 243.952 4.3494 243.889 4.30821C243.95 4.26534 244.009 4.18838 244.072 4.18588C244.387 4.1734 244.705 4.2021 245.018 4.16798C245.122 4.15674 245.307 3.97947 245.294 3.91497C245.197 3.43391 245.035 3.95867 244.969 3.90956C244.303 3.41893 243.901 3.73228 243.571 4.37231C243.544 4.42475 243.368 4.3902 243.261 4.39644C243.288 4.30739 243.324 4.2204 243.338 4.12927C243.347 4.07309 243.345 3.99194 243.313 3.9549C242.918 3.49256 242.465 3.55334 242.186 4.09724C242.08 4.30281 241.994 4.53459 241.842 4.69397C241.73 4.81216 241.479 4.9366 241.372 4.88084C240.817 4.59162 240.299 4.56539 239.753 4.89872C239.67 4.94949 239.479 4.84671 239.359 4.77472C239.14 4.64405 239.162 4.50215 239.344 4.32154C239.386 4.27951 239.275 4.06435 239.235 3.92869C239.126 4.00567 238.954 4.05895 238.92 4.1634C238.731 4.73685 238.331 4.30821 238.045 4.39477C238.019 4.25085 237.994 4.10732 238.159 3.91806C238.168 3.91956 238.175 3.92038 238.183 3.92038C238.265 3.91996 238.347 3.85629 238.204 3.87085C238.31 3.66944 238.205 3.55875 238.101 3.44805C238.054 3.56915 237.996 3.68775 237.973 3.81342C237.97 3.82906 238.034 3.87325 238.099 3.89968C237.868 3.96263 237.776 3.98129 237.769 4.01858C237.723 4.24537 237.363 4.51588 237.164 4.47968C237.127 4.47302 237.076 4.63989 237.011 4.70106C236.914 4.79095 236.706 4.92952 236.703 4.92452C236.438 4.5425 236.168 4.91163 235.951 4.96864ZM296.346 3.48273C296.384 3.43029 296.396 3.35708 296.418 3.29216H296.381C296.407 3.27589 296.437 3.25773 296.472 3.23729L296.524 3.29216C296.561 3.24305 296.598 3.19434 296.635 3.14565C296.571 3.18057 296.517 3.21084 296.472 3.23729L296.444 3.20706C296.594 3.09875 296.568 3.06385 296.561 3.06826C296.509 3.09781 296.465 3.14109 296.418 3.17979L296.444 3.20706C296.409 3.23154 296.366 3.25978 296.312 3.29216H296.381C296.252 3.37298 296.227 3.40696 296.202 3.44112C296.253 3.45652 296.335 3.49854 296.346 3.48273ZM294.065 1.72204C294.103 1.6696 294.115 1.59636 294.137 1.53144H294.1C294.126 1.51522 294.156 1.49712 294.191 1.47675L294.243 1.53144L294.355 1.38496C294.29 1.41995 294.236 1.45026 294.191 1.47675L294.163 1.44667C294.314 1.33822 294.287 1.30346 294.28 1.30754C294.228 1.3375 294.184 1.3808 294.137 1.4195L294.163 1.44667C294.129 1.47106 294.086 1.49919 294.031 1.53144H294.1C293.972 1.61227 293.947 1.64624 293.922 1.68041C293.972 1.6958 294.054 1.73743 294.065 1.72204ZM249.755 1.99363C249.706 1.95368 249.637 1.94076 249.575 1.91745V1.94426C249.562 1.92055 249.548 1.89376 249.532 1.86345C249.555 1.83742 249.573 1.80965 249.57 1.80384C249.48 1.64779 249.38 1.49881 249.253 1.30405C249.38 1.566 249.468 1.74273 249.532 1.86345C249.515 1.8828 249.494 1.90119 249.477 1.90886C249.152 1.52224 249.109 1.58078 249.105 1.64281C249.082 1.93494 249.277 1.93287 249.464 1.91247C249.468 1.91207 249.472 1.91081 249.477 1.90886C249.507 1.94503 249.54 1.98509 249.575 2.02941V1.94426C249.662 2.1017 249.689 2.12381 249.716 2.14592C249.73 2.09307 249.77 2.00569 249.755 1.99363ZM281.811 2.14649V2.03414L281.828 2.04013C281.894 2.21513 281.923 2.23897 281.952 2.26261C281.966 2.20976 282.006 2.12236 281.991 2.11029C281.946 2.07389 281.885 2.05995 281.828 2.04013C281.817 2.01274 281.806 1.98163 281.794 1.94625C281.802 1.93553 281.807 1.92609 281.805 1.91886C281.763 1.77237 281.702 1.63215 281.645 1.48358C281.707 1.68916 281.755 1.83782 281.794 1.94625C281.779 1.96375 281.754 1.98466 281.732 2.00497C281.479 1.56784 281.423 1.59667 281.367 1.62549C281.478 1.76157 281.59 1.89806 281.701 2.03455C281.709 2.02518 281.72 2.01515 281.732 2.00497C281.756 2.04757 281.783 2.0946 281.811 2.14649ZM344.645 1.7832C344.596 1.85269 344.549 1.92219 344.488 2.00958C344.416 1.96188 344.349 1.91898 344.285 1.88047C344.245 1.84453 344.201 1.80485 344.151 1.76093C344.279 1.72561 344.407 1.69345 344.535 1.6596C344.396 1.61674 344.255 1.58055 344.119 1.53019C343.983 1.47984 343.852 1.41533 343.658 1.33002C343.862 1.50708 344.023 1.64799 344.151 1.76093L344.102 1.77466C343.528 1.46239 343.383 1.58509 343.398 1.68124C343.429 1.89389 343.594 2.0845 343.703 2.28425C343.757 2.14443 343.799 1.99627 343.872 1.86851C343.901 1.81691 343.999 1.80442 344.068 1.78444L344.102 1.77466C344.159 1.80553 344.22 1.84066 344.285 1.88047C344.598 2.16083 344.636 2.21306 344.673 2.26467C344.706 2.16188 344.758 2.06036 344.764 1.95632C344.766 1.90097 344.687 1.84104 344.645 1.7832ZM260.778 2.00834L260.973 2.11944C260.909 2.27716 260.824 2.42947 260.788 2.59385C260.746 2.78444 260.728 2.98794 260.746 3.18103C260.751 3.22806 260.939 3.2551 261.043 3.29172C261.054 3.21016 261.105 3.09365 261.072 3.05287C260.841 2.76822 261.207 2.75948 261.245 2.60426C261.356 2.67792 261.496 2.72702 261.572 2.82981C261.682 2.98004 261.731 3.17853 261.834 3.33625C261.882 3.40908 261.995 3.43363 262.079 3.48024C262.098 3.40533 262.14 3.32876 262.134 3.25594C262.094 2.67458 261.456 1.90554 260.914 1.79318C260.883 1.78694 260.823 1.93302 260.778 2.00834ZM250.64 1.93493C250.514 1.9212 250.372 2.0681 250.125 2.20668C250.365 2.51587 250.497 2.75682 250.69 2.91205C250.852 3.04272 251.378 2.81592 251.377 2.62783C251.376 2.47926 251.243 2.30155 251.123 2.19169C250.989 2.0681 250.81 1.95324 250.64 1.93493ZM283.84 2.2855C283.776 1.92845 283.548 1.75407 283.079 1.79277C283.053 1.83023 282.904 1.94925 282.92 2.03539C282.985 2.39203 283.215 2.58637 283.564 2.52728C283.671 2.50897 283.851 2.34875 283.84 2.2855ZM239.499 3.1842C239.477 3.17796 239.422 3.30363 239.364 3.39893C239.406 3.48216 239.479 3.6711 239.504 3.66402C239.837 3.57539 240.067 3.81093 240.338 3.91746C240.387 3.93702 240.51 3.81426 240.561 3.73103C240.589 3.68442 240.559 3.53045 240.525 3.51754C240.187 3.39187 239.844 3.28241 239.499 3.1842ZM304.661 1.94715C304.844 1.58802 304.633 1.15067 304.243 1.02832C304.177 1.05537 304.052 1.10281 304.053 1.10655C304.148 1.41783 304.248 1.72826 304.37 2.0283C304.378 2.04578 304.627 2.01457 304.661 1.94715ZM241.473 3.59786L240.932 2.89914C240.876 3.00068 240.822 3.06186 240.808 3.13178C240.721 3.56374 240.857 3.72187 241.275 3.67484C241.343 3.66735 241.407 3.62449 241.473 3.59786ZM287.042 2.28049C287.109 2.30796 287.194 2.2859 287.271 2.2859C287.387 2.2859 287.503 2.29174 287.618 2.28217C287.647 2.27967 287.7 2.21891 287.695 2.20102C287.677 2.14193 287.646 2.05161 287.605 2.04121C287.427 1.99709 287.244 1.98004 287.063 1.94674C286.98 1.93135 286.899 1.90138 286.817 1.8785C286.808 1.9559 286.764 2.06159 286.796 2.10529C286.854 2.18477 286.951 2.24346 287.042 2.28049ZM251.556 3.38478C251.561 3.40601 251.617 3.41309 251.717 3.45471C251.798 3.39228 251.922 3.3182 252.017 3.21458C252.071 3.15674 252.076 3.04937 252.102 2.96406C252.032 2.95033 251.942 2.90123 251.895 2.93036C251.771 3.00735 251.659 3.11179 251.556 3.21999C251.529 3.24829 251.543 3.33193 251.556 3.38478ZM252.407 2.15842C252.432 2.11306 252.325 1.98489 252.22 1.78555C252.093 1.96408 251.985 2.05936 251.959 2.17546C251.944 2.23913 252.067 2.33778 252.127 2.42059C252.225 2.3357 252.347 2.26662 252.407 2.15842ZM279.524 1.07077C279.492 1.13568 279.468 1.206 279.407 1.3608C279.506 1.469 279.629 1.6051 279.756 1.73618C279.771 1.75116 279.826 1.75117 279.832 1.74035C279.865 1.67543 279.929 1.58096 279.908 1.54101C279.821 1.37622 279.708 1.22639 279.599 1.0745C279.589 1.05994 279.53 1.05995 279.524 1.07077ZM264.968 1.59011C264.968 1.47151 264.883 1.35416 264.796 1.14651C264.641 1.3217 264.506 1.42491 264.521 1.46819C264.563 1.58679 264.657 1.69623 264.756 1.77113C264.779 1.78861 264.969 1.65378 264.968 1.59011ZM246.721 3.18753C246.678 3.16131 246.558 3.27575 246.37 3.38686C246.538 3.52128 246.628 3.63532 246.737 3.66362C246.797 3.67902 246.89 3.54916 246.968 3.48465C246.888 3.38103 246.823 3.2512 246.721 3.18753ZM280.114 3.20641C280.012 3.0645 279.91 2.92302 279.802 2.77279C279.751 2.86267 279.669 2.95383 279.686 2.9867C279.745 3.09906 279.83 3.20351 279.925 3.28383C279.952 3.30671 280.049 3.23471 280.114 3.20641ZM274.629 2.48773C274.653 2.4174 274.677 2.34749 274.734 2.17979C274.627 2.13276 274.519 2.06493 274.403 2.04329C274.353 2.03372 274.286 2.1182 274.226 2.16023C274.361 2.26926 274.495 2.3787 274.629 2.48773ZM342.761 1.78777C342.661 1.90595 342.56 2.02374 342.45 2.15357C342.464 2.17771 342.514 2.28216 342.523 2.27841C342.644 2.22806 342.78 2.18353 342.864 2.08865C342.895 2.0537 342.799 1.89181 342.761 1.78777ZM288.676 2.57805C288.649 2.6463 288.622 2.71496 288.557 2.87934C288.662 2.93136 288.766 3.0046 288.88 3.03207C288.93 3.04413 289 2.96297 289.061 2.92427C288.932 2.809 288.804 2.69332 288.676 2.57805ZM347.933 3.50312L348.342 3.17189C348.257 3.11779 348.171 3.0308 348.14 3.04911C348.034 3.11195 347.936 3.20185 347.86 3.30298C347.839 3.33127 347.907 3.43446 347.933 3.50312ZM297.447 1.52311C297.555 1.47358 297.646 1.38203 297.739 1.31171C297.656 1.16647 297.619 1.10196 297.582 1.03787C297.474 1.17395 297.365 1.31004 297.256 1.44612C297.321 1.47442 297.402 1.5435 297.447 1.52311ZM316.172 1.99419C316.224 1.96298 316.318 1.93384 316.32 1.8993C316.329 1.74184 316.08 1.4231 316.099 1.66501C316.106 1.77612 316.145 1.88475 316.172 1.99419ZM289.536 2.67083C289.538 2.64129 289.442 2.60426 289.355 2.54683C289.337 2.68333 289.308 2.79567 289.315 2.90512C289.317 2.93966 289.411 2.9688 289.463 3.00001C289.49 2.89056 289.529 2.78194 289.536 2.67083ZM281.211 1.27135C281.24 1.27343 281.274 1.17189 281.328 1.0795C281.2 1.06036 281.094 1.02997 280.99 1.03663C280.958 1.03871 280.931 1.13858 280.901 1.19393C281.004 1.22264 281.107 1.26386 281.211 1.27135ZM276.708 3.28383C276.736 3.28549 276.771 3.18437 276.825 3.09198C276.696 3.07242 276.591 3.04245 276.487 3.04911C276.454 3.05119 276.427 3.15106 276.398 3.20641C276.501 3.23512 276.603 3.27633 276.708 3.28383ZM275.412 2.91469L275.145 2.76905C275.085 2.81088 275.039 2.84367 274.996 2.87358L274.937 2.91469C275.036 2.95631 275.132 3.01998 275.233 3.03163C275.288 3.03829 275.352 2.95673 275.412 2.91469ZM270.492 2.77987C270.547 2.78653 270.611 2.70497 270.704 2.64005C270.578 2.60093 270.478 2.54849 270.376 2.54516C270.317 2.54349 270.257 2.6209 270.197 2.66293C270.295 2.70455 270.391 2.76822 270.492 2.77987ZM266.841 2.62339C266.776 2.59426 266.711 2.56555 266.53 2.48565C266.514 2.52476 266.478 2.61383 266.442 2.70289C266.507 2.7316 266.581 2.79568 266.636 2.78028C266.712 2.75864 266.773 2.67874 266.841 2.62339ZM266.01 2.99003C266.098 2.97505 266.182 2.9276 266.218 2.91221C266.141 2.71537 266.114 2.64628 266.087 2.57678C266.034 2.64877 265.959 2.71412 265.938 2.79527C265.924 2.85269 265.994 2.99294 266.01 2.99003ZM256.916 3.40826C256.922 3.29881 256.893 3.18728 256.875 3.04995C256.788 3.10738 256.692 3.14443 256.694 3.17397C256.701 3.28467 256.74 3.39368 256.767 3.50312C256.82 3.47191 256.914 3.4428 256.916 3.40826ZM287.848 1.27135C287.876 1.27343 287.911 1.17189 287.965 1.0795C287.837 1.06036 287.731 1.02997 287.627 1.03663C287.595 1.03871 287.567 1.13858 287.538 1.19393C287.641 1.22264 287.743 1.26386 287.848 1.27135ZM354.608 1.28008C354.582 1.2522 354.53 2.08964 354.534 2.06925C354.546 2.00974 354.582 1.95565 354.608 1.89989C354.628 1.92084 354.662 1.9453 354.676 1.965C354.679 1.98319 354.681 1.99039 354.682 1.98269C354.683 1.97752 354.681 1.97152 354.676 1.965C354.661 1.84355 354.631 1.23122 354.608 1.28008ZM351.645 3.41783C351.619 3.38995 351.592 3.36206 351.561 3.32835L351.408 3.41783C351.434 3.44571 351.467 3.50105 351.486 3.49647C351.542 3.48315 351.593 3.44571 351.645 3.41783ZM249.22 2.92327L249.135 3.01275C249.163 3.06561 249.191 3.12013 249.22 3.17506C249.246 3.14718 249.298 3.11262 249.294 3.09223C249.281 3.03314 249.246 2.97904 249.22 2.92327ZM286.581 1.53144L286.665 1.44195L286.581 1.27968C286.555 1.30756 286.502 1.34167 286.507 1.36248C286.519 1.42157 286.555 1.47567 286.581 1.53144ZM289.307 3.41783C289.255 3.38787 289.204 3.35748 289.154 3.32835C289.122 3.36164 289.096 3.38995 289.07 3.41783C289.122 3.44571 289.173 3.48357 289.229 3.49647C289.248 3.50105 289.281 3.44571 289.307 3.41783ZM260.005 2.41158L259.92 2.3221L259.869 2.35222L259.868 2.35274C259.835 2.37222 259.801 2.39199 259.767 2.41158C259.794 2.43946 259.826 2.49482 259.845 2.49024C259.901 2.47693 259.952 2.43946 260.005 2.41158ZM258.582 2.91469C258.531 2.88432 258.48 2.85437 258.43 2.82524C258.398 2.85895 258.372 2.88681 258.345 2.91469C258.398 2.94258 258.449 2.98004 258.504 2.99336C258.524 2.99793 258.556 2.94258 258.582 2.91469ZM263.56 3.66916C263.509 3.6392 263.457 3.60883 263.408 3.5797C263.376 3.61341 263.349 3.64128 263.323 3.66916C263.375 3.69704 263.426 3.73451 263.482 3.74782C263.502 3.7524 263.534 3.69704 263.56 3.66916ZM281.259 2.49024C281.279 2.49482 281.311 2.43946 281.337 2.41158C281.303 2.39174 281.269 2.37171 281.235 2.35198L281.184 2.3221C281.153 2.35581 281.127 2.3837 281.1 2.41158C281.153 2.43946 281.203 2.47693 281.259 2.49024ZM255.383 2.67194L255.298 2.7614C255.326 2.81425 255.354 2.86876 255.383 2.92327C255.409 2.89539 255.461 2.86168 255.457 2.84088C255.444 2.78178 255.409 2.72771 255.383 2.67194ZM286.507 1.36248C286.511 1.34167 286.46 1.30756 286.433 1.27968C286.407 1.33586 286.372 1.38952 286.359 1.44861C286.355 1.46942 286.407 1.50356 286.433 1.53144C286.46 1.47567 286.494 1.42157 286.507 1.36248ZM288.685 3.41783C288.633 3.38787 288.582 3.35748 288.532 3.32835C288.501 3.36164 288.474 3.38995 288.448 3.41783C288.501 3.44571 288.551 3.48357 288.607 3.49647C288.626 3.50105 288.659 3.44571 288.685 3.41783ZM340.86 2.53726C340.889 2.48274 340.917 2.42824 340.945 2.37539C340.913 2.34168 340.887 2.3138 340.86 2.2855C340.834 2.34168 340.799 2.39536 340.786 2.45446C340.782 2.47526 340.834 2.50938 340.86 2.53726ZM349.671 2.49024C349.691 2.49482 349.723 2.43946 349.749 2.41158C349.696 2.3837 349.646 2.34624 349.59 2.33292C349.57 2.32834 349.538 2.3837 349.512 2.41158C349.564 2.43946 349.615 2.47693 349.671 2.49024Z" fill="black" fill-opacity="0.5"/>
</svg>
