<svg width="247" height="202" viewBox="0 0 247 202" fill="none" xmlns="http://www.w3.org/2000/svg">
<path d="M1.88171 15.1925C22.2937 31.3786 42.4444 48.0616 62.5484 64.7657C82.4844 81.3113 102.43 97.8674 122.664 113.937C134.2 123.1 145.848 132.072 157.608 140.854C159.475 142.26 161.248 138.835 159.372 137.429C138.503 121.909 118.091 105.617 97.8564 89.0608C77.855 72.6526 57.9844 55.9908 37.983 39.5509C26.5902 30.1839 15.1288 20.9226 3.59905 11.7671C1.75105 10.2975 0.0150482 13.7652 1.88171 15.1925Z" fill="#6F595D"/>
<path d="M1.53481 9.68425C22.7868 26.3144 43.7121 43.5154 64.6095 60.653C85.3388 77.6955 106.059 94.738 127.143 111.262C139.121 120.665 151.213 129.866 163.421 138.867C165.951 140.717 168.293 136.139 165.773 134.299C144.092 118.378 122.84 101.652 101.859 84.6098C81.0361 67.6942 60.4001 50.5566 39.6055 33.641C27.7833 24.0202 15.8926 14.5052 3.93348 5.0959C3.3988 4.74715 2.76456 4.65035 2.16747 4.82636C1.57038 5.00237 1.05825 5.43709 0.741476 6.03683C0.440811 6.64434 0.359372 7.36009 0.514219 8.0341C0.669066 8.70812 1.04818 9.2881 1.57214 9.65253L1.53481 9.68425Z" fill="#6F595D"/>
<path d="M6.01498 3.94348C26.8283 20.1084 47.315 36.8443 67.7923 53.5802C87.971 70.0729 108.14 86.5762 128.627 102.572C140.387 111.735 152.268 120.71 164.271 129.499C164.896 129.965 165.484 128.823 164.859 128.358C143.607 112.88 122.859 96.6409 102.242 80.0002C81.9696 63.6555 61.875 47.036 41.631 30.6807C30.0265 21.2714 18.3505 11.9784 6.60298 2.80168C5.98698 2.31536 5.39898 3.45716 6.01498 3.94348Z" fill="#6F595D"/>
<path d="M9.34811 2.80174C30.1894 19.2944 51.3481 35.248 72.6468 51.0006C94.1134 66.859 115.72 82.5693 137.271 98.322C149.217 107.055 161.139 115.83 173.036 124.647C174.296 125.588 175.463 123.304 174.212 122.363C152.941 106.547 131.521 90.9426 110.148 75.3696C88.5788 59.6276 67.0468 43.8432 45.7481 27.71C33.9259 18.7729 22.1846 9.70894 10.5241 0.518134C9.29211 -0.454513 8.12544 1.83966 9.34811 2.80174Z" fill="#6F595D"/>
<path d="M3.54218 12.5388C3.12769 12.1247 2.80335 11.6078 2.59448 11.0282C2.38562 10.4487 2.2979 9.82225 2.33818 9.19794C2.39734 7.75051 2.81455 6.35107 3.54218 5.15934C4.22086 4.11051 5.17458 3.3312 6.26731 2.93252C7.36005 2.53385 8.53601 2.53618 9.62751 2.93917C9.92579 3.03731 10.2463 2.99721 10.5185 2.82769C10.7906 2.65817 10.9922 2.37312 11.0788 2.03524C11.1655 1.69737 11.1301 1.33435 10.9804 1.02604C10.8308 0.717735 10.5791 0.489397 10.2808 0.391259C8.68853 -0.162269 6.98204 -0.127689 5.40822 0.489996C3.83439 1.10768 2.47483 2.27645 1.52618 3.82724C-0.340488 6.91433 -0.797821 11.7353 1.89018 14.3995C2.10925 14.6476 2.40637 14.787 2.71618 14.787C3.02599 14.787 3.32311 14.6476 3.54218 14.3995C3.76125 14.1513 3.88432 13.8148 3.88432 13.4638C3.88432 13.1129 3.76125 12.7763 3.54218 12.5282V12.5388Z" fill="#6F595D"/>
<path d="M164.28 128.262C162.134 132.978 164.523 137.852 167.164 141.541C168.762 143.535 170.047 145.823 170.963 148.307C171.682 150.858 172.213 153.471 172.55 156.12C173.258 161.299 174.843 166.275 177.216 170.773C179.732 175.154 182.641 179.228 185.896 182.932C189.855 187.652 194.059 192.101 198.487 196.253C199.635 197.31 201.287 195.47 200.13 194.381C196.417 190.913 192.862 187.233 189.48 183.354C186.24 179.794 183.267 175.932 180.595 171.81C178.005 167.777 176.181 163.18 175.238 158.309C174.304 153.509 174.024 148.403 171.738 144.121C169.554 140.051 163.767 135.029 166.25 129.595C166.94 128.093 164.924 126.751 164.234 128.262H164.28Z" fill="#6F595D"/>
<path d="M157.28 140.548C159.52 143.233 161.947 145.717 164.15 148.434C166.702 151.49 168.832 154.966 170.468 158.742C173.511 165.9 175.406 173.776 179.904 180.024C180.232 180.396 180.677 180.605 181.141 180.605C181.605 180.605 182.05 180.396 182.378 180.024C182.706 179.653 182.89 179.149 182.89 178.623C182.89 178.098 182.706 177.594 182.378 177.223C177.972 171.101 176.246 162.992 173.175 156.025C169.955 148.709 164.616 143.571 159.754 137.746C158.204 135.885 155.731 138.697 157.28 140.548Z" fill="#6F595D"/>
<path d="M194.371 171.905C194.408 171.691 194.465 171.482 194.539 171.281L194.362 171.757C194.456 171.516 194.575 171.289 194.716 171.08L194.436 171.482C194.595 171.264 194.773 171.065 194.968 170.89L194.614 171.197C194.822 171.014 195.051 170.865 195.295 170.752L194.875 170.953C195.101 170.843 195.34 170.768 195.584 170.731L195.118 170.795C195.334 170.763 195.554 170.763 195.771 170.795L195.304 170.721H195.398C195.624 170.789 195.862 170.789 196.088 170.721C196.32 170.707 196.545 170.627 196.742 170.488C197.132 170.223 197.419 169.8 197.544 169.304C197.606 169.048 197.622 168.781 197.592 168.517C197.561 168.254 197.485 168 197.367 167.771C197.256 167.547 197.106 167.351 196.927 167.195C196.747 167.039 196.541 166.925 196.322 166.862C195.996 166.79 195.664 166.754 195.332 166.756C195.002 166.778 194.674 166.831 194.352 166.915C194.031 167.015 193.718 167.15 193.419 167.317C193.243 167.399 193.077 167.506 192.924 167.634C192.385 168.047 191.923 168.575 191.562 169.188C191.271 169.672 191.071 170.219 190.974 170.795C190.862 171.309 190.925 171.853 191.151 172.317C191.383 172.764 191.757 173.093 192.196 173.237C192.651 173.363 193.13 173.291 193.54 173.036C193.933 172.774 194.221 172.349 194.343 171.852L194.371 171.905Z" fill="#6F595D"/>
<path d="M195.492 170.15C200.974 175.344 206.263 180.796 211.359 186.505C212.955 188.302 215.438 185.501 213.832 183.693C208.761 177.998 203.472 172.55 197.966 167.348C197.632 166.988 197.19 166.787 196.729 166.787C196.269 166.787 195.826 166.988 195.492 167.348C195.168 167.722 194.986 168.225 194.986 168.749C194.986 169.273 195.168 169.776 195.492 170.15Z" fill="#6F595D"/>
<path d="M193.932 171.482C199.407 176.676 204.696 182.128 209.799 187.837C211.395 189.634 213.877 186.78 212.272 185.025C207.201 179.323 201.912 173.875 196.405 168.68C196.072 168.32 195.629 168.119 195.169 168.119C194.708 168.119 194.265 168.32 193.932 168.68C193.608 169.054 193.426 169.557 193.426 170.081C193.426 170.605 193.608 171.108 193.932 171.482Z" fill="#6F595D"/>
<path d="M211.882 185.934C214.462 187.907 217.257 189.492 220.198 190.649C220.487 190.711 220.787 190.647 221.037 190.471C221.287 190.294 221.47 190.017 221.548 189.696C221.627 189.374 221.596 189.03 221.462 188.733C221.327 188.436 221.099 188.207 220.823 188.091C218.075 187.001 215.464 185.508 213.058 183.651C212.79 183.474 212.472 183.425 212.173 183.514C211.873 183.603 211.618 183.823 211.462 184.126C211.306 184.429 211.262 184.79 211.341 185.129C211.42 185.468 211.614 185.757 211.882 185.934Z" fill="#6F595D"/>
<path d="M210.733 188.82C213.674 190.151 216.755 191.043 219.899 191.474C220.129 191.474 220.356 191.423 220.569 191.323C220.781 191.223 220.974 191.076 221.136 190.891C221.298 190.707 221.427 190.487 221.514 190.246C221.601 190.005 221.645 189.747 221.644 189.486C221.632 188.966 221.445 188.471 221.12 188.103C220.795 187.735 220.358 187.523 219.899 187.509C219.684 187.509 219.693 187.509 219.899 187.509L219.581 187.457L219.105 187.372L217.995 187.139C217.285 186.981 216.576 186.801 215.876 186.59C214.451 186.159 213.051 185.626 211.685 184.993C211.237 184.854 210.759 184.921 210.355 185.181C209.95 185.44 209.654 185.871 209.529 186.378C209.419 186.885 209.484 187.421 209.711 187.875C209.938 188.33 210.311 188.668 210.752 188.82H210.733Z" fill="#6F595D"/>
<path d="M179.905 180.024C185.654 185.557 191.186 191.354 196.499 197.416C198.086 199.234 200.559 196.432 198.973 194.614C193.665 188.56 188.134 182.762 182.378 177.223C182.046 176.86 181.603 176.658 181.141 176.658C180.68 176.658 180.237 176.86 179.905 177.223C179.583 177.598 179.402 178.1 179.402 178.623C179.402 179.147 179.583 179.649 179.905 180.024Z" fill="#6F595D"/>
<path d="M197.04 197.722C200.774 199.202 204.591 201.243 208.595 201.676C208.904 201.673 209.199 201.533 209.417 201.286C209.635 201.039 209.759 200.704 209.762 200.355C209.754 200.007 209.629 199.675 209.412 199.429C209.195 199.183 208.902 199.041 208.595 199.033C207.765 198.916 206.944 198.725 206.14 198.462C205.123 198.156 204.115 197.786 203.116 197.405C201.25 196.697 199.486 195.893 197.666 195.174C197.518 195.128 197.364 195.115 197.211 195.136C197.059 195.157 196.912 195.212 196.779 195.297C196.645 195.382 196.528 195.497 196.433 195.634C196.339 195.77 196.269 195.927 196.228 196.094C196.187 196.261 196.176 196.436 196.194 196.609C196.213 196.781 196.261 196.947 196.337 197.099C196.412 197.25 196.513 197.383 196.634 197.49C196.754 197.597 196.893 197.676 197.04 197.722Z" fill="#6F595D"/>
<path d="M205.459 161.903C210.941 167.105 216.23 172.557 221.326 178.259C222.922 180.056 225.405 177.202 223.799 175.457C218.734 169.748 213.445 164.296 207.933 159.102C207.599 158.742 207.156 158.541 206.696 158.541C206.235 158.541 205.792 158.742 205.459 159.102C205.135 159.476 204.953 159.979 204.953 160.503C204.953 161.027 205.135 161.53 205.459 161.903Z" fill="#6F595D"/>
<path d="M222.259 179.242C225.2 180.572 228.28 181.464 231.424 181.896C231.654 181.896 231.882 181.844 232.094 181.744C232.307 181.644 232.499 181.497 232.662 181.313C232.824 181.128 232.952 180.909 233.039 180.668C233.126 180.427 233.171 180.168 233.169 179.908C233.158 179.388 232.97 178.893 232.645 178.525C232.32 178.157 231.883 177.944 231.424 177.931C231.209 177.931 231.219 177.931 231.424 177.931L231.107 177.878L230.631 177.794L229.52 177.572C228.811 177.413 228.101 177.223 227.401 177.011C225.975 176.586 224.575 176.052 223.211 175.415C222.763 175.275 222.284 175.343 221.88 175.602C221.476 175.862 221.179 176.293 221.055 176.8C220.944 177.307 221.009 177.843 221.236 178.297C221.464 178.751 221.836 179.089 222.277 179.242H222.259Z" fill="#6F595D"/>
<path d="M218.293 153.477C223.762 158.665 229.036 164.113 234.113 169.822C234.441 170.194 234.886 170.402 235.35 170.402C235.814 170.402 236.258 170.194 236.586 169.822C236.914 169.451 237.099 168.947 237.099 168.421C237.099 167.896 236.914 167.392 236.586 167.02C231.515 161.318 226.242 155.87 220.766 150.676C220.433 150.316 219.99 150.115 219.53 150.115C219.069 150.115 218.626 150.316 218.293 150.676C217.966 151.048 217.783 151.552 217.783 152.077C217.783 152.601 217.966 153.105 218.293 153.477Z" fill="#6F595D"/>
<path d="M235.083 170.816C238.023 172.147 241.104 173.035 244.248 173.459C244.712 173.459 245.157 173.251 245.485 172.88C245.814 172.51 246 172.007 246.003 171.482C245.976 170.965 245.782 170.476 245.459 170.11C245.135 169.744 244.705 169.525 244.248 169.494C244.043 169.494 244.043 169.494 244.248 169.494H243.931L243.455 169.41L242.344 169.177C241.625 169.019 240.925 168.839 240.225 168.627C238.797 168.196 237.394 167.662 236.025 167.031C235.577 166.891 235.099 166.959 234.694 167.219C234.29 167.478 233.993 167.909 233.869 168.416C233.774 168.922 233.846 169.45 234.071 169.9C234.296 170.35 234.66 170.691 235.092 170.858L235.083 170.816Z" fill="#6F595D"/>
<path d="M206.728 161.777C206.723 161.696 206.723 161.614 206.728 161.533L206.663 162.062C206.692 161.877 206.739 161.696 206.803 161.523L206.625 161.999C206.7 161.802 206.797 161.617 206.915 161.449L206.635 161.851C206.773 161.662 206.926 161.489 207.092 161.333L206.747 161.639C206.94 161.472 207.15 161.33 207.372 161.216L206.952 161.417C207.224 161.29 207.509 161.204 207.801 161.163L207.335 161.237C207.703 161.185 208.076 161.185 208.445 161.237L207.979 161.163C208.535 161.267 209.082 161.43 209.612 161.65C209.838 161.72 210.074 161.738 210.306 161.704C210.539 161.669 210.763 161.582 210.965 161.449C211.163 161.318 211.337 161.144 211.475 160.937C211.614 160.73 211.715 160.494 211.773 160.242C211.831 159.991 211.845 159.729 211.814 159.472C211.782 159.214 211.707 158.967 211.591 158.742C211.348 158.309 210.978 157.986 210.545 157.833C209.127 157.133 207.533 157.035 206.056 157.558C205.339 157.857 204.698 158.351 204.189 158.996C203.616 159.773 203.288 160.744 203.256 161.755C203.258 162.28 203.443 162.782 203.769 163.154C204.096 163.526 204.538 163.737 205.001 163.743C205.463 163.73 205.902 163.516 206.229 163.146C206.555 162.776 206.744 162.278 206.756 161.755L206.728 161.777Z" fill="#6F595D"/>
<path d="M209.492 161.692L219.759 173.533C221.236 175.333 222.937 176.879 224.808 178.121C226.852 179.401 228.943 180.606 231.006 181.843C233.068 183.08 234.739 179.612 232.77 178.417C230.8 177.223 228.85 176.091 226.899 174.907C225.052 173.699 223.381 172.176 221.943 170.393L211.966 158.89C210.388 157.072 207.915 159.874 209.492 161.692Z" fill="#6F595D"/>
<path d="M218.246 152.6C218.246 152.526 218.246 152.441 218.246 152.367L218.19 152.885C218.214 152.704 218.258 152.526 218.32 152.357L218.143 152.822C218.221 152.628 218.311 152.44 218.414 152.262L218.143 152.663C218.279 152.473 218.432 152.299 218.6 152.145L218.246 152.462C218.437 152.291 218.647 152.149 218.871 152.04L218.46 152.24C218.732 152.109 219.017 152.02 219.31 151.976L218.843 152.05C219.212 152.003 219.585 152.003 219.954 152.05L219.487 151.976C220.044 152.08 220.591 152.242 221.12 152.462C221.576 152.602 222.062 152.534 222.474 152.272C222.861 151.999 223.147 151.573 223.276 151.077C223.396 150.563 223.333 150.016 223.099 149.555C222.854 149.124 222.485 148.802 222.054 148.646C220.634 147.95 219.042 147.853 217.564 148.371C216.848 148.67 216.207 149.164 215.698 149.809C215.11 150.58 214.765 151.551 214.718 152.568C214.7 152.841 214.732 153.114 214.812 153.372C214.892 153.63 215.018 153.866 215.182 154.066C215.347 154.266 215.546 154.426 215.767 154.535C215.988 154.644 216.226 154.701 216.468 154.701C216.709 154.701 216.947 154.644 217.168 154.535C217.39 154.426 217.588 154.266 217.753 154.066C217.917 153.866 218.043 153.63 218.123 153.372C218.203 153.114 218.235 152.841 218.218 152.568L218.246 152.6Z" fill="#6F595D"/>
<path d="M221.009 152.515L231.276 164.356C232.749 166.159 234.447 167.709 236.316 168.955C238.36 170.234 240.451 171.429 242.523 172.666C244.595 173.903 246.256 170.435 244.287 169.241C242.317 168.046 240.357 166.915 238.416 165.731C236.568 164.525 234.896 163.002 233.46 161.216L223.483 149.714C221.896 147.895 219.423 150.697 221 152.515H221.009Z" fill="#6F595D"/>
<path d="M200.018 196.136C203.256 197.384 206.159 199.594 209.407 200.831C210.126 201.105 210.424 199.826 209.724 199.562C206.476 198.325 203.574 196.115 200.326 194.857C199.616 194.593 199.308 195.914 200.018 196.136Z" fill="#6F595D"/>
<path d="M166.26 129.33C166.849 128.39 167.598 127.592 168.463 126.983C168.901 126.617 169.37 126.302 169.863 126.042C169.742 126.106 169.863 126.042 169.928 126.042L170.134 125.968H170.376C170.554 125.968 170.087 125.968 170.423 125.968C171.215 125.894 172.011 125.894 172.803 125.968L173.438 126.032H173.736C173.736 126.032 174.035 126.032 173.83 126.032C174.141 126.081 174.452 126.144 174.763 126.222C175.061 126.308 175.377 126.26 175.645 126.089C175.912 125.917 176.111 125.636 176.2 125.302C176.278 124.963 176.236 124.603 176.082 124.299C175.929 123.995 175.676 123.77 175.379 123.674C173.588 123.194 171.735 123.086 169.91 123.357C168.88 123.608 167.92 124.138 167.11 124.9C166.005 125.744 165.054 126.821 164.31 128.072C164.153 128.375 164.108 128.736 164.186 129.076C164.264 129.416 164.458 129.707 164.725 129.885C164.992 130.063 165.311 130.114 165.611 130.026C165.912 129.937 166.169 129.718 166.326 129.415L166.26 129.33Z" fill="#6F595D"/>
<path d="M191.347 172.772C196.543 179.623 201.906 186.297 207.438 192.796C207.961 193.409 208.791 192.478 208.269 191.865C202.731 185.367 197.364 178.692 192.169 171.841C191.683 171.196 190.853 172.137 191.347 172.772Z" fill="#6F595D"/>
<path d="M207.289 192.51C207.802 195.143 208.399 197.796 209.006 200.376C209.047 200.544 209.145 200.687 209.279 200.773C209.413 200.86 209.571 200.882 209.72 200.836C209.869 200.79 209.995 200.678 210.071 200.527C210.147 200.375 210.167 200.195 210.126 200.027C209.529 197.405 208.931 194.741 208.418 192.151C208.259 191.326 207.13 191.675 207.289 192.51Z" fill="#6F595D"/>
<path d="M203.238 163.447C208.433 170.291 213.8 176.965 219.338 183.471C219.861 184.084 220.682 183.143 220.159 182.53C214.64 176.024 209.277 169.353 204.069 162.517C203.574 161.861 202.753 162.802 203.238 163.447Z" fill="#6F595D"/>
<path d="M219.189 183.175C219.656 185.628 220.197 188.059 220.748 190.491C220.789 190.659 220.887 190.802 221.021 190.888C221.155 190.975 221.313 190.997 221.462 190.951C221.61 190.904 221.736 190.793 221.813 190.642C221.889 190.49 221.909 190.31 221.868 190.142C221.326 187.71 220.776 185.279 220.309 182.826C220.16 181.991 219.03 182.35 219.189 183.175Z" fill="#6F595D"/>
<path d="M215.427 154.376C220.623 161.213 225.987 167.887 231.518 174.4C232.041 175.013 232.871 174.083 232.349 173.469C226.811 166.971 221.444 160.296 216.249 153.446C215.763 152.801 214.942 153.742 215.427 154.376Z" fill="#6F595D"/>
<path d="M231.369 174.062C231.873 176.43 232.461 178.777 233.049 181.124C233.091 181.292 233.19 181.434 233.325 181.52C233.46 181.605 233.619 181.626 233.767 181.578C233.916 181.531 234.042 181.418 234.117 181.266C234.192 181.113 234.211 180.933 234.169 180.764C233.581 178.428 232.993 176.07 232.498 173.702C232.321 172.877 231.201 173.226 231.369 174.062Z" fill="#6F595D"/>
<path d="M228.532 146.14C233.727 152.991 239.091 159.666 244.622 166.164C245.145 166.777 245.966 165.847 245.453 165.234C239.915 158.735 234.549 152.061 229.353 145.21C228.858 144.565 228.037 145.506 228.532 146.14Z" fill="#6F595D"/>
<path d="M244.455 165.699C244.707 168.12 245.006 170.53 245.314 172.941C245.355 173.11 245.454 173.254 245.589 173.341C245.723 173.428 245.883 173.452 246.032 173.406C246.179 173.355 246.302 173.241 246.377 173.09C246.451 172.938 246.472 172.76 246.434 172.592C246.154 170.298 245.864 168.004 245.622 165.699C245.615 165.526 245.55 165.362 245.441 165.241C245.332 165.119 245.187 165.049 245.034 165.043C244.88 165.043 244.733 165.113 244.625 165.235C244.516 165.358 244.455 165.525 244.455 165.699Z" fill="#6F595D"/>
<path d="M221.354 146.51C221.498 146.538 221.639 146.585 221.774 146.648L221.354 146.447C221.532 146.539 221.701 146.653 221.858 146.785L221.504 146.468C221.624 146.578 221.733 146.702 221.83 146.838C221.983 147.025 222.176 147.164 222.39 147.24C222.6 147.364 222.835 147.422 223.072 147.409C223.305 147.423 223.537 147.364 223.744 147.24C223.958 147.164 224.151 147.025 224.304 146.838L224.584 146.436C224.747 146.115 224.828 145.749 224.817 145.379L224.752 144.85C224.61 144.396 224.365 143.991 224.042 143.677C223.884 143.518 223.716 143.381 223.548 143.243L223.389 143.127C223.157 142.978 222.913 142.854 222.661 142.757C222.539 142.705 222.415 142.663 222.288 142.63C221.83 142.518 221.351 142.589 220.934 142.831C220.556 143.112 220.273 143.529 220.132 144.015L220.066 144.544C220.072 144.896 220.156 145.242 220.309 145.548L220.58 145.95C220.796 146.19 221.063 146.365 221.354 146.457V146.51Z" fill="#6F595D"/>
<path d="M199.991 154.841C199.678 156.738 199.752 158.69 200.206 160.55C200.258 160.705 200.358 160.833 200.489 160.908C200.619 160.983 200.769 161 200.91 160.957C201.051 160.913 201.173 160.812 201.251 160.672C201.33 160.532 201.36 160.365 201.335 160.201C200.93 158.571 200.853 156.858 201.111 155.19C201.146 155.018 201.12 154.837 201.04 154.686C200.96 154.534 200.832 154.423 200.682 154.376C200.532 154.331 200.372 154.354 200.238 154.441C200.103 154.528 200.005 154.672 199.963 154.841H199.991Z" fill="#6F595D"/>
<path d="M210.481 146.796C210.383 147.792 210.591 148.796 211.069 149.64C211.246 150.01 211.47 150.464 211.601 150.803V150.908C211.597 150.961 211.597 151.014 211.601 151.067C211.601 151.173 211.657 151.278 211.675 151.384C211.68 151.437 211.68 151.49 211.675 151.543C211.675 151.659 211.675 151.543 211.675 151.596C211.675 151.648 211.675 151.828 211.675 151.955C211.675 152.129 211.736 152.296 211.845 152.418C211.953 152.541 212.101 152.61 212.254 152.61C212.408 152.608 212.554 152.538 212.664 152.416C212.773 152.294 212.837 152.129 212.842 151.955C212.809 150.999 212.548 150.071 212.086 149.27L211.815 148.699L211.685 148.392V148.329L211.629 148.17C211.568 147.97 211.521 147.765 211.489 147.557C211.489 147.557 211.489 147.451 211.489 147.398C211.489 147.345 211.489 147.293 211.489 147.24C211.489 147.187 211.489 147.314 211.489 147.155C211.524 146.986 211.501 146.808 211.425 146.656C211.349 146.505 211.225 146.393 211.078 146.341C210.928 146.298 210.77 146.323 210.636 146.41C210.502 146.497 210.403 146.639 210.359 146.806L210.481 146.796Z" fill="#6F595D"/>
<path d="M199.271 163.077C205.227 171.132 211.564 178.816 218.255 186.093C218.797 186.674 219.618 185.744 219.077 185.152C212.387 177.895 206.05 170.233 200.093 162.2C199.607 161.544 198.786 162.485 199.271 163.13V163.077Z" fill="#6F595D"/>
<path d="M181.651 169.304C181.984 170.093 182.408 170.829 182.911 171.492C183.406 172.164 183.981 172.754 184.619 173.247C184.816 173.386 185.04 173.466 185.272 173.48C185.502 173.543 185.742 173.543 185.972 173.48C186.412 173.337 186.786 173.007 187.017 172.56C187.135 172.333 187.212 172.081 187.243 171.82C187.273 171.558 187.257 171.292 187.195 171.038L187.017 170.562C186.866 170.269 186.651 170.025 186.392 169.854L186.168 169.663L186.523 169.981C186.05 169.561 185.624 169.078 185.253 168.543L185.524 168.945C185.189 168.446 184.905 167.907 184.675 167.338C184.569 167.111 184.415 166.919 184.227 166.777C184.059 166.602 183.852 166.482 183.629 166.428C183.405 166.358 183.17 166.34 182.939 166.374C182.708 166.409 182.486 166.495 182.285 166.629C181.888 166.889 181.597 167.314 181.473 167.813L181.417 168.331C181.405 168.702 181.486 169.068 181.651 169.389V169.304Z" fill="#6F595D"/>
<path d="M186.895 162.569C186.589 164.471 186.669 166.427 187.128 168.289C187.169 168.457 187.267 168.6 187.401 168.686C187.535 168.773 187.694 168.795 187.842 168.749C187.991 168.703 188.117 168.591 188.193 168.44C188.269 168.288 188.289 168.108 188.248 167.94C187.844 166.31 187.767 164.597 188.024 162.929C188.062 162.759 188.04 162.58 187.964 162.428C187.887 162.277 187.762 162.164 187.614 162.115C187.465 162.069 187.307 162.091 187.172 162.176C187.038 162.261 186.939 162.402 186.895 162.569Z" fill="#6F595D"/>
<path d="M185.981 171.514C191.938 179.547 198.276 187.209 204.965 194.466C205.507 195.058 206.337 194.128 205.796 193.536C199.106 186.279 192.769 178.617 186.812 170.583C186.327 169.928 185.505 170.869 185.981 171.514Z" fill="#6F595D"/>
<path d="M184.44 173.406C190.4 181.437 196.737 189.099 203.424 196.358C205.048 198.124 207.531 195.301 205.897 193.557C199.21 186.298 192.873 178.636 186.913 170.604C186.585 170.234 186.14 170.027 185.677 170.027C185.213 170.027 184.769 170.234 184.44 170.604C184.12 170.981 183.941 171.483 183.941 172.005C183.941 172.528 184.12 173.03 184.44 173.406Z" fill="#6F595D"/>
<path d="M210.014 152.188C216.361 160.7 223.11 168.817 230.23 176.504C230.781 177.085 231.602 176.155 231.061 175.573C223.94 167.887 217.192 159.77 210.845 151.257C210.36 150.602 209.538 151.543 210.014 152.188Z" fill="#6F595D"/>
<path d="M223.472 144.861C229.707 153.068 236.328 160.889 243.306 168.289C243.847 168.871 244.678 167.94 244.127 167.359C237.15 159.958 230.532 152.133 224.303 143.92C223.808 143.275 222.987 144.216 223.472 144.861Z" fill="#6F595D"/>
<path d="M180.213 128.749C178.197 128.22 176.004 127.692 173.997 128.569C173.115 128.905 172.315 129.474 171.666 130.23C171.017 130.986 170.536 131.906 170.264 132.914C169.722 135.23 170.786 137.302 171.729 139.258C172.737 141.23 173.65 143.263 174.464 145.347C175.957 149.576 176.256 154.122 177.086 158.51C177.729 162.746 179.338 166.718 181.753 170.033C183.517 172.285 186.802 169.367 185.421 166.862C185.052 166.241 184.814 165.531 184.726 164.789C184.637 164.047 184.701 163.292 184.913 162.582C185.124 161.872 185.477 161.227 185.944 160.697C186.411 160.167 186.979 159.766 187.605 159.525C190.461 158.467 193.354 160.867 195.165 163.14C195.567 163.589 196.099 163.857 196.662 163.894C197.226 163.931 197.782 163.734 198.226 163.341C198.667 162.947 198.97 162.389 199.081 161.765C199.192 161.142 199.104 160.494 198.833 159.937C197.816 157.336 197.312 154.651 199.608 152.727C201.633 151.035 204.517 151.733 206.337 153.477C206.741 153.922 207.271 154.187 207.833 154.226C208.395 154.265 208.95 154.074 209.398 153.689C209.85 153.301 210.16 152.739 210.27 152.11C210.38 151.481 210.282 150.827 209.996 150.274C209.417 149.301 208.064 147.483 208.624 146.193C208.881 145.804 209.217 145.489 209.604 145.276C209.99 145.063 210.415 144.957 210.845 144.967C212.488 145.017 214.112 145.374 215.652 146.024L220.962 147.673C223.109 148.339 225.041 145.041 223.23 143.254C216.977 137.09 208.736 136.414 200.83 135.631C196.612 135.282 192.446 134.352 188.426 132.861C186.448 132.111 184.525 131.223 182.593 130.324C180.877 129.355 178.914 129.1 177.049 129.605C176.001 129.934 175.078 130.646 174.425 131.631C173.772 132.616 173.424 133.818 173.437 135.05C173.577 137.64 175.304 139.374 177.096 140.738C179.261 142.398 181.958 138.528 179.896 136.583C179.379 136.113 178.958 135.522 178.664 134.849L177.264 138.729C178.972 138.211 180.997 139.786 182.472 140.611L188.398 143.783L190.19 138.951L185.869 137.651L184.702 142.746L206.766 146.362L205.73 141.943L205.824 141.806L207 141.446C206.272 141.446 206.617 141.827 208.054 142.503C207.728 140.04 204.797 140.209 203.789 141.869C202.605 143.794 201.178 145.511 199.552 146.965L203.21 147.504C203.134 147.309 203.099 147.095 203.111 146.882C203.122 146.668 203.179 146.461 203.276 146.278C204.06 143.941 201.502 142.366 199.85 143.296L192.682 147.314L196.192 149.597C196.192 147.303 196.742 144.11 194.698 142.683C194.159 142.347 193.554 142.171 192.939 142.171C192.324 142.171 191.719 142.347 191.18 142.683C190.489 143.085 189.985 143.867 189.201 144.047C187.652 144.417 185.972 142.99 184.796 142.08C183.202 140.651 181.398 139.552 179.466 138.835C179.067 138.71 178.646 138.708 178.246 138.829C177.845 138.949 177.481 139.189 177.189 139.522C174.725 142.81 177.46 146.182 179.196 148.952C179.756 149.851 181.062 151.352 181.062 152.515C180.951 153.235 180.785 153.942 180.568 154.63C180.386 155.627 180.386 156.656 180.568 157.653L182.817 154.302C182.892 154.302 183.069 154.63 183.106 154.545C183.33 154.101 183.452 153.604 183.722 153.15C184.423 151.98 185.203 150.873 186.056 149.84C187.636 147.73 189.857 146.368 192.281 146.024C192.934 145.929 193.606 145.855 194.269 145.823C194.533 145.843 194.798 145.843 195.062 145.823C195.333 145.664 194.969 146.003 194.932 145.601C194.894 145.199 194.773 145.601 195.258 144.766C195.744 143.931 195.772 144.174 195.258 144.11C194.623 144.06 193.986 144.168 193.392 144.427C191.796 145.083 191.17 146.732 190.918 148.508C190.667 150.309 190.554 152.131 190.582 153.953L192.916 151.31C192.552 151.31 192.132 150.707 191.898 150.454C191.347 149.799 190.737 149.21 190.078 148.699C189.365 148.137 188.528 147.811 187.661 147.759C186.794 147.707 185.931 147.93 185.169 148.403C184.864 148.61 184.605 148.893 184.411 149.231C184.216 149.568 184.091 149.95 184.045 150.35C184 150.749 184.034 151.155 184.146 151.538C184.258 151.92 184.445 152.269 184.693 152.558C184.985 152.806 185.229 153.119 185.412 153.477L186.242 149.862C184.879 150.608 183.771 151.841 183.088 153.372C182.915 153.723 182.814 154.113 182.792 154.514C182.77 154.915 182.828 155.317 182.962 155.689C183.095 156.062 183.301 156.395 183.563 156.666C183.826 156.936 184.139 157.136 184.478 157.252C185.412 157.616 186.421 157.649 187.372 157.347C190.284 156.543 189.052 151.437 186.13 152.251C185.925 152.314 186.13 152.335 185.72 152.156L187.12 156.036C187.415 155.303 187.946 154.724 188.604 154.418C189.133 154.059 189.517 153.479 189.672 152.803C189.828 152.127 189.742 151.408 189.434 150.803C189.065 150.048 188.578 149.374 187.997 148.815L187.521 152.97C187.194 153.181 187.344 152.97 187.829 153.35C188.314 153.731 188.678 154.313 189.126 154.746C190.15 155.863 191.496 156.52 192.916 156.596C193.532 156.588 194.122 156.307 194.558 155.813C194.994 155.319 195.242 154.651 195.249 153.953C195.207 152.686 195.254 151.417 195.389 150.158C195.496 149.722 195.565 149.276 195.594 148.826C195.94 149.132 193.98 149.481 195.538 149.386C197.713 149.248 199.552 147.811 199.468 145.157C199.3 139.469 192.804 140.357 189.518 141.245C185.598 142.302 182.836 145.59 180.484 149.09C179.233 150.972 177.992 153.118 178.44 155.592C178.616 156.726 179.144 157.752 179.93 158.483C180.716 159.214 181.707 159.602 182.724 159.577C183.08 159.569 183.43 159.47 183.748 159.287C184.066 159.104 184.343 158.842 184.559 158.521C184.775 158.2 184.925 157.828 184.997 157.432C185.068 157.037 185.06 156.628 184.973 156.237C184.994 155.744 185.095 155.26 185.272 154.809C185.458 154.122 185.577 153.412 185.626 152.695C185.675 151.187 185.289 149.702 184.525 148.466C183.862 147.282 183.106 146.161 182.388 145.019C181.977 144.353 181.548 143.709 181.156 143.032C181.034 142.842 180.941 142.62 180.82 142.429C180.4 141.816 181.417 141.816 180.4 143.169L178.132 143.857C181.23 144.787 183.358 147.969 186.532 148.921C188.206 149.491 190.006 149.356 191.6 148.54C191.929 148.362 192.242 148.145 192.533 147.895C192.729 147.715 192.934 147.536 193.14 147.377L191.488 146.14C191.254 146.309 191.488 149.248 191.488 149.566C191.495 150.028 191.608 150.481 191.816 150.88C192.024 151.278 192.32 151.609 192.675 151.839C193.029 152.069 193.431 152.191 193.839 152.193C194.248 152.195 194.65 152.076 195.006 151.849L202.165 147.821L198.814 144.861C198.545 145.724 198.441 146.641 198.51 147.553C198.579 148.465 198.82 149.349 199.216 150.147C199.4 150.491 199.651 150.783 199.948 151.002C200.246 151.221 200.583 151.362 200.936 151.414C201.288 151.465 201.645 151.427 201.983 151.301C202.32 151.175 202.628 150.965 202.884 150.686C204.801 148.917 206.478 146.836 207.858 144.512L203.593 143.888C203.985 146.849 207.326 147.462 209.072 145.686C210.276 144.459 209.781 141.552 208.045 141.266L185.981 137.651C185.385 137.488 184.757 137.589 184.225 137.933C183.693 138.277 183.296 138.837 183.116 139.501C182.957 140.176 183.038 140.895 183.342 141.504C183.645 142.112 184.147 142.562 184.74 142.757L189.061 144.047C191.534 144.787 193.317 140.547 190.862 139.215L183.676 135.346C181.258 134.024 178.822 132.766 176.097 133.591C175.756 133.704 175.442 133.904 175.179 134.174C174.915 134.444 174.709 134.778 174.575 135.151C174.442 135.524 174.384 135.926 174.407 136.328C174.429 136.73 174.532 137.12 174.706 137.471C175.189 138.546 175.855 139.502 176.666 140.283L179.466 136.128C179.177 135.906 178.15 135.208 178.132 134.807C178.132 134.807 178.057 134.807 178.057 134.881C178.057 134.722 178.505 134.595 178.608 134.564C179.308 134.532 180.004 134.699 180.633 135.05C181.678 135.494 182.705 136.012 183.741 136.477C187.859 138.365 192.166 139.672 196.565 140.368C204.321 141.52 213.636 140.727 219.898 146.954L222.166 142.535C219.824 141.806 217.5 141.044 215.12 140.357C212.74 139.67 210.276 139.3 207.98 140.357C207.001 140.758 206.123 141.425 205.424 142.298C204.724 143.172 204.224 144.226 203.966 145.368C203.472 148.17 204.592 150.655 205.945 152.959L209.604 149.788C206.113 146.436 200.868 145.189 196.948 148.424C195.174 149.845 193.911 151.943 193.392 154.334C192.813 157.283 193.728 159.979 194.773 162.643L198.441 159.472C195.156 155.338 189.92 152.589 185.141 155.031C184.003 155.652 182.993 156.538 182.177 157.631C181.361 158.723 180.757 159.998 180.405 161.372C180.053 162.747 179.96 164.189 180.133 165.607C180.306 167.025 180.74 168.385 181.408 169.6L185.076 166.428C180.969 161.142 181.342 153.245 179.765 146.838C178.739 143.233 177.355 139.771 175.64 136.519C175.257 135.716 174.296 134.553 175.154 133.866C176.162 133.062 177.889 133.697 178.953 133.971C181.874 134.743 183.125 129.647 180.194 128.876L180.213 128.749Z" fill="#6F595D"/>
<path d="M189.659 147.176C189.435 147.705 189.985 146.775 190.247 146.648C190.247 146.648 190.844 146.394 190.844 146.51L190.443 146.362L190.125 146.225L189.808 146.066L189.416 145.855C189.099 145.679 188.788 145.488 188.483 145.284C187.291 144.516 186.141 143.669 185.039 142.747L183.452 141.446L182.519 140.706C182.519 140.706 182.201 140.389 182.164 140.41C182.379 140.304 182.575 141.129 182.584 141.161C182.761 141.922 182.668 141.33 182.668 141.108C182.668 140.886 182.668 140.759 182.668 140.59C182.637 139.982 182.494 139.388 182.248 138.845C181.996 138.297 181.617 137.835 181.152 137.511C180.687 137.188 180.153 137.013 179.607 137.006C178.989 137.011 178.399 137.292 177.962 137.786C177.526 138.281 177.278 138.95 177.273 139.649C177.285 140.346 177.535 141.01 177.97 141.503C178.405 141.996 178.992 142.278 179.607 142.292C179.289 142.317 178.972 142.229 178.7 142.039C178.429 141.85 178.217 141.568 178.095 141.235C178.02 141.072 177.991 140.888 178.011 140.706C178.067 140.77 178.011 141.161 178.011 141.245C177.997 141.841 178.089 142.435 178.281 142.99C178.748 144.017 179.468 144.87 180.353 145.443C181.585 146.5 182.808 147.504 184.087 148.466C185.304 149.411 186.594 150.228 187.941 150.908C188.843 151.445 189.836 151.755 190.853 151.818C191.43 151.803 191.994 151.616 192.486 151.274C192.978 150.932 193.381 150.448 193.653 149.872C193.952 149.264 194.032 148.549 193.877 147.876C193.723 147.203 193.345 146.623 192.823 146.257C192.286 145.912 191.652 145.818 191.056 145.996C190.459 146.173 189.948 146.609 189.631 147.208L189.659 147.176Z" fill="#6F595D"/>
<path d="M184.161 167.687C184.872 169.501 185.789 171.203 186.887 172.751C187.325 173.29 188.203 172.56 187.82 171.947C186.588 170.019 185.643 167.877 185.02 165.604C184.796 164.8 183.667 165.139 183.891 165.953C184.544 168.338 185.541 170.585 186.84 172.603L187.773 171.799C186.742 170.336 185.886 168.726 185.225 167.01C184.88 166.249 183.872 166.915 184.217 167.676L184.161 167.687Z" fill="#6F595D"/>
<path d="M193.374 161.089H193.458L192.991 161.015L193.215 161.089L192.795 160.889C192.918 160.949 193.034 161.028 193.14 161.121L192.786 160.815C193.104 161.131 193.392 161.486 193.644 161.872L194.578 163.162L194.298 162.76C195.068 163.857 195.758 165.024 196.36 166.249C196.573 166.666 196.913 166.981 197.316 167.134C197.719 167.288 198.157 167.269 198.549 167.082C198.941 166.895 199.259 166.553 199.444 166.119C199.629 165.685 199.667 165.19 199.552 164.726C199.547 164.638 199.547 164.55 199.552 164.462L199.618 164.991C199.599 164.787 199.599 164.581 199.618 164.377L199.552 164.906C199.618 164.388 199.767 163.849 199.842 163.362C200.008 162.443 199.9 161.487 199.534 160.645C199.284 160.229 198.904 159.936 198.471 159.825C198.037 159.714 197.583 159.793 197.199 160.047C196.815 160.3 196.531 160.709 196.403 161.191C196.275 161.673 196.313 162.192 196.51 162.644L196.575 162.802L196.398 162.326C196.443 162.455 196.472 162.59 196.482 162.728L196.426 162.2C196.444 162.396 196.444 162.595 196.426 162.792L196.491 162.263C196.435 162.718 196.314 163.14 196.239 163.584C196.095 164.305 196.095 165.053 196.239 165.773L199.431 164.251C198.724 162.835 197.916 161.488 197.014 160.223C196.622 159.652 196.22 159.081 195.81 158.52C195.555 158.172 195.257 157.87 194.923 157.622C194.481 157.31 193.978 157.128 193.458 157.093C192.993 157.095 192.547 157.304 192.216 157.675C191.897 158.055 191.714 158.556 191.703 159.081C191.717 159.602 191.899 160.099 192.216 160.476C192.56 160.824 192.998 161.03 193.458 161.058L193.374 161.089Z" fill="#6F595D"/>
<path d="M206.747 153.181C207.26 153.816 207.755 154.482 208.222 155.158L207.951 154.757C208.455 155.507 208.931 156.279 209.388 157.083C209.628 157.52 209.999 157.843 210.434 157.992C210.655 158.061 210.886 158.08 211.114 158.047C211.341 158.015 211.561 157.932 211.76 157.804C211.96 157.675 212.135 157.503 212.276 157.298C212.416 157.092 212.52 156.858 212.58 156.607C212.642 156.351 212.658 156.083 212.628 155.82C212.597 155.557 212.521 155.303 212.403 155.074C211.463 153.405 210.398 151.831 209.22 150.369C208.892 150.001 208.45 149.792 207.988 149.788C207.641 149.787 207.302 149.904 207.013 150.122C206.724 150.341 206.499 150.651 206.366 151.015C206.233 151.378 206.198 151.778 206.266 152.163C206.334 152.549 206.501 152.903 206.747 153.181Z" fill="#6F595D"/>
<path d="M219.263 147.06C220.109 147.511 220.911 148.064 221.652 148.709L221.297 148.403C221.623 148.701 221.935 149.019 222.231 149.354C222.568 149.712 223.01 149.915 223.472 149.925C223.819 149.926 224.158 149.811 224.446 149.593C224.734 149.375 224.959 149.065 225.091 148.702C225.223 148.339 225.257 147.94 225.188 147.555C225.119 147.171 224.951 146.818 224.704 146.542C223.604 145.354 222.344 144.373 220.971 143.635C220.554 143.392 220.076 143.321 219.617 143.434C219.17 143.574 218.79 143.911 218.56 144.368C218.331 144.826 218.272 145.368 218.395 145.876C218.515 146.374 218.804 146.799 219.197 147.06H219.263Z" fill="#6F595D"/>
</svg>
