<svg width="1608" height="1009" viewBox="0 0 1608 1009" fill="none" xmlns="http://www.w3.org/2000/svg">
<path d="M1515.33 796.24C1427.79 890.57 1298.46 915.735 1188.87 958.188C972.422 1037.25 746.573 1007.41 501.738 970.738C405.182 956.274 297.205 938.413 192.73 864.665C148.503 833.445 70.1093 771.763 36.9462 695.935C9.2541 632.615 5.71825 586.399 1.86575 527.126C-11.2813 324.851 63.9719 199.018 164.78 158.968C336.473 90.7568 526.146 67.6061 709.704 34.5688C759.204 25.6596 803.934 4.35976 855.423 1.39584C928.255 -2.79665 1005.64 11.5588 1082.54 24.2862C1180.97 40.5751 1278.55 46.6084 1384.68 118.383C1433.96 151.709 1536.14 263.17 1569.74 374.804C1653.17 651.962 1580.22 726.307 1515.33 796.24Z" fill="white" fill-opacity="0.5"/>
</svg>
