<svg width="579" height="581" viewBox="0 0 579 581" fill="none" xmlns="http://www.w3.org/2000/svg">
<path fill-rule="evenodd" clip-rule="evenodd" d="M133.898 364.534C164.143 378.548 178.572 423.333 211.712 422.662C249.697 421.894 294.726 399.962 305.524 361.064C316.134 322.842 273.869 294.588 257.042 259.36C245.565 235.331 242.906 207.763 223.845 190.059C198.949 166.936 170.063 143.879 136.977 147.844C99.3997 152.346 65.9501 177.678 45.1183 211.475C22.5985 248.011 0.494873 297.917 21.8176 334.678C42.7921 370.838 97.2492 347.553 133.898 364.534Z" fill="#ECD8A3" fill-opacity="0.5" style="mix-blend-mode:plus-darker"/>
<path fill-rule="evenodd" clip-rule="evenodd" d="M447.785 373.849C424.762 408.265 443.141 477.701 405.564 493.112C362.493 510.776 295.234 502.463 253.181 453.659C211.86 405.705 237.35 345.545 229.017 288.226C223.334 249.128 205.061 209.454 212.733 175.417C222.753 130.963 237.287 84.6324 277.343 73.8326C322.835 61.5668 379.764 80.3203 429.107 117.077C482.449 156.813 545.628 215.358 550.114 277.028C554.526 337.691 475.682 332.146 447.785 373.849Z" fill="#483D3F" fill-opacity="0.4"/>
</svg>
