<svg width="168" height="127" viewBox="0 0 168 127" fill="none" xmlns="http://www.w3.org/2000/svg">
<g clip-path="url(#clip0_1383_4248)">
<path d="M1.37848 9.833C16.4365 20.3238 31.3018 31.1367 46.1326 41.9633C60.8395 52.6871 75.5532 63.4178 90.4805 73.8332C98.9906 79.7719 107.583 85.5872 116.259 91.2791C117.636 92.1905 118.944 89.9703 117.56 89.059C102.165 78.9998 87.1067 68.4405 72.1795 57.7098C57.4244 47.0751 42.7657 36.2759 28.0106 25.6206C19.606 19.5495 11.1509 13.5469 2.64537 7.61287C1.28209 6.6604 0.00143154 8.90795 1.37848 9.833Z" fill="#6F595D"/>
<path d="M1.12219 6.26303C16.5245 16.8704 31.7064 27.8066 46.8609 38.7634C61.8432 49.5899 76.8255 60.4302 92.035 70.9348C100.756 76.9374 109.542 82.8143 118.392 88.5657C120.258 89.7717 121.986 86.8046 120.127 85.6055C104.408 75.4573 89.0192 64.7883 73.7822 53.9274C58.731 43.1694 43.8107 32.288 28.7802 21.5299C20.1874 15.3994 11.5487 9.326 2.86415 3.30971C2.46972 3.08367 2.00184 3.02093 1.56136 3.13501C1.12088 3.24909 0.743085 3.53085 0.509401 3.91956C0.287599 4.31331 0.22752 4.77721 0.341752 5.21407C0.455984 5.65092 0.735661 6.02683 1.12219 6.26303Z" fill="#6F595D"/>
<path d="M4.42697 2.54217C19.7811 13.0193 34.8942 23.8664 50.0004 34.7136C64.8863 45.4031 79.7653 56.0995 94.8784 66.467C103.554 72.4056 112.319 78.2232 121.173 83.9197C121.635 84.2212 122.068 83.4812 121.607 83.1797C105.929 73.148 90.6234 62.6229 75.4139 51.8374C60.4591 41.2438 45.6352 30.472 30.7011 19.8716C22.1404 13.773 13.527 7.74989 4.86074 1.80212C4.40631 1.48692 3.97254 2.22696 4.42697 2.54217Z" fill="#6F595D"/>
<path d="M6.88606 1.80235C22.2608 12.4919 37.8697 22.832 53.5818 33.0419C69.4179 43.3203 85.3572 53.5027 101.255 63.7126C110.068 69.3726 118.863 75.06 127.64 80.7748C128.569 81.3846 129.43 79.9045 128.507 79.2947C112.816 69.0437 97.0139 58.9297 81.2467 48.8363C65.3349 38.6333 49.4506 28.4029 33.7385 17.9463C25.0172 12.1539 16.3556 6.27917 7.7536 0.322261C6.84475 -0.308148 5.98409 1.1788 6.88606 1.80235Z" fill="#6F595D"/>
<path d="M2.60332 8.11318C2.29755 7.84483 2.05828 7.50975 1.9042 7.13413C1.75012 6.7585 1.68541 6.3525 1.71512 5.94786C1.75877 5.00973 2.06654 4.1027 2.60332 3.33029C3.10399 2.65051 3.80754 2.1454 4.61366 1.88701C5.41978 1.62861 6.28729 1.63012 7.0925 1.89132C7.31254 1.95492 7.54896 1.92893 7.74975 1.81906C7.95053 1.70919 8.09924 1.52443 8.16315 1.30545C8.22707 1.08646 8.20095 0.85117 8.09055 0.651344C7.98015 0.451519 7.79451 0.303524 7.57447 0.239918C6.3998 -0.118844 5.14092 -0.0964321 3.9799 0.303913C2.81889 0.704258 1.81593 1.46178 1.1161 2.46691C-0.260945 4.46777 -0.598322 7.59241 1.38463 9.31918C1.54624 9.48001 1.76542 9.57037 1.99397 9.57037C2.22252 9.57037 2.44171 9.48001 2.60332 9.31918C2.76493 9.15834 2.85572 8.94021 2.85572 8.71275C2.85572 8.4853 2.76493 8.26716 2.60332 8.10633V8.11318Z" fill="#6F595D"/>
<path d="M116.279 91.2791C120.479 94.2119 125.23 96.6102 128.384 100.756C131.537 104.901 133.575 109.767 137.706 113.063C137.952 113.296 138.279 113.426 138.619 113.426C138.958 113.426 139.285 113.296 139.531 113.063C139.772 112.821 139.907 112.495 139.907 112.155C139.907 111.814 139.772 111.488 139.531 111.247C135.4 107.903 133.334 102.866 130.119 98.7755C126.793 94.5614 121.932 92.0672 117.601 89.0384C116.224 88.0928 114.944 90.3198 116.3 91.2586L116.279 91.2791Z" fill="#6F595D"/>
<path d="M139.323 113.638C143.367 117 147.269 120.532 151.028 124.232C152.213 125.397 154.037 123.547 152.853 122.416C149.112 118.72 145.21 115.187 141.148 111.815C140.9 111.583 140.573 111.454 140.232 111.454C139.892 111.454 139.564 111.583 139.317 111.815C139.078 112.06 138.945 112.387 138.945 112.727C138.945 113.067 139.078 113.394 139.317 113.638H139.323Z" fill="#6F595D"/>
<path d="M137.705 113.063C142.126 116.749 146.319 120.717 150.416 124.759C151.593 125.924 153.424 124.109 152.24 122.944C148.15 118.901 143.978 114.933 139.53 111.247C139.284 111.013 138.957 110.883 138.618 110.883C138.278 110.883 137.951 111.013 137.705 111.247C137.466 111.489 137.332 111.815 137.332 112.155C137.332 112.494 137.466 112.82 137.705 113.063Z" fill="#6F595D"/>
<path d="M151.545 123.341C153.447 124.622 155.509 125.65 157.68 126.397C157.789 126.427 157.902 126.436 158.015 126.422C158.127 126.408 158.235 126.373 158.334 126.317C158.432 126.262 158.519 126.188 158.588 126.099C158.658 126.011 158.71 125.909 158.74 125.801C158.77 125.692 158.779 125.579 158.765 125.467C158.751 125.356 158.716 125.248 158.66 125.15C158.604 125.052 158.53 124.966 158.441 124.896C158.352 124.827 158.25 124.776 158.141 124.746C156.114 124.037 154.189 123.069 152.412 121.868C152.315 121.8 152.205 121.753 152.088 121.73C151.972 121.707 151.851 121.708 151.735 121.733C151.619 121.758 151.51 121.807 151.414 121.877C151.317 121.946 151.237 122.035 151.177 122.137C151.117 122.239 151.078 122.352 151.065 122.469C151.051 122.587 151.061 122.706 151.096 122.819C151.13 122.932 151.188 123.037 151.265 123.127C151.343 123.217 151.438 123.289 151.545 123.341Z" fill="#6F595D"/>
<path d="M150.464 124.801C152.686 125.74 154.991 126.469 157.349 126.98C157.568 127.033 157.8 127.001 157.995 126.89C158.191 126.779 158.337 126.598 158.403 126.383C158.433 126.275 158.442 126.162 158.428 126.05C158.414 125.938 158.379 125.83 158.323 125.732C158.268 125.634 158.193 125.548 158.104 125.479C158.015 125.409 157.913 125.358 157.804 125.328C155.593 124.859 153.431 124.187 151.346 123.32C151.147 123.211 150.914 123.182 150.695 123.24C150.475 123.297 150.287 123.437 150.168 123.629C150.111 123.726 150.074 123.833 150.059 123.945C150.043 124.056 150.05 124.17 150.079 124.279C150.108 124.387 150.158 124.49 150.226 124.579C150.295 124.669 150.38 124.744 150.478 124.801H150.464Z" fill="#6F595D"/>
<path d="M146.802 107.745C150.846 111.112 154.747 114.643 158.507 118.339C159.684 119.504 161.515 117.688 160.331 116.523C156.59 112.827 152.689 109.294 148.626 105.922C148.38 105.691 148.053 105.562 147.714 105.562C147.375 105.562 147.048 105.691 146.802 105.922C146.562 106.166 146.428 106.493 146.428 106.834C146.428 107.175 146.562 107.502 146.802 107.745Z" fill="#6F595D"/>
<path d="M159.194 118.976C161.362 119.842 163.635 120.42 165.955 120.696C166.297 120.696 166.625 120.561 166.868 120.321C167.111 120.081 167.248 119.755 167.25 119.415C167.239 119.076 167.099 118.755 166.859 118.515C166.618 118.276 166.295 118.137 165.955 118.126C165.797 118.126 165.804 118.126 165.955 118.126H165.714L165.363 118.072C165.088 118.031 164.819 117.983 164.544 117.928C164.02 117.825 163.497 117.702 162.981 117.565C161.929 117.288 160.897 116.945 159.889 116.537C159.726 116.491 159.555 116.478 159.387 116.498C159.219 116.518 159.056 116.57 158.908 116.653C158.76 116.736 158.63 116.847 158.526 116.98C158.421 117.113 158.344 117.265 158.299 117.428C158.217 117.756 158.265 118.103 158.433 118.398C158.601 118.692 158.875 118.912 159.201 119.01L159.194 118.976Z" fill="#6F595D"/>
<path d="M147.738 107.656C147.735 107.606 147.735 107.555 147.738 107.505L147.69 107.841C147.711 107.723 147.745 107.608 147.793 107.498L147.663 107.8C147.719 107.673 147.791 107.554 147.876 107.444L147.669 107.704C147.772 107.58 147.887 107.468 148.014 107.368L147.752 107.574C147.893 107.463 148.048 107.371 148.213 107.3L147.904 107.423C148.105 107.343 148.315 107.288 148.53 107.259L148.186 107.307C148.458 107.276 148.733 107.276 149.005 107.307L148.661 107.259C149.074 107.325 149.48 107.43 149.873 107.574C150.12 107.642 150.382 107.635 150.625 107.554C150.868 107.473 151.081 107.321 151.237 107.119C151.393 106.916 151.485 106.672 151.501 106.418C151.516 106.163 151.455 105.909 151.326 105.689C151.147 105.408 150.873 105.199 150.554 105.1C149.507 104.649 148.332 104.586 147.243 104.922C146.712 105.112 146.238 105.433 145.866 105.854C145.429 106.352 145.175 106.982 145.143 107.642C145.144 107.982 145.28 108.308 145.521 108.549C145.762 108.79 146.089 108.927 146.43 108.931C146.771 108.924 147.096 108.786 147.338 108.545C147.579 108.305 147.718 107.982 147.725 107.642L147.738 107.656Z" fill="#6F595D"/>
<path d="M149.776 107.581L157.349 115.255C158.437 116.424 159.692 117.426 161.074 118.229C162.582 119.065 164.124 119.84 165.646 120.641C167.168 121.443 168.4 119.195 166.947 118.421C165.495 117.647 164.056 116.914 162.616 116.146C161.254 115.363 160.021 114.376 158.96 113.22L151.6 105.765C150.436 104.586 148.612 106.402 149.776 107.581Z" fill="#6F595D"/>
<path d="M121.181 90.8132C120.555 89.5044 120.878 88.0312 121.291 86.7018C121.646 85.4877 122.243 84.3573 123.047 83.3785C123.736 82.6042 124.72 81.6791 125.753 81.5626C126.803 81.4573 127.864 81.5245 128.893 81.7614C129.974 81.9943 130.435 80.3429 129.347 80.11C128.022 79.7955 126.649 79.7258 125.299 79.9044C123.921 80.1168 122.593 81.2749 121.732 82.2821C120.746 83.4956 120.016 84.8937 119.584 86.3935C118.944 88.0997 118.983 89.9847 119.694 91.6629C120.176 92.6633 121.656 91.7931 121.181 90.7995V90.8132Z" fill="#6F595D"/>
<path d="M145.162 108.739C148.995 113.17 152.954 117.496 157.039 121.717C157.425 122.114 158.03 121.511 157.645 121.114C153.569 116.898 149.612 112.572 145.775 108.136C145.41 107.718 144.804 108.321 145.162 108.739Z" fill="#6F595D"/>
<path d="M156.929 121.525C157.273 123.115 157.673 124.691 158.079 126.267C158.109 126.376 158.182 126.468 158.28 126.524C158.379 126.58 158.496 126.595 158.606 126.565C158.715 126.535 158.808 126.463 158.865 126.364C158.921 126.266 158.935 126.15 158.905 126.041C158.506 124.465 158.1 122.889 157.755 121.299C157.645 120.764 156.812 120.991 156.929 121.525Z" fill="#6F595D"/>
<path d="M156.24 105.32C159.402 108.906 162.666 112.4 166.031 115.803C166.416 116.201 167.022 115.591 166.636 115.2C163.276 111.797 160.013 108.3 156.846 104.71C156.481 104.299 155.875 104.902 156.24 105.32Z" fill="#6F595D"/>
<path d="M165.934 115.619C166.306 117.153 166.74 118.675 167.174 120.196C167.204 120.305 167.276 120.398 167.375 120.453C167.474 120.509 167.591 120.524 167.701 120.494C167.81 120.464 167.903 120.392 167.959 120.294C168.016 120.195 168.03 120.079 168 119.97C167.566 118.449 167.133 116.927 166.768 115.392C166.637 114.851 165.811 115.077 165.934 115.619Z" fill="#6F595D"/>
<path d="M142.767 103.161C142.537 104.393 142.591 105.66 142.925 106.868C142.962 106.971 143.037 107.056 143.135 107.106C143.232 107.156 143.345 107.167 143.451 107.138C143.556 107.108 143.647 107.04 143.704 106.947C143.761 106.853 143.78 106.742 143.758 106.635C143.459 105.578 143.403 104.468 143.593 103.387C143.619 103.278 143.604 103.163 143.549 103.066C143.494 102.968 143.404 102.894 143.297 102.859C143.187 102.832 143.07 102.848 142.971 102.904C142.872 102.96 142.799 103.052 142.767 103.161Z" fill="#6F595D"/>
<path d="M142.236 108.506C146.631 113.713 151.306 118.679 156.241 123.382C156.64 123.766 157.246 123.156 156.847 122.772C151.912 118.069 147.237 113.103 142.842 107.896C142.484 107.471 141.878 108.081 142.236 108.506Z" fill="#6F595D"/>
<path d="M150.155 101.448C154.839 106.966 159.819 112.227 165.075 117.208C165.474 117.592 166.08 116.982 165.681 116.605C160.428 111.623 155.449 106.362 150.767 100.845C150.409 100.427 149.803 101.03 150.155 101.455V101.448Z" fill="#6F595D"/>
<path d="M137.541 107.17L137.672 107.218L137.369 107.087C137.548 107.17 137.716 107.274 137.871 107.396L137.616 107.19C137.934 107.454 138.22 107.753 138.47 108.081L138.271 107.821C138.691 108.362 139.042 108.951 139.427 109.52C139.6 109.806 139.876 110.017 140.198 110.109C140.364 110.155 140.537 110.167 140.707 110.144C140.878 110.122 141.042 110.066 141.19 109.979C141.48 109.809 141.692 109.534 141.782 109.212C141.828 109.047 141.84 108.875 141.817 108.705C141.795 108.536 141.738 108.372 141.651 108.225C140.735 106.854 139.882 105.265 138.209 104.689C137.871 104.601 137.513 104.648 137.21 104.819C137.064 104.904 136.936 105.017 136.834 105.151C136.732 105.285 136.657 105.438 136.614 105.601C136.571 105.764 136.561 105.934 136.584 106.101C136.607 106.268 136.663 106.428 136.749 106.574C136.929 106.855 137.202 107.065 137.52 107.17H137.541Z" fill="#6F595D"/>
<path d="M140.494 88.5108C139 87.8981 137.454 87.4211 135.874 87.0855C135.121 86.913 134.394 86.6435 133.712 86.2838C132.961 85.8658 132.39 85.2149 131.646 84.7969C130.51 84.1596 129.057 84.2144 128.341 85.4342C127.625 86.6539 127.914 88.1134 128.341 89.2783C128.43 89.5721 128.621 89.8247 128.88 89.9907C129.139 90.1568 129.45 90.2253 129.755 90.184C130.061 90.1427 130.341 89.9943 130.546 89.7654C130.752 89.5366 130.868 89.2424 130.875 88.9357C131.001 88.1735 130.915 87.3916 130.627 86.6744C130.455 86.3822 130.22 86.1317 129.939 85.9412L129.787 85.8247C129.587 85.674 129.574 85.6877 129.739 85.8658C129.772 85.8778 129.8 85.8992 129.821 85.9272C129.842 85.9552 129.854 85.9887 129.856 86.0234C129.856 86.2496 129.663 86.3386 129.243 86.2838L129.505 84.2693C127.653 85.0641 128.038 87.8599 128.327 89.4153C128.782 91.8821 130.703 93.1224 132.101 95.0136C133.064 96.3087 135.226 95.1507 134.331 93.7186C133.272 92.0168 132.313 90.255 131.46 88.4423L129.698 90.1965C132.176 92.0603 133.863 94.7738 135.763 97.1721C135.986 97.3925 136.281 97.5245 136.594 97.5435C136.907 97.5624 137.217 97.4669 137.464 97.2749C137.706 97.0812 137.872 96.8088 137.932 96.5056C137.993 96.2023 137.944 95.8876 137.795 95.6166C136.448 92.5916 134.513 89.8621 132.101 87.5858L130.875 89.7648C133.206 90.3922 135.383 91.4883 137.271 92.9854L138.834 90.9297C136.349 89.2303 134.242 87.0855 131.095 86.7224C129.959 86.5922 129.436 88.1956 130.186 88.9151C131.832 90.3679 133.8 91.4128 135.929 91.9644C137.953 92.5879 140.06 93.0539 141.85 94.1914L142.848 91.841C141.19 91.3185 139.671 90.4335 138.401 89.2509L136.838 91.2654C139.817 93.1475 142.424 95.5584 144.528 98.3781L146.291 96.6239L141.836 93.3485C140.645 92.4714 139.234 94.3764 140.273 95.4042C141.985 97.0528 143.907 98.4718 145.988 99.6252C146.235 99.759 146.519 99.8096 146.797 99.7693C147.076 99.729 147.334 99.6 147.532 99.4016C147.731 99.2033 147.859 98.9463 147.899 98.6691C147.938 98.392 147.886 98.1095 147.751 97.8642C147.261 97.0062 146.842 96.1102 146.498 95.1849L144.342 96.432C144.775 96.7754 145.176 97.1561 145.541 97.5695C145.812 97.927 146.043 98.3131 146.229 98.7207C146.167 98.7207 146.401 98.474 146.408 98.5014C146.415 98.5288 146.05 98.289 145.974 98.2273C145.567 97.9252 145.27 97.4995 145.127 97.0145L143.544 98.5974C143.778 98.6522 143.812 98.5974 143.936 98.8098L145.396 96.9254C143.564 96.6239 142.477 94.7464 141.265 93.4993C141.039 93.294 140.748 93.1745 140.442 93.1618C140.136 93.149 139.836 93.2437 139.594 93.4293C139.351 93.6149 139.182 93.8796 139.117 94.1768C139.051 94.4741 139.092 94.7849 139.234 95.0547L141.616 99.0976L143.647 97.5421C141.744 95.8208 139.944 93.9905 138.256 92.0603L136.473 93.8761C137.861 95.0774 139.079 96.4605 140.094 97.9875L142.119 96.432C140.452 94.8822 138.91 93.2051 137.505 91.4162L135.481 92.9716C136.975 94.4721 138.275 96.1525 139.351 97.9738C140.039 99.1592 141.609 98.5151 141.754 97.3228C141.926 96.3214 141.891 95.2953 141.65 94.3078C141.251 93.0539 139.901 92.2522 138.655 92.9716C137.684 93.5541 137.347 94.7944 137.161 95.8359C137.058 96.432 136.982 97.0351 136.92 97.6381C136.92 97.9053 136.872 98.1657 136.844 98.4329C136.844 98.522 136.844 98.6111 136.844 98.7001C136.803 99.0839 136.886 98.4672 136.844 98.755L139 98.1862L135.33 93.7734C134.531 92.8072 132.706 93.8487 133.175 95.0273C134.15 97.5302 135.3 99.9619 136.617 102.304L138.848 101.003C137.529 99.2276 136.346 97.3562 135.309 95.4042L133.285 96.9597C135.044 99.225 136.499 101.708 137.616 104.346C138.132 105.559 140.039 104.888 140.019 103.695C139.982 101.749 139.872 99.8079 139.688 97.871L137.278 98.522C138.201 99.7896 138.756 101.285 138.882 102.846C138.906 103.17 139.053 103.474 139.292 103.695C139.532 103.917 139.846 104.04 140.173 104.04C140.5 104.04 140.815 103.917 141.055 103.695C141.294 103.474 141.441 103.17 141.464 102.846C141.395 101.939 141.638 101.035 142.153 100.283L139.95 99.3785V100.297C139.955 100.548 140.034 100.793 140.177 101C140.32 101.208 140.521 101.369 140.754 101.465C140.988 101.561 141.245 101.587 141.493 101.54C141.742 101.494 141.971 101.376 142.153 101.201L143.206 100.125C143.413 99.9006 143.533 99.6107 143.546 99.3066C143.558 99.0025 143.463 98.7036 143.277 98.4624C143.09 98.2212 142.824 98.053 142.526 97.9875C142.227 97.922 141.915 97.9632 141.643 98.104C140.746 98.5281 139.928 99.1029 139.227 99.8034C139.107 99.9226 139.012 100.064 138.947 100.22C138.882 100.376 138.849 100.543 138.849 100.711C138.849 100.88 138.882 101.047 138.947 101.203C139.012 101.358 139.107 101.5 139.227 101.619C139.347 101.738 139.489 101.833 139.645 101.898C139.802 101.962 139.97 101.995 140.139 101.995C140.308 101.995 140.476 101.962 140.633 101.898C140.789 101.833 140.932 101.738 141.051 101.619C141.601 101.08 142.242 100.641 142.945 100.324L141.382 98.3096L140.294 99.358L142.497 100.269V99.3511C142.493 99.099 142.415 98.8537 142.272 98.6451C142.13 98.4366 141.929 98.274 141.696 98.1772C141.462 98.0804 141.204 98.0537 140.955 98.1004C140.706 98.147 140.477 98.265 140.294 98.4398C139.299 99.6796 138.781 101.232 138.834 102.818H141.416C141.29 100.803 140.614 98.8606 139.461 97.1995C138.772 96.2607 136.92 96.4595 137.058 97.8436C137.246 99.7805 137.356 101.722 137.388 103.668L139.791 103.024C138.572 100.192 136.981 97.5332 135.061 95.1164C134.125 93.9241 132.383 95.4453 133.037 96.6719C134.068 98.6274 135.249 100.501 136.569 102.277C137.533 103.572 139.64 102.455 138.8 100.975C137.578 98.833 136.51 96.6073 135.605 94.3147L133.443 95.5618L137.113 99.9815C137.273 100.139 137.472 100.252 137.69 100.309C137.907 100.367 138.136 100.367 138.354 100.309C138.571 100.252 138.77 100.139 138.93 99.9819C139.091 99.8246 139.207 99.6285 139.268 99.4128C139.502 98.0423 139.481 96.5965 139.915 95.3014C139.915 95.2398 139.963 95.0068 139.984 95.1301C139.984 94.9794 140.163 95.2055 139.661 95.2192C140.239 95.2192 138.972 95.0959 139.11 94.8766C139.134 95.0278 139.171 95.1767 139.22 95.322C139.273 95.9759 139.248 96.6338 139.144 97.2817L141.547 96.6308C140.361 94.622 138.927 92.7689 137.278 91.1147C136.28 90.1143 134.331 91.4847 135.247 92.6702C136.769 94.646 138.448 96.4974 140.266 98.2068C141.292 99.173 143.131 97.9121 142.291 96.6513C141.169 94.9404 139.816 93.391 138.27 92.0466C138.028 91.8058 137.7 91.6705 137.357 91.6705C137.015 91.6705 136.687 91.8058 136.445 92.0466C136.203 92.2874 136.067 92.614 136.067 92.9545C136.067 93.2951 136.203 93.6216 136.445 93.8624C138.135 95.7957 139.935 97.6306 141.836 99.358C142.059 99.5746 142.353 99.7038 142.664 99.722C142.975 99.7402 143.283 99.6461 143.53 99.4569C143.777 99.2678 143.947 98.9964 144.009 98.6924C144.071 98.3885 144.021 98.0725 143.867 97.8025L141.485 93.7597L139.461 95.3151C141.024 96.8706 142.387 98.9811 144.735 99.3648C145.74 99.5361 146.883 98.5014 146.195 97.4804C145.751 96.7903 145.054 96.2988 144.253 96.11C144.034 96.0558 143.804 96.059 143.586 96.1195C143.368 96.1799 143.17 96.2955 143.011 96.4549C142.851 96.6143 142.736 96.8122 142.676 97.0291C142.616 97.2461 142.614 97.4748 142.669 97.6929C143.096 99.7897 146.195 102.311 148.129 100.393C150.064 98.474 147.716 95.8291 146.174 94.6093C145.968 94.4156 145.706 94.2919 145.425 94.2562C145.144 94.2205 144.859 94.2746 144.611 94.4106C144.366 94.553 144.175 94.772 144.068 95.0334C143.961 95.2949 143.944 95.5842 144.019 95.8565C144.427 96.9979 144.931 98.1028 145.527 99.1593L147.344 97.3708C145.453 96.3306 143.708 95.0473 142.153 93.5541L140.59 95.5687L145.017 98.8372C146.036 99.5909 147.537 98.0971 146.787 97.083C144.427 93.9056 141.494 91.1918 138.139 89.0796C137.868 88.932 137.554 88.8854 137.252 88.9481C136.95 89.0109 136.68 89.1789 136.492 89.4218C136.303 89.6648 136.208 89.9668 136.224 90.2734C136.239 90.58 136.364 90.8711 136.576 91.0941C138.17 92.5803 140.078 93.6924 142.16 94.349C143.585 94.8012 144.363 92.7524 143.151 91.9986C139.709 89.847 135.013 89.9909 132.011 87.1267L131.095 89.3194C133.581 89.6072 135.578 91.8342 137.533 93.1772C138.724 93.9926 140.246 92.0808 139.096 91.1626C136.881 89.3666 134.316 88.0461 131.563 87.2843C131.291 87.2172 131.004 87.2397 130.745 87.3485C130.486 87.4573 130.27 87.6465 130.128 87.8878C129.986 88.1292 129.926 88.4097 129.958 88.6875C129.99 88.9653 130.111 89.2254 130.303 89.429C132.554 91.5654 134.351 94.1282 135.591 96.9665L137.622 95.4111C135.557 92.8003 133.725 90.0594 131.026 88.038C129.883 87.1746 128.782 88.7712 129.257 89.7922C130.11 91.6049 131.069 93.3667 132.128 95.0684L134.359 93.7734C133.326 92.4029 131.605 91.2106 131.02 89.5318C130.846 88.9597 130.746 88.3679 130.723 87.7708C130.692 87.4517 130.692 87.1305 130.723 86.8115C130.723 86.7635 130.827 86.4483 130.792 86.5237C130.758 86.599 130.551 86.6607 130.827 86.5237C131.002 86.4242 131.152 86.2854 131.265 86.1183C131.377 85.9512 131.449 85.7604 131.474 85.5609C131.499 85.3615 131.478 85.1589 131.411 84.9692C131.344 84.7795 131.233 84.6079 131.088 84.468C129.808 83.2483 127.797 83.5977 127.363 85.441C127.265 85.8115 127.259 86.2007 127.348 86.5737C127.437 86.9467 127.617 87.2921 127.873 87.5789C128.007 87.7256 128.165 87.8485 128.341 87.9421C128.637 88.0723 128.341 88.038 128.341 87.8736C128.341 88.2299 128.341 88.5588 128.3 88.9357L130.834 88.593C130.644 88.1581 130.528 87.6951 130.489 87.2226C130.496 87.0971 130.496 86.9713 130.489 86.8457C130.386 86.4551 130.62 86.7772 130.489 86.7772C130.241 86.7772 130.2 86.9485 130.207 86.9622C130.395 87.1127 130.593 87.25 130.799 87.3733C131.29 87.7896 131.813 88.1676 132.362 88.504C134.483 89.6826 136.975 89.7237 139.151 90.731C140.652 91.4162 141.96 89.2098 140.452 88.5108H140.494Z" fill="#6F595D"/>
<path d="M149.603 100.043L149.528 99.9542L149.727 100.215C149.5 99.9131 149.335 99.5636 149.135 99.2415L148.033 101.194H148.178L147.841 101.146C148.058 101.179 148.27 101.237 148.474 101.318L148.164 101.188C148.369 101.274 148.561 101.387 148.736 101.523L148.474 101.318C148.588 101.439 148.73 101.531 148.887 101.585C149.04 101.665 149.211 101.703 149.383 101.695C149.557 101.703 149.731 101.666 149.886 101.585C150.043 101.531 150.185 101.439 150.299 101.318C150.54 101.078 150.676 100.753 150.677 100.413L150.629 100.071C150.571 99.8557 150.457 99.6597 150.299 99.5019L150.223 99.406L150.423 99.6664C150.196 99.3742 150.009 99.054 149.865 98.7139L149.996 99.0223C149.996 98.9469 149.934 98.8647 149.906 98.7893C149.869 98.6248 149.788 98.4734 149.672 98.3507C149.581 98.2143 149.458 98.1015 149.314 98.0218C149.006 97.8648 148.654 97.8188 148.316 97.8916C147.993 97.9841 147.718 98.1946 147.545 98.4809C147.458 98.6296 147.401 98.794 147.379 98.9646C147.356 99.1352 147.368 99.3086 147.414 99.4745C147.534 99.8103 147.681 100.136 147.854 100.448C148.032 100.757 148.24 101.048 148.474 101.318L150.299 99.5019C150.123 99.3535 149.937 99.2184 149.741 99.0976C149.531 98.9869 149.315 98.8885 149.094 98.803C148.744 98.6779 148.377 98.6063 148.006 98.5906C147.78 98.588 147.557 98.6458 147.361 98.7579C147.165 98.8699 147.002 99.0322 146.89 99.2278C146.774 99.424 146.713 99.6476 146.713 99.8754C146.713 100.103 146.774 100.327 146.89 100.523C147.001 100.708 147.097 100.9 147.207 101.085C147.366 101.355 147.551 101.61 147.758 101.845C147.87 101.969 148.012 102.061 148.171 102.113C148.326 102.193 148.499 102.231 148.674 102.222C148.846 102.23 149.017 102.192 149.17 102.113C149.328 102.061 149.471 101.969 149.583 101.845C149.703 101.727 149.798 101.586 149.863 101.431C149.928 101.276 149.961 101.109 149.961 100.941L149.913 100.598C149.854 100.383 149.741 100.187 149.583 100.03L149.603 100.043Z" fill="#6F595D"/>
<path d="M127.378 85.1739C124.334 89.5114 128.755 93.6022 131.474 96.6652C133.23 98.6979 134.703 100.957 135.853 103.38C136.811 105.354 137.788 107.458 140.143 107.992C140.334 108.042 140.535 108.048 140.728 108.009C140.922 107.971 141.105 107.889 141.263 107.771C141.421 107.652 141.549 107.499 141.639 107.324C141.729 107.149 141.778 106.955 141.782 106.759C141.864 105.073 141.899 103.017 143.324 101.873C143.566 101.632 143.702 101.306 143.702 100.965C143.702 100.624 143.566 100.298 143.324 100.057C143.082 99.8163 142.754 99.681 142.412 99.681C142.07 99.681 141.741 99.8163 141.499 100.057C139.53 101.647 139.31 104.422 139.2 106.759L140.804 105.525C139.083 105.135 138.532 103.024 137.83 101.64C136.695 99.4057 135.309 97.3069 133.698 95.3838C131.805 93.1226 127.268 89.7444 129.567 86.4759C130.524 85.1054 128.287 83.8309 127.336 85.1808L127.378 85.1739Z" fill="#6F595D"/>
<path d="M132.198 97.9464C133.988 101.66 135.579 105.922 138.801 108.677C139.126 108.989 139.561 109.161 140.012 109.156C140.464 109.152 140.895 108.971 141.214 108.653C141.533 108.335 141.713 107.905 141.716 107.456C141.72 107.006 141.545 106.574 141.231 106.251C140.866 105.937 140.519 105.603 140.192 105.251C140.04 105.086 139.896 104.915 139.751 104.737C139.751 104.737 139.538 104.47 139.62 104.579L139.503 104.415C138.94 103.624 138.43 102.798 137.975 101.941C136.976 100.071 136.095 98.1314 135.172 96.2196C134.94 95.8297 134.563 95.5465 134.122 95.4311C133.681 95.3157 133.213 95.3774 132.818 95.6029C132.434 95.8415 132.156 96.2168 132.041 96.6523C131.926 97.0878 131.982 97.5507 132.198 97.9464Z" fill="#6F595D"/>
<path d="M138.622 90.5186C141.037 92.4456 143.274 94.5828 145.308 96.9049C145.551 97.1431 145.879 97.2765 146.22 97.2765C146.561 97.2765 146.889 97.1431 147.132 96.9049C147.367 96.6603 147.497 96.3351 147.497 95.997C147.497 95.6589 147.367 95.3338 147.132 95.0891C145.097 92.7665 142.86 90.6272 140.447 88.6959C140.329 88.5661 140.186 88.4615 140.026 88.3885C139.866 88.3155 139.693 88.2757 139.518 88.2714C139.342 88.2671 139.167 88.2984 139.004 88.3635C138.841 88.4286 138.693 88.5261 138.569 88.65C138.445 88.7739 138.347 88.9217 138.283 89.0843C138.218 89.2469 138.187 89.4209 138.192 89.5957C138.197 89.7705 138.238 89.9425 138.312 90.1012C138.385 90.2599 138.491 90.4019 138.622 90.5186Z" fill="#6F595D"/>
<path d="M139.337 90.8339L139.812 91.1765C139.626 91.0395 139.812 91.1765 139.874 91.2313L140.101 91.4163C140.404 91.663 140.693 91.9234 140.983 92.1838C141.554 92.7183 142.098 93.2801 142.621 93.8557C143.668 95.0138 144.646 96.2335 145.658 97.4258C145.777 97.5453 145.919 97.6402 146.076 97.7049C146.233 97.7696 146.4 97.8029 146.57 97.8029C146.739 97.8029 146.907 97.7696 147.064 97.7049C147.22 97.6402 147.363 97.5453 147.482 97.4258C147.718 97.1819 147.85 96.8565 147.85 96.5178C147.85 96.1792 147.718 95.8538 147.482 95.6099C145.362 93.1088 143.351 90.5255 140.638 88.6138C140.343 88.4436 139.992 88.3964 139.662 88.4824C139.332 88.5684 139.049 88.7806 138.876 89.0729C138.713 89.3697 138.67 89.7171 138.756 90.0442C138.842 90.3714 139.05 90.6538 139.337 90.8339Z" fill="#6F595D"/>
<path d="M143.724 101.53C143.793 101.482 143.876 101.448 143.951 101.4C144.144 101.277 143.779 101.434 143.951 101.4C144.123 101.366 144.268 101.297 144.433 101.263C144.798 101.222 144.598 101.229 144.433 101.263C144.516 101.263 144.592 101.263 144.674 101.263C144.858 101.253 145.042 101.253 145.225 101.263H145.535C145.79 101.263 145.404 101.263 145.535 101.263C145.666 101.263 145.927 101.325 146.12 101.373C146.523 101.463 146.919 101.582 147.304 101.729C147.396 101.757 147.486 101.791 147.573 101.832C147.669 101.832 147.8 101.928 147.635 101.832C147.841 101.921 148.048 102.017 148.248 102.119C148.606 102.304 148.936 102.503 149.294 102.722L149.721 103.024C149.996 103.216 149.528 102.853 149.769 103.065L149.955 103.216C150.204 103.424 150.434 103.653 150.644 103.901L152.207 101.886C150.29 100.438 148.125 99.3465 145.817 98.6659C144.399 98.2411 143.586 100.262 144.826 101.009C145.81 101.612 146.891 102.099 147.848 102.695C148.096 102.846 148.337 102.997 148.537 103.161C148.578 103.161 148.909 103.428 148.716 103.284C148.828 103.368 148.936 103.457 149.039 103.552C149.252 103.732 149.453 103.926 149.638 104.134L149.756 104.271C149.68 104.175 149.673 104.168 149.756 104.271C149.831 104.367 149.935 104.538 150.017 104.675C150.178 104.94 150.429 105.138 150.724 105.234C151.02 105.33 151.34 105.317 151.626 105.197C151.913 105.077 152.146 104.859 152.284 104.582C152.423 104.305 152.456 103.988 152.379 103.689C152.065 102.504 151.507 101.398 150.74 100.441C150.004 99.5635 149.314 98.6486 148.675 97.6997L146.65 99.2552C147.008 99.5773 147.38 99.8308 147.69 100.091C147.914 100.306 148.208 100.434 148.519 100.452C148.83 100.469 149.137 100.375 149.384 100.187C149.632 99.9998 149.803 99.7283 149.864 99.4239C149.925 99.1195 149.872 98.8035 149.714 98.5357C149.384 98.0835 149.06 97.6312 148.709 97.1653C148.466 96.9271 148.138 96.7937 147.797 96.7937C147.455 96.7937 147.128 96.9271 146.884 97.1653C146.65 97.4099 146.519 97.7351 146.519 98.0732C146.519 98.4113 146.65 98.7364 146.884 98.9811C147.015 99.1387 147.297 99.543 147.483 99.7965L149.549 98.2411C149.163 97.9121 148.86 97.7066 148.509 97.4051C148.285 97.1906 147.991 97.0635 147.681 97.047C147.37 97.0306 147.064 97.1259 146.819 97.3155C146.573 97.5051 146.404 97.7763 146.343 98.0796C146.282 98.383 146.332 98.6981 146.485 98.9674C146.816 99.492 147.177 99.9976 147.566 100.482L148.089 101.167L148.365 101.516L148.482 101.667C148.824 102.101 149.135 102.559 149.411 103.038L149.59 103.373C149.59 103.373 149.756 103.743 149.666 103.531C149.779 103.811 149.869 104.1 149.935 104.394L152.296 103.408C150.919 101.085 148.344 100.139 146.099 98.8029L145.108 101.146C147.196 101.777 149.151 102.78 150.878 104.107C151.147 104.265 151.464 104.319 151.771 104.258C152.077 104.198 152.35 104.026 152.537 103.778C152.724 103.531 152.816 103.226 152.799 102.917C152.781 102.609 152.654 102.316 152.441 102.092C151.209 100.721 149.627 99.71 147.862 99.1661C146.141 98.5631 143.986 98.2616 142.354 99.2826C142.199 99.3637 142.062 99.4752 141.952 99.6104C141.842 99.7456 141.76 99.9016 141.712 100.069C141.664 100.237 141.65 100.412 141.672 100.585C141.694 100.758 141.751 100.924 141.84 101.074C141.928 101.225 142.047 101.355 142.187 101.459C142.328 101.562 142.489 101.636 142.659 101.676C142.829 101.716 143.006 101.722 143.178 101.692C143.351 101.662 143.515 101.598 143.662 101.503L143.724 101.53Z" fill="#6F595D"/>
<path d="M137.018 107.032C138.206 108.483 139.576 109.777 141.094 110.883C141.316 111.009 141.571 111.066 141.826 111.048C142.08 111.03 142.324 110.938 142.527 110.783C142.73 110.628 142.882 110.418 142.965 110.177C143.048 109.936 143.058 109.677 142.994 109.431C142.073 107.199 141.298 104.91 140.674 102.578C140.628 102.416 140.552 102.264 140.447 102.131C140.343 101.998 140.214 101.887 140.066 101.804C139.919 101.721 139.756 101.668 139.588 101.647C139.42 101.627 139.25 101.639 139.087 101.684C138.923 101.729 138.771 101.806 138.637 101.91C138.504 102.013 138.392 102.142 138.309 102.289C138.225 102.435 138.172 102.597 138.151 102.764C138.13 102.932 138.143 103.101 138.188 103.264C138.811 105.595 139.584 107.883 140.502 110.116L142.402 108.663L142.113 108.451C142.257 108.561 142.113 108.451 142.037 108.389C141.865 108.252 141.693 108.115 141.527 107.971C141.204 107.697 140.894 107.416 140.591 107.122C139.967 106.525 139.383 105.889 138.842 105.217C138.6 104.977 138.272 104.842 137.93 104.842C137.588 104.842 137.26 104.977 137.018 105.217C136.783 105.461 136.652 105.786 136.652 106.125C136.652 106.463 136.783 106.788 137.018 107.032Z" fill="#6F595D"/>
<path d="M147.738 94.8562C150.059 97.3847 151.387 100.694 154.155 102.825C154.589 103.161 155.202 102.558 154.761 102.222C152.007 100.091 150.63 96.7406 148.344 94.2532C147.972 93.8489 147.36 94.4519 147.738 94.8562Z" fill="#6F595D"/>
<path d="M128.831 81.5422C133.314 84.9683 138.781 86.8184 143.036 90.5392C143.449 90.9024 144.061 90.2994 143.641 89.9362C139.331 86.1606 133.802 84.2488 129.265 80.8021C128.824 80.4664 128.398 81.2133 128.831 81.5422Z" fill="#6F595D"/>
<path d="M130.133 85.5027C130.284 85.119 132.067 86.2564 132.357 86.414C133.325 86.9211 134.296 87.435 135.269 87.9558C137.197 88.9905 139.118 90.0115 141.018 91.149C141.215 91.2635 141.45 91.2953 141.671 91.2375C141.892 91.1796 142.081 91.0369 142.196 90.8406C142.311 90.6443 142.343 90.4106 142.285 90.1909C142.226 89.9711 142.083 89.7834 141.886 89.6689C139.517 88.2984 137.107 86.9828 134.684 85.7014C133.541 85.0984 132.405 84.42 131.241 83.8993C130.987 83.7731 130.709 83.703 130.426 83.6937C130.142 83.6844 129.86 83.7362 129.599 83.8455C129.337 83.9548 129.102 84.1191 128.911 84.3271C128.719 84.535 128.574 84.7818 128.487 85.0504C128.088 86.0783 129.754 86.5237 130.146 85.5027H130.133Z" fill="#6F595D"/>
<path d="M128.982 90.9777C129.981 92.9673 131.328 94.7633 132.962 96.2813C133.361 96.6582 133.974 96.0552 133.567 95.6783C131.991 94.2079 130.69 92.47 129.725 90.546C129.471 90.0526 128.734 90.4843 128.982 90.9777Z" fill="#6F595D"/>
<path d="M146.718 96.2128C148.233 97.3503 149.17 99.1525 150.23 100.687C151.4 102.373 152.621 104.027 153.893 105.648C154.237 106.08 154.843 105.47 154.506 105.039C153.17 103.339 151.882 101.612 150.664 99.8034C149.61 98.2685 148.667 96.6034 147.152 95.4728C146.705 95.137 146.278 95.8839 146.718 96.2128Z" fill="#6F595D"/>
<path d="M150.974 104.079L151.476 104.84C151.524 104.92 151.597 104.983 151.684 105.019C151.771 105.055 151.867 105.062 151.958 105.038H152.034H152.447C152.344 105.038 152.447 105.038 152.495 105.038L152.716 105.093L152.819 105.128C152.922 105.169 152.853 105.128 152.819 105.128C152.898 105.157 152.974 105.194 153.046 105.237L153.225 105.354C153.265 105.382 153.302 105.414 153.335 105.45C153.416 105.528 153.525 105.572 153.638 105.572C153.751 105.572 153.86 105.528 153.941 105.45C154.021 105.368 154.065 105.258 154.065 105.145C154.065 105.031 154.021 104.922 153.941 104.84C153.647 104.554 153.289 104.342 152.896 104.223C152.503 104.103 152.087 104.08 151.683 104.155L152.172 104.346L151.697 103.558C151.632 103.475 151.54 103.417 151.436 103.397C151.332 103.376 151.225 103.394 151.133 103.447C151.042 103.501 150.973 103.585 150.94 103.685C150.907 103.785 150.911 103.893 150.953 103.99L150.974 104.079Z" fill="#6F595D"/>
<path d="M142.256 110.959C142.581 110.91 142.913 110.926 143.232 111.004C143.551 111.083 143.851 111.224 144.115 111.418C144.515 111.706 144.983 111.082 144.639 110.733L143.461 109.637C143.07 109.287 142.711 108.904 142.387 108.492C141.872 107.657 141.542 106.723 141.416 105.751C141.313 105.21 140.48 105.443 140.59 105.977C140.733 107.017 141.092 108.016 141.644 108.91C141.974 109.346 142.346 109.749 142.752 110.116L144.026 111.35L144.549 110.664C143.813 110.156 142.904 109.958 142.022 110.116C141.913 110.148 141.821 110.221 141.766 110.32C141.711 110.419 141.696 110.535 141.726 110.644C141.76 110.752 141.833 110.843 141.932 110.899C142.03 110.955 142.146 110.971 142.256 110.945V110.959Z" fill="#6F595D"/>
<path d="M142.904 107.848C142.447 107.337 142.095 106.741 141.87 106.094C141.644 105.447 141.549 104.763 141.589 104.079C141.623 103.524 140.763 103.531 140.728 104.079C140.688 104.876 140.806 105.673 141.075 106.424C141.345 107.175 141.76 107.866 142.298 108.458C142.67 108.862 143.276 108.259 142.904 107.848Z" fill="#6F595D"/>
<path d="M141.051 103.867C141.154 105.998 141.526 108.252 143.323 109.629C143.422 109.687 143.54 109.704 143.651 109.676C143.761 109.647 143.857 109.577 143.915 109.479C143.97 109.38 143.985 109.264 143.956 109.154C143.928 109.045 143.86 108.95 143.764 108.889C142.242 107.725 141.994 105.635 141.912 103.867C141.912 103.319 141.03 103.319 141.051 103.867Z" fill="#6F595D"/>
</g>
<defs>
<clipPath id="clip0_1383_4248">
<rect width="168" height="127" fill="white"/>
</clipPath>
</defs>
</svg>
