<svg width="446" height="514" viewBox="0 0 446 514" fill="none" xmlns="http://www.w3.org/2000/svg">
<path fill-rule="evenodd" clip-rule="evenodd" d="M235.544 27.3802C282.753 16.2964 331.738 26.0831 367.237 47.2796C404.691 69.643 439.762 103.697 424.358 140.121C410.015 174.034 344.22 172.979 304.739 195.058C261.882 219.024 241.721 272.331 190.683 270.795C137.47 269.194 107.561 226.591 98.3582 188.847C90.5854 156.968 123.745 127.954 148.695 98.589C172.701 70.3341 192.893 37.3937 235.544 27.3802Z" fill="#ECD8A3" fill-opacity="0.5"/>
<path fill-rule="evenodd" clip-rule="evenodd" d="M379.968 339.136C384.485 289.853 355.722 243.02 312.715 211.934C267.34 179.137 204.245 151.077 151.218 173.795C101.846 194.946 121.481 260.294 97.5742 304.102C71.6243 351.654 -6.63354 382.526 9.72549 433.073C26.7817 485.773 101.899 506.959 163.725 508.495C215.943 509.793 252.474 470.882 291.801 440.081C329.641 410.445 375.886 383.661 379.968 339.136Z" fill="white" fill-opacity="0.6"/>
</svg>
