<svg width="140" height="3" viewBox="0 0 140 3" fill="none" xmlns="http://www.w3.org/2000/svg">
<path d="M137.654 0.966502C137.787 0.948683 137.935 0.84492 138.132 0.899424C138.273 0.938556 138.414 1.00109 138.557 1.00616C138.679 1.01052 138.82 0.900819 138.926 0.924577C139.179 0.981178 139.151 0.701672 139.282 0.721936C139.444 0.746568 139.58 0.87042 139.74 0.925099C139.81 0.949382 139.912 0.909029 140 0.898198C139.969 0.816441 139.961 0.720186 139.901 0.657471C139.855 0.608207 139.749 0.585141 139.665 0.576756C139.263 0.536227 138.839 0.638079 138.46 0.435958C138.413 0.410977 138.307 0.416915 138.262 0.445565C137.901 0.673191 137.572 0.513694 137.264 0.373764C137.129 0.312621 137.031 0.228948 136.923 0.360318C136.776 0.540428 136.567 0.531171 136.364 0.50584C136.05 0.466708 135.738 0.410979 135.432 0.342149C135.369 0.327999 135.334 0.225277 135.286 0.163435C135.249 0.559293 134.724 0.202912 134.606 0.47526C134.308 0.413768 133.996 0.379359 133.713 0.283453C133.4 0.176889 133.2 0.169204 132.88 0.35665C132.66 0.485924 132.634 0.486447 132.579 0.224756C132.551 0.0895422 132.485 0.0626378 132.356 0.0769627C132.183 0.096179 132.009 0.202393 131.841 0.0656073C131.802 0.104389 131.764 0.143171 131.766 0.237156C131.779 0.273318 131.752 0.254101 131.725 0.234885C131.746 0.21759 131.768 0.200473 131.789 0.183353C131.81 0.207111 131.834 0.229818 131.85 0.255847C131.852 0.260215 131.822 0.278908 131.766 0.237156C131.374 0.175139 131.022 0.168329 130.67 0.161516C130.576 0.159769 130.424 0.126223 130.397 0.160813C130.121 0.519984 129.902 0.314724 129.623 0.155577C129.53 0.101946 129.208 0.00777745 129.157 0.319257C129.143 0.403634 128.985 0.392287 128.9 0.281181C128.746 0.0813313 128.706 0.0834255 128.543 0.24624C128.26 0.527323 128.106 0.563657 127.976 0.317338C127.807 -0.00252724 127.589 0.0654309 127.345 0.173042C127.211 0.232264 127.135 0.216543 127.052 0.131118C126.948 0.024554 126.855 -0.0848024 126.702 0.0982771C126.55 0.280658 126.285 0.22825 126.125 0.175143C125.926 0.108759 125.757 0.123083 125.604 0.187021C125.299 0.315421 124.985 0.285026 124.67 0.280659C124.294 0.275418 123.917 0.27768 123.543 0.256018C123.161 0.234006 122.786 0.257244 122.397 0.141247C122.103 0.0535505 121.731 0.232265 121.381 0.218465C121.029 0.204489 120.676 0.188413 120.325 0.201341C120.078 0.21025 119.838 0.150509 119.575 0.236634C119.402 0.293409 119.154 0.0801034 118.934 0.278207C118.903 0.306332 118.707 0.172175 118.585 0.170078C118.421 0.167109 118.192 0.288511 118.103 0.23191C117.946 0.131636 117.797 0.169029 117.646 0.142825C117.462 0.111031 117.332 0.178807 117.226 0.292707C117.166 0.35717 117.236 0.507402 117.048 0.487138C116.915 0.472813 116.721 0.492732 116.66 0.427396C116.462 0.214269 116.127 0.337781 115.905 0.166581C115.807 0.0912879 115.569 0.133561 115.396 0.142121C115.266 0.148585 115.14 0.194703 115.01 0.209028C114.744 0.238202 114.517 0.0427256 114.2 0.176017C113.977 0.269653 113.647 0.195051 113.366 0.174962C113.169 0.160811 112.965 0.222481 112.773 0.0766108C112.686 0.0105765 112.432 0.0154729 112.32 0.0750434C112.089 0.197504 111.9 0.192611 111.688 0.0732949C111.664 0.0596688 111.607 0.054074 111.593 0.0666521C111.219 0.398571 110.659 0.120115 110.258 0.355254C110.099 0.448366 110.038 0.253756 109.855 0.280659C109.348 0.354729 108.84 0.482947 108.317 0.432461C108.03 0.404859 107.749 0.318564 107.462 0.308083C107.186 0.298125 106.936 0.23873 106.677 0.171123C106.491 0.122384 106.322 -0.0334473 106.078 0.141247C105.979 0.212173 105.72 0.146838 105.544 0.109803C105.472 0.0946047 105.444 0.0158148 105.339 0.0935535C105.077 0.287115 104.748 0.233489 104.432 0.244843C103.887 0.264584 103.328 0.114347 102.797 0.327648C102.525 0.234536 102.271 0.226322 102.042 0.417437C102.028 0.428792 101.901 0.310357 101.834 0.315248C101.522 0.337434 101.185 0.195925 100.902 0.409227C100.641 0.220383 100.292 0.329397 100.005 0.220213C99.7254 0.114174 99.4631 0.0895433 99.1851 0.278388C98.8893 0.479111 98.5275 0.359963 98.1958 0.317338C98.0485 0.298471 97.9099 0.232436 97.7673 0.187714C97.3142 0.0453382 97.3171 0.0479586 96.8911 0.381974C96.8412 0.421105 96.6762 0.436835 96.666 0.41989C96.3146 -0.160794 95.7443 0.170777 95.2722 0.20921C95.1464 0.219517 94.9835 0.276464 94.8291 0.295331C94.7609 0.303716 94.6763 0.353497 94.6448 0.404333C94.5986 0.478578 94.6992 0.627073 94.5244 0.633886C94.3727 0.639825 94.1769 0.633192 94.0722 0.559995C93.6973 0.29708 93.3428 0.29603 92.9599 0.531867C92.8932 0.573095 92.792 0.609603 92.7164 0.599297C92.5225 0.572568 92.3354 0.511605 92.1426 0.47719C91.9705 0.446618 91.7989 0.733642 91.6133 0.480335C91.5983 0.459721 91.468 0.465656 91.4329 0.494655C91.3096 0.596851 91.2242 0.598076 91.0835 0.498675C90.8121 0.306686 90.5451 0.306332 90.16 0.305982C89.853 0.305633 89.5072 0.419714 89.2256 0.196105C89.1863 0.16501 89.0805 0.159945 89.0261 0.180559C88.4679 0.393512 87.8864 0.225101 87.3184 0.264057C87.0987 0.279081 86.8907 0.234006 86.654 0.345636C86.4954 0.42023 86.1721 0.315773 85.9615 0.226504C85.7138 0.121338 85.5681 0.493431 85.337 0.283623C84.8345 0.261786 84.3156 0.165876 83.8347 0.240994C83.439 0.302836 83.0585 0.330445 82.6994 0.239779C82.5483 0.201521 82.5117 0.287994 82.4421 0.27891C81.7239 0.184401 81.0223 0.453251 80.3142 0.353676C79.9464 0.301966 79.602 0.277686 79.229 0.327648C79.0049 0.357696 78.7185 0.421287 78.5053 0.22563C78.48 0.202221 78.3524 0.26878 78.2703 0.27472C78.1441 0.284153 77.9891 0.315763 77.8947 0.26877C77.7152 0.179676 77.5816 0.158373 77.402 0.267906C77.3236 0.315773 77.1817 0.28607 77.0703 0.300395C76.8502 0.32887 76.6362 0.244841 76.3966 0.361886C76.2575 0.429667 75.9882 0.278908 75.7783 0.280829C75.3965 0.284323 74.9981 0.165711 74.6348 0.36888C74.4725 0.459721 74.3659 0.213752 74.1647 0.313851C74.0423 0.374645 73.8543 0.339703 73.6961 0.352631C73.5197 0.366956 73.327 0.284501 73.1689 0.425829C73.1356 0.455527 73.0109 0.464961 72.9874 0.441726C72.753 0.208684 72.3606 0.440329 72.1252 0.227901C71.9074 0.45675 71.5227 0.167458 71.2937 0.412554C71.2717 0.436137 71.0688 0.308611 70.9466 0.30337C70.4073 0.28066 69.8668 0.270695 69.3269 0.272268C69.2294 0.272617 69.1141 0.33324 69.0388 0.394033C68.8663 0.533264 68.8387 0.486097 68.8231 0.31577C68.8206 0.287645 68.6238 0.256373 68.5157 0.253054C67.9525 0.236458 67.3889 0.219686 66.8253 0.221258C66.5674 0.221957 66.2742 0.3404 66.061 0.269474C65.7823 0.176886 65.5187 0.216722 65.2513 0.189644C65.0657 0.170777 64.7968 0.112252 64.7043 0.189292C64.4977 0.361715 64.3923 0.115041 64.2408 0.165877C64.2207 0.17269 64.1856 0.157325 64.1723 0.166933C64.0696 0.241527 63.9536 0.393334 63.8742 0.380406C63.7373 0.358046 63.6307 0.173743 63.4995 0.163435C63.033 0.126575 62.5614 0.136013 62.092 0.124134C61.9076 0.119417 61.9434 0.22877 61.9276 0.321357C61.9188 0.372718 61.9706 0.50252 61.8122 0.430371C61.7522 0.402944 61.6938 0.321182 61.6954 0.265454C61.6969 0.21654 61.87 0.162734 61.6909 0.11941C61.407 0.05093 61.1287 0.19453 60.8349 0.147538C60.7702 0.137231 60.6592 0.270352 60.5476 0.171475C60.4575 0.091465 60.3866 0.0738187 60.2523 0.129721C60.1193 0.184924 59.9489 0.197674 59.7968 0.192608C59.6781 0.18859 59.5031 0.0704961 59.4555 0.104387C59.2868 0.2251 59.1754 0.210602 59.0553 0.072943C58.9576 0.165706 58.8377 0.188768 58.6912 0.181082C58.5582 0.174094 58.404 0.16902 58.2917 0.216887C57.9763 0.351925 57.6568 0.255851 57.3414 0.257073C57.1645 0.257772 56.7225 0.277159 56.5492 0.327296C56.5105 0.338477 56.4531 0.290791 56.4022 0.286598C56.1986 0.269827 55.9544 0.194877 55.7993 0.262309C55.5847 0.35577 55.4435 0.406956 55.2519 0.254099C55.2174 0.226497 55.0977 0.276807 55.0167 0.286939C54.9369 0.296897 54.7916 0.321007 54.785 0.30546C54.6041 -0.116601 54.3011 0.144214 54.0351 0.204134C53.9094 0.232435 53.7799 0.355423 53.659 0.19715C53.3483 0.246414 53.0316 0.100719 52.708 0.262661C52.5885 0.322406 52.3445 0.1996 52.155 0.170601C52.093 0.161167 52.024 0.185093 51.9582 0.193653C51.9997 0.250254 52.0425 0.30633 52.0824 0.363805C52.1165 0.413069 52.2695 0.459716 52.108 0.518763C52.0055 0.555973 51.8842 0.573091 51.773 0.568898C51.7246 0.566976 51.6753 0.49151 51.6356 0.444168C51.5905 0.390537 51.5675 0.29149 51.5147 0.280659C51.2875 0.233317 51.0404 0.157843 50.8245 0.194005C50.5936 0.232787 50.433 0.066309 50.2141 0.12553C50.0699 0.164487 49.9142 0.0977447 49.7555 0.20326C49.6536 0.270867 49.4452 0.231562 49.285 0.229116C48.5804 0.217936 47.8761 0.199946 47.1718 0.191211C47.0313 0.189464 46.8144 0.111901 46.8329 0.359967C46.8335 0.366256 46.6263 0.408353 46.6109 0.386516C46.433 0.134083 46.1466 0.166933 45.8679 0.162391C44.9756 0.147716 44.0836 0.12291 43.1912 0.115049C42.9728 0.113127 42.7406 0.0364287 42.5307 0.20728C42.4605 0.264405 42.2076 0.257595 42.1305 0.19715C41.8672 -0.0095129 41.6812 0.074167 41.4887 0.255325L40.7593 0.220213C40.3738 0.0979273 40.3395 0.105784 39.9359 0.221781C39.7908 0.263533 39.5612 0.321184 39.4843 0.263535C39.265 0.0994971 39.1372 0.149459 38.9689 0.301792C38.8658 0.395079 38.7779 0.502867 38.5719 0.504614C38.3363 0.50671 38.4265 0.291831 38.3421 0.286939C38.1179 0.274186 37.8714 0.0259542 37.6536 0.310706C37.6303 0.340928 37.48 0.340405 37.4239 0.309309C36.8131 -0.0280254 36.1882 0.169719 35.5635 0.258289C35.3638 0.286589 35.1487 0.332192 34.9583 0.298476C34.0408 0.13636 34.0393 0.118186 33.1424 0.360137C32.9493 0.412196 32.7168 0.287115 32.5605 0.464779C32.554 0.471941 32.4811 0.456567 32.4676 0.437525C32.3468 0.267373 32.0904 0.301099 31.9518 0.206939C31.7419 0.0645628 31.6382 0.337084 31.4786 0.237508C31.4719 0.400847 31.2967 0.37901 31.2273 0.34442C30.8873 0.174443 30.5153 0.244139 30.1574 0.208676C29.6148 0.154871 29.0587 0.291132 28.5213 0.0731137C28.2866 -0.0220947 28.0275 0.246415 27.7363 0.167978C27.5817 0.126226 27.445 0.193832 27.2982 0.250782C27.2149 0.283276 27.0632 0.162563 26.9381 0.153829C26.6342 0.132865 26.3281 0.137057 26.0228 0.131118C25.9524 0.12972 25.8809 0.134257 25.8117 0.125872C25.6355 0.104559 25.6311 0.46042 25.3341 0.252883C25.2065 0.163615 24.9257 0.218636 24.7154 0.226323C24.333 0.240298 23.96 0.210428 23.5651 0.294456C23.2204 0.367653 22.8064 0.34581 22.4128 0.229639C22.1871 0.162906 21.8764 0.296904 21.6047 0.34442C21.5638 0.351583 21.5079 0.403636 21.4931 0.394726C20.9965 0.0959992 20.4875 0.393333 19.9866 0.369051C19.9397 0.36678 19.8898 0.375514 19.8464 0.364509C19.7019 0.328172 19.5538 0.24275 19.4187 0.256551C19.279 0.270876 19.1616 0.405561 19.0184 0.438229C18.9049 0.464084 18.7615 0.430191 18.6418 0.396475C18.3037 0.300917 18.0921 0.291135 17.6595 0.319087C17.3797 0.33708 17.095 0.296026 16.8149 0.311399C16.5036 0.328519 16.1692 0.196805 15.8786 0.402595C15.8524 0.421113 15.74 0.387744 15.7007 0.352631C15.5665 0.232616 15.4642 0.276985 15.3555 0.375512C15.2666 0.456046 15.1874 0.56279 15.048 0.403469C15.0131 0.363639 14.8462 0.356999 14.7824 0.391239C14.3532 0.621661 13.9625 0.498847 13.5853 0.308605C13.4745 0.252703 13.4546 0.243093 13.4251 0.355072C13.369 0.569073 13.1753 0.5951 12.95 0.588986C12.2457 0.569944 11.5412 0.551604 10.8367 0.550206C10.5948 0.549682 10.3252 0.447659 10.1107 0.641744C10.0887 0.661659 9.9979 0.663407 9.9794 0.644889C9.66954 0.336729 9.32892 0.584624 9.04213 0.649261C8.82017 0.699224 8.60445 0.762289 8.3879 0.728398C8.05518 0.676514 7.75613 0.781149 7.45915 0.847882C7.23761 0.89767 7.10211 0.65782 6.85252 0.803515C6.71182 0.885621 6.44394 0.814697 6.23342 0.811203C5.95161 0.806661 5.66959 0.805433 5.3882 0.793205C5.1808 0.78412 4.979 0.788143 4.81025 0.903092C4.63568 1.02171 4.43555 1.01838 4.23022 1.00982C4.08953 1.00406 3.94779 1.00983 3.80772 0.999876C3.23372 0.959347 2.6487 0.953928 2.10961 1.10644C1.88287 1.17055 1.75922 1.03952 1.58382 1.07446C1.41237 1.10852 1.27084 1.29824 1.04909 1.07848C0.952456 0.982747 0.446202 1.31362 0.434979 1.52744C0.420016 1.81517 0.292206 2.0358 0.0569513 2.22849C-0.0567273 2.32143 0.0172573 2.34047 0.126156 2.35235C0.279528 2.36894 0.43311 2.32702 0.580871 2.44127C0.737984 2.56286 0.940818 2.6544 1.14178 2.72043C1.32342 2.78 1.53893 2.68392 1.72597 2.83853C1.85087 2.94194 1.96143 2.77529 2.05931 2.70366C2.22827 2.58015 2.33987 2.55954 2.37001 2.79136C2.37416 2.82246 2.50675 2.87609 2.51694 2.86735C2.72538 2.68881 2.90847 2.91539 3.11131 2.89006C3.31747 2.86438 3.54192 2.92517 3.74163 2.88656C3.95112 2.84604 4.1234 2.76341 4.33912 2.89915C4.44656 2.96675 4.60991 2.90386 4.69657 2.78979C4.80734 2.64392 5.03075 2.63256 5.12863 2.6958C5.50396 2.93845 5.88261 2.73284 6.21139 2.67746C6.48072 2.63204 6.79121 2.5412 6.99571 2.62627C7.22036 2.71956 7.36168 2.62365 7.5244 2.60461C7.8218 2.57002 8.09197 2.40423 8.40765 2.61858C8.50574 2.68532 8.76219 2.69335 8.91577 2.54015C8.98061 2.47533 9.15726 2.39655 9.19176 2.41979C9.3204 2.50661 9.41454 2.63134 9.51451 2.74611C9.54111 2.77686 9.73771 3.00833 9.74269 2.99977C9.77699 2.94125 9.81626 2.88237 9.8331 2.81966C9.8863 2.62068 10.0206 2.50975 10.2683 2.55133C10.8246 2.64462 11.3541 2.4528 11.9043 2.44983C12.1969 2.44826 12.4537 2.28894 12.7867 2.46241C13.0138 2.58068 13.3636 2.526 13.6551 2.56548C13.8179 2.58749 14.0217 2.37052 14.1439 2.62243C14.2589 2.5688 14.3819 2.52443 14.4873 2.45996C14.8844 2.21714 15.2969 2.06848 15.7905 2.2533C15.8277 2.26728 15.8892 2.23531 15.9391 2.2243C16.6713 2.06219 16.6898 2.02794 17.2661 2.24666C17.509 2.33873 17.4423 2.25313 17.4841 2.15146C17.4965 2.12106 17.648 2.09311 17.6568 2.10499C17.8319 2.3424 18.0096 2.17172 18.1803 2.11005C18.3812 2.03756 18.5381 1.93728 18.791 2.08786C19.0352 2.23304 19.2907 2.13608 19.4133 1.87369C19.4461 1.80346 19.5272 1.75874 19.6101 1.85831C19.7038 1.97064 19.7878 2.04804 19.9727 1.91946C20.0509 1.86513 20.2986 1.87754 20.367 1.93938C20.5336 2.09014 20.5821 1.95073 20.6801 1.8978C20.7523 1.85884 20.8809 1.79473 20.9115 1.81586C21.2639 2.06026 21.6758 1.90497 22.0549 1.9434C22.4263 1.98096 22.8477 2.05642 23.1715 1.95108C23.6846 1.78407 24.2221 2.00751 24.7059 1.79525C24.7269 1.786 24.7803 1.80451 24.8017 1.82355C25.1467 2.13084 25.5529 1.83019 25.9237 1.8999C25.9858 1.9116 26.0706 1.82688 26.149 1.79333C26.2456 1.75193 26.3462 1.68817 26.446 1.68694C26.6041 1.6852 26.7941 1.78477 26.9146 1.73848C27.1222 1.65847 27.2517 1.67541 27.4084 1.79822C27.441 1.82372 27.5626 1.75507 27.6436 1.7535C27.9115 1.74826 28.1998 1.70459 28.4408 1.77307C28.5977 1.81761 28.764 1.79595 28.8941 1.85343C29.0907 1.94025 29.4062 1.47311 29.4964 1.95055C29.5298 1.9406 29.578 1.93937 29.5945 1.91963C29.7152 1.77411 29.8241 1.80224 30.0213 1.85185C30.3035 1.9226 30.6261 1.88242 30.9314 1.88452C30.996 1.88504 31.0775 1.8805 31.1215 1.84906C31.1941 1.79717 31.1124 1.64187 31.3021 1.65584C31.623 1.67943 31.953 1.6665 32.2631 1.72729C32.6937 1.81184 33.1081 1.84452 33.5595 1.7556C33.5988 1.74791 33.6811 1.76573 33.6856 1.78285C33.7091 1.86915 33.6817 2.02078 33.8523 1.86129C33.9714 1.75001 34.0464 1.75525 34.2214 1.81534C34.4055 1.87858 34.636 1.89553 34.8752 1.86426C35.1132 1.83317 35.4 1.92855 35.6281 2.02847C35.779 2.09451 35.8655 2.12909 35.9748 2.01467C36.0858 1.89867 36.2213 1.85937 36.3998 1.87108C36.6068 1.88453 36.8747 1.93745 37.0118 1.85325C37.25 1.70685 37.363 2.04437 37.5507 1.8971C37.7901 2.03127 38.0056 1.75385 38.2914 1.89378C38.5019 1.99685 38.8084 1.90496 39.0749 1.82006C39.2582 1.76171 39.499 1.84539 39.7015 1.81185C39.8854 1.78145 40.041 1.75875 40.2235 1.82513C40.4037 1.89082 40.5805 1.72712 40.7279 1.73656C41.1304 1.76259 41.5563 1.61707 41.9445 1.85343C42.0542 1.92016 42.3223 1.92924 42.4185 1.86285C42.7691 1.62143 43.0659 1.85675 43.3562 1.92261C43.5451 1.96541 43.6652 2.12175 43.7041 1.83595C43.7538 1.84154 43.8043 1.84417 43.8529 1.85308C44.1858 1.91422 44.5071 1.95335 44.8531 1.855C45.05 1.79909 45.3313 1.79141 45.5026 1.87142C45.7759 1.99877 45.9199 1.91684 46.0999 1.77464C46.1497 1.73516 46.2564 1.74652 46.3368 1.73464C46.3316 1.80207 46.3349 1.8709 46.3177 1.93588C46.3087 1.96872 46.2493 1.99091 46.2364 2.02427C46.2233 2.05782 46.2397 2.09922 46.2431 2.13731C46.2931 2.1284 46.3449 2.12333 46.3931 2.1097C46.7429 2.01082 47.0577 1.84889 47.4759 1.95807C47.7778 2.03703 48.1295 2.00209 48.4566 1.98497C48.6476 1.97501 48.8396 1.9123 49.021 1.85168C49.3801 1.73167 49.5618 1.70615 49.85 1.7832C49.9737 1.81621 50.1441 1.93064 50.2031 1.89675C50.61 1.66336 51.1219 1.94637 51.5082 1.69324C51.6275 1.61497 51.6813 1.6092 51.8254 1.69043C52.0215 1.80101 52.2674 1.84889 52.5301 1.84155C52.8892 1.83142 53.255 1.80486 53.5981 1.96943C53.9896 2.15705 54.4181 2.01851 54.7956 1.94217C55.0296 1.89483 55.2451 1.90794 55.4666 1.89658C55.6368 1.88802 55.816 1.72834 55.9837 1.90182C56.4334 1.855 56.8777 1.97956 57.347 1.83107C57.6733 1.72783 58.0889 1.8239 58.4646 1.83264C58.5087 1.83369 58.5796 1.83386 58.592 1.8543C58.8926 2.34554 59.3398 1.86426 59.6952 1.97449C59.9211 1.74704 60.1362 1.90129 60.3533 1.98741C60.5009 2.04594 60.6372 2.21959 60.811 2.01397C60.8282 1.99336 60.9068 1.98672 60.9394 2.00139C61.3116 2.16875 61.6073 2.04489 61.9802 1.93117C62.3578 1.81605 62.843 1.94549 63.2803 1.97641C63.3873 1.9841 63.5239 2.07407 63.5906 2.04262C63.9445 1.87492 64.2685 2.0842 64.6066 2.07355C64.8572 2.06568 65.1021 2.05572 65.2935 2.26989C65.3749 2.36091 65.6378 2.45525 65.6865 2.17592C65.6894 2.1588 65.7033 2.13049 65.716 2.1291C66.0651 2.087 66.4147 2.04769 66.7642 2.00803C66.8906 2.21994 67.0841 1.87544 67.2709 2.06044C67.3677 2.15635 67.6576 2.12054 67.8613 2.13224C68.072 2.14447 68.2869 2.16316 68.4943 2.14097C68.7313 2.11564 68.9621 2.04926 69.1951 1.9986C69.277 1.98078 69.4092 1.91998 69.4299 1.94095C69.7558 2.26902 70.1721 1.99231 70.5316 2.0669C70.7137 2.10464 70.7739 2.02305 70.7918 1.88365C70.7945 1.86356 70.9111 1.85692 70.9724 1.83858C71.1526 1.78425 70.9171 2.20002 71.2187 1.99406C71.4228 1.85465 71.4712 2.10936 71.637 2.09399C71.9548 2.06446 72.2759 2.06009 72.5959 2.05292C72.6614 2.05153 72.7289 2.09974 72.7935 2.0966C72.922 2.09066 73.102 2.10306 73.1668 2.03982C73.3385 1.87229 73.4405 1.89868 73.5816 2.05625C73.6209 2.1001 73.7745 2.13399 73.8081 2.10866C74.0056 1.96069 74.1621 1.97938 74.3535 2.12385C74.4121 2.16805 74.661 2.13206 74.6635 2.11599C74.7045 1.8391 74.9861 1.98148 75.1243 1.90846C75.3826 1.77237 75.5993 1.84346 75.7777 1.95335C75.9396 2.05327 76.0385 2.0994 76.1756 1.95755C76.3109 2.08665 76.4949 2.06463 76.6698 2.06882C76.8342 2.07266 77.0015 2.09188 77.1618 2.07144C77.2386 2.06166 77.2975 1.97047 77.3733 1.92715C77.413 1.90444 77.4716 1.90497 77.5219 1.89518C77.4955 2.10656 77.6701 2.1083 77.8328 2.08804C77.982 2.06934 78.1258 2.01956 78.2713 1.98147C78.3752 1.95422 78.4276 1.90461 78.5916 1.95859C78.9979 2.09276 79.4384 1.96419 79.8609 1.89431C79.9744 1.55156 80.176 1.76748 80.3526 1.84068C80.4501 1.88103 80.5426 1.93046 80.6403 1.97064C80.8003 2.03668 81.0522 2.05362 81.3392 2.04384C81.5499 2.03668 81.8485 1.97833 81.9545 2.06934C82.1605 2.24613 82.2644 2.02078 82.4228 2.05275C82.5335 2.07511 82.6713 1.97851 82.7973 1.97799C83.0178 1.97711 83.2524 1.97624 83.4556 2.03633C83.6734 2.10097 83.8393 2.24404 84.0633 2.02008C84.134 1.94933 84.3719 1.9703 84.5259 1.99039C84.8408 2.03127 85.1456 2.03371 85.4678 2.01991C86.1222 1.99179 86.764 1.94828 87.4024 1.81359C87.6441 1.76258 87.9469 1.75402 88.168 1.83281C88.5701 1.97623 88.929 2.00175 89.3305 1.85064C89.466 1.79962 89.7096 1.7935 89.8081 1.86285C90.0338 2.02183 90.2094 1.9123 90.4071 1.86339C90.5698 1.82303 91.1484 1.83875 91.3317 1.93169C91.5314 2.03266 91.7066 2.0152 91.9088 1.96349C92.0561 1.92575 92.2189 1.89466 92.3687 1.90794C92.5861 1.92715 92.8093 2.04611 93.0094 2.01798C93.2492 1.98444 93.4776 1.90635 93.7324 1.92557C93.966 1.94304 94.2019 1.94287 94.4365 1.94025C94.6138 1.93833 94.7906 1.9834 94.9584 1.84749C95.0303 1.78932 95.2348 1.81761 95.3659 1.84731C95.5473 1.88836 95.5874 2.24351 95.9108 2.00069C96.0575 1.89046 96.3167 2.05887 96.4906 1.88802C96.5347 1.84487 96.7026 1.884 96.8115 1.8971C96.8635 1.90339 96.9242 1.9661 96.9574 1.95474C97.1187 1.90006 97.2756 1.77184 97.4269 1.779C97.5865 1.78652 97.7303 1.92016 97.9304 1.89465C98.1987 1.86041 98.4113 1.92872 98.6046 2.11477C98.6796 2.18691 98.8575 2.29802 99.1001 2.13171C99.3403 1.96715 99.7144 1.81883 100.089 1.98602C100.129 2.00384 100.19 2.00227 100.237 1.99231C100.502 1.93448 100.73 1.96803 101.007 2.03808C101.419 2.14237 101.916 2.16893 102.325 2.07355C102.769 1.97048 103.19 1.99563 103.616 2.01135C104.184 2.03214 104.772 1.91806 105.318 2.15127C105.373 2.17468 105.49 2.17801 105.519 2.14883C105.811 1.86338 106.185 2.24439 106.483 2.05869C106.752 2.3085 106.986 2.0973 107.164 1.97903C107.396 1.82478 107.59 1.81342 107.85 1.89954C108.113 1.98707 108.391 2.05624 108.67 2.0938C108.835 2.11599 109.021 1.84871 109.186 2.11162C109.379 2.07581 109.599 2.07826 109.76 1.9972C110.216 1.76695 110.657 1.95877 111.034 2.07861C111.329 2.1726 111.433 2.09713 111.503 1.94811C111.575 1.79613 111.618 1.76381 111.784 1.84714C111.876 1.89273 112.029 1.95492 112.089 1.92313C112.438 1.73865 112.809 1.8522 113.168 1.83718C113.368 1.82879 113.554 1.85273 113.752 1.94549C113.881 2.00593 114.167 1.81709 114.31 1.87229C114.598 1.98287 114.882 1.96716 115.173 1.99528C115.61 2.03773 115.623 2.05904 115.834 1.86583C116.025 1.69114 116.176 1.62003 116.458 1.76852C116.657 1.87317 116.964 1.69812 117.185 1.87229C117.202 1.88539 117.259 1.88138 117.281 1.86723C117.808 1.5271 118.371 1.64781 118.885 1.84277C119.157 1.94601 119.344 1.84242 119.526 1.7853C119.74 1.71839 119.955 1.67699 120.098 1.78704C120.44 2.05101 120.803 1.93867 121.146 1.85919C121.32 1.81866 121.449 1.67855 121.604 1.87508C121.617 1.89168 121.727 1.85971 121.789 1.84277C122.145 1.74494 122.494 1.67943 122.793 1.95562C122.817 1.97728 122.89 1.96593 122.939 1.96226C123.118 1.94898 123.299 1.9406 123.476 1.91457C123.648 1.88924 123.854 1.77359 123.978 1.82145C124.369 1.97344 124.679 1.85378 125.015 1.71751C125.093 1.68589 125.227 1.74931 125.334 1.77289C125.369 1.78058 125.403 1.81709 125.432 1.81272C125.56 1.79298 125.553 1.55767 125.791 1.67559C125.916 1.73778 126.099 1.72293 126.257 1.73254C126.421 1.74267 126.585 1.74058 126.75 1.74372C126.914 1.74687 127.079 1.7556 127.243 1.75193C127.409 1.74809 127.567 1.75001 127.674 1.88033C127.935 1.71944 128.246 1.8108 128.527 1.76031C129.139 1.65043 129.129 1.71594 129.766 1.76992C130.452 1.82809 131.182 1.99825 131.853 1.65113C131.909 1.62178 132.012 1.64362 132.089 1.65619C132.219 1.67698 132.347 1.70616 132.473 1.73778C132.735 1.80329 132.953 1.64117 133.193 1.641C133.388 1.64083 133.577 1.84434 133.784 1.64694C133.804 1.6279 133.893 1.62947 133.919 1.64956C134.139 1.81709 134.357 1.68013 134.581 1.67C134.81 1.65952 135.016 1.62248 135.233 1.56378C135.411 1.51574 135.607 1.45547 135.824 1.5547C135.946 1.61025 136.175 1.60397 136.291 1.5409C136.509 1.42263 136.651 1.43539 136.838 1.57357C136.895 1.61567 137.06 1.58177 137.16 1.54928C137.302 1.50334 137.424 1.41529 137.564 1.36638C137.664 1.33161 137.781 1.33196 137.89 1.31676C137.8 1.27309 137.695 1.2413 137.626 1.18068C137.592 1.15028 137.624 1.0673 137.654 0.966502C137.608 0.974887 137.583 1.00529 137.56 1.00407C137.499 1.00092 137.439 0.984144 137.379 0.972963C137.387 0.947109 137.397 0.898727 137.405 0.898902C137.48 0.901173 137.556 0.911473 137.654 0.966502ZM37.469 1.11447C37.628 1.09839 37.7479 1.07743 37.8668 1.08127C37.8922 1.08215 37.9449 1.18155 37.9306 1.22173C37.8714 1.38804 37.7026 1.2862 37.5829 1.29878C37.5619 1.30087 37.5272 1.21107 37.469 1.11447ZM81.5956 0.624631C81.4826 0.62236 81.4335 0.630568 81.3932 0.61834C81.3431 0.603316 81.3003 0.571345 81.2544 0.546539C81.3034 0.507232 81.3477 0.461811 81.4028 0.429667C81.5046 0.370271 81.654 0.578335 81.7386 0.390888C81.7611 0.421284 81.7956 0.449753 81.8024 0.482596C81.8095 0.515438 81.8005 0.575883 81.7783 0.583569C81.7008 0.611171 81.6145 0.620962 81.5956 0.624631ZM36.8572 1.19168C36.8732 1.19291 36.9011 1.19046 36.9035 1.19605C36.964 1.3276 37.0228 1.45967 37.0775 1.59278C37.0806 1.6003 37.0426 1.63174 37.0316 1.62912C36.9975 1.62091 36.9665 1.60256 36.9358 1.58614C36.8023 1.51487 36.784 1.40673 36.8077 1.28864C36.8148 1.25492 36.8402 1.224 36.8572 1.19168ZM135.673 1.03918C135.688 1.02049 135.72 0.972445 135.727 0.974541C135.797 1.00005 135.877 1.02328 135.925 1.06922C135.943 1.08669 135.883 1.16094 135.859 1.20933C135.798 1.15395 135.738 1.0984 135.673 1.03918ZM29.0402 0.660094C28.9893 0.631968 28.933 0.613617 28.9344 0.599467C28.94 0.547234 28.9645 0.496573 28.9822 0.445213C29.0128 0.460761 29.0685 0.475434 29.0691 0.49168C29.0714 0.543739 29.0531 0.596156 29.0402 0.660094ZM136.762 0.942746C136.818 0.913223 136.857 0.875661 136.889 0.879155C136.949 0.885968 137.005 0.916888 137.063 0.937852C137.027 0.956893 136.99 0.992886 136.955 0.991313C136.894 0.988693 136.835 0.962836 136.762 0.942746ZM66.9806 0.527847C67.0367 0.498324 67.0757 0.460762 67.1084 0.464256C67.1684 0.471069 67.2245 0.50199 67.2823 0.522953C67.2462 0.541995 67.209 0.577806 67.174 0.576234C67.1136 0.573613 67.0547 0.547762 66.9806 0.527847ZM73.9033 0.924225C73.9368 0.881425 73.9586 0.834088 73.9754 0.835311C74.0376 0.840027 74.0978 0.860642 74.1589 0.875316C74.1404 0.900996 74.123 0.947815 74.1037 0.948514C74.0419 0.950436 73.9796 0.935056 73.9033 0.924225ZM46.5405 1.49531C46.5047 1.53863 46.4804 1.56815 46.4559 1.5975C46.4338 1.54806 46.3996 1.49932 46.3944 1.44866C46.3917 1.42106 46.4382 1.38996 46.4625 1.36061C46.49 1.40795 46.5174 1.45513 46.5405 1.49531ZM34.6121 0.874964C34.5938 0.858718 34.5784 0.845265 34.5633 0.831813C34.5949 0.819235 34.6256 0.802121 34.6589 0.796531C34.6705 0.79461 34.6888 0.820985 34.7042 0.834436C34.673 0.848237 34.642 0.861862 34.6121 0.874964ZM36.4081 0.393852C36.4241 0.380924 36.4438 0.35525 36.4555 0.357695C36.4885 0.364508 36.518 0.382855 36.549 0.396656C36.533 0.409583 36.5133 0.435258 36.5016 0.432812C36.4688 0.425825 36.4391 0.407653 36.4081 0.393852ZM117.455 0.572043C117.435 0.587416 117.419 0.600348 117.403 0.613275C117.388 0.586547 117.368 0.560863 117.362 0.532912C117.359 0.523129 117.391 0.507753 117.407 0.494826C117.423 0.52068 117.439 0.546887 117.455 0.572043ZM79.5881 1.65217C79.5729 1.63872 79.5424 1.62213 79.5451 1.61235C79.5532 1.58457 79.575 1.55976 79.5914 1.53374C79.6068 1.54719 79.6371 1.56379 79.6344 1.57357C79.6263 1.60117 79.6045 1.62614 79.5881 1.65217ZM78.454 1.13892C78.4357 1.12285 78.4203 1.10923 78.4049 1.09577C78.4365 1.0832 78.4673 1.06608 78.5005 1.06049C78.5122 1.05857 78.5305 1.08495 78.5458 1.0984C78.5151 1.11202 78.4839 1.12565 78.454 1.13892ZM77.8837 1.36481C77.8654 1.34856 77.8501 1.33511 77.8347 1.32166C77.8663 1.30908 77.897 1.29196 77.9303 1.28637C77.9419 1.28444 77.9602 1.31083 77.9756 1.32428C77.9448 1.33791 77.9137 1.35153 77.8837 1.36481ZM72.4866 0.980129C72.5026 0.967201 72.5223 0.941526 72.534 0.943972C72.567 0.950785 72.5965 0.969121 72.6275 0.982922C72.6115 0.995849 72.5917 1.02153 72.5801 1.01909C72.5471 1.0121 72.5176 0.993929 72.4866 0.980129ZM72.0462 0.87007C72.0269 0.885618 72.0109 0.898375 71.9949 0.911302C71.9799 0.884749 71.9596 0.85889 71.9529 0.830939C71.9506 0.821156 71.982 0.805605 71.998 0.792853C72.0144 0.818882 72.0306 0.844914 72.0462 0.87007ZM68.6851 0.787266C68.7011 0.774338 68.7209 0.748663 68.7325 0.751109C68.7655 0.757922 68.7951 0.776258 68.826 0.790059C68.81 0.802986 68.7903 0.828672 68.7786 0.826226C68.7456 0.819413 68.7159 0.801066 68.6851 0.787266ZM68.4272 0.646638C68.4465 0.63109 68.4625 0.618334 68.4785 0.605406C68.4935 0.632134 68.5137 0.657818 68.5205 0.685769C68.5228 0.695552 68.4914 0.710928 68.4754 0.723856C68.459 0.697826 68.4428 0.671794 68.4272 0.646638ZM66.981 1.22802C66.997 1.21509 67.0167 1.18959 67.0284 1.19186C67.0614 1.19868 67.0909 1.21701 67.1219 1.23081C67.1059 1.24357 67.0861 1.26925 67.0745 1.26698C67.0415 1.26017 67.0117 1.24182 66.981 1.22802ZM64.1286 1.66353C64.1095 1.6789 64.0933 1.69183 64.0773 1.70476C64.0623 1.67821 64.042 1.65235 64.0355 1.6244C64.0332 1.61462 64.0646 1.59925 64.0806 1.58632C64.0968 1.61235 64.113 1.63837 64.1286 1.66353ZM44.222 1.53671C44.1929 1.52239 44.1626 1.50753 44.1324 1.49286C44.1484 1.47993 44.1682 1.45425 44.1798 1.4567C44.2128 1.46351 44.2424 1.48185 44.2733 1.49565C44.2573 1.5084 44.2413 1.52134 44.222 1.53671ZM137.905 1.07289C137.964 1.0542 138.022 1.02555 138.082 1.02118C138.115 1.01873 138.152 1.05804 138.187 1.07848C138.131 1.10154 138.075 1.1246 138.027 1.14399C137.975 1.11377 137.94 1.09333 137.905 1.07289ZM31.4777 0.238201C31.4416 0.226496 31.4008 0.219687 31.372 0.200296C31.3634 0.194531 31.388 0.153824 31.3973 0.129017C31.4247 0.147709 31.452 0.16658 31.4794 0.185272C31.4786 0.203091 31.4781 0.220731 31.4777 0.238201Z" fill="#B99C92"/>
</svg>
