<svg width="206" height="40" viewBox="0 0 206 40" fill="none" xmlns="http://www.w3.org/2000/svg">
<path d="M124.312 33.7969L124.656 31.8906H124.312L124.156 31.0469L124.812 30.8906L125 29.6719H124.5L123.969 30.2031L124.5 29.1719L124.156 28.2969C124.823 28.4219 125.219 28.2031 125.344 27.6406L124.312 27.2969L124.156 26.6094L124.312 26.2656H125.156V25.7344L124.5 25.5781L125.156 25.0469L125.344 24.5469L125 24.2031L126.031 24.0469V23.5156L125.156 23.3594L124.656 23.5156V23.1719L125.688 22.6719L125.844 21.9844L125 21.6406V22.1406L124.656 21.6406C124.99 20.724 125.104 19.6927 125 18.5469L122.969 17.7031L121.938 18.2031V17.7031L120.906 17.3594L120.75 16.8594L119.719 16.6719V15.8281L121.094 15.4844L121.594 14.7969C122.281 14.3385 123.021 14.1094 123.812 14.1094L123.969 12.9219L123.125 12.3906L122.281 12.7344L120.562 11.7031L120.406 11.2031L119.719 11.0156L119.375 10.5156L118.344 10.1719L118.188 9.67188L117.156 9.32812L117 8.64062L118.344 8.10938C120.406 7.31771 122.479 6.64062 124.562 6.07812C126.667 5.49479 128.802 4.97396 130.969 4.51562V4.85938L130.625 5.73438H130.281V6.23438V5.54688H129.75L128.562 6.57812L127.219 6.42188C126.073 7.44271 124.823 8.11979 123.469 8.45312L122.969 8.29688V8.79688L122.625 9.14062V9.67188C124.438 10.7969 126.417 11.5365 128.562 11.8906C130.042 10.974 131.635 10.401 133.344 10.1719L133.5 11.5469H132.812L131.812 11.2031L131.625 12.2344H130.781L129.594 12.0469L129.25 13.4219C128.562 13.1927 128.167 13.3594 128.062 13.9219H128.406V14.4531H127.719L127.219 14.2656V14.6094L126.688 14.9531V15.4844L129.094 15.9844L129.938 15.8281V16.1719H130.281L130.625 15.9844V15.6406H131.469L132.5 15.8281V16.1719H133.156L134.531 15.9844V15.6406L134.188 14.9531L134.875 14.7969L135.375 15.4844L135.875 16.5156L135.031 17.8594L135.375 18.5469L136.906 18.7344C136.115 18.9635 135.667 19.4219 135.562 20.1094L136.406 19.7656V20.2656L136.219 20.6094H135.219L134.344 20.2656L134.188 20.7969L133.688 20.9531L133.156 20.4531V20.9531H132.656L131.812 20.6094L131.469 19.5781L131.281 18.7344L130.781 18.3906H130.281L129.938 18.8906L129.438 19.2344V21.2969L129.75 23.7031L131.281 24.2031L131.625 24.8906C133.104 25.349 134.469 26.0365 135.719 26.9531V27.2969L135.031 28.6406H135.375V28.9844L134.688 29.1719L134.344 28.6406H133.844L133 28.9844L132.5 28.8281L132.156 29.8594H131.125L130.281 29.1719L130.094 28.6406L129.594 28.4844L129.438 29.1719L128.219 29.5156V29.8594L128.406 30.5469L128.062 31.2344L128.219 32.0781L129.25 32.2344L129.438 32.9219L128.219 33.2656V32.5781H127.719L127.375 33.4531L126.688 33.6094L126.344 33.1094H125.844L124.312 33.7969ZM148.5 32.7656L148.156 32.0781H147.625L146.969 32.4219L145.938 31.7344L145.25 31.8906L142.688 31.2344L142.031 30.7031L141.5 31.7344H141.156L140.656 30.5469H140.156L139.969 31.0469H139.281V30.7031L139.469 30.2031H138.969L137.594 30.3594V28.6406H137.25L136.562 28.9844L136.406 28.4844H137.938L138.094 28.9844H138.625L138.781 28.4844L137.438 27.4531L138.625 26.9531V26.6094L138.281 25.5781L137.75 25.3906L137.438 26.0781L137.75 26.4219H137.094V25.5781L138.281 25.2344V24.8906L139.281 24.3594V23.7031H138.781L137.938 24.0469V23.7031L138.438 23.5156L138.625 23.0156L138.094 22.1406H138.625V21.6406L137.938 21.4531V20.9531L138.094 20.2656L137.25 20.1094V19.7656L137.594 18.8906L138.969 18.5469L139.125 18.2031L140.156 17.8594L140.656 18.0469L141.688 17.3594L142.875 17.8594C142.875 18.5469 143.208 18.8906 143.875 18.8906V18.5469L143.562 18.3906V18.0469L144.062 17.7031V18.0469H144.75L145.438 17.7031V17.2031L145.25 16.8594L145.438 16.3281L145.25 15.9844H145.938V15.4844L145.594 15.2969C145.656 14.2135 145.708 13.1302 145.75 12.0469L144.562 12.3906L143.562 12.2344V12.5781L141.844 12.7344L141.688 12.3906L142.688 12.0469V11.7031L142.031 10.8594C141.219 11.0885 140.76 10.9115 140.656 10.3281L140.812 10.0156L142.688 9.48438L143.219 11.3594H143.562L144.406 9.67188L145.25 9.48438L145.75 9.82812V10.1719H146.281V9.82812L145.938 9.32812H146.281L146.781 9.48438L147.625 9.14062L147.812 10.0156H148.156L148.5 9.48438L149.688 10.1719H150.188L150.531 9.48438L150.031 9.14062L150.531 10.5156H151.031L150.875 11.0156L151.375 11.2031L151.719 11.0156L151.875 12.2344L151.375 12.9219L150.344 13.0781V13.6094L151.031 13.9219V14.4531H151.719V14.7969H150.031V15.4844L149.344 15.9844H150.531C149.969 16.3385 149.74 16.7969 149.844 17.3594L150.344 17.7031V18.0469L150.031 18.5469L150.531 19.2344L150.031 19.0781L149.5 18.7344V19.4219L150.188 20.6094L147.469 21.6406L146.094 21.1094L144.75 21.4531L143.031 19.9219V20.2656L143.219 20.7969L142.531 21.9844C141.615 22.2135 140.875 22.5573 140.312 23.0156L140.812 23.1719L142.344 23.0156L142.875 23.1719L143.219 23.0156V23.3594H141.688V23.7031H141.344V24.5469L142.344 25.3906H141.688V25.9219H142.031L142.344 26.9531H141.844V27.2969C142.76 27.9635 143.844 28.1823 145.094 27.9531L145.25 28.4844H145.594L147.125 28.1406L147.812 28.2969L148.812 27.9531L149.5 28.2969L150.031 28.1406L150.531 28.2969L151.031 28.1406L151.219 29.3281L151.031 29.8594L150.188 30.2031L150.031 31.5469H149.688L149.156 31.3906L148.656 31.5469V32.2344H149V32.7656H148.5ZM129.25 32.5781L128.906 32.2344V32.5781H129.25ZM125.344 31.8906V31.3906H124.812V31.7344L125.344 31.8906ZM137.938 31.5469L138.094 31.0469L138.281 31.3906L137.938 31.5469ZM119.219 31.2344V30.5469C118.302 30.776 117.729 30.4844 117.5 29.6719V28.9844H118.188C117.875 27.3177 117.823 25.6719 118.031 24.0469L117.844 23.5156L119.031 23.1719L119.219 22.6719H119.562L120.219 23.0156V24.2031H120.75L120.906 23.7031H121.594C121.823 25.0573 122.104 26.3698 122.438 27.6406L122.094 28.4844L122.281 28.8281H121.594V29.8594L122.094 30.7031L121.438 30.8906L121.25 30.2031H120.75L120.562 30.7031L120.75 31.2344H120.406L119.875 30.8906L119.219 31.2344ZM144.406 31.2344L143.875 31.0469V31.3906L144.406 31.2344ZM125.688 31.2344V30.8906L125.844 30.3594H125.344V31.2344H125.688ZM118.688 30.3594L118.875 29.6719H118.031L117.844 30.2031L118.688 30.3594ZM138.438 30.2031V29.5156H138.094L137.75 30.2031H138.438ZM143.562 30.0156L143.031 29.5156V29.8594L143.562 30.0156ZM119.875 29.8594V29.5156L119.562 29.8594H119.875ZM131.969 28.8281L131.281 28.6406V28.9844L131.969 28.8281ZM133 27.6406V27.1094H132.5V27.6406H133ZM140.312 27.4531L141.344 26.6094L142.031 26.7656V26.2656L140.812 26.0781C140.479 26.5365 140.031 26.7135 139.469 26.6094V26.9531L140.312 27.4531ZM125.688 27.1094V26.7656H125.344V27.1094H125.688ZM131.125 26.9531V26.4219H130.625V26.9531H131.125ZM120.906 26.0781V25.3906H120.562L120.219 26.0781H120.906ZM119.031 25.5781L119.219 25.0469H118.875V24.2031H118.531L118.031 24.3594V24.7031L118.344 25.7344L119.031 25.5781ZM121.094 24.8906L121.25 24.3594H120.75V24.8906H121.094ZM142.344 24.5469L142.031 24.0469H142.688V24.5469H142.344ZM119.875 24.2031L120.062 23.7031H119.719L119.562 24.2031H119.875ZM140.5 24.0469L140.656 23.3594H140.156L139.969 24.0469H140.5ZM139.812 23.3594L139.125 23.0156V23.5156L139.812 23.3594ZM140.812 22.1406L141 21.2969L140.312 20.9531V21.6406L140.812 22.1406ZM133.156 20.2656L132.812 19.9219V20.2656H133.156ZM133.156 19.4219L132.656 19.2344V19.5781L133.156 19.4219ZM133.688 18.2031L133.344 17.8594V18.2031H133.688ZM125.344 18.0469V17.3594L124.656 17.0156L124.312 17.2031L125.344 18.0469ZM131.625 17.5156L131.812 16.6719H131.281V17.5156H131.625ZM134.531 17.0156L134.688 16.5156H134.344L134.031 17.2031L134.531 17.0156ZM146.625 17.0156L146.281 16.6719V17.0156H146.625ZM146.969 15.9844V15.2969H146.625L146.438 15.9844H146.969ZM132.812 15.6406L132.312 14.9531L130.781 14.4531L132.5 14.7969L132.656 13.7656L133.156 13.6094L133.344 14.1094H133.844V13.7656H134.188V14.1094L133.156 15.1406V15.4844L132.812 15.6406ZM126.188 15.4844L126.531 14.6094H126.188L125.844 15.4844H126.188ZM147.812 15.1406V14.6094H147.469V15.1406H147.812ZM149.844 13.9219V13.0781H149.344V13.9219H149.844ZM130.438 5.54688V5.20312H130.094V5.54688H130.438Z" fill="#483D3F"/>
<path d="M191.924 37.5156L190.407 37.1058L190.067 36.3887L190.748 36.5424V36.2606L190.407 34.7239H191.243V34.2885H190.748V33.8787L189.757 33.5969L189.571 33.0334L189.757 32.1882C189.406 31.7272 189.292 31.1637 189.416 30.4978L189.912 29.8063L189.571 29.1147H190.067V28.6793L189.076 28.3976H189.416V27.706H188.735V27.2706L189.416 26.9889L189.571 26.451H188.735L188.054 26.5791L187.899 26.2974H188.58V25.7339L188.394 25.3241L189.571 24.7606L189.757 24.1971H189.416L189.231 24.4789L189.076 23.5056H189.416L190.748 24.1971V23.6337L189.416 22.5067H189.757L190.593 22.6604L190.748 21.9432L189.416 21.5334V20.97L189.757 20.4065H190.252L191.429 20.8419V19.715L190.067 19.2795V18.9978L189.571 18.7161H190.067V18.4343L189.912 18.0245L190.407 17.8965L190.593 17.0513L189.757 16.6158L190.067 16.4878L190.903 16.7695L190.748 16.206H190.407L189.912 15.7706L190.593 14.7974L190.903 14.5156L191.088 15.0791L191.924 15.2072V16.0524H191.429L191.243 17.0513L191.429 17.4611H192.079L192.76 17.333L193.256 17.4611V18.1526H194.092L194.278 19.843L193.596 19.715V19.9967L194.278 20.8419L193.596 20.6882V21.2517L194.092 21.9432L194.618 22.5067H194.092L193.596 22.3787V22.6604L193.937 23.0702H194.432L195.795 22.7885L196.29 22.9421L199.303 22.3787L199.458 22.7885L199.117 23.6337L199.458 24.0435L196.971 24.6337L196.631 25.0435L195.454 25.3252L194.959 25.8876C195.516 26.451 196.898 26.0572 197.104 26.706C198.776 27.7988 200.345 28.9685 201.811 30.215H202.492L202.987 30.6248L203.669 30.9065V31.1882H204.659L205 32.8787C203.122 33.3568 201.222 33.3568 199.303 32.8787L197.622 31.5969V31.3152L199.117 31.47L197.281 30.47L196.631 30.7517L196.445 31.3152V30.7517H195.95L196.609 29.8798L194.959 32.0334L194.773 32.5969L194.618 32.8787L195.114 35.8252L194.773 36.6704L194.959 36.9522L193.782 37.2339L193.256 37.1058L191.924 37.5156ZM202.151 32.725L202.306 32.3152H201.811L201.656 32.725H202.151ZM190.903 33.4432L190.593 33.1615V33.4432H190.903ZM178.827 33.1615L177 32.3419V32.0602L177.341 31.4967L178.827 30.6515L179.013 30.3697L180.003 30.088L180.189 28.833L181.18 28.5513L181.521 27.8341H181.025V27.5524L181.366 27.4243L181.521 27.8341H182.016V26.8608L181.861 26.451H181.521L180.839 26.5791L180.344 27.1426V26.8608L180.53 26.0156L181.18 25.3241L180.344 25.0424V25.3241L179.849 25.1704V24.8887L180.003 24.6069L181.025 24.3252V23.9154L179.508 23.2239L179.353 22.6604L180.839 22.3787L181.025 22.9421L183.038 23.0702V23.3519H182.542V23.7873H183.038L183.874 23.6337L184.029 23.9154L183.719 24.3252L184.555 24.6069L185.205 25.0424V25.3241H184.71V25.6058L185.546 25.7339C185.67 26.2974 185.897 26.7669 186.227 27.1426L185.546 27.706L186.382 27.8341V28.2695L185.886 28.833L185.391 29.3965L184.865 29.5245V29.9343L185.391 30.3697L183.719 30.6515V30.9332L183.874 31.215H183.533L182.852 30.7795L182.697 31.215H181.675V31.4967L182.202 31.6248V31.9065H181.025V32.1882L181.366 32.3419L180.53 32.598L180.344 32.1882H180.003V32.47H179.663L179.508 33.0334L178.827 33.1615ZM200.139 31.598L200.294 31.1882H199.798V31.598H200.139ZM179.663 32.47V32.1882L179.353 32.47H179.663ZM196.29 30.47V30.0602L194.609 30.9065V31.3419L196.29 30.47ZM197.126 30.3419L196.631 30.1882V30.47L197.126 30.3419ZM197.126 29.7784L196.786 29.4967L196.631 29.9065L197.126 29.7784ZM190.903 31.343L190.252 31.0613V31.4967L190.903 31.343ZM191.088 29.9343V29.3965L190.067 29.2428L189.912 29.6526L191.088 29.9343ZM197.786 28.9343V28.5245H197.29V28.9343H197.786ZM185.05 28.3976V27.8341H184.555V28.3976H185.05ZM190.407 27.9878L189.912 27.8341V28.1158L190.407 27.9878ZM179.508 26.1693V25.8876L180.003 25.7339V26.0156L179.508 26.1693ZM199.479 23.9154L199.139 22.7885L199.294 22.225L201.647 21.9432L201.987 23.5067L200.47 24.0702L200.315 24.6604L199.82 24.5067V24.2239L199.479 23.9154ZM191.429 23.5056L190.903 23.2239V23.6337L191.429 23.5056ZM191.924 22.9421V22.3787H191.429V22.6604L191.924 22.9421ZM191.088 21.9432V21.6615L190.593 21.5334L190.407 21.9432H191.088ZM193.596 18.7161C193.266 18.3404 192.822 18.2038 192.265 18.3063V18.7161H193.596ZM191.584 18.588V18.3063L192.079 17.7428L190.593 17.6147L190.407 18.0245L190.903 18.3063V18.588H191.584ZM193.256 16.7695V16.4878L193.442 16.206H193.782L193.442 16.3341L193.256 16.7695Z" fill="#483D3F"/>
<path d="M179.341 17.5156L179.836 17.3251V17.0481L179 15.8576V15.6671C181.126 15.1592 183.356 14.8417 185.688 14.7148L186.555 14.8013L190.054 14.3338L190.24 14.1433H190.89V13.849L190.58 13.468L191.076 13.1909H191.571V13.0005L191.416 12.6195L191.571 12.429L192.407 12.6195V12.429C192.077 12.1751 191.963 11.8576 192.067 11.4767H192.407V11.2862L191.912 10.9052H191.076L190.394 10.9918L189.558 10.8013L189.218 11.1823L187.701 11.2862L186.71 11.0957V11.3728H186.214C186.214 11.0611 185.936 10.9341 185.378 10.9918L185.193 11.5632H184.852L184.016 11.4767L183.521 11.5632L182.189 11.4767L182.839 11.3728V11.0957C182.055 11.0957 181.611 10.9052 181.508 10.5243L182.189 10.3338L182.499 9.46801H183.025V9.17363C182.798 8.60798 182.963 8.16353 183.521 7.8403L184.016 7.75372L184.202 7.18229L184.016 6.99182L184.542 6.22991L185.038 6.12601V5.84896H184.697V5.46801L185.193 5.36411L185.533 4.60221L186.029 4.51562L186.214 3.45935L186.71 3.37277L186.865 3.18229H187.205V2.80134H186.214L190.487 2.99182L190.333 2.80134H189.806V3.0784L188.815 2.80134V3.0784L188.475 2.99182L188.134 3.18229L187.298 3.0784L186.958 2.62818V2.90524L185.595 3.00913V2.81866L185.1 2.62818L185.44 2.52428V2.33381L184.945 1.86627L185.595 1.76238C185.492 1.45069 185.667 1.26021 186.122 1.19095L187.453 1.00047L187.948 1.10437C188.506 0.781137 188.186 1.20827 188.97 1.27753L189.497 1.36411L186.369 0.983157V1.17363H186.865L187.546 0.983157L189.063 1.08705L190.89 0.706101L187.298 0.896577C187.959 0.642609 188.743 0.515625 189.651 0.515625L190.147 0.602205L189.001 0.775365L190.023 0.861945L190.704 0.775365C191.261 1.15632 191.54 1.5719 191.54 2.02212H191.014V2.21259L191.2 2.40307L190.704 2.48965L190.518 2.78402L189.868 2.8706L189.187 2.68013L188.506 2.78402L190.487 2.12601L189.466 2.22991V2.50697L188.289 2.22991L188.134 2.61086H187.639L191.076 2.50697V2.69744H190.394C190.291 3.20538 190.178 3.74795 190.054 4.32515L189.404 4.51562V5.08705L190.054 5.55459C192.799 5.47378 195.545 5.44492 198.29 5.46801L199.126 5.74506L199.281 6.12601L199.807 6.50697L199.126 6.99182L199.281 7.9442L198.445 8.41173V8.98316L196.928 9.08705V9.27753L197.114 9.5719L197.95 9.76238V9.95285L196.928 10.1433L196.773 10.5243L197.114 11.2862L196.432 11.5632V11.7537H195.937V11.9442L196.092 12.81L195.937 13.0005L195.442 13.0871L195.256 13.7624L196.618 13.9529L197.609 13.849L198.786 14.1433L199.962 13.7624L200.643 13.9529C201.304 13.5719 202.14 13.4103 203.151 13.468V13.6585H203.647V13.468H203.987V13.6585H204.328V13.3814H204.669C205.226 13.6931 205.443 15.0741 205.319 15.5243L206 15.8013H205.659L205.505 15.5243L205.009 15.4204V14.9529L204.483 15.9529L204.328 15.9052L204.142 16.0957C203.358 16.1534 202.687 16.2804 202.13 16.4767V16.2862L201.294 16.3728L200.798 16.2862L200.303 16.4767V16.1823H199.962L199.281 16.5632H198.94L196.618 16.2862L196.278 16.6671H195.937L193.769 16.3728L193.584 16.7537H192.748L191.726 16.6671L191.416 16.9442H190.89L189.713 16.6671L189.558 16.9442H189.218L188.041 16.7537L186.71 16.9442L186.555 17.1347H186.214L185.533 16.9442L185.038 17.3251C184.026 17.3251 183.077 17.1693 182.189 16.8576L181.508 17.429L179.341 17.5156ZM203.833 15.9052L203.306 15.7148V15.9052H203.833ZM193.243 11.8576L192.748 11.5632V11.7537L193.243 11.8576ZM198.29 9.46801L197.795 9.27753H198.445L198.29 9.46801ZM193.088 8.98316L194.42 8.89658V8.7061L194.265 7.9442L194.606 7.45935L193.429 7.18229L192.067 7.26887L191.726 7.18229V6.88792H190.735C189.847 7.0149 188.95 7.11303 188.041 7.18229L187.391 6.99182V7.37277L187.546 7.75372L187.05 7.64982V7.8403L187.205 8.41173L186.555 8.60221V8.89658L186.71 9.5719H189.404C190.622 9.30639 191.85 9.11014 193.088 8.98316ZM189.218 5.46801V5.08705H188.877L188.568 5.46801H189.218ZM186.772 2.71476V2.4377H185.936V2.62818L185.781 2.81866H186.122L186.772 2.71476ZM190.487 1.36411L189.992 1.17363V1.46801L190.487 1.36411Z" fill="#483D3F"/>
<path d="M164.188 33.5156L163.414 33.2189V32.9223L161.891 31.8974L161.633 31.1422C162.477 30.9444 163.328 30.7466 164.188 30.5488L164.562 30.7106L165.219 30.5488L165.336 30.8455H165.594L165.852 29.8206L165.969 30.7106H166.367L166.859 29.9555L166.367 29.6857V29.3891L166.602 28.9306L166.484 28.499L166.602 27.9057L165.852 29.2272L165.711 28.7957H165.078L164.445 28.6339L164.562 27.9057L165.219 27.7438V27.3123L164.188 26.2874V25.9907H163.93V25.694H165.078L165.219 26.1256C165.719 26.2335 166.141 26.5301 166.484 27.0156L167.375 28.499L167.75 28.9306L167.516 29.5239H168.664L168.781 28.6339L168.664 28.2023L168.898 27.0156L168.523 26.1256L169.039 25.1007H168.523V25.3974H168.266L168.008 25.2355L167.75 23.7521C167.156 23.7162 166.609 23.869 166.109 24.2106L165.969 23.4824L164.82 23.1858V23.7521H164.562L164.305 23.4824V23.1858L164.82 22.2957H165.453L165.594 21.8372C166.266 21.9451 166.859 21.8462 167.375 21.5405L167.516 21.999H168.008V21.7023L168.898 21.4057V20.9472L168.781 20.5156L169.555 20.3808L169.672 19.9223H168.781V18.8974L169.039 18.304C168.352 17.9084 167.625 17.7556 166.859 17.8455L165.852 18.1422V17.8455L165.969 17.2791L165.711 16.8206L168.523 15.6339V15.9306H169.039L169.555 15.6339L170.07 15.7957L170.562 15.6339L170.961 15.7957L171.852 15.499V15.0405L171.453 14.0156C170.953 14.0156 170.492 13.7729 170.07 13.2874L169.297 11.6422H168.898V10.914L168.266 10.7791L167.516 11.6422C166.75 13.2245 165.898 14.7528 164.961 16.2272C164.617 16.6228 164.32 17.0723 164.07 17.5758L162.898 19.7874L162.523 19.9223L162.008 21.109L161.633 21.2438L161 20.5156V19.4907L161.375 18.0073H161.633L161.75 18.4389H162.148V17.5758L162.664 17.414V17.1173L162.523 16.8206H162.898V16.3891L162.781 15.9306L163.555 15.7957V15.499H164.305V14.9057L164.07 14.0156H165.078V13.5841L164.82 12.9907L165.453 12.8289L165.711 11.9389L166.109 11.804V11.5073L165.969 11.0758L166.602 11.3725L166.859 9.88907L167.375 10.0239L167.633 9.43056L167.117 9.29571L167.633 8.99903L167.75 8.27081L168.266 7.51562H168.664L169.414 8.54052L170.305 8.70235L170.562 9.43056L171.336 9.72724L171.453 10.4824H171.852L172.227 10.3206L172.602 11.0758L173.117 11.2106L173.258 11.804H173.75V12.3974L174.406 12.2355L174.523 12.694H174.781L174.898 13.1256H175.414L175.555 14.1775H175.812L175.93 13.5841L176.305 14.1775L177.078 14.3123V15.2023H177.336L177.969 14.7438L178.109 15.9306H179V16.6858L178.859 17.2791H178.484V17.7106H178.742L178.859 18.1422L178.109 18.7355V19.6256L177.453 19.7874L177.336 19.3289L177.453 18.7355H176.961L176.703 18.304L175.812 17.8455L175.414 16.9824L175.039 16.8206V17.7106C174.07 17.7466 173.094 17.7916 172.109 17.8455L171.852 17.7106L171.594 19.194L171.219 19.7874L171.594 20.0841H171.078V20.6775L172.367 21.109L172.742 20.9472V21.4057H173L173.117 21.8372H173.375L173.633 21.109L175.297 20.9472L175.93 21.2438L176.305 22.4306L176.07 22.1339H175.672L174.523 22.5924V23.0239H173.75L173.117 22.7272V23.0239L171.969 23.3206L171.594 24.5073L171.078 26.4223L171.336 26.8538L171.078 27.3123H170.445V28.0405H170.703L171.453 27.9057V27.609H171.852V28.0405H172.227V27.7438H172.742V27.3123L172.367 27.1505L172.227 26.5841L171.969 26.4223H172.484L172.602 25.5322L174.008 24.6422L174.148 25.3974L173.516 26.8538H173.891L174.266 26.1256H174.664L174.898 26.2874V26.5841H175.555L173.633 27.1505L173.516 27.9057L174.148 27.7438V28.2023L174.008 28.499H173.75L173.375 28.3372V29.5239L174.898 29.8206V30.7106H175.297L175.555 30.5488V31.1422L175.039 31.304V32.0322L175.672 32.3289V32.7874L175.93 32.9223L173.891 31.7355L173.75 32.0322L173.117 31.8974V32.194L173.258 32.6256L172.859 32.3289V32.0322H172.367L171.594 31.7355V32.194L171.711 32.6256L171.078 32.4907L170.703 32.6256L170.07 32.194L169.672 33.2189H169.414L168.523 32.7874L167.516 33.2189L167.258 33.0571L166.602 33.2189L166.109 32.9223L165.969 33.3538L164.188 33.5156ZM171.219 31.7355L170.961 31.4389V31.7355H171.219ZM168.664 31.304V31.0073L168.266 30.8455V31.1422L168.664 31.304ZM169.414 30.1173L169.039 29.8206V30.2521L169.414 30.1173ZM171.594 29.9555L172.227 29.5239V29.2272L171.711 28.9306L171.453 27.9057L170.562 28.2023V28.499L171.078 28.9306V29.2272L170.961 29.6857L171.594 29.9555ZM170.445 29.8206V29.2272L169.812 29.0924V29.6857L170.445 29.8206ZM173 28.7957V28.3372H172.367V28.9306L173 28.7957ZM165.711 28.499V28.0405H165.336L165.219 28.499H165.711ZM165.969 27.7438V27.3123H165.594V27.7438H165.969ZM173.258 27.4472V27.1505H173V27.4472H173.258ZM175.672 26.1256L174.781 25.5322V25.1007H175.156L175.672 26.1256ZM169.812 25.9907V25.5322H169.555L169.414 25.9907H169.812ZM170.445 25.5322V25.2355H170.188V25.5322H170.445ZM169.039 24.6422L169.297 23.914L168.664 23.7521L168.406 24.3455L168.523 24.804L169.039 24.6422ZM171.219 24.5073L171.336 24.0488L170.445 23.914V24.2106L171.219 24.5073ZM171.219 18.8974L170.82 18.4389L170.703 18.8974H171.219ZM170.188 18.4389V18.0073H169.555L169.297 18.4389H170.188ZM168.898 17.7106L169.039 17.2791H168.664V17.7106H168.898ZM176.305 17.5758L176.07 17.2791L175.93 17.7106L176.305 17.5758ZM174.523 17.414V16.9824H174.148V17.2791L174.523 17.414ZM176.82 16.5239L176.562 16.2272V16.5239H176.82ZM173.258 16.0924V15.6339H173L172.859 16.0924H173.258ZM177.219 15.7957V15.3372H176.82V15.7957H177.219ZM176.445 15.3372L176.562 14.9057L176.188 14.7438L176.07 15.499L176.445 15.3372ZM174.266 15.2023L174.664 14.4741H174.406L173.891 15.2023H174.266ZM172.367 14.1775L172.602 13.1256H172.227L171.969 14.1775H172.367ZM174.008 13.4223V12.8289H173.75L173.516 13.4223H174.008ZM170.82 12.2355L170.961 11.804H170.703L170.562 12.2355H170.82ZM172.742 12.2355V11.6422H172.367L172.227 12.2355H172.742ZM169.414 11.6422V11.2106H169.039V11.6422H169.414ZM172.109 11.0758L171.852 10.7791V11.2106L172.109 11.0758ZM170.07 9.72724L169.812 9.43056V9.72724H170.07Z" fill="#483D3F"/>
<path d="M3.71875 29.3906V29.0469L4.21875 26.2969L3.875 25.4531L1.875 24.4219L1.6875 23.8906L4.21875 22.5469L4.90625 22.8906L5.40625 21.1719H4.5625V20.1406L4.90625 19.4531C5.01042 18.2031 4.72917 17.1198 4.0625 16.2031C2.60417 16.3281 1.3125 16.0469 0.1875 15.3594L0 14.6719L0.5 13.4531H3.53125L4.21875 13.6406L4.71875 12.2656L4.375 9.70312L5.71875 8.67188C6.51042 10.276 6.90625 12.0469 6.90625 13.9844L7.40625 14.1406L8.59375 13.6406L8.75 14.3281H9.09375L9.4375 13.6406L10.125 13.4531L9.78125 12.4531L9.9375 11.9219H8.9375C9.33333 10.4635 9.5 8.98438 9.4375 7.48438H10.2812L10.625 6.45312L11.2812 7.82812H10.7812V8.32812L11.7812 8.51562V9.20312L12.3125 9.35938V9.85938L11.7812 10.2031V10.7344L12.4688 14.6719H12.8125L13.4688 14.3281L13.8125 15.0156L13.6562 15.8594L14.1562 17.0469L14 17.3906H13.6562L13.1562 17.2344C12.1354 17.7969 11.7396 18.651 11.9688 19.7969L12.125 21.5156H14V22.2031L12.8125 22.5469L12.4688 24.0781L12.625 24.9219L12.3125 25.7969L12.4688 26.4844L12.3125 27.1719L12.4688 27.6719L12.125 27.8281V28.3594L12.4688 29.0469L11.625 29.3906L10.125 29.0469L9.28125 29.2031L8.9375 29.0469V28.5156C9.375 27.724 9.54167 26.8698 9.4375 25.9531L9.09375 25.2656H6.90625C6.57292 26.5365 6.17708 27.7969 5.71875 29.0469L4.71875 29.2031L4.21875 29.0469L3.71875 29.3906ZM8.4375 22.5469C9 22.3177 9.5625 22.0885 10.125 21.8594L10.2812 21.1719L9.78125 20.1406L9.28125 19.2969L9.4375 17.3906H7.40625C7.26042 18.8906 7.09375 20.3802 6.90625 21.8594L8.4375 22.5469ZM13.4688 16.7344V16.3906L13.1562 16.7344H13.4688ZM8.9375 15.7031V15.1719H8.4375V15.7031H8.9375ZM4.5625 14.1406L4.21875 13.7969L4.0625 14.3281L4.5625 14.1406ZM10.9688 11.9219L10.4375 11.7656V12.1094L10.9688 11.9219ZM12.3125 7.48438L12.125 6.79688L12.9688 6.60938V7.48438H12.3125Z" fill="#483D3F"/>
<path d="M40.4062 34.9844L42.25 35.3281L42.9375 35.4844L44.2812 35.1406L44.7812 33.7656L45.125 32.5781L44.4375 32.0781V31.3906H44.7812L45.2812 30.7031L45.125 29.8281L45.4688 29.3281L45.125 28.2969V27.9531H45.625L45.7812 27.6094L45.625 27.1094L45.9688 25.0469L45.4688 23.8594L45.625 22.9844L46.125 22.8281L45.9688 22.3281L46.4688 20.6094L46.3125 19.9219L45.7812 19.7344L45.9688 19.0781L45.625 17.8594L45.9688 17.0156L45.7812 15.6406H45.2812V15.2969H45.9688C46.0729 14.6094 45.9583 14.0365 45.625 13.5781L46.3125 12.5469L46.4688 9.64062L45.9688 8.95312L46.3125 7.07812L45.7812 5.54688L44.9375 6.04688L44.2812 7.60938L43.4375 7.07812L43.5938 6.39062L42.9375 7.26562L43.0938 9.14062L43.9375 9.29688V9.82812H42.9375L43.0938 10.5156L42.75 12.0469L42.9375 12.3906C42.375 13.1823 42.0312 14.099 41.9062 15.1406L42.25 15.9844L42.75 16.1406V16.6719L42.25 16.4844H41.9062L41.75 17.1719L41.9062 17.7031L41.75 18.3906L41.9062 18.8906L41.4062 20.7656L39.2188 22.1406H38.0312L37.875 21.6406C38.2083 20.2656 38.4062 18.8073 38.4688 17.2656C38.5312 15.724 38.6146 14.2135 38.7188 12.7344L38.5625 11.0156L36.6875 11.2031L37.375 11.8906L37.0312 12.7344L36.375 12.3906L36.6875 14.6094C36.6875 15.8594 36.4688 17.0052 36.0312 18.0469L35.1875 18.5469L35.5312 19.5781V20.2656H34.6875L34.3438 20.7656V21.1094L34.6875 21.2969L34.8438 21.7969L35.3438 21.9844L34.6875 24.3594H34.3438V24.7031L35 24.5469H35.6875L35.5312 25.2344L36.0312 25.0469H36.375L37.0312 26.2344L37.2188 25.9219C38.2188 24.8802 39.3958 24.1302 40.75 23.6719L41.4062 23.8594L41.75 25.0469L41.5938 25.3906L41.0625 27.9531L41.25 28.6406L41.9062 28.8281L41.25 29.3281V29.8281L40.75 30.0156C40.9583 31.0365 40.7917 31.8906 40.25 32.5781C40.25 33.2656 40.5208 33.724 41.0625 33.9531L40.75 34.4531L40.4062 34.9844Z" fill="#483D3F"/>
<path d="M64.0312 15.5469L63.3437 14.8594L64.5312 14.3281L64.9738 14.7983L65.0312 14.6719V14.8594L64.9738 14.7983L64.875 15.0156L64.0312 15.5469Z" fill="#483D3F"/>
<path fill-rule="evenodd" clip-rule="evenodd" d="M50.4852 16.2344L50.875 15.5469L50.7188 15.0156L51.0625 13.9844L51.5625 13.8281V13.4844L51.0625 12.7969C51.3958 12.5677 51.5625 12.1615 51.5625 11.5781H52.2188V10.7344L53.0625 10.5469L53.5938 10.7344L54.9375 10.5469L55.5938 10.7344V11.4219C55.1562 12.4427 54.9375 13.526 54.9375 14.6719L58.125 13.9844L58.625 14.1719L59.9688 13.4844V13.8281H60.4688V13.4844L62.8437 13.2969L63.5312 13.4844L63.8437 13.2969V13.6406L63 14.3281L62.5 14.5156V15.3594H61.8438L61.1562 15.0156L61 15.3594L60.4688 15.5469L60.3125 16.5781H59.6562V17.2656L60.4688 17.4219V17.9531L60.1562 18.7969H59.8125V19.3281L59.9688 19.8281L58.8125 20.3594V20.8594L59.4688 22.4219L58.9688 22.5781V22.9219L59.125 23.4531L58.9688 23.9844C59.8646 24.901 60.875 25.6406 62 26.2031V26.7344L62.8437 26.8906L63.1875 28.1094L64.6875 28.4531L66.0312 29.9844V30.5156L65.375 31.0156V31.3594L64.3437 31.7031L64.1875 32.0469L63.5312 32.2344V32.7344H63.1875L62.6875 31.8906L61 31.0156L60.8125 30.1719C59.6875 29.9427 58.5625 29.5365 57.4375 28.9531L57.125 30.1719L55.7812 30.6719L56.625 31.5469V31.8906L56.0938 32.0469V31.7031H55.5938V32.3906L55.7812 32.7344L55.0938 32.9219L54.5938 32.7344V33.0781L53.25 32.7344L52.5625 32.9219L51.9062 32.5781L50.875 32.6423L51.0625 32.0469H51.5625V31.7031L51.375 31.0156H51.7188V30.5156L51.5625 29.8281L51.9062 28.7969H52.5625V27.9219L52.2188 27.2344C52.9062 26.5469 53.25 25.7448 53.25 24.8281H53.75V24.4844L53.25 24.1406L53.0625 23.1094L52.5625 22.9219L53.0625 22.0781C52.2917 21.849 51.5104 21.5573 50.7188 21.2031L49.0312 21.5469L48.3438 21.2031L48.875 20.3594L49.7188 18.6406L50.4852 16.2344ZM55.0938 19.3281L54.9375 19.6719L53.4062 19.3281C53.5312 17.9531 53.9792 16.6927 54.75 15.5469L57.2812 15.8906V16.3906L56.7812 16.2344C56.2188 16.2344 55.8854 16.5156 55.7812 17.0781L55.9375 17.6094L55.4375 19.3281H55.0938ZM53.75 22.2344L54.75 21.5469H53.5938L53.4062 22.2344H53.75ZM55.7812 26.2031V26.7344H55.25V26.2031H55.7812Z" fill="#483D3F"/>
<path d="M79.5321 39.1371L80.0975 39.4844L80.4633 38.7899L81.1617 39.1371H82.0929L83.2569 37.18V35.1597L84.4209 32.1292V29.0988V28.7516L83.8888 28.4043V28.0571H84.2546L85.1525 23.4167L84.9862 21.8384L85.5183 20.9861L88.9771 20.7967H89.6755L89.875 20.2916L90.4071 20.481H90.7729V19.7865L91.6709 19.9444L92.0367 20.481L93.5 19.4393L94.5642 20.9861L94.93 22.8801L94.7638 23.9218L95.1296 25.3108L95.8612 25.658C96.083 26.4577 96.3158 27.2048 96.5596 27.8993L96.9255 28.941L97.8567 29.7933C97.6128 31.2875 97.0031 32.6764 96.0275 33.9601L95.4954 34.118L95.2959 36.2014L96.0275 36.5486V36.012L97.4908 36.7065H97.8567L98.555 36.5486L100.185 36.3592L100.018 35.5069V35.1597L101.282 34.6546H101.814V35.5069L102.18 35.6648L102.745 36.7065L103.643 36.5486H104.009L103.643 37.2431C103.754 37.7061 104.109 37.8745 104.708 37.7482L105.273 38.2848C106.115 38.2848 106.836 37.9902 107.435 37.4009L108 36.8959L106.37 36.5486V36.012H105.639V35.1597C105.262 34.5915 104.719 34.36 104.009 34.4652L102.745 30.6772L103.078 30.1405L102.912 29.0988V28.7516L103.444 29.0988H103.81L104.708 26.5103L104.541 26.0052V22.0278L104.708 21.4911L105.073 20.481L104.708 19.4393L104.175 19.5971L102.38 21.4911L102.18 22.1313L102.014 22.6679L102.18 22.8801L101.814 24.269V26.0052V26.3525H101.282L99.1204 25.8158L99.2867 25.1214C99.0428 24.0902 98.7435 23.1116 98.3888 22.1856L97.8567 22.0278V21.3333L98.3888 21.1439L98.555 20.1338L99.2867 19.7865L99.8188 19.2499L100.018 18.7448L101.116 18.5554L101.814 19.092L103.444 17.8609L102.745 16.3141V15.9669L102.18 16.6614H101.814V16.1563H101.116H98.0229L97.125 16.5035L96.3933 15.9669C96.7481 15.7354 97.0474 15.3882 97.2913 14.9252L98.1892 14.7674L97.6571 13.2206L97.125 12.6839L96.9255 11.4844L96.5596 11.9894L96.0275 12.1789L95.6617 12.8733L94.7638 13.2206L94.5642 13.7256L94.7638 14.2307L95.4954 14.4201C94.8746 14.9883 94.5642 15.7354 94.5642 16.6614L94.0321 16.8508V17.5137L93.3005 17.7031L93.1342 18.0503H92.7683L92.4025 17.3559L91.6709 17.0086H91.305V17.5137H91.6709L91.8704 17.8609V18.2082L89.6755 17.8609V17.5137L85.8842 18.0503L84.6204 17.7031L83.3567 18.0503L82.625 17.8609L82.2592 17.3559L82.4587 17.7031L82.0929 18.5554V19.4393L82.625 19.092L83.3567 19.4393L82.7913 21.1439L82.0929 20.9861L81.8933 22.7223V23.764H82.2592L81.3612 25.658V26.0052H81.7271V26.3525H82.2592L81.1617 27.7414V28.2465L81.7271 28.4043V28.7516L81.1617 28.941L80.8291 29.7933L80.9954 30.835L81.5275 31.0244C81.6606 31.5926 81.4278 32.0451 80.8291 32.3818C80.8291 32.971 80.6407 33.3814 80.2638 33.6129V34.3074L79.7317 34.4652L80.0975 35.1597V36.012H79.7317L79.8979 36.5486L79 37.7482L79.1663 38.4427H79.5321V39.1371Z" fill="#483D3F"/>
<path d="M78.3472 37.8339L78.9778 37.6802L79.0205 37.2514C78.6713 36.6393 78.4823 36.0103 78.4534 35.3645L78.6132 35.1639C78.5775 33.6514 78.3489 33.1918 77.9666 31.7891L80.4186 31.6004L81.8926 31.9637L82.5311 30.929L83.119 31.204L82.2167 24.9021L81.057 24.4717C80.349 24.4667 79.6598 25.5424 79.0286 25.7026L78.757 25.3409L78.1968 25.0686L77.7525 25.0934L78.0202 24.5551L77.7156 24.5248L77.737 24.3104L78.2014 24.1402L78.5074 22.7535L78.4577 21.5677L77.3097 21.0203L76.6266 20.5782L75.5724 21.6148L75.7075 21.9431L75.4248 23.0959L75.3249 25.7824C75.6764 26.1848 75.8243 26.6654 75.7686 27.2241L76.6825 27.3151L78.5038 27.2801L79.8277 27.7466L82.0922 27.7557C82.6545 28.1004 82.2765 28.2453 82.1414 28.6649L81.7634 29.6518L81.2926 29.6049L79.7112 28.9159L76.6696 28.0459L75.3422 28.6971C75.236 29.7625 74.8479 35.6219 75.1372 36.648L77.0393 37.487L77.0607 37.2727L76.9256 36.9443L77.6733 37.0188C77.6383 37.3696 77.863 37.6413 78.3472 37.8339Z" fill="#483D3F"/>
<path d="M86.4854 36.4691L86.6227 36.3702V36.1888L86.423 36.1063L85.749 36.2877C85.4327 36.2217 85.1831 36.0678 85 35.8259V34.655H85.1373V34.4736L85 33.6491H85.1997L85.337 33.0224H85.1997L85.1373 32.2968L85.337 30.928H85.4743V30.7466L85.4119 30.2848L85.6117 29.7406L85.749 29.2953L85.5492 28.7511C85.7739 28.3883 85.8613 27.965 85.8114 27.4813L85.6741 27.0195H85.8863V26.8381L85.5492 26.5742V26.2114L85.6117 25.6672L85.4743 25.3044L85.6741 24.9416L85.4119 24.216L85.8114 24.2984L86.086 24.0346L86.1484 23.7542L86.6227 23.6553L86.6976 23.3914L87.5714 23.2925V23.111H87.7712L88.1831 23.2925L88.3828 23.5728L88.5201 23.111L90.0804 22.8472L90.6172 23.0286L91.2913 22.8472L91.5659 23.111L91.7032 22.6658L93.1886 22.4844L93.3883 23.0286L93.5257 23.111V24.216H93.3883L93.0513 23.9356V24.216H92.8516L92.577 24.0346V24.216L92.3773 23.6553H92.1775V24.0346L91.9653 24.2984L91.5659 24.4798L91.2288 24.216V24.3974L91.2913 24.8426L90.5423 25.2055L90.4799 25.4858L90.6796 25.5683L90.6172 25.9311L91.154 26.2114L91.2288 26.6567C91.0042 26.6017 90.8918 26.6952 90.8918 26.9371L91.2913 27.1185C92.1484 27.0525 92.9847 26.9316 93.8003 26.7557V27.1185L93.8627 27.2999H93.7254V27.5637L93.8627 28.108L93.7254 28.2069V28.6522L93.4508 28.7511L93.3883 30.2024L93.7254 30.2848V30.5652L93.9251 30.6476V30.928C93.068 31.2248 92.19 32.4062 91.2913 32.4722L91.2288 32.1918H90.9542V32.3733L90.8918 32.0104H90.7545L90.2053 32.1978L90.5423 32.3792V32.742C90.4092 32.9839 90.3675 33.2863 90.4175 33.6491C90.1928 33.5941 90.0804 33.6876 90.0804 33.9294L90.2802 34.0119L90.4799 33.9294L90.2053 34.0119L90.1429 34.3747L89.6685 34.655V35.0179H89.8682L90.1429 34.9189L90.6172 35.1003C91.749 35.0014 92.8766 35.0344 94 35.1993V35.7435L93.8003 36.1888C93.6588 36.4306 93.4549 36.5241 93.1886 36.4691L92.3773 36.2877L92.1775 36.3702L91.7032 36.1888V36.4691H91.5659L90.7545 36.1888L90.5423 36.2877V36.1063L90.3426 36.2877H90.2053L90.0055 35.9249H89.7309V36.1063L89.8058 36.2877L89.0569 36.3702V36.0073H88.9196L88.5825 36.1888V36.3702H87.9834C87.8003 36.1283 87.5714 36.0403 87.2968 36.1063V36.3702L86.4854 36.4691ZM89.0569 35.0179V34.7375L88.7198 34.2922L88.9945 34.0119C88.9612 33.6491 88.9154 33.2863 88.8571 32.9234L88.9945 32.6596C89.0361 32.2308 88.9237 31.8955 88.6574 31.6536L88.0458 32.4722V32.2908H87.846V32.6536L87.6463 32.1918L87.3717 32.5547L87.2968 32.7361L87.0347 32.3733H86.8974L86.6976 32.4722L86.423 31.3733V31.7361H86.5603L86.7601 32.742L86.5603 32.6596L86.4854 33.2038L86.6227 33.5666L86.3606 33.6491V33.8305L86.6227 34.0119V34.1933L86.5603 34.655L86.6976 34.7375L86.8225 35.0179C87.5049 35.0728 88.1831 35.1003 88.8571 35.1003L89.0569 35.0179ZM86.3606 34.4736L86.5603 34.2922V34.0119H86.3606L86.2233 34.4736H86.3606ZM89.5312 34.4736V34.2922H89.3939V34.4736H89.5312ZM88.3828 32.4722L88.2455 32.3733V32.5547L88.3828 32.4722ZM92.0402 30.021V29.6581C92.3564 28.9875 92.5811 28.2894 92.7143 27.5637H92.577L92.1026 27.6627L91.9029 27.5637L91.828 27.8441H91.2913V28.108L90.6796 28.2894L90.0804 27.9265L89.8682 28.4708L89.9431 28.108L89.6685 28.0255L89.6061 28.4708H89.4688L88.5825 28.2894L88.3204 28.4708L88.0458 28.7511L87.9834 28.4708L87.5714 28.3883L87.509 28.108H86.8225V28.3883L86.8974 28.7511L86.8225 29.015L86.9598 29.3778H86.8225V29.5592H86.9598V29.8396L86.8974 30.2024L87.0347 30.3838L87.6463 29.4662L87.846 29.3838L88.0458 29.4662L88.3828 29.2848L88.5825 29.3838C89.1734 29.2628 89.785 29.1694 90.4175 29.1034L90.7545 29.2024L91.491 29.021L91.828 29.1034L92.0402 30.021ZM86.423 29.1139V28.8336H86.2233V29.1139H86.423ZM88.1831 27.3823C88.6325 27.3823 89.0361 27.2339 89.3939 26.9371L89.5312 26.2939L89.4688 25.7497H89.6061V25.5683H89.8058V25.123H89.4688C89.3356 24.9361 89.1318 24.8756 88.8571 24.9416L88.5825 24.6612L88.4577 24.7602L88.0458 24.5788V24.8426L88.2455 24.9416L88.3204 25.2055H87.9085L87.509 25.0241L87.0971 25.3044L87.0347 25.6672H86.8225V25.9311H87.0347V26.2939L86.6227 26.1125V26.3928L86.9598 26.6567L87.0347 27.2009L87.9834 27.2999V27.4813L88.1831 27.3823ZM86.8225 26.9371V26.7557L86.6976 26.9371H86.8225ZM85.9487 25.9311V25.5683H85.6741V25.7497L85.9487 25.9311ZM89.7309 26.03V25.7497H89.5312V26.03H89.7309ZM89.5312 24.6612L89.3315 24.0346H89.6685V23.4739L89.1318 23.2925V23.4739L89.2691 23.8532L88.8571 23.9356L88.7947 24.2984L89.0569 24.4798V24.2984H89.1942L89.2691 24.6612H89.5312ZM91.154 24.6612L90.8918 24.3974V24.6612H91.154ZM87.9834 24.4798V24.216H87.7712V24.4798H87.9834ZM88.5825 24.2984V24.117L88.4577 24.2984H88.5825ZM88.2455 24.216L88.3204 23.8532H88.1831L88.1082 24.216H88.2455ZM86.5603 24.117L86.3606 24.0346V24.216L86.5603 24.117ZM87.509 24.117L87.2344 23.7542V23.9356L87.509 24.117ZM90.1429 23.8532L89.8682 23.5728V23.8532H90.1429ZM91.3662 23.7542V23.4739L91.0166 23.3914V23.6553L91.3662 23.7542ZM92.9889 23.7542V23.4739H92.7767V23.7542H92.9889ZM90.6796 23.5728V23.2925L90.4175 23.111V23.3914L90.6796 23.5728ZM91.6283 23.3914L91.7032 23.111H91.5659L91.4286 23.4739L91.6283 23.3914ZM93.0513 23.21L93.1137 22.9296L92.577 23.0286V23.21L92.8516 23.3914L93.0513 23.21Z" fill="#483D3F"/>
<path d="M94.5625 14.6406L93.9062 13.2656L93.375 13.1094L92.5312 13.4531L92.375 12.9219L92.5312 12.4219L92.375 11.9219L92.7188 11.2344C92.3646 10.776 92.25 10.2031 92.375 9.51562L91.3438 9.32812L89.6562 9.67188L89.1562 11.9219L89.5 13.2656L87.625 13.6094V13.2656L86.4375 13.1094V12.0781H86.7812V11.7344C86.3229 11.276 86.0417 10.7031 85.9375 10.0156C84.3333 9.95312 82.75 9.90104 81.1875 9.85938L80.6875 10.0156L79.3438 8.14062C81.0312 7.68229 82.8333 7.40104 84.75 7.29688L85.4375 7.45312L86.0938 6.42188L85.5938 6.26562V4.89062L85.9375 4.73438V4.39062L85.5938 4.20312V3.85938H86.2812L87.625 4.20312L87.4688 4.89062L87.125 5.42188H87.4688L88.125 5.23438L88.4583 5.73438H88.4688V5.75L88.8125 6.26562L88.3125 6.95312L90.3438 7.10938C91.4688 7.10938 92.3646 6.76562 93.0312 6.07812L92.5312 5.42188L92.7188 4.89062L92.5312 4.54688H93.2188V3.85938L94.4062 3.70312V4.04688L93.7188 4.20312V4.73438L94.2188 4.89062L94.4062 4.54688L94.9062 4.39062L95.25 3.51562H95.5938L95.8393 5.23438H95.9375V5.73438H95.9107L95.9375 5.92188L95.25 6.07812V6.60938H96.4375L97.0938 6.42188L98.125 6.60938L98.625 6.42188L99.125 6.60938L100.312 6.42188L100.844 6.60938L100.656 7.64062L100.844 8.32812L99.6562 9.51562L99.4688 9.01562L98.9688 8.82812V9.51562H98.4688L97.625 9.01562L97.4375 9.51562L96.0938 9.85938L95.9375 12.2656L94.75 13.1094V13.6094L95.4062 13.7969L95.5938 13.2656L95.75 13.7969L94.5625 14.6406Z" fill="#483D3F"/>
<path d="M109.75 20.3594L108.219 19.3281L108.031 18.7969H107.344C107.469 18.1094 107.354 17.5365 107 17.0781L107.531 16.7656C107.406 15.4948 107.635 14.401 108.219 13.4844H108.875L109.062 14.1719L109.75 15.3906L109.562 15.8906H110.406V16.2344L109.906 16.4219L109.75 16.9219L111.438 17.2656V17.6094L111.281 18.2969L111.781 18.4531L112.625 17.9531V18.4531L112.125 18.6406V18.9844L112.281 19.6719L111.438 20.0156V19.6719H110.75L110.594 20.1719L109.75 20.3594ZM110.406 18.1094V17.7656L109.906 17.6094V17.9531L110.406 18.1094ZM108.875 17.0781L108.375 16.4219V16.9219L108.875 17.0781ZM108.531 15.8906L108.875 14.8594H108.031V15.7344L108.531 15.8906Z" fill="#483D3F"/>
</svg>
