<svg width="222" height="40" viewBox="0 0 222 40" fill="none" xmlns="http://www.w3.org/2000/svg">
<path d="M194.419 39.6232L194.115 39.4199C193.892 38.0648 193.608 36.8045 193.263 35.6391L192.441 35.3952L193.263 34.948V34.2976H192.624L192.137 34.5009L192.624 34.0537L192.776 33.4032L192.441 32.7121L192.958 31.1673L192.624 30.0697H193.445V29.3785L193.263 28.7281L193.932 28.4842V28.9314H194.419V28.4842L194.602 28.9314L194.115 30.0697L194.419 30.7201L193.932 30.964V31.8584H194.419V31.4112L195.088 31.1673L195.575 32.7121H195.241V33.1593L195.91 36.7368L195.758 37.3872H194.754L194.419 39.6232ZM217.668 39.4199L217.181 39.176V38.5255L217.516 37.6312L216.511 37.3872L215.872 37.8344V38.5255L216.207 39.176L215.355 38.7288L214.868 38.9727L214.046 38.5255V38.0783C213.499 38.2139 213.174 37.9835 213.073 37.3872L215.355 36.0863C216.248 33.2677 216.805 30.3 217.029 27.1833L216.359 26.4922V26.045H215.203L213.712 26.9394V27.3865C213.61 28.579 213.884 29.3921 214.533 29.8257V30.2729L213.712 31.4112H212.89L211.582 30.964L211.399 30.0697L211.582 29.3785H210.425C209.878 28.3487 209.543 27.1697 209.421 25.8417H208.934L208.447 26.4922L207.291 26.2889V26.7361L207.443 27.1833L207.139 28.2809L207.626 29.6225H207.96V30.0697L206.622 30.5168L206.956 29.8257H206.622L206.135 31.1673L207.139 31.4112L207.778 31.1673L208.113 33.6065L207.291 33.1593L206.287 33.6065L206.135 32.7121H205.8L205.161 33.1593L204.491 32.956V32.5088L204.978 31.8584L204.491 31.6145V31.1673L204.978 30.964V30.5168L204.826 30.0697H204.491L202.513 30.5168L201.844 29.6225L201.509 30.7201L201.692 31.8584L201.509 32.7121H201.844L202.513 32.3056L203 33.6065H202.666L202.513 32.956L201.692 32.7121V33.1593L201.844 33.6065H201.022V35.192H200.688L200.049 34.0537H198.892V33.6065L198.375 32.956L199.531 32.7121L199.714 32.0617L198.71 31.4112L198.557 30.5168H199.044L200.049 31.4112L200.87 30.964V30.2729L199.531 29.8257L199.379 29.1753H198.71V28.7281L199.379 28.037V27.3865L198.892 27.1833L198.375 27.3865L198.071 27.1833L195.91 27.3865V26.9394L195.423 26.7361L194.754 25.5978L194.419 25.8417L194.936 24.2562L195.423 24.7034H195.758L195.91 23.809L195.758 23.4025L195.91 22.9553L195.088 20.0283L195.423 19.3778L195.575 18.0363L196.245 17.3858V16.6947L195.758 15.8004H195.423L196.914 15.3532V14.7027L195.758 14.0523L195.088 14.4588V13.6051H195.758V13.1579L195.575 12.4668L196.093 10.922H195.758L195.241 11.1252V10.4748L196.093 8.48277H195.758L195.423 8.68604L195.575 7.79166L195.423 7.34448L196.093 6.45011L195.241 5.79965L195.088 4.90528H196.245L197.553 5.55574L198.375 5.35247L198.892 6.24684H199.379L199.866 5.79965C200.089 5.33892 200.424 5.18986 200.87 5.35247L201.692 5.55574L202.331 5.10855L202.848 5.35247V4.70202H203.335L203.487 5.35247H203.822L204.157 4.4581L205.161 4.25483L205.648 4.4581V4.01091L206.287 3.80765L206.622 3.56373C206.845 4.02446 207.179 4.17352 207.626 4.01091L207.778 3.11654H208.265V3.56373L209.117 3.80765L209.421 2.91327L210.091 3.11654L212.069 2.22217V2.91327L212.89 3.11654L213.073 2.46609L213.894 2.22217L214.716 3.36046V4.01091L214.381 4.90528L212.89 5.55574L212.403 5.35247V6.69403L211.582 6.89729L211.916 5.55574H211.399C210.973 6.45011 210.375 6.9786 209.604 7.14121V6.45011C208.711 6.61272 207.94 6.3146 207.291 5.55574L205.982 7.79166L206.622 8.23885L207.443 7.34448V6.45011H207.778L207.96 7.5884L207.291 7.79166L206.956 10.2309L207.626 10.678L207.778 11.8163H208.265V10.4748H208.782L208.934 11.1252H209.421L210.76 10.2309L211.399 11.1252L211.582 12.914H211.247L210.273 12.4668V12.914L210.577 14.2555H209.756L209.269 14.0523L208.447 14.4588L207.778 14.2555L207.139 14.4588V15.1499L207.626 15.5971L208.113 19.3778H207.778L207.626 20.0283L207.139 20.2722V20.7194L207.626 21.1666C207.504 21.8983 207.666 22.3455 208.113 22.5081L208.447 21.6138H209.269L209.604 21.817V22.5081H209.938L210.273 21.6138C211.511 21.3156 212.718 21.3834 213.894 21.817L214.046 21.1666L217.181 20.4755L218.002 21.3699L218.489 21.817L218.672 23.1586H219.007L219.493 22.7114V23.4025L219.311 24.2562L220.163 24.5002L220.315 25.3945L220.802 25.5978L220.985 27.3865L220.65 28.7281L220.467 29.1753L221.137 30.0697L220.315 30.2729L219.98 30.964V30.0697H219.493L219.311 31.1673L219.98 32.0617L219.828 32.7121L220.467 32.956V34.0537L219.311 33.6065V34.2976L219.646 35.3952H220.163L219.646 35.6391V36.2896L219.98 36.9807L219.828 37.3872L219.159 36.2896L218.489 36.0863C218.063 36.6826 217.901 37.5634 218.002 38.7288H219.007L218.002 38.9727V39.4199H217.668ZM193.932 33.1593L193.445 32.3056L193.263 33.1593H193.932ZM219.159 33.4032V32.7121H218.824L218.672 33.4032H219.159ZM193.932 30.964V30.5168H193.445V31.4112H193.932V30.964ZM203.67 29.8257L203.822 28.9314L203.335 28.4842H203V29.1753L203.183 30.0697L203.67 29.8257ZM205.465 29.8257L205.982 28.7281H205.465L204.826 29.1753L204.644 30.0697L205.465 29.8257ZM201.357 29.6225L201.509 28.9314L200.87 28.7281L200.688 29.8257L201.357 29.6225ZM204.157 28.7281V27.8337H203.822L203.67 28.7281H204.157ZM212.738 28.4842L213.712 28.2809V27.3865H213.073L211.734 27.8337V28.2809L212.738 28.4842ZM211.095 27.8337V27.3865H210.76V27.8337H211.095ZM204.157 27.3865L204.309 25.8417H203.822V25.1506H203.335L202.848 25.3945L202.666 24.9473L203.67 24.5002V23.809L203.335 22.9553L204.157 22.5081L204.826 22.9553L205.161 21.817L204.157 21.6138V21.1666L203.335 20.4755V19.825L204.005 19.5811L204.309 17.5891H203.822L202.666 18.9307L202.513 20.7194H202.027L201.692 20.4755L200.87 19.3778L200.049 19.5811L199.379 19.1339L198.557 20.4755H198.892V20.9227L198.71 21.6138L199.197 23.4025H200.535L200.688 24.2562L201.205 24.5002V22.9553H202.179V23.809H201.692V24.7034L202.331 25.8417L202.848 26.045L203 26.9394C203.548 26.8038 203.934 26.9529 204.157 27.3865ZM205.8 27.1833V26.7361L205.465 25.8417L204.644 25.5978V26.045L205.313 27.1833H205.8ZM213.56 26.4922L213.712 25.1506H213.073V26.2889L213.56 26.4922ZM207.139 26.2889L206.287 25.8417V26.9394H206.622L207.139 26.7361V26.2889ZM206.469 25.3945V24.7034L206.622 23.809H206.135L205.8 24.7034L205.982 25.3945H206.469ZM208.265 25.1506L208.447 24.5002H208.113L207.96 24.9473L207.778 25.3945L208.265 25.1506ZM205.465 25.1506V24.7034L205.161 23.809L204.491 23.6058V24.053L204.826 25.1506H205.465ZM199.866 24.2562V23.6058H199.379V24.2562H199.866ZM212.738 22.2642V21.817H212.403V22.2642H212.738ZM196.58 20.7194V20.0283L196.732 19.3778H196.397L195.758 20.9227H196.093L196.58 20.7194ZM201.205 18.7274V18.2802L202.331 17.833L202.513 17.3858L203.183 17.1419V16.6947L203.487 17.1419L204.644 17.3858L205.313 16.6947L205.8 16.9386V16.4915C205.577 15.8952 205.191 15.6648 204.644 15.8004V16.2475H204.157V15.3532L204.978 14.4588L205.161 12.2635H204.309L204.157 14.2555L202.666 14.7027L201.205 14.0523L201.022 14.7027H200.688L200.049 14.4588L198.71 14.7027V16.6947L199.531 17.1419V18.0363L200.688 18.2802V18.7274H201.205ZM200.87 14.2555V13.8083H200.535V14.2555H200.87ZM203.335 14.2555V13.8083L202.513 13.3612V13.8083L203.335 14.2555ZM197.066 13.8083L197.219 13.1579H196.58V14.0523L197.066 13.8083ZM209.938 13.6051L209.421 12.914V13.8083L209.938 13.6051ZM201.022 13.3612L201.357 11.8163H202.027L202.179 13.1579L202.848 13.3612L203 11.8163H204.644V11.1252H203.822V9.58041L203.335 7.14121H203L202.513 8.48277H200.535L200.353 7.5884H199.714L199.531 8.68604L198.71 8.92996L198.557 10.4748L199.379 12.4668L199.866 12.7107L200.201 12.4668L199.866 13.6051H200.535L201.022 13.3612ZM210.76 12.2635V11.5724H210.425L210.273 12.2635H210.76ZM204.644 10.678V10.0276H204.157V10.678H204.644ZM206.622 9.37714V8.68604H206.135V9.37714H206.622ZM201.509 8.48277V7.14121H201.022V8.48277H201.509ZM202.179 7.5884V6.89729H201.692V7.5884H202.179ZM203.183 7.14121V6.24684H202.666V7.14121H203.183ZM210.091 6.24684V5.79965L209.604 5.55574V6.00292L210.091 6.24684ZM211.095 5.55574L210.577 4.90528V5.35247L211.095 5.55574ZM206.287 5.35247L206.469 4.70202H205.8V5.55574L206.287 5.35247ZM211.247 3.80765L211.399 2.91327H210.912L210.425 3.11654V3.56373L211.247 3.80765Z" fill="#483D3F"/>
<path d="M170.621 29.7809L169.709 29.1368V28.7994L169.349 28.4621L169.137 27.7873L170.049 26.5912L169.921 26.2538L170.261 26.1005L170.494 25.4257L171.639 25.0883L171.767 23.7389L172.318 23.4015H172.679L172.891 22.3894L173.824 21.8986L173.93 21.4079L173.824 21.0705L174.503 21.2239C174.573 20.5491 174.799 19.9357 175.181 19.3837L176.093 19.1997L176.327 18.3716L176.666 17.8808L176.56 17.3594L177.005 17.5435L177.366 15.8566L177.705 15.1818H177.938L178.151 13.679H178.956V13.1576L178.617 12.3295L176.093 11.8388L176.22 10.98L176.433 10.3053H175.987L175.754 9.47718L175.521 9.29316C176.284 8.63886 177.125 8.36282 178.044 8.46506L179.868 8.95578L180.335 8.80243L180.674 8.95578L181.247 8.80243L181.82 9.1398L181.926 8.61841C182.661 8.51618 183.389 8.46506 184.11 8.46506V8.80243L184.556 8.31171L185.128 8.12769L185.234 8.61841H185.595L186.274 8.46506C186.429 8.79221 186.655 8.90467 186.952 8.80243L187.292 8.61841L187.864 9.29316V11.5014L187.292 11.6548V11.9921L186.74 11.8388V12.3295C185.651 12.35 184.584 12.2375 183.538 11.9921L182.838 12.1455L182.498 11.9921L181.353 12.4829L181.12 13.1576L180.78 13.3416V13.0043L180.335 13.679L180.441 14.8445C180.215 15.3965 179.989 15.8464 179.762 16.194H180.674L181.353 15.6726L181.48 17.0221L181.82 17.2061L182.626 16.8687C183.318 16.9505 184.004 17.0016 184.683 17.0221L185.234 16.6847L185.595 16.8687L186.04 16.6847L186.38 16.8687L186.952 16.6847V17.0221H187.185L187.525 18.2182H187.758L187.864 19.537L187.758 20.0584H187.991L188.097 20.7332H187.864V21.2239H188.331L188.437 22.236L188.331 22.5734H188.097V23.0641H188.564L188.67 24.2602L188.331 24.4136L188.225 24.935L188.564 25.0883L188.797 26.5912L189.137 27.2659H188.903V27.7873C188.366 27.7873 187.907 27.9509 187.525 28.2781L187.292 28.9528H186.846L186.507 28.7994L185.468 29.1368L183.304 28.4621V28.1247H183.071L182.838 28.6154L182.053 28.2781L180.441 28.7994L179.996 28.4621L179.529 27.7873V28.1247H178.85V27.7873H179.529V27.1126L178.85 26.9286V26.5912L178.956 26.1005L178.384 25.6097L178.723 25.2724L178.85 23.7389H178.278L178.617 22.236L178.956 22.0827V21.7453L178.617 21.4079H179.19V20.7332L179.296 20.3958L178.956 20.2118L178.49 20.0584L178.151 21.2239L178.044 20.8865H178.278V20.2118H177.578C177.436 20.8865 177.323 21.5613 177.239 22.236H177.005L176.899 21.0705H176.56C176.334 21.7453 176.22 22.4098 176.22 23.0641L175.881 23.2481L175.521 23.0641L175.415 24.4136H175.181L174.736 24.2602L174.375 25.2724L174.036 25.4257L173.591 26.7752H173.251V26.4378H172.891L172.551 27.6033H172.212L171.873 27.45C171.873 28.1247 171.76 28.687 171.533 29.1368V28.4621H171.194C171.265 29.1164 171.074 29.556 170.621 29.7809ZM181.692 26.9286L183.644 26.2538L184.789 26.5912L184.895 25.2724L185.022 24.935L184.789 24.4136H185.128V23.9229L185.022 23.4015L185.234 22.9108L184.683 22.5734L184.45 21.0705L184.556 20.7332L184.322 19.1997L183.644 19.0463L183.538 19.537H183.177L182.838 19.3837L182.498 19.537L181.247 19.0463L180.908 25.4257L181.247 26.9286H181.692ZM188.331 24.0762L188.437 23.5855H188.097L187.991 24.0762H188.331ZM179.19 23.2481V22.5734H178.85V23.2481H179.19ZM187.758 22.3894L187.864 21.8986H187.292L187.185 22.3894H187.758ZM185.468 21.7453V21.4079H185.234V21.7453H185.468ZM186.04 21.8986V21.5613L185.701 21.4079L185.595 21.8986H186.04ZM177.705 20.0584V19.721H177.472V20.0584H177.705ZM185.701 20.0584V19.721H185.468V20.0584H185.701ZM179.996 18.7089V18.0342H179.19V18.3716L179.996 18.7089ZM178.723 18.3716V17.8808H178.384V18.2182L178.723 18.3716ZM178.384 14.5071L178.044 14.0164V14.6911L178.384 14.5071ZM183.304 11.8388V11.3174L182.838 11.164V11.8388H183.304ZM187.652 10.98L187.758 10.4893H187.525L187.419 10.98H187.652ZM183.177 10.6426L182.732 9.9679V10.3053L183.177 10.6426ZM186.613 10.8267V10.3053H186.38L186.274 10.8267H186.613ZM184.45 9.81455L184.216 9.47718V9.81455H184.45Z" fill="#483D3F"/>
<path d="M133.926 40L132.414 39.2388V38.2699L130.691 38.0969V36.955L131.078 36.3668C131.336 35.6055 131.711 34.8443 132.203 34.083L132.027 33.5294H132.414V32.5606L133.574 32.9412L133.75 32.3875L133.188 32.0069V30.8651H133.926V30.2768L133.75 29.8962L135.297 30.2768V29.8962H134.91V29.3426L136.809 28.7543L137.582 31.0381L137.371 31.6263C136.738 31.4879 136.422 31.6724 136.422 32.1799L137.195 32.5606L136.633 32.9412V33.5294L136.809 34.4637L138.531 34.6713L143.699 33.3218V32.5606L143.312 31.7993L144.086 31.6263V31.2457L143.91 30.6574H144.648V29.7232H144.086L143.699 29.8962L143.91 29.3426L143.699 28.3737L143.91 27.6125L143.523 26.6782L144.086 25.917L144.648 25.5363L145.246 24.5675L146.02 24.3945L146.969 24.9481C148.117 26.1015 148.82 27.4394 149.078 28.9619L148.691 29.8962L149.078 31.0381L148.867 31.6263L149.078 32.1799L148.867 32.7682L150.977 32.9412C152.383 33.0796 153.602 32.8258 154.633 32.1799V31.7993L154.035 31.4187L153.648 27.8201L155.582 25.7093H156.531L156.918 27.0588H157.305L157.48 27.6125L158.254 28.2007H156.742V28.5813L157.129 29.7232L158.641 29.1349L158.852 29.7232L158.254 30.4844L158.852 32.0069L158.078 32.3875L157.691 33.1488H158.465V34.4637H159.027L159.414 33.7024L160.363 33.5294L160.75 34.8443L160.363 36.1938L161.137 38.0969C160.105 38.6044 159.016 38.9158 157.867 39.0311L157.691 39.4118H156.531V40H155.969L155.195 38.0969L155.02 37.128C154.363 36.6205 153.531 36.436 152.523 36.5744L151.574 36.7474C150.918 36.1246 150.086 35.8131 149.078 35.8131L148.691 36.7474H148.305L146.582 36.3668V37.3356H146.195V36.3668H145.809L144.648 37.7163L146.02 38.2699H145.422L144.648 37.7163L144.297 37.128H143.91L143.312 38.4775L142.188 38.6505L141.414 38.2699V38.6505L140.465 38.4775V37.8893H138.918L138.742 38.8581L136.246 39.2388L135.086 39.0311L134.312 39.4118L133.926 40ZM159.414 40L159.977 39.6194L160.188 40H159.414ZM137.02 38.8581L137.195 38.2699H136.422V38.6505L137.02 38.8581ZM136.035 38.4775L135.648 38.0969L135.086 38.8581H135.473L136.035 38.4775ZM143.523 36.5744L144.086 35.4325H143.312L142.75 36.3668L143.523 36.5744ZM132.203 36.3668L132.414 35.8131H131.641V36.1938L132.203 36.3668ZM140.254 36.3668L139.48 35.4325V36.1938L140.254 36.3668ZM146.758 35.2249V34.8443H146.371V35.2249H146.758ZM134.91 35.0519L135.086 34.4637H134.312V34.8443L134.91 35.0519ZM141.59 34.8443L141.203 34.4637V34.8443H141.59ZM133.926 33.91L134.137 33.3218H133.75L133.188 33.5294V34.083L133.926 33.91ZM136.633 34.083V33.5294H136.035V34.083H136.633ZM135.086 33.5294L135.473 32.5606H135.086L134.312 32.9412L134.137 33.5294H135.086ZM135.648 32.3875V31.7993L134.523 31.4187V31.7993L135.648 32.3875ZM136.246 31.6263V31.2457L135.648 31.0381V31.6263H136.246ZM145.809 31.4187V30.6574H145.422L145.246 31.2457L145.809 31.4187ZM134.699 31.2457V30.6574H134.137V31.0381L134.699 31.2457ZM155.02 30.8651L154.246 30.6574V31.0381L155.02 30.8651ZM156.742 30.8651L157.129 30.1038H156.355V30.8651H156.742ZM148.129 27.9931V27.6125H147.742V27.9931H148.129ZM138.355 26.2976L136.633 26.09L136.246 25.5363L135.473 25.3287L135.297 24.7751L136.035 24.0138H136.422V23.6332L137.582 23.2526L137.758 22.872H138.145L138.742 23.045V22.0761H139.867L140.078 21.5225L141.414 21.3149V20.7612L139.48 20.173V19.2388L138.531 19.7924V18.8581H137.969L137.758 17.5086L139.129 17.3356L139.48 18.0969L143.312 19.4118L144.086 19.0311V18.6505C145.492 17.6355 146.582 16.436 147.355 15.0519H148.129C148.762 13.391 149.266 11.7416 149.641 10.1038L148.691 9.51557L148.48 8.96194L147.918 8.75432L147.355 8.96194V9.34256L147.742 9.51557V9.89619L146.758 10.1038V10.6574H146.195L145.246 9.72318V10.2768L145.633 10.8651H145.246L143.699 10.2768L142.926 10.4844L141.977 10.1038L141.59 10.6574C141.59 10.0346 141.273 9.78085 140.641 9.89619L140.465 10.2768H139.129L138.145 10.1038L137.195 10.4844L136.422 10.1038L136.246 10.6574H135.297L134.137 10.1038L132.59 10.4844L130.867 10.1038L130.48 11.6263L129.531 12.1799L129.355 12.7682L130.305 12.9412L128.582 13.91L127.809 13.7024V14.6713L125.699 15.2249L125.523 14.6713L125.91 13.7024L125.137 13.3218L126.086 13.1488V12.7682L125.137 12.0069V11.6263L126.297 10.8651L125.312 10.2768V9.89619L126.473 9.72318L126.648 8.20069L125.91 8.96194L125.312 9.13495L125.137 8.58132L125.523 7.05882L126.859 6.47059L127.035 6.08997H127.422L128.02 6.29758L128.969 5.70934L129.918 6.08997L130.48 6.6782H131.254L131.465 6.08997L134.137 5.53633L134.312 4.9481H133.926V4.56747L135.648 4.18685L137.195 4.56747L138.355 5.32872V5.91695L137.969 6.6782H138.742C138.742 5.91695 138.988 5.34025 139.48 4.9481H140.254L140.641 5.15571V5.53633H141.203L141.59 4.77509L142.926 4.18685L143.312 3.42561H143.699V3.04498L143.312 1.90311L144.648 1.14187C144.906 0.634371 145.363 0.438293 146.02 0.553633V0H148.867L149.254 5.15571L149.852 5.32872L150.59 5.15571V5.91695H150.977L151.75 4.9481V5.91695H152.523L152.699 4.77509H153.297L153.648 6.08997H154.246V4.9481L154.035 4.35986L154.809 4.18685V4.9481H155.195L156.531 4.18685L157.129 4.35986L157.867 3.97924L158.641 4.35986L159.203 4.18685V4.56747H159.801V3.97924H160.363V4.9481L160.188 5.53633H160.926L161.523 5.32872V4.56747H161.91C161.91 5.21338 162.156 5.72088 162.648 6.08997L163.422 6.6782V7.23183H164.195V8.58132H163.809L163.633 7.82007H163.246L163.035 6.85121H162.086L161.699 6.6782L161.312 8.3737H161.699L161.91 7.99308H162.297L162.473 9.72318L163.035 9.89619V9.13495L163.633 9.89619H163.035C163.176 10.9112 162.988 11.7993 162.473 12.5606H161.699L161.523 13.1488H161.137V13.91H160.75L160.188 13.7024L159.414 14.083C159.039 12.699 158.523 11.3725 157.867 10.1038C156.977 9.4579 155.957 9.20415 154.809 9.34256L154.422 10.4844L155.195 10.6574L154.422 10.8651V12.1799H154.809V13.3218L154.246 14.083H154.809V14.4637L154.035 14.6713V15.0519L153.297 15.2249L152.91 16.3668H152.523L152.137 17.128L151.75 17.8893L150.977 17.3356L150.801 18.6505L150.203 19.4118L150.414 20L149.465 19.7924L149.254 20.5536C149.512 21.4533 150.086 21.7762 150.977 21.5225L152.137 21.3149V22.0761H152.523C153.672 21.707 154.879 21.4533 156.145 21.3149L156.355 21.9031H155.969V22.4914H156.918L157.867 22.2837V23.8062L157.691 24.7751H157.129L156.742 24.1869H155.582L155.02 24.0138L153.859 24.3945V24.0138C152.453 24.0138 151.176 23.6909 150.027 23.045L149.078 23.2526L146.02 22.6644C145.363 23.3103 144.531 23.564 143.523 23.4256L143.312 24.7751H141.027V25.5363H140.078V25.917L138.355 26.2976ZM130.129 23.4256L129.918 22.6644L128.371 22.2837L128.195 21.6955L129.145 21.3149V20.7612H128.758V20.173L130.691 18.8581L130.867 17.8893L131.641 17.5086L132.027 16.7474L132.203 17.3356H133.363L134.137 16.955V16.3668H133.574L132.977 16.5744L133.926 15.9862L134.523 16.3668V17.128L134.137 18.2699H133.75V19.2388L133.926 20.173L133.75 20.5536H132.801L131.465 20V20.7612L132.59 21.1419L132.801 21.9031L131.852 22.2837L131.641 23.045L130.129 23.4256ZM130.48 22.6644L129.918 22.2837L129.742 22.872L130.48 22.6644ZM161.137 22.2837L159.801 21.1419L159.203 21.5225L159.027 20.7612L158.078 20.3806L156.742 20V19.0311C156.086 19.1695 155.758 18.9158 155.758 18.2699L155.371 16.955L154.422 16.5744L154.035 15.9862L156.918 15.8131L157.48 15.9862L157.691 16.7474L159.203 17.3356V17.7163H159.801L159.59 18.4775H160.574V19.4118L161.699 19.7924V20.173L162.297 20.7612H161.312L161.137 21.6955V22.2837ZM132.027 18.2699L131.641 17.8893V18.2699H132.027ZM156.918 17.8893L157.129 17.3356L156.355 17.128L156.145 17.8893H156.918ZM141.801 15.8131V15.0519L141.414 13.91H140.852V14.6713L140.465 12.5606H140.078L139.867 13.1488H139.48L139.129 12.9412L138.918 12.0069L140.465 11.7993L141.801 11.6263L143.137 12.3875L143.699 13.3218L145.246 13.91L141.801 15.8131ZM126.297 14.8443V14.2907H125.91L125.699 14.8443H126.297ZM127.035 13.91V13.3218H126.648L126.473 13.91H127.035ZM154.035 12.9412L153.473 12.7682V13.1488L154.035 12.9412ZM161.523 12.0069V11.6263H161.137V12.0069H161.523ZM160.926 10.8651L161.137 10.2768H160.75L160.363 11.0381L160.926 10.8651ZM162.473 11.0381V10.4844H161.312V10.8651L162.473 11.0381ZM159.59 9.89619L159.801 9.34256L158.641 8.75432V9.34256L158.852 9.89619H159.59ZM128.969 9.72318V9.34256H128.582V9.72318H128.969ZM132.027 9.51557L131.641 9.13495V9.51557H132.027ZM153.297 9.72318V9.13495H152.523V9.51557L153.297 9.72318ZM153.859 8.75432V8.3737H153.473V8.75432H153.859ZM146.195 8.58132L146.371 7.99308H145.633L145.422 8.58132H146.195ZM128.02 8.20069L127.633 7.99308V8.3737L128.02 8.20069ZM143.137 7.23183V6.85121L142.574 6.6782V7.23183H143.137ZM147.355 7.05882L146.582 6.6782L146.371 7.23183L147.355 7.05882ZM144.859 6.29758L144.297 6.08997V6.47059L144.859 6.29758ZM136.633 5.53633L137.02 4.77509H135.297V5.32872L136.633 5.53633ZM129.145 5.15571L129.531 4.77509V5.15571H129.145ZM143.312 5.32872V4.9481H142.926V5.32872H143.312ZM158.641 5.15571V4.77509L157.867 4.35986L157.305 4.56747V4.9481L158.641 5.15571Z" fill="#483D3F"/>
<path d="M99.8008 35.6401L99.2383 34.7058L99.4141 34.1176H98.2539V33.7369L99.2383 32.0414L99.9766 31.4878V30.7266L99.8008 30.1383L100.75 29.7577L101.137 28.6158H101.523V27.8892L102.297 27.5086L102.473 26.3667H103.422L103.809 24.256L104.582 24.083L104.793 23.5293H104.195V22.9411L104.969 21.7992L104.406 21.6262L103.809 21.7992V21.4186H103.422V21.038L103.633 20.4843H102.684L102.473 21.7992L102.297 21.038C101.641 21.038 101.066 20.8534 100.574 20.4843L99.2383 21.2456L99.0273 20.865L99.5898 21.038V20.6574L99.0273 20.3113V19.9307L99.4141 19.1695H98.8516L98.2539 20.3113L98.0781 19.7231L98.8516 17.82L99.0273 17.0587L99.9766 16.1245V14.9826L99.8008 14.2214L101.312 13.8407V13.2871H100.75V12.9065L100.961 12.1452L101.523 11.9722C101.781 11.0726 102.098 10.1845 102.473 9.30787L102.859 9.10026V8.16601H103.422V7.61237H102.859V6.64352L104.582 5.88227L104.793 4.39438L105.918 4.18677L106.305 7.61237L105.531 7.40476V8.92725C106.305 9.29634 107.078 9.48089 107.852 9.48089L108.027 10.0691H108.414L108.801 9.86151L109.363 10.0691C109.879 9.42321 110.582 9.22714 111.473 9.48089V10.0691H111.859L113.02 9.48089V10.0691H113.582V9.48089H113.969L114.531 9.6885L115.867 9.10026V9.48089H116.641L118.188 8.92725L118.75 10.6228H118.188V11.384L117.238 11.211V11.5916L117.414 12.3529L116.641 12.5259L116.465 11.9722H114.918L113.582 12.5259L113.02 12.3529V13.0795H113.406H112.422L111.473 14.0484H111.086V14.429L111.473 14.9826L109.75 15.3632V15.9515L111.086 17.0587L110.312 17.4394L109.188 17.0587V17.647L110.523 18.2006V19.5501L109.363 18.5812V19.3425C109.762 19.85 109.891 20.4843 109.75 21.2456L109.188 22.0068L109.363 22.5605L108.801 22.7681V23.3217L109.188 23.91L108.977 24.4636L110.312 25.0172L110.699 24.8442L111.297 25.7785L112.246 26.1591V26.9203L113.793 27.1279L113.969 28.8234H114.355V29.5847H114.742L115.129 28.9965H116.254V29.7577L117.977 29.9653V30.3459H118.363V30.8996L117.414 31.2802L116.465 29.9653L115.867 29.7577V30.7266L115.691 31.1072L116.078 32.2144H116.852L117.414 32.0414V32.4221L116.465 32.8027L116.254 33.1833H115.516L114.742 32.8027V33.1833L114.918 33.9446L113.969 34.1176L113.582 33.1833H113.195L112.633 33.3563L112.07 32.5951H111.473L111.297 31.8684L109.75 31.1072L109.188 29.5847C108.156 29.5847 107.324 29.2617 106.691 28.6158L105.918 27.5086L105.355 27.301L104.793 27.5086V28.0622C105.285 28.4313 105.473 28.9965 105.355 29.7577L104.582 29.9653L104.406 30.8996H103.422V31.2802L103.809 31.4878V32.4221L102.684 32.5951V33.7369L101.312 33.9446L100.75 35.2594L99.8008 35.6401ZM91.1875 32.4221L89.4648 31.8684L88.6914 32.0414C87.918 31.5339 87.6016 30.8996 87.7422 30.1383H87.3555L86.9688 30.8996H86.582L86.4062 30.1383L86.9688 29.5847C85.5859 28.8234 84.7539 27.6239 84.4727 25.9861L84.0859 25.7785V25.2248H84.4727V23.91H84.0859V23.3217L84.6836 22.3875L84.0859 22.1798L84.4727 22.0068V21.6262L84.0859 21.4186C84.3438 19.9192 84.0273 18.5928 83.1367 17.4394H83.6992V16.6781L84.6836 16.8857V16.5051L84.4727 15.9515C86.4883 15.5593 88.5273 15.3056 90.5898 15.1902L91.3633 15.3632L91.9609 15.1902V15.5709C92.5938 14.1637 93.0977 12.7681 93.4727 11.384C91.9492 11.0149 90.3555 10.888 88.6914 11.0034L88.1289 11.211L85.8086 11.0034L84.4727 11.211L84.2969 10.6228L85.0703 9.48089L87.918 8.54663L88.8672 8.92725C90.0156 8.92725 91.1055 8.74271 92.1367 8.37362L93.2969 8.71964C94.8203 8.0968 96.4727 7.72771 98.2539 7.61237L98.8516 8.54663L97.8672 10.4497L96.918 10.8304L96.3555 12.3529H95.9688L96.1445 13.4601C95.6523 14.9826 95.207 16.5628 94.8086 18.2006L94.0703 18.4082L93.6836 19.5501L92.5234 19.7231L91.9609 18.0276H91.1875L87.5312 18.5812C86.5 22.5259 87.4609 23.9976 90.4141 26.9965L92.5234 27.7577L96.1445 26.9965L96.7422 27.9653H95.9688V30.3459L96.1445 30.7266H95.0195V31.6608L93.2969 31.8684L92.6992 31.6608L91.5742 32.0414V32.4221H91.1875ZM102.684 31.6608V30.7266L102.086 30.5189L101.91 31.2802L102.684 31.6608ZM113.969 31.8684V31.2802H113.406V31.8684H113.969ZM115.305 31.6608V30.8996L114.742 30.7266L114.531 31.2802L115.305 31.6608ZM112.246 31.1072V30.3459H111.684V31.1072H112.246ZM102.684 29.9653V29.3771L102.473 28.2352H102.086L101.91 29.5847L102.684 29.9653ZM112.809 29.9653V29.3771H112.07V29.9653H112.809ZM112.246 28.9965L112.422 28.2352H113.02L113.582 28.4428V28.0622L113.02 27.1279H112.422V27.5086L111.684 27.6816V28.8234L112.246 28.9965ZM111.086 28.8234L110.523 28.6158V28.9965L111.086 28.8234ZM111.297 26.1591L110.91 25.7785V26.1591H111.297ZM86.793 23.91V23.3217H86.1953V23.91H86.793ZM86.582 22.3875L86.0195 21.7992V22.1798L86.582 22.3875ZM106.516 20.865V20.3113L106.305 19.5501L107.078 18.7888L106.867 17.82C108.016 16.4359 108.719 14.8557 108.977 13.0795L108.801 12.5259L106.691 12.1452L106.129 12.5259L105.918 11.7646L105.355 11.5916L104.406 11.7646V12.1452L103.809 12.5259L102.859 15.9515L103.246 16.5051L104.195 17.0587L104.969 17.647L105.531 19.1695L105.145 19.9307L104.793 20.6574L106.516 20.865ZM103.07 19.9307L103.246 19.5501H102.473V20.1037L103.07 19.9307ZM104.406 19.7231C104.781 19.2156 104.91 18.5812 104.793 17.82L104.582 17.4394H104.195L103.809 18.9619H103.422V19.3425L103.633 19.9307L104.406 19.7231ZM102.473 18.5812V18.0276H102.086L101.91 18.9619H102.473V18.5812ZM108.414 18.2006V17.82L107.852 17.647V18.2006H108.414ZM110.91 16.3321L111.473 15.9515V16.3321H110.91ZM102.859 16.3321V15.7439H102.473L102.297 16.3321H102.859ZM109.574 13.8407L109.188 13.4601V13.8407H109.574ZM111.473 11.0034L111.684 10.2421H110.91V11.211L111.473 11.0034ZM104.793 9.48089L104.406 7.78538H104.02V8.54663L104.793 9.48089ZM104.582 7.23175L104.969 6.08988H104.406L104.195 7.23175H104.582ZM105.918 5.50165V4.7404H105.531L105.355 5.70926L105.918 5.50165Z" fill="#483D3F"/>
<path d="M56.0814 37.3355C55.5658 36.5743 54.8509 36.2629 53.9368 36.4013L53.7611 35.8476L53.9368 35.0864H55.4837V35.467L55.097 36.1937H55.6947L56.6439 34.4982H57.2064L58.1908 34.7058L58.5775 34.1175H59.14L59.7376 34.3252C59.9954 33.933 60.4408 33.8061 61.0736 33.9445L61.4603 32.9757L62.4095 32.595L63.1829 32.8027C63.6986 32.0414 64.4017 31.73 65.2923 31.8684V31.2802L67.2259 30.5189L67.6126 29.7577H67.9993L69.3353 30.1383L69.5462 31.2802H68.7728L68.597 32.2144H67.8236L67.4368 33.1833L66.6634 33.3563L66.4525 33.9445C65.0462 35.0749 63.5111 35.7669 61.847 36.0207C61.5892 36.5281 61.0736 36.7127 60.3001 36.5743L58.5775 37.1625L57.9798 36.7819L57.2064 37.3355L56.6439 37.1625L56.0814 37.3355ZM58.3665 31.2802L57.9798 30.3459H58.3665V29.9653L58.1908 29.3771C59.4798 29.1233 60.6283 28.5581 61.6361 27.6816L62.0228 26.9203C63.054 26.2975 64.1439 25.8592 65.2923 25.6054L65.5033 24.6366L66.2767 24.4636L66.8392 25.3978H67.2259V25.7784L65.89 26.5397L65.1165 27.6816L64.554 27.8892L62.6204 29.5847C61.3314 30.4613 59.9134 31.0264 58.3665 31.2802ZM42.5814 32.8995L43.179 31.7577C42.5228 31.3886 42.265 30.8811 42.4056 30.2352L42.9681 22.7681H43.3548V22.1798H42.9681V20.4843H42.4056C41.9603 22.1452 41.1283 23.5985 39.9095 24.8442H39.5228L39.1361 25.6054L37.5892 25.9861C37.0736 25.7323 36.8743 25.2248 36.9915 24.4636L37.3783 23.7023L36.9915 23.5293L37.765 23.1487L38.1517 22.3874L38.7493 22.1798L38.9251 20.6573L40.2962 18.5812L41.2454 18.4082C42.5345 16.1245 43.7533 13.8523 44.9017 11.5916L45.4642 11.211V11.9722H46.2376L46.6243 14.2213C45.7337 14.9826 46.2884 15.9284 46.2884 17.0587L46.8509 17.2663L47.0618 18.0276H46.2884V18.4082L47.0618 18.7888V19.3425H46.6751V19.9307L47.4486 20.1037V20.6573H46.2884V21.038L46.4642 21.4186H46.8509C46.9681 22.3874 47.097 23.3332 47.2376 24.2559L46.6751 26.7473L47.2376 30.0622L46.4642 30.2352L46.2884 30.9964L46.4642 31.5847L44.9017 31.7577L44.515 32.3459L43.179 32.8995H42.5814ZM46.6751 29.6816V29.3009H46.2884V29.6816H46.6751ZM51.054 26.9203L50.2806 26.3667L50.1048 23.7023L50.4915 22.7681C50.2337 22.2606 50.0345 21.6839 49.8939 21.038H50.6673V20.6573L49.8939 20.1037V19.3425L50.8783 19.1694L51.265 18.2006L52.4251 18.0276L52.6009 18.5812L53.7611 18.9618V19.3425L53.1634 19.5501V19.9307L53.5501 20.4843L53.9368 21.038H51.8275V21.7992L53.1634 22.3874L52.8118 23.5293L52.9876 24.0829L52.8118 24.6366L52.9876 25.2248H51.4408V25.7784H52.2142L51.8275 26.9203H51.054ZM57.2064 25.9861L56.6439 25.6054V24.2559H57.0306C57.2884 23.7715 57.7337 23.4024 58.3665 23.1487L59.14 22.9411L60.6868 22.0068V21.6262L66.4525 17.2663C67.2259 17.3817 67.8704 17.1856 68.3861 16.6781V17.0587L66.0658 19.3425L65.679 20.8649C64.7884 20.6112 64.0853 20.7957 63.5697 21.4186L62.7962 22.5604L62.2337 22.7681L62.0228 23.1487L60.8626 23.5293L58.5775 25.3978L57.2064 25.9861ZM51.054 22.7681V22.3874H50.6673V22.7681H51.054ZM41.4212 21.7992L41.0345 21.6262V22.0068L41.4212 21.7992ZM52.8118 20.4843L52.2142 19.9307V20.3113L52.8118 20.4843ZM55.6947 20.1037V18.5812L54.9212 18.2006V17.82L55.8704 16.1245L56.6439 15.7438L57.5931 14.8096L58.7533 14.429V13.8407H59.14L59.3509 14.8096H59.9134L60.6868 14.2213C60.6868 13.5985 60.8743 13.0333 61.2493 12.5258C62.0228 12.6412 62.4798 12.3874 62.6204 11.7646L61.847 11.211V10.6227H62.2337V10.2421L61.4603 9.86148L61.2493 9.10024L61.847 8.92723L62.4095 9.10024C62.9251 8.4774 63.5697 8.16598 64.3431 8.16598V7.40474L62.0228 7.02411C61.6478 7.67002 61.015 7.8661 60.1243 7.61235L59.5267 7.40474L59.14 8.37359L58.3665 8.5466L57.0306 11.384L54.9212 11.7646L54.7103 11.0034H55.097V10.4497H54.3236V10.8303H53.9368V10.2421L55.4837 9.68847L56.4681 6.8511H57.0306L57.5931 7.02411V6.64349L57.2064 5.32861L58.1908 4.39436H58.5775L58.7533 3.4255H59.14V3.04487L58.9642 2.11062L59.7376 1.73L59.9134 1.14176L60.6868 0.96875C61.3197 1.84534 61.6361 2.9872 61.6361 4.39436L63.1829 4.74038V5.121L63.0072 5.70923H63.3939V6.47048H63.9564L64.3431 4.74038H64.7298L64.9056 4.18674H65.5033L65.89 4.74038L67.4368 4.94799L68.2103 4.74038L69.1595 5.121L70.4954 4.39436L71.0931 4.56737L71.8665 3.63311V4.94799L72.429 5.121V5.70923L71.8665 6.08986V6.64349L71.2689 7.40474H70.3197L69.5462 7.02411L69.3353 5.70923H68.7728L68.597 7.40474L67.8236 7.61235L67.6126 7.99297H66.8392L66.4525 9.30785H66.0658V11.0034L66.6634 11.211L67.4368 13.6677H67.9993V13.0795H68.597L69.5462 15.3632H70.1087V14.9826H70.4954V15.5708H70.8822L71.4798 14.8096V15.3632H71.8665V15.7438L71.4798 17.647L72.0423 17.82L73.3783 17.0587V17.4393C72.8861 18.2006 72.1829 18.5235 71.2689 18.4082L70.8822 16.1245H70.3197L68.9486 16.3321L67.9993 15.5708L67.8236 16.5051H66.6634L65.1165 14.9826C65.3743 14.106 65.1165 13.5985 64.3431 13.4601V13.0795L65.1165 12.9065V12.5258L64.1673 12.3528L63.7806 13.8407L63.9564 14.8096C63.1829 15.4324 62.2806 15.6862 61.2493 15.5708L61.0736 17.0587L60.8626 16.1245H60.3001V16.5051L59.9134 17.0587L60.1243 17.647H59.5267V16.8857H59.14L58.5775 18.4082H57.9798L56.8197 17.4393V18.4082L55.8704 18.7888V19.7231L55.6947 20.1037ZM74.9251 18.5812L75.1361 17.4393H74.1517V17.0587L75.1361 16.6781L75.3118 16.1245L75.1361 15.5708L75.5228 16.1245L75.9095 16.3321L76.0853 16.8857L75.5228 17.0587C75.64 17.82 75.4408 18.3275 74.9251 18.5812ZM76.8587 18.4082L76.6829 17.647L77.0345 17.4393L76.8587 18.4082ZM44.7259 17.4393L44.9017 16.8857H44.515L44.1283 17.647L44.7259 17.4393ZM57.9798 17.4393V16.6781H57.4173V17.2663L57.9798 17.4393ZM73.2025 16.3321L72.64 14.9826H73.2025V15.5708L73.765 15.7438L73.9759 16.3321H73.2025ZM57.9798 15.9514L58.1908 15.3632H57.2064L57.0306 15.9514H57.9798ZM60.3001 15.7438V15.1902H59.7376L59.14 15.3632V15.9514H59.5267L60.3001 15.7438ZM66.2767 12.9065L66.4525 12.3528L65.2923 12.1452V12.6989L66.2767 12.9065ZM60.6868 11.0034V10.2421H61.0736V10.8303L60.6868 11.0034ZM64.3431 11.211V10.6227H63.9564L62.7962 9.68847V10.0691L63.7806 11.211H64.3431ZM64.7298 9.68847L65.679 8.71961V8.16598L64.7298 7.61235V8.92723H64.3431L63.5697 8.5466L63.3939 9.30785L64.7298 9.68847ZM66.2767 8.5466L65.89 8.16598V8.5466H66.2767ZM72.9915 7.40474L72.8158 6.64349H73.765V7.23173L72.9915 7.40474ZM67.8236 7.02411L67.2259 6.64349L67.0501 7.23173L67.8236 7.02411ZM58.5775 6.26287L57.9798 6.08986V6.47048L58.5775 6.26287ZM63.0072 6.26287V5.70923H62.2337L62.0228 6.26287H63.0072ZM66.8392 5.70923L66.2767 5.50162V5.88225L66.8392 5.70923ZM71.4798 5.50162V4.94799L70.8822 4.74038V5.50162H71.4798ZM65.1165 5.121V4.74038H64.7298V5.121H65.1165Z" fill="#483D3F"/>
<path d="M4.67773 30.6933V30.3512L5.17773 27.6146L4.83398 26.775L2.83398 25.7488L2.64648 25.2201L5.17773 23.8829L5.86523 24.225L6.36523 22.5146H5.52148V21.4884L5.86523 20.8042C5.9694 19.5603 5.68815 18.4823 5.02148 17.5701C3.56315 17.6945 2.27148 17.4146 1.14648 16.7305L0.958984 16.0463L1.45898 14.8335H4.49023L5.17773 15.0201L5.67773 13.6518L5.33398 11.1018L6.67773 10.0756C7.4694 11.6719 7.86523 13.4341 7.86523 15.3622L8.36523 15.5177L9.55273 15.0201L9.70898 15.7043H10.0527L10.3965 15.0201L11.084 14.8335L10.7402 13.8384L10.8965 13.3097H9.89648C10.2923 11.8585 10.459 10.3866 10.3965 8.89389H11.2402L11.584 7.86768L12.2402 9.23597H11.7402V9.73353L12.7402 9.92011V10.6043L13.2715 10.7597V11.2573L12.7402 11.5994V12.128L13.4277 16.0463H13.7715L14.4277 15.7043L14.7715 16.3884L14.6152 17.228L15.1152 18.4097L14.959 18.7518H14.6152L14.1152 18.5963C13.0944 19.1561 12.6986 20.0061 12.9277 21.1463L13.084 22.8567H14.959V23.5408L13.7715 23.8829L13.4277 25.4067L13.584 26.2463L13.2715 27.117L13.4277 27.8012L13.2715 28.4853L13.4277 28.9829L13.084 29.1384V29.667L13.4277 30.3512L12.584 30.6933L11.084 30.3512L10.2402 30.5067L9.89648 30.3512V29.8225C10.334 29.0347 10.5007 28.1847 10.3965 27.2725L10.0527 26.5884H7.86523C7.5319 27.853 7.13607 29.1073 6.67773 30.3512L5.67773 30.5067L5.17773 30.3512L4.67773 30.6933ZM9.39648 23.8829C9.95898 23.6549 10.5215 23.4268 11.084 23.1988L11.2402 22.5146L10.7402 21.4884L10.2402 20.6488L10.3965 18.7518H8.36523C8.2194 20.2445 8.05273 21.7268 7.86523 23.1988L9.39648 23.8829ZM14.4277 18.0988V17.7567L14.1152 18.0988H14.4277ZM9.89648 17.0725V16.5439H9.39648V17.0725H9.89648ZM5.52148 15.5177L5.17773 15.1756L5.02148 15.7043L5.52148 15.5177ZM11.9277 13.3097L11.3965 13.1543V13.4963L11.9277 13.3097ZM13.2715 8.89389L13.084 8.20975L13.9277 8.02316V8.89389H13.2715Z" fill="#483D3F"/>
</svg>
