<svg width="272" height="40" viewBox="0 0 272 40" fill="none" xmlns="http://www.w3.org/2000/svg">
<path d="M262.406 39.9998V39.4457L261.633 39.2379L260.895 39.4457L260.508 37.3331L261.07 37.1599V36.1903H261.633V36.5712H262.406L261.633 36.9522V37.5409L262.195 37.7141L262.793 36.9522L263.355 36.1903H263.918V35.463H263.531L262.793 35.8439L262.582 34.4933L263.918 33.9392L264.094 32.9695L263.918 32.2076L264.094 31.6535H263.531L262.582 33.1773H263.355V33.5582H262.406L261.633 32.7963V32.4154L262.793 32.0344V31.4803L262.02 30.5106H261.633L262.195 30.1296L262.406 29.5755L261.457 29.3677L261.246 28.6058L261.457 27.2898L259.734 26.3548L259.559 26.9089H259.172L258.609 26.7357L258.047 26.9089V26.147H257.273V26.7357L253.863 27.1167L253.125 26.9089L252.914 27.6708L251.965 27.8786L250.84 28.4327L250.453 27.8786H250.066L249.117 28.2249L248.203 27.8786L247.992 27.1167L246.867 26.7357L246.305 25.766H245.707C245.965 26.7126 245.965 27.6592 245.707 28.6058L246.48 29.5755H246.867L246.305 29.7487L245.531 29.5755L245.355 30.1296L245.918 30.8916L246.867 31.2725V31.6535H246.305V32.0344L246.867 32.9695L246.094 33.1773V33.9392L242.508 34.3201V33.1773H243.246L244.406 33.5582V32.9695L243.246 32.2076L243.633 31.8612L244.02 32.0344L244.195 31.6535L244.969 31.4803V30.8916H244.195L243.844 31.0993L242.508 30.3374L242.297 29.3677L243.07 29.1946L243.633 29.3677L244.02 28.6058C243.387 28.6058 242.883 28.4211 242.508 28.0517V27.6708L243.457 27.1167L243.844 26.147H243.457L242.121 26.3548L241.559 26.147L241.172 26.7357H240.785V26.3548H240.223V27.2898H239.273L239.098 27.8786L235.301 29.7487V29.3677H234.738L234.562 29.9565H233.789L233.016 29.7487V30.3374L232.84 26.9089L233.613 25.9738H234.352L234.562 25.0041H235.125L235.688 25.2119L236.426 24.8309L236.637 24.069L238.324 23.3071L239.098 23.5149V22.5452H239.484L239.66 21.7833L240.434 21.4024L241.172 20.0864L239.66 19.1513V19.5322L238.711 19.3244V18.9435H238.148L237.586 19.7054L237.199 19.5322L236.426 19.1513L236.25 19.7054H235.863L235.301 19.5322L234.738 19.9132V19.1513H233.965L232.84 19.3244V17.0387C233.848 16.7848 234.855 16.5423 235.863 16.3115L236.426 16.4846C237.199 16.1152 237.961 15.9305 238.711 15.9305L239.273 16.1037V15.3418L236.074 8.90021L238.324 7.96514L239.484 8.90021V9.28116L239.836 9.66211L239.484 10.424L240.609 10.2162V9.83527H241.172L240.434 10.2162V10.805L240.609 11.5669H241.172L242.121 9.28116L241.945 7.3764C242.438 5.59862 242.941 3.89011 243.457 2.25086L243.246 1.48895L243.457 0.984863H245.355L245.531 1.31579L245.145 3.39371L244.406 3.60151V4.91752C245.039 5.67943 245.227 6.62604 244.969 7.75735L244.582 9.83527H244.02V10.5972H244.582L244.406 11.3591L245.145 11.74L246.305 10.0431L247.254 9.83527L247.605 8.90021L248.379 8.1383L248.941 7.96514C249.645 7.36485 250.219 6.66067 250.664 5.85259C251.789 4.21334 253.242 3.46298 255.023 3.60151V4.15562C253.617 6.6953 251.906 9.03874 249.891 11.1859L245.145 14.5799L244.969 15.7227H245.355L247.254 14.9608L247.992 15.1686C249.516 14.7761 251.098 14.3952 252.738 14.0257L253.125 14.7877H252.562L251.965 16.1037L250.84 16.3115L251.227 18.1816L249.891 18.3894L249.117 17.2465L248.766 18.1816C247.5 18.1816 246.422 18.5048 245.531 19.1513L245.355 19.7054L245.531 21.2292L245.355 21.7833L246.305 22.3721L246.48 23.134H247.254V23.5149L248.555 23.6881L248.941 24.45C249.691 24.5654 250.383 24.8194 251.016 25.2119L251.402 26.147H252.738L254.074 24.8309L262.02 24.2422C262.137 23.2494 262.641 22.3721 263.531 21.6102L265.043 21.2292V20.8483L264.094 20.6405L262.969 21.2292L262.02 20.8483V19.7054H262.969V18.5625L262.195 18.3894V17.8006C262.828 16.4154 263.332 14.9608 263.707 13.437H263.145V14.4067H262.406V13.818L262.582 13.2638L261.246 13.0561C260.754 13.4485 260.191 13.5755 259.559 13.437L257.66 11.74V12.3288H258.047L257.66 12.5019L256.887 11.3591L256.148 10.9781L255.199 10.0431V9.45432L255.973 9.28116L256.148 8.51926L257.836 8.1383C258.469 8.1383 258.984 8.39227 259.383 8.90021L259.945 9.83527L261.07 10.2162L261.246 10.9781L262.582 11.9478H262.02V12.6751L262.793 13.0561V13.437L263.355 12.6751L263.145 11.9478L264.094 10.5972H264.867V10.0431L264.656 8.51926H264.094L263.918 9.45432L263.355 9.66211L263.145 9.07337L263.707 7.75735L264.48 7.58419L264.656 6.44133H265.43V5.85259L264.656 5.47164L264.48 3.39371L265.043 3.22055V2.25086L264.867 1.8699H265.254C265.887 2.00843 266.32 2.38938 266.555 3.01276L267.715 4.15562V4.53657L267.328 5.09068L267.715 6.06038H267.328V6.61449C267.82 7.3764 268.066 8.19602 268.066 9.07337C267.316 8.95793 266.883 9.2119 266.766 9.83527H267.328V10.5972H266.766V11.9478L267.117 13.6448L266.203 14.1989V14.7877H266.941L267.328 15.7227L266.941 15.3418H266.555L266.203 16.8656L266.555 17.2465H266.941V17.6275L265.992 18.0084V18.3894H266.941L266.203 18.7703V19.3244L266.379 19.9132L267.117 20.0864V20.6405L266.941 21.0214H266.555L265.992 20.8483L265.605 21.6102L266.941 22.9262L268.664 23.3071L269.227 24.069V23.6881L269.016 22.753H269.402L269.789 22.9262L269.965 23.8959H271.125V24.45H270.738L270.176 24.2422L269.789 25.3851C269.039 26.0315 268.148 26.3548 267.117 26.3548V26.7357L267.504 29.3677L266.766 29.5755L266.203 29.3677V29.9565H265.605V30.5106L267.328 30.8916V31.4803H266.766L266.203 31.2725V31.8612L267.117 32.4154L267.328 33.1773H266.941L266.555 32.2076L265.43 32.4154V33.1773L266.766 33.7314L266.941 34.3201H265.816V35.2552L266.379 35.463V36.0171L265.992 37.3331H266.379V37.7141L266.203 38.476H265.816V37.7141H265.254V38.3028L265.43 38.8569L263.531 39.6188L263.355 39.9998H262.406ZM264.656 38.476V37.9219H263.918V38.476H264.656ZM265.605 36.1903V35.6361L265.43 35.082H264.867L264.48 36.1903H265.605ZM265.816 33.9392V33.3504H265.254V33.9392H265.816ZM245.145 33.3504L245.531 32.5885H244.969L244.793 33.3504H245.145ZM265.992 29.3677L265.043 28.9868L264.656 29.7487H265.043L265.992 29.3677ZM244.793 28.4327V27.8786H244.406L244.195 28.4327H244.793ZM264.094 28.2249V27.6708H263.531V28.2249H264.094ZM234.738 27.8786L234.914 27.2898L234.352 27.8786H234.738ZM243.246 25.3851V25.0041L242.895 25.3851H243.246ZM238.887 25.2119V24.8309L238.535 25.2119H238.887ZM268.277 25.2119L267.715 24.8309V25.3851L268.277 25.2119ZM239.836 23.3071V22.9262L239.484 23.3071H239.836ZM265.605 21.7833L265.043 21.6102V22.1643H265.816L265.605 21.7833ZM257.66 20.4673C257.027 20.0979 256.336 19.9132 255.586 19.9132L255.199 19.1513C254.191 18.5048 253.113 18.1816 251.965 18.1816H252.352L252.562 17.6275C253.805 16.981 255.188 16.6578 256.711 16.6578C257.461 17.3042 258.223 17.8122 258.996 18.1816L260.121 18.9435V19.5322H259.559L259.383 20.4673H258.223H257.66ZM263.355 20.4673L263.531 19.9132H263.145L262.793 20.6405L263.355 20.4673ZM263.918 19.9132V19.5322H263.531V19.9132H263.918ZM265.043 19.7054V18.7703H264.656L264.48 19.5322L265.043 19.7054ZM240.047 18.5625L239.484 17.8006V18.3894L240.047 18.5625ZM263.918 18.0084V17.4197H263.355V18.0084H263.918ZM263.918 16.4846V16.1037H263.531V16.4846H263.918ZM240.047 16.1037L239.66 15.7227V16.1037H240.047ZM240.996 15.9305V15.3418H240.434L240.223 15.9305H240.996ZM243.633 15.3418V14.7877L243.07 14.5799L242.895 15.3418H243.633ZM243.457 14.0257V13.6448L243.633 13.0561H243.246L242.895 14.0257H243.457ZM242.297 13.6448L242.895 12.5019H242.297L241.559 13.818L242.297 13.6448ZM244.969 13.437V12.8829H244.406V13.437H244.969ZM264.48 12.8829V12.3288H264.094L263.918 12.8829H264.48ZM244.195 12.6751V12.121L243.844 11.5669H243.07V11.9478L243.246 12.5019L244.195 12.6751ZM241.945 12.3288V11.74H241.383V12.3288H241.945ZM244.195 9.28116L243.457 8.90021V9.28116H244.195ZM267.328 7.3764V6.82229H266.766V7.3764H267.328Z" fill="#483D3F"/>
<path d="M202.234 39.0148V38.4261L201.285 38.2529L200.898 38.0451L199.984 38.4261L199.387 38.2529L200.16 37.6642L200.336 37.1101H200.723V36.5213L202.445 35.2053L203.57 34.9975V34.0624H203.957L205.469 33.3005V32.9196H205.855V32.1577L206.98 32.3308L208.492 31.188L208.668 30.6339C207.801 30.1259 206.922 29.6757 206.031 29.2832L205.645 29.872V29.1101L206.805 28.7291L207.156 26.4434L206.418 26.6165L206.031 25.6815L206.594 23.5689L206.418 23.0148L207.367 22.6339L208.492 22.807L209.055 21.872H208.668L207.93 22.0451L207.719 21.0754L206.805 20.6945L206.594 18.9975L207.156 17.4737L206.805 17.2659L207.543 17.4737L208.668 17.0927V16.7118L208.492 15.9499L209.266 15.3611L209.441 13.8373H209.828L210.566 14.0451L210.777 13.4564L210.566 12.6945H211.164V12.1404L210.777 10.6165H211.164L211.34 11.1707L212.078 11.3785V10.9975L211.34 9.2659L211.727 8.50399L212.465 6.98018L211.516 6.80702V5.83733H211.902L212.078 4.69447L211.516 4.52131L210.953 5.83733L210.391 5.66417V5.28321H209.828C209.055 5.79115 208.738 6.42607 208.879 7.18798H208.492L208.105 9.2659L206.98 9.64685L205.855 8.50399L205.645 6.98018L205.855 6.42607L205.645 5.83733L206.805 5.28321L206.98 4.52131L206.805 3.93256L207.367 2.20096H208.668L209.055 2.96287C209.688 3.49389 210.391 3.7594 211.164 3.7594L215.137 2.78971L215.699 2.96287L216.262 2.58192L219.496 1.64685L220.059 2.0278C220.691 1.38134 221.512 1.05811 222.52 1.05811L223.082 2.0278L224.031 2.40875V2.96287L225.156 3.17066V3.55161L224.98 4.14036H225.367L224.805 4.52131V5.07542H225.719L224.594 5.45637V5.83733L224.805 6.21828L224.207 6.42607L223.855 7.18798H223.258L222.906 8.12304C221.125 8.51554 219.672 9.53141 218.547 11.1707L218.336 11.9326L219.496 12.1404L220.797 13.4564H221.184L221.395 14.2183L221.184 14.807L221.395 15.188L222.309 14.807V15.3611L223.258 15.9499L223.469 16.7118H222.309V17.0927L221.57 16.7118L221.395 17.0927L221.008 16.123H220.621L220.234 17.4737H219.848L219.496 16.7118L219.672 16.123H219.285L218.547 16.504V17.0927L218.723 17.4737C217.973 17.2197 217.527 17.4044 217.387 18.0278L218.547 18.7897L219.285 18.4088L218.898 18.6165L218.547 20.3135C219.18 20.8215 219.367 21.5949 219.109 22.6339L219.848 23.188V23.7767L219.672 24.1577L218.898 24.5386V23.7767H217.984C217.961 24.7695 218.336 25.5891 219.109 26.2356L218.723 27.2053L218.898 27.9672L218.336 28.1404L218.16 28.9023H216.648L215.875 30.0451L212.676 30.4261L212.465 29.491L211.727 29.2832L211.516 30.2529L211.727 30.6339L210.777 30.807L210.566 30.0451H210.004L209.266 32.3308L210.391 32.9196V33.4737L210.215 33.8546H209.441L209.266 33.3005H208.668V34.0624L208.879 34.4434L207.93 34.2356L207.543 35.3785L207.367 36.1404H206.98V34.9975H206.418L206.207 35.7594L206.418 36.9023L206.031 36.1404H205.258V36.7291L205.469 37.1101L204.52 38.6339H204.133V38.0451H203.395L202.234 39.0148ZM216.648 39.0148V38.4261L216.824 37.6642H217.211V37.1101H216.648L215.312 37.872L215.137 37.1101L215.488 36.7291L215.312 34.9975L215.699 34.2356H214.75L217.984 32.7118L219.496 33.0927V33.4737H220.059L219.672 34.2356L220.445 34.4434L221.395 35.5862C222.004 35.5862 222.508 35.8979 222.906 36.5213L223.258 37.491H223.645L224.207 38.4261L224.98 38.6339L218.336 39.0148L217.598 38.6339L216.648 39.0148ZM209.055 31.7767L208.879 31.3958H208.492V31.9499L209.055 31.7767ZM210.566 29.6642V29.2832L210.391 28.7291H209.828L209.617 29.872H210.004L210.566 29.6642ZM213.977 29.2832V28.9023L213.801 28.3481L215.137 27.7594L215.699 26.4434L215.137 26.2356L214.574 27.2053L214.926 26.0624H215.312V25.3005H214.926L214.75 24.1577L214.188 23.9499L213.238 24.1577L213.027 25.0927H212.289L212.078 24.3308H211.34C210.074 24.4694 209.125 24.9196 208.492 25.6815L209.055 26.6165L208.316 27.2053V27.5862C209.184 28.3481 210.32 28.6021 211.727 28.3481V29.1101H212.289L212.852 28.5213L213.238 29.2832H213.977ZM217.984 26.0624L217.598 25.6815V26.0624H217.984ZM217.035 25.3005L216.648 25.0927V25.4737L217.035 25.3005ZM213.027 24.1577V23.3958L214.188 23.188L215.875 23.5689V23.0148L214.926 22.4261V21.491L213.977 21.2832V20.9023L214.75 19.7594H215.137V19.1707H214.75V18.4088L212.465 18.2356L211.902 18.4088L210.215 17.6469C209.699 18.4088 209.441 19.2976 209.441 20.3135L209.617 20.9023H211.727L212.465 21.491L212.676 20.5213H213.238L213.414 22.0451H213.027L210.391 21.6642L209.828 21.872V23.0148L210.566 23.3958L211.902 23.188L212.465 23.3958V24.1577H213.027ZM217.773 23.0148V21.872L216.262 21.491V21.872L217.211 22.6339V23.0148H217.773ZM209.441 21.0754V20.5213H208.879V20.9023L209.441 21.0754ZM217.211 20.5213V19.9326L216.086 19.3785V19.9326L217.211 20.5213ZM215.699 19.9326L215.137 19.7594V20.1404L215.699 19.9326ZM194.676 18.4088L194.078 17.0927L195.625 16.3308L195.801 15.9499C197.699 14.5415 199.844 13.7103 202.234 13.4564C202.867 12.9484 203.688 12.6367 204.695 12.5213L204.906 13.2832L203.957 13.8373L202.059 14.5992L201.496 15.188V14.807H201.109L200.723 15.5689H201.109C199.328 16.5848 197.43 17.3467 195.414 17.8546L195.238 18.4088H194.676ZM209.266 18.6165V18.0278H208.668V18.6165H209.266ZM208.105 18.2356V17.6469H207.543V18.2356H208.105ZM213.625 17.2659L213.977 16.3308H213.414L213.027 17.0927L213.625 17.2659ZM218.336 16.504L219.285 16.3308L220.059 15.9499V15.5689H219.109V15.188H219.672V14.807L218.547 14.5992V14.2183H217.211L217.387 13.4564L216.824 13.2832L216.262 12.6945L215.312 13.0754L214.926 12.9023L213.801 11.9326L213.414 12.9023L214.188 13.2832V12.9023L213.027 15.188L213.625 15.3611L214.188 15.188L214.574 16.123L215.137 16.3308L217.035 15.5689L217.387 16.7118L218.336 16.504ZM211.516 16.3308V15.7421H210.953V16.3308H211.516ZM212.465 15.188L213.238 13.4564H212.465L211.902 14.9802L212.465 15.188ZM210.953 14.9802V14.5992L210.215 14.2183V14.9802H210.953ZM213.238 10.4088V10.0278L213.027 9.2659H212.465L212.289 10.4088H213.238ZM216.824 9.85464V8.88495L217.035 8.12304L218.16 7.74209L220.234 6.21828V5.66417L219.285 5.07542L218.898 5.28321L218.16 4.69447L217.035 3.7594L216.648 5.28321H215.699L215.488 4.52131L214.574 4.31352V3.93256H213.801L212.676 4.14036L212.465 5.07542H213.027L213.977 4.69447L214.363 4.90226V5.66417L213.414 5.83733V6.21828L215.875 6.59923V8.50399L215.137 9.85464L216.262 10.2356L216.824 9.85464ZM214.188 9.64685V9.2659L213.238 8.71179V9.09274L214.188 9.64685ZM214.926 8.50399L215.137 7.94988L214.188 7.56893L213.977 6.98018L213.027 6.80702L212.676 7.74209C213.426 7.88062 214.176 8.13458 214.926 8.50399ZM201.672 8.33083L197.699 7.18798L197.488 6.59923H196.363V6.04512C197.629 4.63675 199.211 4.12881 201.109 4.52131L202.621 4.90226V5.66417H203.395L203.746 5.45637V5.83733L203.008 7.56893L202.445 7.74209V7.36114H202.059L201.672 8.33083ZM222.309 6.98018L221.957 6.59923V6.98018H222.309ZM213.027 6.21828V5.66417H212.289V6.21828H213.027ZM224.594 4.31352V3.7594H224.031V4.31352H224.594Z" fill="#483D3F"/>
<path d="M171.17 37.4913L169.658 36.7294L169.096 35.2056L169.834 35.0324V34.6514L169.658 33.8895L169.834 33.3354L169.482 33.1276L169.834 31.6038L169.482 30.1146L168.885 29.9069L168.709 28.9718H168.322L167.549 29.3527V28.9718H166.811V29.3527L166.986 29.9069H166.424V29.3527H166.811V28.5908L166.037 28.2099L165.861 27.2402H166.424L166.6 27.6211H167.197L167.76 27.448V27.8289H168.322V27.2402H168.709L169.834 27.6211V27.067L169.658 26.3051L169.834 25.3701L169.658 24.2272L170.221 23.0843L169.658 21.9415H169.096L168.322 22.3224L167.549 23.4653L167.197 23.8462L165.65 24.4004L165.475 25.3701L163.576 26.132L163.365 26.6861C162.217 27.7019 160.881 28.2099 159.357 28.2099L158.795 28.0021L158.232 28.2099C157.342 27.9559 156.521 27.7019 155.771 27.448V26.132H156.334L156.896 26.3051V25.9242L158.057 25.751L158.795 24.6082L160.518 24.4004L160.693 25.1623L161.643 25.3701V24.9891L161.291 24.0194C161.666 23.2806 162.229 22.7149 162.979 22.3224L164.314 22.1493V21.0064H164.701L164.912 21.5605L165.65 21.7683L166.037 20.6255L165.475 20.4177L165.861 18.9285L167.373 18.5475L167.549 16.6428H167.936L168.322 16.435L169.658 16.6428V16.054L169.482 15.4999L170.045 15.3268V14.1839L169.271 13.5952V13.2142H168.709L167.76 13.5952L163.189 13.0411L162.627 13.2142L162.029 13.0411L159.357 13.5952L158.619 13.2142V12.6601C160.775 11.2748 163.189 10.6399 165.861 10.7553L166.811 11.1363L168.533 10.7553V11.1363H169.271L170.221 10.7553L170.432 9.43932H170.818V8.85058L170.607 7.53456C171.498 6.91118 171.885 6.09156 171.768 5.07568L172.33 5.6298H173.104V6.3917L174.439 6.01075L175.002 7.91551C174.369 7.77698 174.053 7.96169 174.053 8.46962L174.439 9.99343L174.053 10.7553L174.791 10.9631V11.3441C176.666 11.4364 178.506 11.6789 180.311 12.0714L181.084 11.6904L183.58 12.4523L184.881 12.0714L185.654 12.4523V12.8333L184.881 12.6601V14.5649L185.479 14.738V13.803H186.217L185.654 15.3268H184.705L183.58 15.6731L182.033 15.119L181.471 14.3571L180.697 15.119L179.572 14.5649L179.361 13.9761H178.799L178.623 14.5649H178.025L175.178 14.3571L175.002 15.119L175.178 16.2618L174.229 16.6428L173.842 17.4047C174.615 17.2662 175.189 17.5201 175.564 18.1666L175.951 19.1017L177.674 19.6558L178.236 21.5605L178.799 21.7683V21.3874H179.186L179.572 21.9415H180.311L180.697 22.5302C181.33 23.1536 182.092 23.523 182.982 23.6385V24.6082H183.58L185.092 24.4004L185.654 24.6082V25.1623L185.479 25.9242H186.041L186.604 25.1623L186.428 25.751L186.604 26.132L185.092 26.3051V26.8939L185.479 27.067V27.448H184.318L183.58 26.6861V27.2402L182.244 26.5129V26.132H181.857L180.908 26.5129V25.3701H179.748L179.01 25.9242L178.412 25.751L177.674 24.0194H177.076V24.4004L177.287 24.7813H176.725L176.514 24.2272L176.9 23.4653L175.564 22.9112V22.5302H175.178L174.615 22.7034V23.0843H174.229C173.854 22.5764 173.35 22.3917 172.717 22.5302V22.9112L173.666 23.4653L173.842 24.0194L173.455 24.7813L173.842 25.5432L173.666 26.3051L174.439 26.5129V26.8939H175.178L175.74 27.2402L176.338 27.067L178.412 28.9718L177.85 29.3527L177.674 29.9069L178.025 30.6688L175.951 30.8766L175.74 31.2229L173.666 31.8116V32.3657L173.842 32.7467H172.893V33.7164H173.455L172.717 35.0324H173.279L174.229 34.8592L173.104 35.4133L172.717 36.9372H172.119L171.381 36.5562L171.17 37.4913ZM172.506 35.7943L172.893 35.5865V35.2056H172.506L171.768 35.4133V35.9675L172.506 35.7943ZM172.33 32.3657L171.768 31.8116V32.5735L172.33 32.3657ZM173.842 31.2229V30.6688H173.279V31.2229H173.842ZM169.834 29.3527L169.482 28.9718V29.3527H169.834ZM164.701 29.1449L165.264 28.764V29.1449H164.701ZM160.131 26.5129V25.9242H159.568V26.5129H160.131ZM183.193 26.3051L182.807 25.9242V26.3051H183.193ZM159.357 26.132L158.795 25.751V26.132H159.357ZM162.416 25.5432V24.9891H162.029L161.854 25.5432H162.416ZM173.455 25.1623V24.7813L173.104 25.1623H173.455ZM179.572 24.7813L179.361 24.4004L179.186 24.9891L179.572 24.7813ZM163.963 23.8462V23.2575L163.189 22.9112H162.627V23.4653L163.963 23.8462ZM166.037 23.4653L166.248 22.9112L165.264 22.3224V22.9112L166.037 23.4653ZM167.373 23.2575L166.986 23.0843V23.4653L167.373 23.2575ZM174.439 22.3224L174.615 21.5605H174.229L174.053 22.3224H174.439ZM176.725 21.9415V21.3874H175.951V21.9415H176.725ZM167.373 21.0064V20.6255H166.986V21.0064H167.373ZM167.197 20.0367L166.811 19.6558V20.0367H167.197ZM168.885 19.6558V19.1017L168.146 18.7207V19.6558H168.885ZM166.986 19.3095L166.6 18.9285L166.424 19.4826L166.986 19.3095ZM170.045 17.5778L167.936 16.6428V17.0237L168.146 17.7856L170.045 17.5778ZM170.607 17.0237V16.054H170.221L169.834 16.2618V16.6428L170.607 17.0237ZM184.318 15.4999V15.119L183.756 14.9458V15.3268L184.318 15.4999ZM172.33 11.3441L171.943 10.9631V11.3441H172.33ZM172.893 6.77265L172.506 6.3917V6.77265H172.893Z" fill="#483D3F"/>
<path d="M132.512 36.7792L132.336 36.0173H131.562V35.6364H131.176L130.824 36.1905H130.438C130.062 35.8211 129.488 35.7056 128.715 35.8442L128.539 36.3983L128.152 35.8442L127.414 36.0173L126.465 35.6364L125.305 35.8442L124.566 35.4632V36.0173H123.793L122.457 35.6364L122.105 35.8442L121.508 35.6364L119.82 35.8442C119.445 34.5743 118.496 34.0664 116.973 34.3203L116.797 33.5584C118.695 33.1659 120.652 32.9697 122.668 32.9697L123.23 33.1775L124.004 32.9697L124.742 33.1775L125.305 32.0346C124.93 31.4113 124.613 30.7186 124.355 29.9567L123.406 29.368V28.0519L124.004 27.8788V29.1948H124.566L125.129 26.7359C125.879 26.228 126.441 25.5931 126.816 24.8312H127.414L128.539 25.7662V26.5281H129.875L130.824 26.355L132.125 26.7359V27.1169H132.898V27.4978L132.688 28.0519L132.898 28.6061H131.949L131.773 29.9567H130.613L130.227 31.8615L130.438 32.2078H129.102V32.9697L131.949 33.1775V33.5584H132.512L133.848 33.3507L134.586 33.5584L137.996 33.1775L139.332 33.7316L139.895 35.4632L139.508 35.6364V34.1126L138.383 35.6364C137.492 35.8903 136.543 36.1443 135.535 36.3983L133.074 35.4632V35.8442L133.285 36.3983L132.512 36.7792ZM130.613 35.8442L130.824 34.8745H130.438L130.227 35.8442H130.613ZM136.695 35.8442L137.434 35.6364V35.0823H137.047L135.746 35.4632V36.1905L136.695 35.8442ZM128.539 35.0823V34.7013H128.152V35.0823H128.539ZM115.848 32.0346L114.688 31.2727L114.512 31.6537H113.949L113.562 30.8918L113 30.1299L113.773 30.3377V29.7489L113.387 28.8139L114.125 28.6061C114.5 28.2367 115.074 28.0519 115.848 28.0519L116.41 26.7359L118.309 25.7662L119.434 24.0693V24.6234H119.996V23.3074L119.645 22.9264L120.945 22.7532V22.3723L120.77 21.9913L122.281 21.6104V21.2294L121.508 20.0866L119.258 19.7056L119.047 20.2944L114.898 20.0866L113.949 20.2944L113.562 19.9134H113.949V19.5325H114.336V18.5628L116.023 17.8009V17.4199H116.41L117.359 17.8009L117.746 17.6277L118.484 17.8009L118.695 17.2468L119.996 17.6277L120.594 13.0563L120.945 12.6753L120.77 10.8052L121.332 6.99567L119.645 6.82251L117.535 7.58442V6.99567L119.047 5.2987L122.105 4.5368L122.281 3.98268L122.844 3.39394L122.668 2.07792L123.23 1.10823L125.305 0.727273L126.078 1.69697L125.129 3.60173L126.465 3.77489L127.414 3.60173C128.797 3.50938 130.18 3.50938 131.562 3.60173C132.57 2.7013 133.016 1.55844 132.898 0.17316L135.184 0L135.359 0.380952H136.309L135.535 0.727273V1.31602L136.309 1.87013L135.535 1.69697V2.07792L134.797 2.45887L134.586 3.01299L136.484 3.22078L138.945 2.83983L140.105 3.22078V4.36364L139.332 5.09091L139.156 4.5368H138.77V4.91775L138.207 5.09091L137.996 5.67965H135.746L135.359 6.82251L136.484 7.20346L136.695 8.69264L134.234 9.07359V9.45455L134.586 11.5671L134.41 12.1212L135.184 12.5022V13.2641L134.586 14.1991C134.586 14.961 134.902 15.596 135.535 16.1039L137.82 16.3117L138.383 16.1039L140.105 16.3117C140.598 15.9192 141.16 15.7922 141.793 15.9307L142.918 16.1039V16.658L142.742 17.4199L142.918 18.0087L142.004 17.6277L141.406 19.3247L139.332 18.5628L138.594 19.9134L138.77 18.9437L137.82 18.5628V18.9437L137.996 19.5325L137.258 20.0866L137.047 21.2294L137.434 21.9913L137.258 22.5455H138.77L139.332 24.4502L140.457 24.6234L140.668 25.974H141.406V26.9091H140.844L139.895 26.7359V27.1169L140.668 27.4978L140.844 28.8139L140.281 28.6061L140.105 27.8788H139.719L139.332 29.1948L138.594 29.368L138.207 29.1948L137.996 27.29H137.047V27.671L137.258 28.0519H136.871C136.613 27.1746 136.238 26.355 135.746 25.5931L135.359 24.8312L136.484 24.6234V25.2121H137.047V24.6234C136.18 24.3694 135.43 23.9307 134.797 23.3074H134.234L133.848 21.9913L133.461 21.7836L132.898 20.0866H131.773V20.4675H131.387L131 20.2944V19.5325H130.051V18.5628H129.664L129.277 20.2944H127.977L126.816 20.0866L126.254 20.8485H125.691L125.305 21.9913L124.355 22.1645L124.004 23.3074L122.844 23.5152V25.2121H122.457L122.281 24.0693H121.508V24.6234L121.719 26.5281L121.508 26.1472H120.945L120.594 27.29H119.82L119.434 28.6061L118.695 29.368H118.098L117.535 29.1948L117.184 30.8918H116.41L115.848 30.7186L115.637 31.6537L116.234 31.8615L115.848 32.0346ZM126.254 30.8918L125.867 30.5108L125.691 31.0996L126.254 30.8918ZM115.848 30.3377V29.7489C115.473 29.241 114.898 29.0563 114.125 29.1948V29.7489L115.848 30.3377ZM131.562 29.5758V29.1948L131 28.987V29.5758H131.562ZM131.949 27.671V27.1169H131.387V27.671H131.949ZM123.23 27.29L123.617 26.355H124.355V26.7359L123.23 27.29ZM129.102 25.3853L128.363 25.0043V24.6234L128.715 23.8961H128.152L127.414 24.2424L126.465 24.0693L126.254 23.5152C126.887 23.8846 127.52 24.0115 128.152 23.8961L128.539 22.9264L127.766 22.7532L127.59 22.1645H127.977L128.715 22.3723V21.7836H129.102L129.277 22.5455L129.102 23.1342L129.488 23.8961L129.277 24.4502L129.488 25.0043H129.102V25.3853ZM137.82 24.6234L137.434 24.2424V24.6234H137.82ZM139.156 24.4502V23.8961H138.594V24.4502H139.156ZM121.332 24.0693L120.77 23.5152V24.2424L121.332 24.0693ZM135.746 21.4026L135.922 20.8485H135.184L134.973 21.4026H135.746ZM123.406 21.4026V20.8485L122.457 20.4675V20.8485L123.406 21.4026ZM136.695 21.4026V20.6407H135.922V21.4026H136.695ZM136.695 19.7056V19.1515L137.047 18.3896C136.039 18.6436 135.219 18.8975 134.586 19.1515L134.41 19.7056L135.922 20.0866L136.695 19.7056ZM132.898 18.5628V18.0087H131.773V18.3896L132.898 18.5628ZM122.457 17.8009V17.2468H121.895V17.8009H122.457ZM131.176 17.8009V17.2468L130.613 17.039V17.6277L131.176 17.8009ZM124.918 16.3117L125.516 16.1039C126.898 16.4733 128.41 16.658 130.051 16.658L131.387 16.1039V14.7879L131 14.026L129.488 13.645V14.4069L128.926 13.4372L129.102 12.8831L128.539 12.6753L127.977 13.645H127.203V14.026H126.816L126.254 13.645L126.078 14.026H125.516L124.004 13.8182C124.121 14.5801 123.992 15.215 123.617 15.7229L124.18 16.4848L124.918 16.3117ZM134.234 16.3117V15.7229H133.637V16.3117H134.234ZM134.41 14.5801V14.1991L133.848 14.026V14.5801H134.41ZM134.234 13.645L134.41 13.0563H134.023L132.898 13.2641V13.8182L133.848 14.026L134.234 13.645ZM127.414 12.5022L128.363 12.329L128.715 11.9481V12.5022H129.488C129.98 12.1328 130.613 12.0058 131.387 12.1212V11.3593L131.176 10.8052L131.387 8.13853H130.613L130.227 8.34632V8.90043L127.027 8.51948L126.816 7.58442H127.414L127.59 8.34632H128.152L128.363 7.58442H129.277L129.875 8.13853L130.438 7.37662L131.176 7.20346L131.387 6.61472C129.98 6.10678 128.527 5.66811 127.027 5.2987V6.06061L124.566 6.23377V7.75758L125.129 7.96537L125.305 8.34632H126.078L124.566 8.69264C124.051 9.45455 123.793 10.3434 123.793 11.3593L125.516 11.9481V12.329L127.414 12.5022ZM124.004 9.45455V9.07359L123.406 8.90043V9.28139L124.004 9.45455ZM125.691 1.69697V1.10823H125.129V1.48918L125.691 1.69697Z" fill="#483D3F"/>
<path d="M3.71875 29.7345V29.3921L4.21875 26.6532L3.875 25.8128L1.875 24.7857L1.6875 24.2566L4.21875 22.9183L4.90625 23.2606L5.40625 21.5488H4.5625V20.5217L4.90625 19.8369C5.01042 18.592 4.72917 17.513 4.0625 16.6C2.60417 16.7245 1.3125 16.4444 0.1875 15.7596L0 15.0749L0.5 13.861H3.53125L4.21875 14.0478L4.71875 12.6783L4.375 10.1261L5.71875 9.099C6.51042 10.6967 6.90625 12.4604 6.90625 14.3902L7.40625 14.5458L8.59375 14.0478L8.75 14.7325H9.09375L9.4375 14.0478L10.125 13.861L9.78125 12.8651L9.9375 12.3359H8.9375C9.33333 10.8835 9.5 9.41024 9.4375 7.91627H10.2812L10.625 6.88916L11.2812 8.25864H10.7812V8.75663L11.7812 8.94337V9.62811L12.3125 9.78373V10.2817L11.7812 10.6241V11.1532L12.4688 15.0749H12.8125L13.4688 14.7325L13.8125 15.4173L13.6562 16.2576L14.1562 17.4403L14 17.7827H13.6562L13.1562 17.6271C12.1354 18.1873 11.7396 19.0381 11.9688 20.1793L12.125 21.8911H14V22.5759L12.8125 22.9183L12.4688 24.4434L12.625 25.2837L12.3125 26.1552L12.4688 26.8399L12.3125 27.5247L12.4688 28.0227L12.125 28.1783V28.7074L12.4688 29.3921L11.625 29.7345L10.125 29.3921L9.28125 29.5478L8.9375 29.3921V28.863C9.375 28.0745 9.54167 27.2238 9.4375 26.3108L9.09375 25.6261H6.90625C6.57292 26.8918 6.17708 28.1472 5.71875 29.3921L4.71875 29.5478L4.21875 29.3921L3.71875 29.7345ZM8.4375 22.9183C9 22.69 9.5625 22.4618 10.125 22.2335L10.2812 21.5488L9.78125 20.5217L9.28125 19.6813L9.4375 17.7827H7.40625C7.26042 19.2767 7.09375 20.7603 6.90625 22.2335L8.4375 22.9183ZM13.4688 17.1291V16.7867L13.1562 17.1291H13.4688ZM8.9375 16.102V15.5729H8.4375V16.102H8.9375ZM4.5625 14.5458L4.21875 14.2034L4.0625 14.7325L4.5625 14.5458ZM10.9688 12.3359L10.4375 12.1803V12.5227L10.9688 12.3359ZM12.3125 7.91627L12.125 7.23153L12.9688 7.04478V7.91627H12.3125Z" fill="#483D3F"/>
<path d="M47 17.584L47.1404 17.354L48.4269 17.354L48.4269 17.1868L47.7953 17.0718L47.2573 17.124L47.2573 17.009C47.5224 16.8209 47.9123 16.7442 48.4269 16.779L49.0819 16.9568L49.0819 16.8418L48.9415 16.6641L48.1696 16.4341L48.1696 16.3191L47.7953 16.3191L47.3977 16.3818L47.3977 16.4968L48.0526 16.0995L47.9123 15.8695L48.1696 15.8695L48.1696 15.9845L48.5673 15.9845L48.8246 15.6395L48.1696 15.6395L48.1696 15.5245L47.538 15.5245L47.538 15.2945L48.0526 15.2945L48.0526 15.1795L48.1696 15.0123L48.0526 14.7823L48.1696 14.6673L47.9123 14.4896L47.538 14.4896L47.7953 14.4896L47.7953 13.9773L48.1696 13.9773L48.3099 13.5173L47.7953 13.5173L47.7953 13.3501L48.0526 13.3501L48.1696 12.9423L47.9123 12.9423L47.655 13.1201L47.3977 13.1201L47.3977 13.0051L48.1696 12.8273L48.8246 12.9423L48.8246 12.7751L48.3099 12.6601L47.655 12.2001L47.7953 11.8551L47.655 11.7401L48.3099 11.7401L48.3099 11.6251L48.1696 11.4578L47.538 11.4578L47.538 11.3428L48.0526 10.9978L47.538 10.9978L47.538 10.8829L47.655 10.7156L49.3392 10.6006L49.7135 10.6529C49.885 11.0362 49.9708 11.4195 49.9708 11.8028L49.8538 11.9178L49.9708 12.2001L49.1988 12.2628L49.1988 12.4301L49.8538 12.4928L50.2281 12.4301L50.2281 12.8273L49.7135 12.8901L49.7135 13.0573L49.9708 13.0573L49.9708 13.3501L50.2281 13.3501L50.3684 13.7473L50.2281 13.8623L50.3684 14.1446L49.8538 14.8346L50.2281 14.8346L50.6257 14.5523L50.7427 15.0646L50.3684 15.0646L50.3684 15.1795L50.7427 15.2945L50.7427 15.4095L50.3684 15.4095L49.8538 15.3468L49.8538 15.4618L50.7427 15.8695L50.4854 16.0368L49.8538 16.0368L49.3392 15.9845L49.1988 16.2145L50.6257 16.2668L50.6257 16.3818L50.883 16.3818L50.883 16.5491L50.7427 16.8418L50.883 17.009L50.2281 17.0718L50.2281 17.4168L50.4854 17.4168L51 17.1868L50.883 17.469L51 17.6363L50.4854 17.7513L50.3684 17.584L49.9708 17.584L49.9708 17.699L49.4561 17.699L49.4561 17.929L48.5673 17.9813L49.1988 17.8663L49.1988 17.7513L48.9415 17.7513L48.9415 17.4168L48.4269 17.4168L48.1696 17.584L47.7953 17.929L47.7953 17.814L47 17.584ZM48.1696 11.4056L49.0819 11.5206L49.0819 11.4056L48.1696 11.2278L48.1696 11.4056ZM48.3099 13.2873L48.6842 13.0573L48.4269 13.0573L48.3099 13.2873ZM48.4269 10.8829L48.6842 10.8829L48.6842 10.7679L48.4269 10.7679L48.4269 10.8829ZM48.4269 14.8346L48.9415 14.6046L48.3099 14.6046L48.4269 14.8346ZM48.4269 16.4341L48.6842 16.3191L48.4269 16.3191L48.4269 16.4341ZM48.8246 11.1128L49.0819 10.9456L48.8246 10.9456L48.8246 11.1128ZM48.8246 15.2318L49.5965 15.2318L49.7135 15.0646L49.3392 15.0123L48.8246 15.0646L48.8246 15.2318ZM49.0819 14.3746L49.4561 14.3746L49.4561 14.2596L49.0819 14.2596L49.0819 14.3746ZM49.1988 13.58L49.8538 13.695L50.1111 13.4023L49.7135 13.4023L49.1988 13.58ZM49.1988 12.8901L49.7135 12.8901L50.2281 12.8273L50.2281 12.6601L49.4561 12.6601L49.1988 12.8901ZM49.1988 16.9568L49.5965 16.9568L49.5965 16.779L49.1988 16.779L49.1988 16.9568ZM49.3392 16.5491L49.5965 16.5491L49.5965 16.4341L49.3392 16.4341L49.3392 16.5491ZM49.8538 16.779L50.2281 16.8418L50.2281 16.7268L49.8538 16.6641L49.8538 16.779ZM49.8538 16.4341L50.2281 16.4341L50.2281 16.2668L49.8538 16.2668L49.8538 16.4341Z" fill="#483D3F"/>
<path d="M44.4192 16.5048L44.43 16.3068L45.2592 15.7866L45.2013 15.6839L44.7544 15.8687L44.4257 16.1184L44.3859 16.0478C44.4916 15.8251 44.7163 15.6203 45.0601 15.4336L45.5438 15.2779L45.5039 15.2073L45.3519 15.1549L44.7747 15.3259L44.7349 15.2553L44.4936 15.4067L44.2591 15.606L44.2989 15.6766L44.5834 15.1679L44.4133 15.0834L44.5791 14.9794L44.619 15.05L44.8753 14.8892L44.9216 14.5734L44.4995 14.8382L44.4596 14.7676L44.0526 15.023L43.9729 14.8819L44.3046 14.6737L44.2647 14.6032L44.2822 14.4532L44.1271 14.3593L44.1627 14.2414L43.9352 14.2364L43.694 14.3877L43.8599 14.2837L43.6824 13.9692L43.9236 13.8179L43.8547 13.4788L43.5231 13.6869L43.4651 13.5842L43.631 13.4802L43.5651 13.1826L43.3993 13.2866L43.295 13.4998L43.1291 13.6038L43.0893 13.5333L43.5253 13.112L43.9872 12.9177L43.9293 12.8151L43.5578 12.9526L42.9763 12.9351L42.9472 12.6666L42.8169 12.6527L43.2391 12.3879L43.1992 12.3173L43.0508 12.2714L42.6438 12.5268L42.6039 12.4562L42.8161 12.0363L42.4844 12.2444L42.4446 12.1738L42.462 12.0238L43.5077 11.2722L43.767 11.1529C44.0104 11.3189 44.1984 11.5195 44.3312 11.7548L44.2957 11.8726L44.4689 11.9986L43.9931 12.3493L44.051 12.4519L44.4949 12.2256L44.7144 12.0357L44.852 12.2796L44.542 12.5262L44.6 12.6289L44.7658 12.5248L44.8672 12.7045L45.0331 12.6004L45.2612 12.7875L45.2105 12.9149L45.3988 13.0314L45.3061 13.663L45.5473 13.5117L45.7059 13.1776L45.9587 13.4448L45.7175 13.5961L45.7573 13.6667L46.0384 13.5859L46.0782 13.6565L45.837 13.8079L45.4836 13.9775L45.5234 14.0481L46.2376 13.9389L46.1297 14.1456L45.7226 14.401L45.3728 14.577L45.362 14.775L46.2998 14.23L46.3396 14.3006L46.5055 14.1966L46.5634 14.2992L46.5744 14.5357L46.7228 14.5816L46.3224 14.885L46.4419 15.0967L46.6077 14.9927L46.8597 14.6434L46.8821 14.8639L47.0154 14.9193L46.7236 15.198L46.5903 15.1426L46.334 15.3034L46.3738 15.374L46.0421 15.5821L46.1218 15.7233L45.567 16.1148L45.9342 15.7889L45.8944 15.7183L45.7285 15.8223L45.6127 15.617L45.281 15.8251L45.1731 16.0318L45.0514 16.3949L45.0115 16.3243L44.4192 16.5048ZM43.0327 12.2393L43.6605 11.941L43.6207 11.8704L42.9712 12.1302L43.0327 12.2393ZM43.7751 13.3376L43.9366 13.0451L43.7708 13.1491L43.7751 13.3376ZM43.0175 11.8144L43.1833 11.7103L43.1435 11.6397L42.9777 11.7438L43.0175 11.8144ZM44.3864 14.24L44.6385 13.8908L44.2314 14.1462L44.3864 14.24ZM44.9405 15.2219L45.0665 15.0472L44.9007 15.1513L44.9405 15.2219ZM43.3535 11.7947L43.4614 11.588L43.2955 11.6921L43.3535 11.7947ZM44.7804 14.3231L45.2779 14.0109L45.2953 13.861L45.036 13.9802L44.7224 14.2204L44.7804 14.3231ZM44.6492 13.6928L44.8905 13.5415L44.8506 13.4709L44.6094 13.6222L44.6492 13.6928ZM44.4494 13.1578L44.9114 12.9636L44.9758 12.6798L44.7195 12.8406L44.4494 13.1578ZM44.2104 12.7343L44.542 12.5262L44.852 12.2796L44.794 12.1769L44.2965 12.4891L44.2104 12.7343ZM45.6191 15.2306L45.8754 15.0698L45.8139 14.9607L45.5576 15.1215L45.6191 15.2306ZM45.5684 14.9235L45.7342 14.8195L45.6944 14.7489L45.5285 14.853L45.5684 14.9235ZM45.9797 14.8566L46.2427 14.7438L46.2028 14.6732L45.9399 14.786L45.9797 14.8566ZM45.8602 14.6449L46.1014 14.4935L46.0435 14.3908L45.8023 14.5422L45.8602 14.6449Z" fill="#483D3F"/>
<path d="M51.1379 14.8921L51.3079 14.8074L52.138 15.3261L52.1958 15.2233L51.828 14.898L51.4628 14.7132L51.5026 14.6425C51.7386 14.6338 52.0166 14.7439 52.3366 14.9728L52.6978 15.3461L52.7375 15.2754L52.7084 15.1096L52.2898 14.6571L52.3295 14.5864L52.088 14.4355L51.8098 14.3137L51.7701 14.3844L52.3299 14.4043L52.3187 14.2064L52.4848 14.3102L52.445 14.3808L52.7016 14.5412L52.9868 14.4329L52.5642 14.1689L52.6039 14.0982L52.1964 13.8435L52.2759 13.7022L52.6079 13.9097L52.6476 13.8391L52.7809 13.7834L52.7848 13.595L52.9 13.5715L52.7954 13.3585L52.5539 13.2076L52.7199 13.3113L52.8969 12.9966L53.1384 13.1475L53.3878 12.9214L53.0558 12.7139L53.1135 12.6112L53.2796 12.7149L53.4958 12.5115L53.3298 12.4078L53.1024 12.4132L52.9364 12.3095L52.9761 12.2388L53.5356 12.4409L53.9184 12.7756L53.9762 12.6728L53.6839 12.3947L53.4202 11.848L53.6299 11.6926L53.5791 11.5653L54.0017 11.8294L54.0414 11.7587L54.0086 11.5994L53.6011 11.3447L53.6409 11.274L54.092 11.2696L53.76 11.0621L53.7997 10.9914L53.933 10.9358L55.0593 11.5442L55.2827 11.7272C55.261 12.0319 55.1839 12.3021 55.0515 12.5376L54.9364 12.5611L54.9143 12.7817L54.3946 12.509L54.3368 12.6118L54.7377 12.9144L55.0009 13.0268L54.8637 13.2709L54.51 13.1019L54.4522 13.2047L54.6182 13.3084L54.5171 13.4883L54.6831 13.5921L54.6364 13.8928L54.5062 13.9068L54.4992 14.1369L53.9289 14.3533L54.1703 14.5042L54.5244 14.4911L54.4229 14.853L54.1815 14.7021L54.1417 14.7728L54.3435 14.9944L54.3038 15.065L54.0623 14.9141L53.7519 14.6681L53.7122 14.7387L54.1449 15.3477L53.9211 15.3467L53.5136 15.092L53.1996 14.8524L53.0296 14.9372L53.9322 15.5446L53.8925 15.6153L54.0585 15.719L54.0007 15.8218L53.809 15.9451L53.8418 16.1045L53.3976 15.8789L53.2784 16.0909L53.4444 16.1946L53.8559 16.2608L53.6829 16.3871L53.7006 16.537L53.3289 16.4002L53.3112 16.2503L53.0546 16.0899L53.0149 16.1606L52.6829 15.9531L52.6034 16.0944L52.0119 15.7681L52.4591 15.9521L52.4988 15.8815L52.3328 15.7777L52.4484 15.5721L52.1163 15.3646L51.8925 15.3637L51.5319 15.4247L51.5716 15.3541L51.1379 14.8921ZM54.0267 11.5672L54.5755 12.0057L54.6153 11.9351L54.0881 11.458L54.0267 11.5672ZM53.4672 12.7801L53.7882 12.7897L53.6221 12.6859L53.4672 12.7801ZM54.3732 11.3498L54.5393 11.4536L54.579 11.3829L54.413 11.2792L54.3732 11.3498ZM53.0083 13.778L53.4197 13.8442L53.0122 13.5895L53.0083 13.778ZM52.4558 14.7608L52.6615 14.7939L52.4955 14.6902L52.4558 14.7608ZM54.5504 11.6515L54.7741 11.6524L54.6081 11.5487L54.5504 11.6515ZM53.1276 14.1824L53.6256 14.4937L53.7589 14.4381L53.5355 14.255L53.1854 14.0796L53.1276 14.1824ZM53.5897 13.7594L53.8312 13.9103L53.8709 13.8397L53.6294 13.6888L53.5897 13.7594ZM53.9396 13.3184L54.3225 13.6531L54.5896 13.577L54.333 13.4167L53.9396 13.3184ZM54.178 12.8944L54.51 13.1019L54.8637 13.2709L54.9214 13.1681L54.4234 12.8568L54.178 12.8944ZM52.7733 15.3932L53.0298 15.5536L53.0912 15.4444L52.8346 15.284L52.7733 15.3932ZM53.0046 15.1993L53.1706 15.3031L53.2104 15.2324L53.0444 15.1287L53.0046 15.1993ZM53.2572 15.5481L53.477 15.7376L53.5167 15.6669L53.2969 15.4775L53.2572 15.5481ZM53.3764 15.3362L53.6179 15.4871L53.6756 15.3843L53.4342 15.2334L53.3764 15.3362Z" fill="#483D3F"/>
<path d="M42.1044 36.9605L41.7911 36.4436L39.769 36.0442L39.4557 36.4436L39.3133 35.9267L39.4557 35.2923L39 34.3759L39.6266 34.2585L39.769 33.859H39.1709V32.7077H39.6266V32.4493L39.1709 32.1908V31.9324L39.4557 30.5226L39.3133 30.1466L39.769 29.8882V29.4888L39.6266 29.1128C40.2532 28.5959 40.5095 27.9928 40.3956 27.3036L40.8513 26.7867L40.7089 26.4108L41.0222 25.236L40.8513 24.7426L41.3354 24.6016L41.962 23.3093H41.4778V22.299L40.3956 22.0405L40.2532 21.6411H40.8513L41.4778 21.782L41.962 20.6072L42.2468 20.7482H42.8734L43.3576 20.4898L43.6709 21.1242L44.1266 21.2651V20.8657L43.9557 20.6072H44.8956L45.0665 20.2313H45.9778V20.4898H45.6646V20.8657L46.1487 21.0067L47.8576 20.6072V20.8657L47.5443 21.3826H47.8576L48.3133 21.2651V21.0067H48.6266V20.6072L48.4557 20.3488H48.769L49.0823 21.3826H49.3956L50.3354 21.1242V20.8657L50.1646 20.3488L50.3354 20.0903H51.1044L51.8734 20.3488V20.8657H52.1867L53.7532 20.3488L54.9778 20.6072L55.7468 20.3488L56.6867 20.8657V21.1242L56.3734 22.158L56.8291 22.4164L56.231 22.5339V23.0508L56.5443 24.4841L55.9177 25.3769L56.0601 25.6354H55.6044L54.9778 25.3769V25.7529C55.9082 26.1915 56.5823 26.7554 57 27.4446V28.079L56.5443 28.1965L55.9177 29.4888L54.6646 30.1466L54.5222 30.5226L54.9778 31.298L54.5222 31.6739L56.0601 32.8487L56.3734 34.7754L55.7468 35.5507L54.5222 35.7857V36.3026L54.6646 36.7021L52.5 36.0442H53.4399V35.7857L53.1266 35.2923H52.3576V35.0338H51.731V35.2923H51.4177L50.7911 34.7754V34.2585H49.7089V34.6344L50.4778 35.5507H50.1646L49.2532 35.0338V34.6344L49.7089 34.5169L49.8513 33.7415H49.538L48.6266 35.0338H48.3133V35.2923L48.769 35.7857H48.4557L48.3133 35.4098H47.5443V35.9267H47.231L46.6044 35.6682L44.7532 36.1851V35.9267L45.2089 35.1513H45.6646V34.7754L43.5 34.3759L43.1867 34.8929L42.8734 35.5507L43.6709 36.5611L43.0443 36.7021V36.0442H42.731L42.1044 36.9605ZM47.0601 35.4098V35.0338H46.6044V35.4098H47.0601ZM47.3734 34.7754L47.5443 34.3759H46.9177V34.8929L47.3734 34.7754ZM43.0443 34.3759V33.6006H43.5L43.8133 34.1175L45.8354 34.3759L46.2911 34.2585L46.6044 33.859V34.1175H46.9177L47.6867 34V33.7415L47.5443 33.3421L46.462 33.2246L45.9778 33.3421V33.0837L46.2911 32.4493H46.6044L46.9177 32.5902L47.0601 32.3318L47.8576 32.4493L48.769 32.3318L49.2532 32.4493V32.1908L49.538 32.4493H50.1646L51.2468 32.1908V32.7077L51.5601 33.0837H52.0443L52.3576 32.8487V32.5902L52.5 32.3318H52.0443V32.0733C52.3481 31.807 52.4525 31.4624 52.3576 31.0395L52.0443 29.7472L50.3354 29.2303C50.1266 29.5749 49.7089 29.7081 49.0823 29.6297L48.4557 29.3713L48.3133 28.3375H48V28.8544L47.3734 28.9718C47.4873 28.5489 47.3354 28.2905 46.9177 28.1965L46.2911 29.3713L45.8354 29.4888L45.5222 28.9718L45.9778 28.3375H46.462L46.6044 27.3036L46.462 26.9277L46.9177 27.3036H47.5443L47.8576 26.6692L48.769 26.5283L50.0222 27.0452V27.4446H50.3354L51.2468 27.3036V26.6692L51.731 27.1861H52.1867C52.4905 26.4969 52.6994 25.7685 52.8133 25.001L53.269 24.4841L53.1266 23.8262L53.269 22.4164L51.1044 21.6411V22.158H50.7911L50.4778 21.6411L49.538 21.5236C49.1392 21.6019 48.9873 21.8604 49.0823 22.299L48.3133 21.8995V21.6411H47.8576V22.0405L45.8354 22.4164L44.4399 22.299V23.4503L44.5823 25.3769H44.269V25.6354L44.4399 25.8939L44.269 26.2698L44.4399 26.7867L44.1266 27.4446H43.6709V27.8205L43.9557 28.079L43.6709 28.5959L43.9557 28.9718C43.3481 28.8935 42.8829 29.0658 42.5601 29.4888L42.4177 29.8882L43.1867 30.0057L43.5 29.4888V30.3816L43.0443 31.4154L43.1867 31.9324L41.962 32.4493V32.9662H42.4177V32.7077H42.731L43.1867 33.0837L42.2468 33.2246V33.859L43.0443 34.3759ZM41.4778 34.2585V33.7415H41.1646L40.8513 34.2585H41.4778ZM51.731 34.1175L50.962 33.6006V33.859L51.731 34.1175ZM48.6266 34V33.4831H48V34H48.6266ZM50.4778 33.7415V33.3421H49.8513V33.6006L50.4778 33.7415ZM52.5 33.6006L52.0443 33.4831V33.7415L52.5 33.6006ZM48.9399 32.9662V32.4493H48.4557L48.1424 32.9662H48.9399ZM45.5222 32.7077V32.4493H45.0665L45.3513 32.3318L45.6646 32.4493L45.5222 32.7077ZM43.0443 31.6739V31.4154H42.731V31.6739H43.0443ZM46.7468 29.6297V29.3713H47.231L46.7468 29.6297ZM49.2532 28.9718V28.7134H48.9399V28.9718H49.2532ZM50.1646 28.8544V28.5959L49.538 28.3375V28.8544H50.1646ZM45.3513 28.1965L44.8956 27.1861L45.0665 26.7867C45.6741 26.959 45.9778 27.2645 45.9778 27.7031L45.8354 27.3036H45.3513V27.938V28.1965ZM49.7089 28.1965L49.2532 28.079V28.4549H49.7089V28.1965ZM56.231 28.1965L55.7468 27.938L55.4335 28.4549H55.7468L56.231 28.1965ZM48.3133 28.079L49.0823 27.8205V27.4446L48.4557 26.7867L48.3133 27.5621L48 28.079H48.3133ZM54.9778 25.236L54.3513 24.86V25.1185L54.9778 25.236ZM43.0443 23.5677L43.8133 23.1918L43.9557 22.158H43.1867C42.6741 22.5026 42.5222 22.9725 42.731 23.5677H43.0443ZM56.231 22.4164V21.8995H55.9177L55.7468 22.299L56.231 22.4164ZM46.1487 21.6411V21.2651H45.6646V21.6411H46.1487ZM56.5443 21.1242L55.6044 21.0067V21.5236H56.0601L56.5443 21.3826V21.1242ZM51.2468 20.7482V20.2313H50.7911L50.3354 20.3488V20.7482H51.2468Z" fill="#483D3F"/>
<path d="M51.0714 17.9817L50.2857 17.5901L49.5 17.6969V17.4121L49.8929 17.0205L49.1071 16.8247L48.8929 17.2163H48.2857V17.5901L46.7143 17.3053L46.1429 16.6289L45.1429 16.4331L44.9643 16.7179L45.5357 17.0205C45.4167 17.2816 45.0238 17.3765 44.3571 17.3053L41.8214 16.9137V17.4121L40.0357 17.5901C39.131 17.0798 38.8095 16.4331 39.0714 15.6499L39.25 15.0625C38.869 14.8014 38.7381 14.4751 38.8571 14.0835L39.25 13.6029L39.0714 12.5349H39.6429H40.8214V12.2323L41.8214 12.5349L42 12.0365L40.4286 11.8407L40.25 12.0365H39.0714L39.8571 11.9475V11.2711L39.4643 11.1643L40.25 10.6837H41.0357C41.6786 10.9448 42.5238 11.0397 43.5714 10.9685L44.1786 10.8795L44.3571 11.1643H44.75V11.3601L44.5714 11.6449H45.1429L46.1429 10.9685L46.7143 10.8795V11.7517H47.3214L47.7143 11.4491V11.7517L49.2857 11.8407V11.5559L48.5 11.4491L48.2857 11.1643L47.8929 11.0753L48.1071 10.7727H48.5L49.8929 10.8795V11.0753L52.0357 11.2711V10.9685H53.0357L53.2143 11.3601H53.8214V11.1643L56.1786 10.7727V10.9685H56.9643L57.1429 11.5559L57.9286 12.0365L57.75 12.4281L57.9286 13.0155L56.9643 13.1223V13.6919C57.4881 13.8224 57.6786 14.0835 57.5357 14.4751L57.9286 14.9735H57.5357V15.1693L57.9286 15.4541L57.75 15.7389L57.9286 16.4331L56.75 16.8247L56.5714 17.2163C55.6429 17.1451 54.8571 17.24 54.2143 17.5011L53.6071 17.4121L53.2143 17.7859L51.0714 17.9817ZM47.1071 16.4331L47.3214 16.1305H46.5357V16.3263L47.1071 16.4331ZM44.1786 16.4331V15.6499L43.5714 15.5431L43.1786 16.0415L43.5714 16.4331H44.1786ZM51.4643 16.3263L51.6429 16.0415H51.0714L50.8571 16.3263H51.4643ZM48.5 16.0415V15.5431H47.8929L47.7143 16.1305L48.5 16.0415ZM50.6786 15.9347L50.8571 15.6499L49.6786 15.5431V15.7389L50.6786 15.9347ZM51.6429 15.4541L53.4286 15.2583L53.8214 15.6499H54.6071L55.1786 15.5431C55.0595 14.9616 55.2619 14.4454 55.7857 13.9945H55.3929V13.4071L54.7857 13.3181V13.0155L55.1786 12.6239C54.5357 12.5646 53.881 12.4696 53.2143 12.3391V12.9265H52.8214V13.2113H51.6429L50.8571 12.9265V12.6239H50.0714V13.0155H49.6786L49.2857 12.6239L48.2857 12.5349L47.7143 12.9265V12.6239H47.3214L45.3571 12.8197L45.1429 12.4281L45.9286 12.5349L46.1429 12.2323L44.75 11.9475L44.3571 12.4281V12.1433H43.5714L43 12.5349L43.7857 12.7307V12.9265H43V13.6029L42.6071 13.9945L43.3929 14.2793V14.5819H43V14.8667C45.7381 15.2583 48.619 15.4541 51.6429 15.4541ZM41.6071 13.6919L42 13.2113H41.4286L40.6429 13.0155L39.6429 13.1223V13.3181L40.8214 13.6029L41.0357 13.7987L41.6071 13.6919ZM52.0357 13.1223V12.9265L51.4643 12.8197V13.0155L52.0357 13.1223ZM42.2143 12.9265V12.6239H41.6071V12.9265H42.2143ZM51.6429 12.6239V12.4281H51.25V12.6239H51.6429ZM50.8571 12.4281L50.4643 12.2323V12.4281H50.8571ZM31.7857 12.2323V11.3601L32 10.9685L31.2143 10.7727L31 10.4879L31.2143 10.2921H32.1786L32.3929 9.59791H32.7857L32.9643 9.31311L34.3571 9.22411V8.92151H33.5714L34.1429 8.83251C34.5476 8.63078 35.0714 8.52991 35.7143 8.52991L35.9286 7.85351V8.04931H36.3214L36.8929 7.46191H37.5V7.26611L37.2857 6.87451L37.6786 6.28712H38.0714L38.6786 6.39392L40.6429 5.69972L40.8214 4.93432L42.6071 4.63172L42.7857 4.43592L43.5714 4.34692V4.04432L43.1786 3.65272L44.5714 3.27892L45.1429 2.58472L46.1429 2.49572V2.29992C46.9286 2.09819 47.7143 1.90239 48.5 1.71253V1.51673L47.5 0.733527L47.1071 0.840327V0.644528L47.8929 0.448728L48.5 0.0571289V0.252928L49.1071 0.341928L49.2857 0.644528H49.6786L50.2857 0.252928H50.8571L52.4286 0.537728L52.6429 0.840327L51.4643 1.71253L52.8214 1.99732C53.4881 2.72119 54.4048 3.40352 55.5714 4.04432L56.3571 4.24012V4.54272H57.1429L57.75 5.02332L58.5357 5.13012L58.7143 5.41492L61.6786 6.00232V6.39392L64.6071 7.07031L66.3929 7.85351L67 9.22411L66.7857 9.59791L66.3929 10.3811L65.6071 10.1853V9.90051L65 9.79371V9.59791H64.0357L63.4286 9.31311V9.11731H62.8571V8.33411H62.25L61.4643 8.44091L61.0714 7.65771L61.2857 7.37291H60.6786L60.2857 8.13831H59.8929V7.94251L60.1071 7.65771L58.9286 6.67871H57.5357V6.98131L58.3214 7.07031L58.5357 7.37291L58.3214 7.17711H57.9286L57.3571 7.26611V6.87451L55.9643 6.78551L55.7857 6.28712H55V6.09132H55.3929V5.89552L54 5.80652L53.6071 4.93432C52.8214 5.06485 52.369 4.96399 52.25 4.63172L52.6429 4.15112H52.0357L51.25 4.34692L51.0714 3.56372L51.25 3.27892L50.0714 3.08312L49.6786 2.69152L48.8929 2.58472C47.3214 3.42726 45.75 4.28759 44.1786 5.16572C42.6071 6.04385 41.1667 6.90418 39.8571 7.74671C38.1905 9.23004 36.1548 10.565 33.75 11.7517H33.3571L33.1786 12.0365L31.7857 12.2323ZM52.8214 11.9475L53.0357 11.6449H52.4286V12.0365L52.8214 11.9475ZM49.6786 11.3601V10.9685H49.1071V11.3601H49.6786ZM33.5714 9.79371V9.50891H32.9643V9.79371H33.5714ZM52.0357 9.31311L50.8571 9.02831V8.83251H50.0714V9.11731L49.8929 8.92151H49.2857L48.2857 9.02831V8.83251C47.6429 8.70198 46.9881 8.57144 46.3214 8.44091L46.1429 8.72571H46.5357L43.1786 8.33411V8.13831L43.5714 7.46191C44.881 7.33138 46.1905 7.20085 47.5 7.07031L48.1071 7.17711L49.1071 7.07031L49.2857 7.26611L50.2857 7.07031L50.4643 7.46191H51.0714L51.25 7.17711L53.0357 6.98131V7.17711L52.8214 7.55091L54 7.94251H53.6071V8.44091L53.8214 8.83251L53.0357 8.92151C53.0357 9.18258 52.7024 9.31311 52.0357 9.31311ZM63.8214 9.02831L63.6429 8.83251L63.4286 9.02831H63.8214ZM52.6429 8.44091L53.0357 7.65771H52.25V8.44091H52.6429ZM52.6429 3.95532L52.8214 3.65272L51.8571 3.45692V3.75952L52.6429 3.95532ZM44.5714 3.84852V3.56372H44.1786L43.9643 3.84852H44.5714ZM45.75 3.08312V2.78052L45.1429 2.69152V2.88732L45.75 3.08312Z" fill="#483D3F"/>
<path d="M75.9592 36.4483C77.1347 35.5568 78.4408 35.0539 79.8776 34.9396L80.4 35.1111C80.2912 34.4939 80.4653 34.0596 80.9224 33.8081C81.6408 33.9224 82.1741 33.7281 82.5224 33.2252L82.7184 32.6766L80.7592 32.4709L80.4 33.0538H80.0408C77.9075 32.5509 75.8939 31.7965 74 30.7907C74.9578 30.7907 75.8503 30.5964 76.6776 30.2078L78.0816 30.7907L78.2776 29.6592L79.1592 29.4535L79.8776 29.8307V28.9049L79.6816 28.5277L78.8 28.9049L78.4408 27.9448L76.8408 27.5677V27.0191H77.5592V26.6419L76.6776 25.8875V24.9275L76.8408 24.5503H77.5592V24.0017H76.4816L77.2 22.6645L76.1224 22.1158C76.4054 20.9729 76.4054 19.83 76.1224 18.687L77.2 18.5156L77.3633 17.1784H76.4816V16.8012L76.8408 15.6697H77.2V15.2925H76.8408V14.161L77.5592 13.0295L77.3633 12.6523L77.7224 11.7265L77.3633 10.595L77.5592 9.63497H77.9184V10.9722H78.2776L78.8 10.0121L79.5184 9.8407V8.88063L80.4 10.3893L81.8367 10.9722L82 10.595H82.3592L83.4367 10.9722L84.4816 10.7665L84.8408 12.2752L84.1224 13.0295H83.4367L81.6408 12.4809L81.2816 11.898H80.7592V12.2752L80.9224 13.0295L80.5959 13.6124C80.117 13.9781 79.932 14.5382 80.0408 15.2925H79.6816V17.0069L79.8776 17.7613L79.5184 18.8928H79.1592V19.4757L79.8776 19.8528L80.0408 20.4014L79.8776 20.9843H80.4V21.7387L79.8776 22.8702L80.4 23.4188L80.0408 24.3789H80.7592L81.1184 23.0416V22.2873L82.5224 21.9101L83.0776 22.1158V22.8702H83.4367L83.9592 22.6645L84.8408 23.0416V23.4188L84.3184 23.796V24.3789L84.8408 25.5104L83.4367 23.4188L82.7184 23.0416H82.3592V24.0017L82.7184 24.756H82.3592L81.6408 24.5503V25.1332L82.3592 25.5104V25.8875L81.8367 26.6419H81.2816V27.1905L81.4776 27.5677H81.1184V26.2647L81.2816 25.6818L79.6816 24.9275V26.2647H79.3224V26.8133L79.8776 27.1905V27.9448L80.7592 28.1506V28.6992H80.2367V29.4535H80.5959L80.9224 31.1679C81.8803 31.2365 82.8381 31.2936 83.7959 31.3394L86.2776 30.7907L86.9959 31.1679V30.7907L86.8 29.8307H87.1592C87.0503 30.4707 87.2245 30.8479 87.6816 30.9622L88.7592 30.7907L89.4776 30.9622L91.2408 30.585L91.7959 30.7907L93.0367 30.2078L93.3959 31.7165L93.9184 31.9223V31.3394L93.7551 30.9622L94.4408 31.1679L94.6367 30.4136H95.3551L95.5184 27.3962L95.6816 26.4362L95.1592 26.2647V25.8875H94.8V25.5104H94.2776V25.1332L94.6367 23.2474H94.2776L94.0816 22.2873L93.7551 21.7387L94.4408 19.6471L93.5592 19.0985L92.8408 19.2699L92.3184 19.0985L91.4367 19.6471L91.2408 19.2699H90.8816L90.1959 19.8528L89.4776 18.5156L89.8367 17.5555L88.9551 17.0069C88.585 17.8755 88.4 18.8242 88.4 19.8528H87.8776L87.6816 18.5156H87.3224L86.6367 19.2699H86.2776L85.7224 18.3099L84.4816 18.8928V17.0069C84.8517 16.0011 85.6245 15.6811 86.8 16.0468L87.3224 17.9327H87.8776V17.0069L87.6816 16.424L88.5959 16.2526L89.2816 17.0069L89.4776 16.2526H90.1959L91.0776 17.9327H91.6V17.5555H92.6776L92.8408 18.5156H93.5592C93.7986 17.0069 94.1578 15.5554 94.6367 14.161H93.7551L93.3959 14.3667L93.2 13.6124H92.6776L92.4816 13.9896L91.4367 12.8581L90.8816 12.6523L90.5551 13.4067L91.0776 13.9896L90.1959 14.161L89.8367 13.0295H88.9551L85.7224 13.4067V13.7838L85.2 12.2752L85.5592 11.7265H85.9184V10.9722H86.2776V11.7265H86.6367L87.1592 11.5208V11.898H87.8776V11.5208H88.4V12.1037L89.2816 12.2752V11.7265L89.1184 11.3494L90.1959 11.7265V12.2752L90 12.8581L90.5551 13.0295L91.0776 11.898L91.6 11.7265V12.4809H91.9592L92.3184 11.898H92.8408L93.3959 13.4067L94.6367 13.9896V13.4067L94.0816 12.4809L93.5592 11.898C94.4517 12.1494 95.3442 12.1494 96.2367 11.898L96.9551 12.1037V12.6523H97.3143L97.6408 12.4809L98 13.6124H97.6408L96.7592 13.4067L96.4 15.1211L97.4776 15.4982V15.1211L97.8367 16.424L96.9551 17.1784L97.6408 19.0985L96.5959 19.4757V20.4014L97.4776 20.7786L97.1184 21.9101L97.6408 22.493L98 22.8702C97.6517 23.3731 97.532 24.0017 97.6408 24.756L97.8367 25.3046C97.4884 26.059 97.3143 26.939 97.3143 27.9448L97.4776 29.2821L96.9551 31.9223L96.2367 32.0937V32.848L96.4 33.4309C96.2912 34.4367 95.8776 35.1911 95.1592 35.694L96.5959 36.0711L97.1184 35.694L97.6408 36.4483H92.6776L92.4816 35.8654L91.9592 36.4483H91.6L90.5551 35.8654L90 34.9396L89.2816 34.3567H90.5551V33.9795L89.4776 33.4309L89.2816 32.4709H86.9959L86.2776 32.848L86.0816 33.4309L85.0367 34.3567L84.4816 34.5624L84.3184 34.9396L83.4367 35.694V34.9396H83.0776L82.5224 35.8654L82.7184 36.2426H82.1959L81.2816 36.4483L80.7592 36.2426L75.9592 36.4483ZM94.4408 35.694V34.7339H93.7551V35.1111L93.9184 35.8654L94.4408 35.694ZM95.3551 34.7339L95.5184 34.1853H95.1592L94.8 34.9396L95.3551 34.7339ZM93.3959 34.3567V33.9795L92.8408 33.8081V34.1853L93.3959 34.3567ZM92.4816 33.8081L92.6776 33.0538H92.3184L91.9592 33.9795L92.4816 33.8081ZM94.8 33.9795V33.6024L94.0816 33.0538L94.8 32.848V32.0937L94.0816 31.9223L93.9184 32.2994L93.3959 32.4709V33.0538L94.2776 33.9795H94.8ZM90.3592 33.2252V32.848L89.6408 32.4709V33.2252H90.3592ZM85.7224 25.6818L85.9184 24.756L85.5592 23.6245L85.9184 23.0416H86.2776L86.4408 22.1158L87.3224 24.756L87.8776 24.9275L88.5959 24.756V24.0017L87.8776 23.796L87.6816 23.0416L88.4 22.8702L88.5959 23.6245L89.8367 24.3789H89.4776V24.756H89.1184L88.4 24.5503V25.1332L89.2816 25.6818H88.2367L86.4408 24.756L86.0816 25.6818H85.7224ZM96.0408 25.8875V25.1332H95.6816L95.5184 25.8875H96.0408ZM90.3592 25.3046V24.756L91.0776 24.0017L91.6 24.1731V23.4188L92.3184 25.3046H90.3592ZM86.2776 24.0017L86.4408 23.4188H86.0816L85.9184 24.0017H86.2776ZM90 23.6245L89.8367 22.8702H90.5551L90 23.6245ZM82.8816 22.6645V22.2873H82.5224V22.6645H82.8816ZM95.3551 22.6645V22.1158H94.8V22.6645H95.3551ZM84.3184 22.2873V21.7387L84.6776 22.2873H84.3184ZM95.6816 21.7387L95.3551 21.3615V21.7387H95.6816ZM77.7224 21.1558L76.8408 20.6072V20.9843L77.7224 21.1558ZM78.9633 20.7786V20.23H78.2776V20.7786H78.9633ZM77.7224 20.4014V19.8528H77.2V20.4014H77.7224ZM77.3633 19.8528V19.2699L76.8408 19.8528H77.3633ZM83.6 19.6471L82.7184 19.2699L83.0776 17.9327L83.2408 18.5156H83.7959L83.6 19.6471ZM91.6 19.2699V18.687H91.0776V19.2699H91.6ZM82 18.687L81.6408 18.5156L81.1184 18.1384L80.7592 16.424L82.5224 15.8754L83.0776 16.0468V15.4982H83.4367L83.6 16.0468L83.4367 17.1784L82.5224 16.8012L82.3592 16.2526H81.8367V16.6297L82.3592 17.7613L82 18.687ZM86.9959 18.5156V17.9327H86.4408L85.9184 16.424L85.3959 16.2526L84.6776 17.0069V17.5555L85.7224 17.9327L86.9959 18.5156ZM81.6408 17.3841L81.1184 16.8012V17.1784L81.6408 17.3841ZM77.5592 17.0069V16.2526H77.0367V17.0069H77.5592ZM97.1184 16.0468L96.7592 15.6697V16.0468H97.1184ZM81.4776 13.2352L81.2816 12.8581H81.6408L81.8367 13.2352H81.4776ZM88.7592 12.8581V12.2752H88.2367V12.6523L88.7592 12.8581ZM86.2776 12.6523V12.2752H85.9184V12.6523H86.2776ZM84.1224 11.898V11.5208L84.3184 10.9722H83.9592L83.7959 11.898H84.1224ZM93.9184 8.50346L94.2776 8.12629V8.50346H93.9184ZM92.8408 8.33202L91.2408 7.95485V6.99478C92.1986 6.37759 92.6776 5.49753 92.6776 4.35459H93.0367L93.5592 0.754339L94.0816 0.582898L94.9959 1.54297L94.2776 1.71441L94.0816 2.09158L93.5592 2.67447H93.2V3.22308H93.7551L94.2776 3.05164L94.4408 2.46875L95.3551 2.29731L95.8776 3.42881L95.6816 3.80598L96.2367 5.10893L95.6816 5.31466V5.86327H96.0408L96.7592 5.69183L96.9551 6.44617L96.4 7.57768H95.8776L95.5184 6.99478H94.0816V7.37195L93.2 7.74912V8.33202H92.8408ZM90 7.95485L89.8367 7.20051H89.4776L88.5959 7.57768L86.4408 6.82334L85.9184 6.99478L85.3959 6.61761L84.8408 7.37195L84.1224 7.74912V6.99478H83.6V7.57768H83.2408L82.7184 6.069H82.1959L81.8367 6.82334L81.2816 7.37195C80.1061 7.1205 78.985 6.86906 77.9184 6.61761V6.24044L78.0816 5.86327L77.3633 4.18315C77.9728 4.29745 78.332 4.10315 78.4408 3.60025L77.2 3.22308L77.0367 2.29731L78.6367 1.92014V1.54297L78.4408 0.960068L78.6367 0.582898L80.4 0.37717L81.1184 0L82 0.582898V0.205729L83.6 1.13151L83.7959 1.92014H83.4367L82.1959 1.13151L81.4776 1.33724V1.92014H80.0408V3.05164L80.5959 4.93749L81.4776 5.10893C81.717 4.60604 82.185 4.42317 82.8816 4.56032V5.10893H84.1224L84.6776 5.69183L84.8408 5.10893L85.7224 4.93749L86.6367 5.10893V5.4861H87.1592L87.6816 5.31466L87.8776 6.069L88.4 6.24044V5.31466L88.9551 6.069H89.6408L90.5551 5.86327L91.0776 6.069L90.3592 6.24044V6.61761L90.5551 7.57768L90 7.95485ZM96.0408 6.99478L95.6816 6.61761V6.99478H96.0408ZM95.1592 6.24044L94.8 5.86327V6.24044H95.1592ZM85.5592 6.069L85.7224 5.4861H85.2V6.069H85.5592ZM89.2816 2.46875V1.71441L88.4 1.54297L87.6816 1.92014L87.1592 1.71441L86.4408 2.29731L86.0816 0.960068L87.5184 1.54297L88.0408 1.33724V0.960068H88.4L88.9551 1.13151L90 0.754339L89.4776 1.71441L89.8367 1.92014V2.46875H89.2816ZM96.5959 2.29731L95.6816 1.71441L95.5184 0.582898L96.0408 0.37717V0.754339L95.8776 1.33724L96.5959 2.29731ZM92.3184 2.09158L91.9592 1.92014V1.54297L92.3184 2.09158ZM84.4816 1.92014V1.54297L84.1224 0.754339H84.8408L85.2 0.582898V1.54297L84.4816 1.92014ZM80.4 1.54297L79.8776 1.33724V1.71441L80.4 1.54297Z" fill="#483D3F"/>
</svg>
