<svg width="218" height="37" viewBox="0 0 218 37" fill="none" xmlns="http://www.w3.org/2000/svg">
<path d="M4.18359 31.6419V31.228L4.74609 27.9166L4.35938 26.9006L2.10938 25.6588L1.89844 25.0192L4.74609 23.4011L5.51953 23.815L6.08203 21.7454H5.13281V20.5036L5.51953 19.6758C5.63672 18.1706 5.32031 16.8661 4.57031 15.7623C2.92969 15.9128 1.47656 15.5742 0.210938 14.7463L0 13.9185L0.5625 12.4509H3.97266L4.74609 12.6767L5.30859 11.021L4.92188 7.93543L6.43359 6.69366C7.32422 8.6253 7.76953 10.7576 7.76953 13.0906L8.33203 13.2788L9.66797 12.6767L9.84375 13.5046H10.2305L10.6172 12.6767L11.3906 12.4509L11.0039 11.2468L11.1797 10.6071H10.0547C10.5 8.85107 10.6875 7.06995 10.6172 5.26374H11.5664L11.9531 4.02197L12.6914 5.67766H12.1289V6.27973L13.2539 6.50551V7.33336L13.8516 7.5215V8.12357L13.2539 8.53749V9.17719L14.0273 13.9185H14.4141L15.1523 13.5046L15.5391 14.3324L15.3633 15.3484L15.9258 16.7783L15.75 17.1922H15.3633L14.8008 17.0041C13.6523 17.6814 13.207 18.71 13.4648 20.0897L13.6406 22.1593H15.75V22.9872L14.4141 23.4011L14.0273 25.2449L14.2031 26.2609L13.8516 27.3145L14.0273 28.1424L13.8516 28.9702L14.0273 29.5723L13.6406 29.7604V30.4001L14.0273 31.228L13.0781 31.6419L11.3906 31.228L10.4414 31.4161L10.0547 31.228V30.5883C10.5469 29.635 10.7344 28.6065 10.6172 27.5027L10.2305 26.6748H7.76953C7.39453 28.2051 6.94922 29.7228 6.43359 31.228L5.30859 31.4161L4.74609 31.228L4.18359 31.6419ZM9.49219 23.4011C10.125 23.1251 10.7578 22.8492 11.3906 22.5732L11.5664 21.7454L11.0039 20.5036L10.4414 19.4876L10.6172 17.1922H8.33203C8.16797 18.9985 7.98047 20.7921 7.76953 22.5732L9.49219 23.4011ZM15.1523 16.402V15.9881L14.8008 16.402H15.1523ZM10.0547 15.1603V14.5206H9.49219V15.1603H10.0547ZM5.13281 13.2788L4.74609 12.8649L4.57031 13.5046L5.13281 13.2788ZM12.3398 10.6071L11.7422 10.419V10.8329L12.3398 10.6071ZM13.8516 5.26374L13.6406 4.4359L14.5898 4.21012V5.26374H13.8516Z" fill="#483D3F"/>
<path d="M151.707 32.1353L151.496 31.4956L152.27 31.3074V30.8935L151.496 30.6677V30.0657L150.758 29.426L151.496 28.5981V28.1842L151.109 27.7703H151.883V27.1682L150.371 26.7543L150.934 23.8568L150.371 23.4429C149.996 22.1886 149.363 21.0095 148.473 19.9057C147.84 19.3538 147.148 19.1406 146.398 19.266L145.625 20.9594L145.449 21.5614C146.082 22.1133 146.27 22.8032 146.012 23.631L145.449 24.4589L146.012 26.1146L145.801 26.5285H144.852V26.9424L145.449 28.1842H144.852L144.113 27.996L142.988 28.41L142.391 28.1842L141.266 28.5981V27.3563L141.09 26.7543L141.828 26.5285C141.711 25.7007 141.898 25.086 142.391 24.6847L143.164 24.4589V23.8568L141.652 23.4429L141.441 21.7872L140.879 21.5614L140.703 20.9594L141.09 20.3197V21.3733L142.039 21.7872V21.3733H142.602V21.7872H142.988L144.113 21.3733V20.7336H142.391V19.68L142.602 18.4382H142.215L139.367 20.3197L139.191 19.68H138.629L138.242 21.5614H137.117L136.906 22.3893L136.344 23.029L135.781 23.2171L135.57 23.631L134.832 23.8568L134.445 24.2707V23.8568L134.621 23.029H134.059V23.8568H133.32V23.4429L133.496 22.8032H132.934L132.371 23.4429V22.6151L132.16 21.5614C132.676 21.0095 133.309 20.6583 134.059 20.5078L134.27 19.266L134.445 18.664H134.832V18.25L136.906 18.0243C136.648 16.795 136.965 16.1052 137.855 15.9547L139.191 16.3686V15.9547L138.418 15.1268H138.98V14.7129H139.578L140.527 15.1268V14.5247L140.316 14.1108C140.949 14.2362 141.266 14.023 141.266 13.4711L141.09 12.6433L141.266 12.0412H140.527V11.6273L140.703 10.5737L139.93 10.1597L138.629 10.3855C136.73 9.95904 134.832 9.40715 132.934 8.72982V8.3159L134.832 7.90197L135.008 7.48805C135.828 7.71383 136.648 7.71383 137.469 7.48805L138.242 7.90197L138.98 7.6762L139.578 7.90197L140.879 7.48805L141.441 8.09012L141.828 6.66021L141.652 5.19266L141.441 4.36481L142.039 2.2952L141.266 1.46735V0.639509C142.156 0.76494 142.918 0.626966 143.551 0.225586L143.727 0.827656L143.551 1.46735C144.043 2.16977 144.676 2.383 145.449 2.10705L145.801 1.88128V2.2952L145.449 3.34882L145.625 3.95089L144.5 4.36481V5.00451H145.238V6.24628L145.801 6.66021L145.625 7.07413H145.238V7.6762L145.625 8.50404H146.012L146.188 8.09012H146.574C147.207 8.51659 147.969 8.65456 148.859 8.50404V9.14374L150.16 8.3159L150.547 9.14374L149.809 9.33189V9.97159H150.371L151.32 9.33189L151.883 7.48805H151.109L150.547 7.6762L151.32 7.48805V7.07413L152.445 6.84835L152.832 5.41844L151.883 4.77874L152.621 5.00451C153.137 4.3021 153.84 4.08887 154.73 4.36481L156.031 5.00451L157.578 4.36481L156.98 4.59059V5.19266L157.367 6.24628L157.191 6.84835L156.242 7.26227L156.031 9.14374L155.68 8.3159L155.117 6.84835H154.168V7.26227L153.008 7.6762L152.445 7.48805V8.09012L152.621 9.33189H153.781V10.1597L154.344 10.3855V10.7994H155.117L155.469 9.97159L156.242 10.3855L156.629 10.9876C159.137 10.8621 161.41 11.1381 163.449 11.8154L164.188 11.4015C164.562 9.89633 165.008 8.45387 165.523 7.07413L163.625 6.66021L162.852 6.84835L162.5 6.24628H161.938L161.164 6.84835L160.391 6.66021L159.652 6.84835V6.24628H159.266L158.316 6.66021L158.141 5.41844L158.316 4.77874L159.441 5.19266L160.391 4.77874L160.602 4.17667H160.988L162.5 4.59059V4.17667L164.188 5.00451L164.75 3.76274L165.699 3.53697L166.473 4.17667L166.648 4.77874L167.211 5.00451L167.422 4.36481H168.16L168.371 3.76274H168.758L169.496 3.95089L170.27 3.34882L170.445 3.95089L169.883 4.17667L169.496 5.19266L169.707 6.66021C168.559 8.16538 168.172 9.95904 168.547 12.0412L168.934 15.9547L168.758 16.3686L167.984 16.1804V16.5944L168.16 17.1964L168.934 17.4222L169.109 18.664L168.758 19.4918L169.496 19.266V20.3197C169.004 20.8716 168.816 21.5614 168.934 22.3893L169.32 23.029L169.109 24.2707C169.742 25.0986 170.129 26.0644 170.27 27.1682L169.32 29.2378L169.109 28.41L169.32 27.7703H168.547L168.371 29.012L167.809 29.2378V29.8399H166.859V30.4796H166.086C165.195 29.9277 164.246 29.6517 163.238 29.6517L162.289 30.0657C161.164 28.9619 159.91 28.1967 158.527 27.7703L158.316 26.9424H157.93L157.754 27.5821L157.93 28.5981H158.703L159.09 29.426L157.578 29.2378L157.191 28.5981H156.418L155.855 28.8239L155.117 30.0657L155.293 30.6677C154.543 30.9437 153.781 31.2196 153.008 31.4956L152.832 31.9095L151.707 32.1353ZM154.73 30.0657L153.957 29.6517V30.2538L154.73 30.0657ZM142.039 27.996L141.652 27.5821V27.996H142.039ZM143.938 27.3563L144.113 26.7543H143.34V27.1682L143.938 27.3563ZM165.699 26.7543V26.3404L164.75 25.9264L165.348 25.5125L165.523 24.2707L164.574 22.2011H163.625V21.1475L163.801 20.3197H163.238L162.852 20.9594L160.988 21.1475V21.5614C160.988 20.859 160.73 20.4451 160.215 20.3197L159.09 20.7336L158.703 20.5078L158.141 19.266L157.367 19.0779V19.4918L157.754 19.68L157.191 19.9057L156.418 20.9594L156.242 21.5614L155.68 20.5078H155.117L154.906 22.2011L155.117 22.8032L155.469 23.2171C155.094 23.4931 154.977 23.907 155.117 24.4589L154.73 25.0986L159.266 25.7007L159.828 25.5125L160.215 26.3404L160.777 26.5285L163.238 26.1146C164.012 26.541 164.832 26.7543 165.699 26.7543ZM158.141 26.5285V26.1146H157.754V26.5285H158.141ZM145.801 25.7007L145.238 25.5125L145.062 26.1146H145.801V25.7007ZM142.777 23.029V21.9754L142.602 21.5614H142.215V22.3893L142.039 23.029H142.777ZM135.957 21.3733L136.168 20.7336L135.395 20.3197V21.1475L135.957 21.3733ZM138.242 21.3733V19.0779H137.855L137.469 19.9057L137.68 20.5078H136.906V21.1475L138.242 21.3733ZM149.422 20.0939L149.598 19.0779H148.859V19.9057L149.422 20.0939ZM161.938 20.0939L161.164 19.4918V19.9057L161.938 20.0939ZM140.141 19.9057V19.266H139.578V19.9057H140.141ZM160.777 19.4918V18.8521H160.391V19.4918H160.777ZM140.527 18.8521L140.703 18.4382L141.09 17.8361L142.215 17.6103V17.0083L141.441 16.5944L140.703 17.0083V16.1804H139.93V16.5944L140.141 17.6103L139.93 18.0243L138.98 17.6103L138.805 18.664L138.418 19.266L139.191 19.4918L140.527 18.8521ZM146.398 18.8521V18.4382H146.012V18.8521H146.398ZM137.117 18.664L136.344 18.25V18.8521L137.117 18.664ZM152.27 18.4382L151.32 17.8361V18.4382H152.27ZM158.703 18.4382L158.141 18.25V18.664L158.703 18.4382ZM144.113 18.4382V17.8361H143.34V18.4382H144.113ZM147.91 18.4382V17.6103H147.348V18.4382H147.91ZM161.727 18.4382L165.137 18.0243V17.6103L164.574 16.5944L164.75 14.7129L163.062 14.9387L161.34 14.1108L160.391 13.4711V14.5247C159.758 13.6969 159.008 13.3457 158.141 13.4711L156.98 14.9387L157.191 15.3526L155.469 14.5247L154.73 15.3526H155.855V15.7665H155.117V16.3686L156.031 16.7825L156.418 17.4222C158.199 17.5476 159.969 17.8863 161.727 18.4382ZM138.418 17.8361L138.031 17.4222V17.8361H138.418ZM146.188 18.0243V17.6103L145.625 17.4222V17.8361L146.188 18.0243ZM150.547 17.8361V17.1964L150.371 16.5944L150.758 15.5407L150.16 15.3526L149.984 13.885L150.371 13.6969L150.547 14.299H150.934L151.496 13.0572L150.758 12.6433L149.984 12.4551L151.109 12.0412C150.992 11.3388 151.191 10.9876 151.707 10.9876L152.621 11.2134L153.395 10.3855C152.762 9.83361 152.07 9.55767 151.32 9.55767V10.1597L150.16 10.7994L149.984 11.6273L149.211 10.7994V9.97159L148.262 10.9876L147.699 10.1597L147.137 9.97159V10.7994H146.012L145.625 13.4711L147.348 15.3526V15.7665L150.547 17.8361ZM152.059 17.4222L151.496 17.0083V17.6103L152.059 17.4222ZM138.031 17.1964L137.855 16.3686H137.293V17.4222L138.031 17.6103V17.1964ZM154.52 17.4222V16.7825L154.73 15.9547H154.344L153.957 17.4222H154.52ZM142.777 15.7665L142.215 15.1268L142.039 15.9547L142.777 15.7665ZM153.008 14.9387V14.5247L152.445 14.299V14.7129L153.008 14.9387ZM157.367 13.6969V13.0572H156.805V13.6969H157.367ZM145.238 11.4015L144.289 10.7994V11.2134L145.238 11.4015ZM154.52 9.14374L154.344 8.50404H154.73L154.52 9.14374ZM168.371 9.14374V8.50404H167.809V9.14374H168.371ZM154.52 6.84835V6.02051L153.395 7.07413L154.168 7.26227L154.52 6.84835ZM160.215 6.24628L159.828 5.83236V6.24628H160.215ZM161.551 6.02051V5.60658L161.164 4.77874H160.602V5.41844L161.551 6.02051ZM165.348 4.59059L165.523 3.95089H165.137L164.75 4.77874L165.348 4.59059ZM145.449 3.95089V3.34882H144.852V3.95089H145.449Z" fill="#483D3F"/>
<path d="M184.336 36.3867L183.211 35.2266L183 33.8906C183 32.8594 183.258 32.0859 183.773 31.5703H184.16V31.1836C183.527 30.668 183.328 29.9648 183.562 29.0742L183.773 28.3008H184.336V27.7383L183.773 27.5273V26.9648L184.898 25.5937L184.16 25.418L183.949 23.6953C184.09 22.5234 184.348 21.4219 184.723 20.3906L184.547 17.8945L184.898 15.3984H185.496L185.672 14.0625L185.109 13.8516C185.672 11.6016 185.602 9.36328 184.898 7.13672L185.496 6.36328L184.723 5.76562V1.33594H185.496L189.855 2.88281L190.805 2.70703L191.754 3.09375L191.965 2.49609L193.477 3.65625V2.88281H194.039L194.812 3.09375V2.70703H195.375V3.26953L195.023 4.21875L196.148 4.60547L197.098 4.21875V4.60547L195.973 5.58984V6.15234L196.711 6.53906L197.309 6.36328L197.66 7.52344L197.098 8.47266C197.473 9.50391 197.789 10.5352 198.047 11.5664L197.484 11.7422V12.3047C198.117 12.3047 198.691 12.5039 199.207 12.9023L199.77 12.6914V13.0781L198.82 14.2383L199.207 15.3984L198.258 15.9961L197.484 15.6094V15.9961H196.711V16.5586H195.762L194.039 15.9961L193.687 17.5078L193.09 17.7187L192.703 17.5078V17.1211L194.25 15.2227V14.625L193.09 14.2383L192.914 15.2227L192.141 14.4492H191.578L192.352 16.5586H191.578L191.016 16.3477V18.1055H190.629V17.5078H189.855V17.1211L190.805 16.3477L189.68 15.7852L188.133 17.332L188.52 18.1055H187.957L187.781 21.375L187.957 21.9375H187.57V22.5352L187.781 23.0977L187.57 24.2578L187.781 24.8203C187.781 27.9141 187.523 30.8672 187.008 33.6797L187.184 34.8398L186.445 35.0508L186.234 35.6133L186.445 36H185.496L184.723 35.6133L184.336 36.3867ZM213.867 32.9062L213.305 32.1328L212.707 31.957L212.531 30.4102L213.094 29.6367L212.531 29.25V28.6875L213.094 27.3516L213.48 26.5781L213.305 26.1914L213.48 25.5937L212.707 25.418V24.8203L212.918 23.8711L212.707 23.3086L213.48 21.375L212.918 20.9883V20.0391L213.094 19.2656H211.582V18.8789H211.195L210.809 19.0547L209.297 18.8789V19.2656H208.523L207.012 18.668L205.676 18.8789L203.391 17.8945L203.18 16.3477H204.902L206.063 16.9453L206.449 16.7344L207.012 16.9453L207.188 16.1719H206.801V15.6094L207.398 15.3984V15.0117L207.188 14.625L208.348 15.3984L207.574 16.9453H207.961L208.348 16.3477L208.523 17.1211L209.684 17.332L210.07 15.7852L210.633 16.3477H211.195L211.758 15.3984L212.145 16.3477L212.707 16.5586L213.094 15.6094L212.918 14.8359L213.48 11.3555L212.531 10.582L212.355 10.9687H211.969V10.1953H211.195V9.80859H211.969V9.42187L211.371 7.69922C210.996 8.47266 210.621 9.24609 210.246 10.0195L210.422 10.793H209.684L208.91 10.582L208.348 10.793L207.398 10.1953L206.801 12.1289H207.188V12.5156L206.801 13.0781L207.188 13.6758L207.012 14.0625L206.449 14.2383L206.238 14.625L204.34 15.0117L203.391 14.4492L202.617 4.42969L203.004 3.48047L204.164 2.70703V2.10937L203.953 1.72266L204.34 1.16016L205.676 0.949219L206.625 1.16016V0.5625H207.012L208.523 0.949219L208.734 0.175781L209.473 0V0.773437H210.246V0.386719C210.996 0.574219 211.758 0.574219 212.531 0.386719L212.707 0.949219H213.305L213.656 0.386719L214.43 0.773437L215.203 0.5625L216.539 1.54687L216.152 2.49609L216.715 2.70703V3.09375L216.539 3.65625L215.941 4.21875L216.539 6.36328L216.926 6.53906V6.92578H216.539V7.52344L216.926 8.26172L216.328 9.80859L216.926 10.1953L216.539 10.9687L217.102 12.5156L216.539 11.9531L215.941 11.5664L215.766 12.1289H216.152V12.5156L215.766 13.0781L215.941 13.4648H216.926L217.102 15.2227L216.328 15.3984V15.7852L217.488 16.3477V17.332H216.539V17.7187L217.664 20.2148L216.328 20.6016V21.1641L217.664 22.3242V23.4844L217.102 25.207L217.488 26.7539L217.277 27.3516L217.488 28.3008L217.277 30.2344L217.488 30.7969L216.539 31.0078L216.152 32.3437H215.59L214.816 32.1328L213.867 32.9062ZM214.254 32.1328L213.48 31.3945V31.7812L214.254 32.1328ZM216.715 28.3008L217.102 27.5273H215.941V27.9141L216.715 28.3008ZM213.48 25.207V24.8203H213.094V25.207H213.48ZM206.801 18.4922L207.012 17.8945H205.852V18.4922H206.801ZM209.859 18.4922L209.473 18.1055V18.4922H209.859ZM212.355 18.2812V17.7187H211.758V18.2812H212.355ZM208.734 17.7187L208.137 17.332V17.8945L208.734 17.7187ZM195.199 17.5078L194.426 17.332V16.9453H195.023L195.199 17.5078ZM204.164 17.332L203.777 16.9453V17.332H204.164ZM191.754 15.7852L191.578 14.8359H191.016V15.6094L191.754 15.7852ZM195.023 15.7852V15.3984H194.637V15.7852H195.023ZM195.586 15.3984L195.973 14.625H195.586L195.023 15.6094L195.586 15.3984ZM208.91 15.0117L210.07 14.4492V14.8359L208.91 15.0117ZM188.344 14.2383V13.8516H187.957V14.2383H188.344ZM190.066 14.0625L190.242 13.6758C191.062 13.5586 191.824 13.6875 192.527 14.0625L193.687 13.2891L194.637 13.6758L196.148 12.1289H195.586L195.023 12.3047L195.375 11.5664H194.812L194.426 9.63281H194.039L193.687 10.4062H192.914L192.352 8.85937H193.301L193.09 9.63281H193.477L193.863 8.85937H194.25L194.637 9.03516L194.812 7.13672L193.477 6.92578L192.914 7.13672L192.703 6.36328C191.953 6.62109 191.52 6.42187 191.402 5.76562L192.141 5.37891L192.352 4.60547L191.965 4.42969V4.04297H191.402L191.016 5.58984L190.418 5.76562V6.36328L191.016 6.75H190.418L188.344 6.36328L188.133 8.08594L189.117 8.47266L190.242 8.85937L190.418 8.26172L191.016 8.08594V8.47266L190.805 9.80859H191.191V10.1953L191.016 11.9531H191.402L191.016 12.3047L189.68 11.5664H189.293L188.344 12.5156V14.0625H189.117V13.6758L189.469 14.2383L190.066 14.0625ZM193.301 11.9531L192.527 11.5664H193.687L193.301 11.9531ZM189.68 10.0195L189.117 9.63281V8.85937H188.73L188.344 10.4062H188.73L189.68 10.0195ZM209.859 9.80859V9.24609H209.297V9.80859H209.859ZM208.91 9.42187L209.086 8.64844H208.523V9.42187H208.91ZM213.48 9.42187L213.094 9.03516L212.918 9.63281L213.48 9.42187ZM212.355 8.64844V7.91016L212.918 8.08594C213.41 7.05469 213.656 5.89453 213.656 4.60547C212.133 3.97266 210.492 3.46875 208.734 3.09375L207.398 3.65625L206.449 3.48047L205.289 3.86719L205.113 5.37891L205.852 5.76562L206.238 6.75L207.398 6.92578L210.07 6.36328L210.422 7.13672L211.195 7.3125L211.758 8.64844H212.355ZM208.91 8.26172V7.69922H208.348V8.26172H208.91ZM204.164 6.36328L204.34 5.58984H203.777L203.391 6.36328H204.164ZM190.418 5.76562L189.68 5.37891V6.15234H190.418V5.76562ZM193.477 5.37891L192.914 4.81641V5.58984L193.477 5.37891ZM204.727 5.20312V4.81641L204.516 4.21875H203.953L203.777 4.81641L204.727 5.20312ZM190.066 4.99219V4.60547H189.68V4.99219H190.066ZM204.902 2.70703L204.516 2.32031V2.70703H204.902ZM204.902 1.93359L204.34 1.72266V2.10937L204.902 1.93359Z" fill="#483D3F"/>
<path d="M194.868 36.3164L194.618 35.5508L194.352 35.1133L194.43 33.9414V33.5977L194.68 33.0039L194.587 31.8008H194.759V31.6289L194.587 31.1914L194.337 31.1133V30.5039L194.509 29.9883L193.821 29.8164C193.717 29.5872 193.493 29.5039 193.149 29.5664L192.977 29.6445L192.384 29.4727L192.462 29.1289C192.222 29.1081 191.998 29.1654 191.79 29.3008L191.524 28.7852H191.696V28.6133C191.363 28.2695 191.222 27.8372 191.274 27.3164L190.852 27.2383L190.93 26.9727L191.618 26.8945L192.04 27.0664V26.7227L191.79 26.3789L191.962 26.2852V25.9414L191.524 25.5195L191.696 25.082H191.446L191.196 25.1758L191.024 24.7383L191.102 24.3945L190.852 24.3164V23.9727L191.024 23.5352L190.759 22.7695L191.696 22.6758V21.9883H192.212V21.8164H192.384L192.805 21.9102V21.6445H192.977V21.1289L193.493 21.3008L193.665 20.707L193.571 20.5352H193.915L194.165 20.6133V20.4414L194.087 20.0977H194.43V19.832L194.337 19.6602C194.847 19.9518 195.243 20.3268 195.524 20.7852V21.0508C194.847 21.8529 194.081 22.5404 193.227 23.1133H193.055V23.5352L193.493 23.8008L193.743 23.707C193.972 24.0508 194.311 24.1654 194.759 24.0508L194.93 23.5352L195.618 23.3633L195.868 23.457C196.097 22.9362 196.326 22.4206 196.555 21.9102H196.727L197.055 22.082V22.2539L196.555 22.5039L196.462 22.7695L196.727 22.8477L196.977 22.7695L197.055 23.5352L197.321 23.6289L197.743 23.457V23.6289L196.977 23.8789V23.6289H196.805V23.1133H196.462L196.134 23.2852V23.5352L196.555 23.8008V23.9727L196.462 24.3164L196.634 24.6602L196.555 25.082L196.29 25.2539L195.962 25.9414H195.79L195.618 25.6914H195.274V25.9414H195.446V26.3789V26.207H195.102V26.8945H194.852L194.68 27.582H194.93V27.2383L195.696 27.1445L195.868 27.4883H196.04L196.134 26.9727H196.462L196.805 27.4102H197.321L198.399 27.6602H198.571L197.743 26.5508H197.571L197.227 26.6289L196.977 25.9414H197.227L197.321 26.207H197.915L197.993 26.5508L197.337 27.6289L198.259 27.0664H198.587L198.852 26.9727L198.68 27.0664V27.4883C198.399 27.4362 198.259 27.5247 198.259 27.7539L198.43 28.0977L197.993 28.2695V28.0977L198.087 27.7539H198.571L198.493 28.0977L198.571 28.3633H198.321V28.8789H198.149L197.899 28.7852L197.634 28.8789V28.707H197.462C197.128 29.0508 196.019 29.4779 196.134 29.9883C196.352 30.5091 196.462 31.082 196.462 31.707L196.384 32.0508L196.634 32.2227V32.4883L196.462 33.3477H196.29V33.5977H196.462L195.634 35.8945L195.29 35.9727L195.212 36.1445L194.868 36.3164ZM192.212 34.6289L190.93 33.8633L190.852 33.1758L191.102 32.7383L190.759 32.4883L190.852 32.2227L190.587 31.6289L190.759 30.8477L190.68 30.5977L191.79 31.1914C192.3 32.1706 192.581 33.2331 192.634 34.3789L192.555 34.5508L192.212 34.6289ZM195.962 33.8633V33.3477H195.696V33.8633H195.962ZM195.196 33.4258V33.0039H195.024L194.68 33.5977H194.93L195.196 33.4258ZM191.352 33.1758L191.102 33.082V33.2539L191.352 33.1758ZM191.868 32.832L191.696 32.6602V32.832H191.868ZM195.618 32.6602V32.3164L195.274 32.0508H195.696V31.8008L195.446 31.1914L195.524 30.8477L195.274 30.7695L195.102 31.1133L194.852 31.1914V31.457H195.102V31.8008L195.024 32.3164L195.618 32.6602ZM191.696 32.4883V32.3164L191.352 32.2227V32.3945L191.696 32.4883ZM199.962 31.1133L199.618 30.8477L199.79 30.2539L199.696 30.082H199.524V30.332L199.102 30.082L198.68 30.1602L198.165 28.8789H197.993V28.707H198.43C198.43 28.4154 198.54 28.181 198.759 28.0039L199.196 27.9258L199.274 28.1758L198.93 28.2695L198.852 28.8789L199.102 28.957L199.196 28.5352H199.446L199.618 29.0508L199.868 29.1289V28.8789L199.962 29.1289L199.868 29.7383L200.134 30.6758L200.462 30.7695L200.04 30.8477L199.962 31.1133ZM195.618 30.5977V30.332L195.79 29.9883L195.696 29.3008H195.524L195.196 30.082V30.4258L195.618 30.5977ZM196.212 30.5977V30.332H195.962V30.5977H196.212ZM199.696 29.8164L199.274 29.4727V29.6445L199.696 29.8164ZM198.93 29.4727V29.1289L198.68 29.0508L198.587 29.3008L198.93 29.4727ZM193.915 29.3008V29.0508L193.571 28.957V29.2227L193.915 29.3008ZM193.743 28.7852V28.5352H193.399V28.7852H193.743ZM196.134 28.6133L196.212 28.2695L195.962 28.1758L195.868 28.707L196.134 28.6133ZM192.134 28.5352V28.3633H191.962V28.5352H192.134ZM194.259 28.4414V28.2695H194.087V28.4414H194.259ZM195.79 28.2695V27.9258L195.868 27.582H195.618L195.524 27.9258H195.274V28.1758L195.79 28.2695ZM197.634 27.9258V27.7539H197.462V27.9258H197.634ZM198.227 27.9258V27.7539H198.055V27.9258H198.227ZM197.993 27.4883L197.821 27.3164V27.4883H197.993ZM193.399 27.0664V26.8945H193.227V27.0664H193.399ZM194.43 26.9727L194.509 26.1133H193.993V26.3789H194.165V26.6289L194.087 26.8945L194.43 26.9727ZM197.087 27.9727V27.8008H196.915V27.9727H197.087ZM192.634 26.457V26.207L192.384 26.0352V25.7695L192.462 25.4258L191.962 25.3477V25.5977L192.212 26.2852L192.634 26.457ZM194.087 26.0352V25.7695H193.821V26.0352H194.087ZM195.868 24.6602L195.618 24.5664V24.7383L195.868 24.6602ZM195.79 24.3945V24.2227L195.868 23.8789H195.446V24.1445L195.524 24.3945H195.79ZM195.352 23.8789V23.5352H195.102V23.8008L195.352 23.8789ZM191.446 23.1914V23.0195L191.102 22.9414V23.1133L191.446 23.1914ZM197.571 23.0195V22.8477L197.665 22.5977L197.493 22.332L197.743 22.8477L197.571 23.0195ZM192.384 22.9414C192.436 22.5352 192.352 22.306 192.134 22.2539V22.4258L192.384 22.9414ZM192.977 22.5039V22.1602H192.727V22.5039H192.977ZM193.571 22.082V21.8164H193.321V21.9883L193.571 22.082ZM194.43 21.7383V21.4727H194.259L194.165 21.7383H194.43ZM193.993 21.3945V21.1289H193.743V21.3945H193.993ZM194.43 21.1289V20.8789H193.993L193.915 21.1289H194.43ZM194.43 20.5352V20.2695H194.165V20.5352H194.43Z" fill="#483D3F"/>
<path d="M191.014 32.923L191.474 32.7927L191.691 33.1696L191.963 33.0924L192.986 33.0421C192.791 33.1521 192.569 33.2216 192.321 33.2508L192.01 33.2577L191.993 33.5224L192.181 33.4693L192.432 33.3169L192.734 33.6697L193.134 33.6537L193.836 33.276L194.113 33.5386L194.823 33.5157L195.027 33.198C194.732 32.6321 194.431 32.1544 194.124 31.7649L193.541 31.849C193.521 31.5623 193.387 31.4544 193.137 31.5252L193.184 31.6905L192.912 31.7678L192.818 31.4371L192.886 31.8845L191.312 32.2214L191.146 32.3497L191.155 32.7045L191.014 32.923Z" fill="#483D3F"/>
<path d="M205.868 36.3164L205.618 34.5508L205.352 34.1133L205.43 33.9414V33.5977L205.68 33.0039L205.587 31.8008H205.759V31.6289L205.587 31.1914L205.337 31.1133V30.5039L205.509 29.9883L204.821 29.8164C204.717 29.5872 204.493 29.5039 204.149 29.5664L203.977 29.6445L203.384 29.4727L203.462 29.1289C203.222 29.1081 202.998 29.1654 202.79 29.3008L202.524 28.7852H202.696V28.6133C202.363 28.2695 202.222 27.8372 202.274 27.3164L201.852 27.2383L201.93 26.9727L202.618 26.8945L203.04 27.0664V26.7227L202.79 26.3789L202.962 26.2852V25.9414L202.524 25.5195L202.696 25.082H202.446L202.196 25.1758L202.024 24.7383L202.102 24.3945L201.852 24.3164V23.9727L202.024 23.5352L201.759 22.7695L202.696 22.6758V21.9883H203.212V21.8164H203.384L203.805 21.9102V21.6445H203.977V21.1289L204.493 21.3008L204.665 20.707L204.571 20.5352H204.915L205.165 20.6133V20.4414L205.087 20.0977H205.43V19.832L205.337 19.6602C205.847 19.9518 206.243 20.3268 206.524 20.7852V21.0508C205.847 21.8529 205.081 22.5404 204.227 23.1133H204.055V23.5352L204.493 23.8008L204.743 23.707C204.972 24.0508 205.311 24.1654 205.759 24.0508L205.93 23.5352L206.618 23.3633L206.868 23.457C207.097 22.9362 207.326 22.4206 207.555 21.9102H207.727L208.055 22.082V22.2539L207.555 22.5039L207.462 22.7695L207.727 22.8477L207.977 22.7695L208.055 23.5352L208.321 23.6289L208.743 23.457V23.6289L207.977 23.8789V23.6289H207.805V23.1133H207.462L207.134 23.2852V23.5352L207.555 23.8008V23.9727L207.462 24.3164L207.634 24.6602L207.555 25.082L207.29 25.2539L206.962 25.9414H206.79L206.618 25.6914H206.274V25.9414H206.446V26.3789V26.207H206.102V26.8945H205.852L205.68 27.582H205.93V27.2383L206.696 27.1445L206.868 27.4883H207.04L207.134 26.9727H207.462L207.805 27.4102H208.321L208.399 27.6602H208.571L208.743 26.5508H208.571L208.227 26.6289L207.977 25.9414H208.227L208.321 26.207H208.915L208.993 26.5508L209.337 26.6289L209.259 27.0664H209.587L209.852 26.9727L209.68 27.0664V27.4883C209.399 27.4362 209.259 27.5247 209.259 27.7539L209.43 28.0977L208.993 28.2695V28.0977L209.087 27.7539H208.571L208.493 28.0977L208.571 28.3633H208.321V28.8789H208.149L207.899 28.7852L207.634 28.8789V28.707H207.462C207.128 29.0508 207.019 29.4779 207.134 29.9883C207.352 30.5091 207.462 31.082 207.462 31.707L207.384 32.0508L207.634 32.2227V32.4883L207.462 33.3477H207.29V33.5977H207.462L207.634 35.8945L207.29 35.9727L207.212 36.1445L205.868 36.3164ZM210.868 35.1445V34.7227L210.446 34.6289V34.3789L210.79 34.2852L211.134 34.3789V33.8633H211.384L211.462 34.7227L211.384 34.8945L211.04 34.9727L210.868 35.1445ZM210.024 34.457V34.2852L210.102 34.0352L209.68 33.8633L209.587 33.5195L209.759 32.832L209.43 32.6602L209.259 30.0508L209.509 29.8008C210.134 29.9154 210.675 30.056 211.134 30.2227L211.212 32.7383C211.493 32.6862 211.634 32.7747 211.634 33.0039H211.462V33.2539H211.805L210.962 33.3477V33.1758H210.352C210.186 33.457 210.134 33.7695 210.196 34.1133L210.274 34.3789L210.024 34.457ZM206.962 33.8633V33.3477H206.696V33.8633H206.962ZM206.196 33.4258V33.0039H206.024L205.68 33.5977H205.93L206.196 33.4258ZM210.618 33.0039V32.6602H210.446L210.352 32.9102L210.618 33.0039ZM206.618 32.6602V32.3164L206.274 32.0508H206.696V31.8008L206.446 31.1914L206.524 30.8477L206.274 30.7695L206.102 31.1133L205.852 31.1914V31.457H206.102L207.102 31.8008L207.024 32.3164L206.618 32.6602ZM210.962 31.1133L210.618 30.8477L210.79 30.2539L210.696 30.082H210.524V30.332L210.102 30.082L209.68 30.1602L209.165 28.8789H208.993V28.707H209.43C209.43 28.4154 209.54 28.181 209.759 28.0039L210.196 27.9258L210.274 28.1758L209.93 28.2695L209.852 28.8789L210.102 28.957L210.196 28.5352H210.446L210.618 29.0508L210.868 29.1289V28.8789L210.962 29.1289L210.868 29.7383L211.134 30.6758L211.462 30.7695L211.04 30.8477L210.962 31.1133ZM206.618 30.5977V30.332L206.79 29.9883L206.696 29.3008H206.524L206.196 30.082V30.4258L206.618 30.5977ZM207.212 30.5977V30.332H206.962V30.5977H207.212ZM210.696 29.8164L210.274 29.4727V29.6445L210.696 29.8164ZM209.93 29.4727V29.1289L209.68 29.0508L209.587 29.3008L209.93 29.4727ZM204.915 29.3008V29.0508L204.571 28.957V29.2227L204.915 29.3008ZM204.743 28.7852V28.5352H204.399V28.7852H204.743ZM207.134 28.6133L207.212 28.2695L206.962 28.1758L206.868 28.707L207.134 28.6133ZM203.134 28.5352V28.3633H202.962V28.5352H203.134ZM205.259 28.4414V28.2695H205.087V28.4414H205.259ZM206.79 28.2695V27.9258L206.868 27.582H206.618L206.524 27.9258H206.274V28.1758L206.79 28.2695ZM207.634 27.9258V27.7539H207.462V27.9258H207.634ZM208.227 27.9258V27.7539H208.055V27.9258H208.227ZM208.993 27.4883L208.821 27.3164V27.4883H208.993ZM204.399 27.0664V26.8945H204.227V27.0664H204.399ZM205.43 26.9727L205.509 26.1133H204.993V26.3789H205.165V26.6289L205.087 26.8945L205.43 26.9727ZM209.087 26.9727V26.8008H208.915V26.9727H209.087ZM203.634 26.457V26.207L203.384 26.0352V25.7695L203.462 25.4258L202.962 25.3477V25.5977L203.212 26.2852L203.634 26.457ZM205.087 26.0352V25.7695H204.821V26.0352H205.087ZM206.868 24.6602L206.618 24.5664V24.7383L206.868 24.6602ZM206.79 24.3945V24.2227L206.868 23.8789H206.446V24.1445L206.524 24.3945H206.79ZM206.352 23.8789V23.5352H206.102V23.8008L206.352 23.8789ZM202.446 23.1914V23.0195L202.102 22.9414V23.1133L202.446 23.1914ZM208.571 23.0195V22.8477L208.665 22.5977L208.493 22.332L208.743 22.8477L208.571 23.0195ZM203.384 22.9414C203.436 22.5352 203.352 22.306 203.134 22.2539V22.4258L203.384 22.9414ZM203.977 22.5039V22.1602H203.727V22.5039H203.977ZM204.571 22.082V21.8164H204.321V21.9883L204.571 22.082ZM205.43 21.7383V21.4727H205.259L205.165 21.7383H205.43ZM204.993 21.3945V21.1289H204.743V21.3945H204.993ZM205.43 21.1289V20.8789H204.993L204.915 21.1289H205.43ZM205.43 20.5352V20.2695H205.165V20.5352H205.43Z" fill="#483D3F"/>
<path d="M207.554 32.6451L206.915 33.9942L207.026 34.3288L207.205 34.39C208.34 34.2277 209.371 33.8454 210.296 33.243L210.78 32.0816L210.539 32.1834L209.745 32.0877L209.179 32.4093L208.906 32.3415L208.69 32.7078L208.231 32.5011L207.554 32.6451Z" fill="#483D3F"/>
<path d="M98.0704 36L97.9104 34.9385L98.0704 33.5232H97.5585V32.1079L98.2623 30.6925L97.3985 30.3387V29.631L97.7505 28.0549L98.2623 27.3472L97.7505 27.1542L97.5585 25.5781L97.7505 24.8704L96.6947 24.3236C96.2468 24.924 95.6709 25.1063 94.9671 24.8704V25.5781L94.1033 25.7389L93.9433 26.4465L92.9196 26.6395L92.3757 26.4465C92.6103 27.2829 92.3863 27.819 91.7038 28.0549L91.3519 27.3472L91 26.6395L92.2157 25.3851V24.8704L93.2395 24.6774L93.4314 23.9697L94.9671 23.1012C95.543 22.1577 96.2895 21.3857 97.2066 20.7852L98.0704 20.4314L98.2623 19.3699L98.5823 19.0161L98.4223 17.6008L98.5823 15.9924L97.9104 15.6386L97.7505 16.1854H96.8867L95.8309 15.9924C95.8309 16.5929 95.543 16.8931 94.9671 16.8931C94.05 16.2927 93.0795 15.9388 92.0558 15.8316L91.5439 14.4163C93.4848 13.5799 95.4896 12.8079 97.5585 12.1003L98.0704 12.2933V11.7465L98.9342 11.2318L99.1261 8.9158L98.9342 8.20814L99.638 7.8543L99.798 6.63198L99.2861 6.43898L99.1261 7.14664H98.2623L97.5585 6.79281L97.0466 6.98581V7.69347L96.1828 8.0473L95.8309 8.75497H95.319L94.8071 8.56197V8.9158L94.9671 9.26963L93.0795 8.9158L92.9196 7.8543L93.4314 7.14664L94.4552 6.79281L94.6472 5.92431L96.3428 5.21665V4.86282H97.3985V4.50899C98.3157 3.90855 99.3501 3.60833 100.502 3.60833V3.06149H99.9899C101.014 2.95427 102.048 2.78272 103.093 2.54683L105.333 4.66982C104.416 4.66982 103.488 4.8521 102.549 5.21665V5.57048L101.014 6.08515L100.854 7.50047H100.502V8.20814H101.174L101.366 9.81646L101.174 10.5241H101.686C102.155 10.1596 102.677 10.0416 103.253 10.1703V9.81646H103.765L103.093 9.97729V10.3311L104.629 10.878L104.789 12.8079H105.141V13.1618L103.957 14.0624L103.253 13.7086L103.093 14.4163H102.389L101.878 16.3463C102.453 17.0539 103.2 17.3541 104.117 17.2469L104.629 17.9546C106.015 18.8981 107.455 19.6594 108.948 20.2384L109.3 21.4929C108.489 21.8575 107.626 22.0933 106.708 22.2006V22.5544C104.874 22.5115 103.317 21.8682 102.037 20.6244V20.0776H101.686L101.526 23.6159L101.686 24.1627H101.174V24.6774L101.366 26.0927H101.014V27.3472L101.366 28.7625L101.014 30.1779C101.355 31.2286 101.472 32.3437 101.366 33.5232L101.878 34.07L100.662 34.9385L100.502 35.2923C99.5847 35.1851 98.7742 35.421 98.0704 36ZM105.653 32.1079V31.754L105.845 31.2394L105.653 30.6925L107.06 30.3387L107.22 29.631C108.031 29.5238 108.831 29.3523 109.62 29.1164L110.324 29.2772C111.923 29.0413 113.416 28.5695 114.803 27.8619V27.3472L114.643 26.2857L114.963 25.3851L114.291 25.2242L114.131 24.8704L114.291 23.9697C113.821 23.498 113.192 23.3264 112.403 23.4551C112.403 23.9268 112.115 24.1627 111.539 24.1627L110.164 23.8089C109.694 24.152 109.119 24.2699 108.436 24.1627L107.38 23.9697L107.924 23.8089V23.4551L108.948 22.9082H109.46V23.2621H109.972L110.164 22.7474L112.403 22.2006L112.915 22.5544L113.939 21.6859L114.131 20.4314H113.779V19.7237L113.939 19.1769L113.587 18.1154L113.075 17.7616H112.563V18.1154L109.62 18.6623L108.948 17.7616L109.3 17.2469C111.582 16.3034 113.928 15.6279 116.338 15.2204C118.77 14.7915 121.19 14.4056 123.601 14.0624L124.304 15.1239L122.897 15.2848L122.737 15.8316L120.657 16.8931L119.793 16.7001L118.61 17.2469V17.6008L118.77 18.4693L118.61 19.1769L118.93 19.5307L117.746 19.7237L117.234 19.5307V20.0776C118.599 20.4421 119.975 20.678 121.361 20.7852L121.713 22.0397L121.169 22.7474L121.713 23.2621L120.497 23.6159L119.985 25.7389L119.122 26.4465L120.497 26.8004L120.657 27.3472C121.468 27.3472 122.108 27.6367 122.577 28.2157V27.3472H123.089L124.464 28.0549V27.508L124.304 26.9934L125.488 27.701V28.0549H126H124.624V28.5695L125.328 29.2772L124.304 29.1164V29.824L125.136 30.3387C122.044 30.8105 118.94 30.8748 115.826 30.5317V30.8855C115.144 30.8855 114.515 31.0035 113.939 31.2394L113.267 30.6925V31.4002H112.915L111.859 31.0464L111.187 31.2394L109.972 30.1779L109.812 31.4002H108.084C107.167 31.4002 106.356 31.6361 105.653 32.1079ZM108.084 30.8855V30.5317H107.732V30.8855H108.084ZM116.69 28.9234L116.37 28.5695V28.9234H116.69ZM119.633 28.7625V28.4087L119.122 28.2157L118.93 28.7625H119.633ZM118.258 28.5695V28.0549H117.746V28.5695H118.258ZM118.77 25.5781L119.473 25.2242L119.985 25.3851V24.6774L119.122 24.5166V24.8704H118.61L118.418 25.5781H118.77ZM114.963 25.0312V24.5166H114.451V25.0312H114.963ZM98.4223 24.6774L97.9104 24.1627V24.8704L98.4223 24.6774ZM122.897 22.2006L123.089 21.8467L123.249 22.2006H122.897ZM114.803 22.0397L114.131 21.6859V22.2006L114.803 22.0397ZM104.981 20.9782L104.469 20.7852V21.1391L104.981 20.9782ZM114.963 20.7852V20.4314L114.643 20.7852H114.963ZM119.282 16.8931L119.473 16.3463H118.93V16.8931H119.282ZM104.117 13.3548L103.605 13.1618V13.5156L104.117 13.3548ZM110.164 13.1618L109.972 12.4541H109.62L109.108 12.6471L107.924 12.2933C108.479 12.2933 108.756 12.0574 108.756 11.5856L108.244 10.878L107.732 9.81646L108.084 9.1088L107.38 8.75497V8.40114H107.732V6.43898L108.436 6.27815L108.596 5.73132C110.899 4.78776 113.203 3.89782 115.506 3.06149L115.666 3.60833H116.018L116.37 2.90066L117.042 2.70766L119.122 2.90066C120.145 2.30022 121.297 2 122.577 2L122.737 2.70766H123.089L123.441 2.54683V2.90066L123.089 4.15516L122.577 4.31599V4.66982L122.897 5.92431L122.577 7.14664L121.713 8.0473V8.56197L122.577 9.1088V9.46263L121.713 9.81646L121.361 10.5241L120.497 10.685L120.337 11.0388C118.823 11.5106 117.213 11.8108 115.506 11.9395L114.451 11.7465L113.939 11.9395V12.4541H113.427L112.211 11.9395V12.6471L110.676 12.8079V13.1618H110.164ZM109.108 11.2318L108.756 10.878V11.2318H109.108ZM117.042 9.97729L117.394 9.1088H117.746C118.194 7.92936 118.535 6.68559 118.77 5.37748C118.087 4.90571 117.341 4.73415 116.53 4.86282L116.018 5.02365L115.154 4.86282L114.803 5.57048H113.427L112.915 5.37748L112.403 6.27815H111.859V6.63198L110.676 7.14664L110.484 7.8543H110.835L111.539 7.69347L111.859 8.20814L111.699 8.9158H112.723V9.26963L112.051 9.62346L111.859 10.1703L114.803 10.3311L117.042 9.97729ZM110.676 9.26963L110.835 8.75497H110.324V9.26963H110.676ZM121.169 8.40114L120.657 7.8543V8.20814L121.169 8.40114ZM109.972 7.69347L110.164 7.14664H109.3V7.50047L109.972 7.69347ZM119.122 4.86282V4.31599H118.61V4.86282H119.122ZM122.033 3.60833L122.225 3.06149H121.873L121.713 3.60833H122.033Z" fill="#483D3F"/>
<path d="M68.9709 32L68.4729 31.8084V31.1058H67.9438L67.7882 29.5409H67.259V29.1896L67.4147 28.6786H67.0723L67.259 27.976H68.1305L68.2861 26.2196L68.6285 27.0818L69.1576 27.2735L68.8153 28.1357L69.8424 28.487V27.7844H70.7139L71.741 28.3273V27.7844L70.3715 27.0818V26.7305L72.239 25.8683L72.5813 25.1657H73.1104L73.6396 25.3573V25.006L73.2972 24.8144V24.4631H72.7681H73.2972L73.6396 24.6547V25.006H74.1376V24.6547H74.4799L75.3514 24.8144L75.5382 23.9521H76.2229L76.3785 25.517H75.3514L74.8223 25.1657L74.3243 26.0279L73.9819 25.7086L73.4528 27.6247L72.7681 28.3273H72.4257L71.8966 29.5409L70.5271 30.0519L70.1847 30.9461L68.9709 31.2974V31.6487V32ZM74.3243 31.2974L74.1376 30.5948L74.6667 31.2974H74.3243ZM76.7209 30.9461L77.0633 30.5948V30.9461H76.7209ZM75.009 30.7545L74.8223 30.2435L75.5382 29.8922V29.3812L74.6667 28.3273L75.1958 27.7844L74.8223 27.4331H75.1958V26.3792L76.0361 26.9222L77.0633 26.3792V26.7305L76.0361 27.0818L75.8805 27.6247H75.3514V28.1357L76.0361 30.2435L75.8805 30.5948L75.009 30.7545ZM77.0633 30.2435V29.5409H77.4056L77.0633 30.2435ZM57.7661 29.7006L57.6104 29.1896H57.2681L56.739 29.3812L56.5833 28.8383C56.0023 28.9661 55.5977 28.7957 55.3695 28.3273L55.1827 27.2735L55.3695 26.7305L55.1827 26.2196L55.3695 25.3573C55.1412 23.8244 54.8507 22.3021 54.498 20.7904L55.1827 20.2794C55.079 19.6833 55.2554 19.2681 55.7118 19.0339H56.241C56.6975 19.3959 56.9257 19.8643 56.9257 20.4391L58.4819 20.7904V19.9281L57.7661 19.3852V18.7146L58.4819 18.523L59.8514 19.0339V19.5768H60.1938C61.003 19.3426 61.75 19.1084 62.4347 18.8743V18.523H62.7771L63.6486 19.2255V18.8743H63.991V20.2794H64.489L63.8042 22.0359L64.1466 22.1956V22.8982L64.6757 23.2495L64.3333 23.7605H63.991L63.4618 23.6008V24.3034L63.6486 24.8144H64.1466L64.489 24.6547C64.8417 25.3573 65.0181 26.0492 65.0181 26.7305L63.8042 26.9222L63.4618 28.1357L62.5904 28.3273L61.75 27.976L61.4076 28.6786L61.9056 29.1896L60.3805 29.3812L58.4819 29.1896L57.7661 29.7006ZM69.8424 29.3812L69.998 28.8383L68.8153 28.6786L68.6285 29.5409L69.8424 29.3812ZM76.2229 29.0299V28.487H76.9076L77.0633 28.8383L76.2229 29.0299ZM83.4438 27.4331L82.0743 26.9222L81.8876 26.3792L77.7791 23.0579H76.5653V23.6008V23.2495H75.3514L75.009 23.7605L73.9819 24.1118V23.7605H74.3243V23.4092L73.9819 22.8982L74.6667 23.0579V22.5469L74.1376 22.3553L73.7952 20.982L72.5813 20.6307L71.2118 20.7904L70.8695 19.2255H70.3715L69.998 20.4391L69.3133 20.7904L68.8153 19.9281C68.1305 19.9281 67.4977 19.6939 66.9167 19.2255V18.7146H67.259V17.6607L67.0723 17.3094H67.4147L67.6014 18.012H67.9438L69.3133 17.8204L69.8424 18.012V17.3094L71.8966 17.1178L72.0833 17.8204H72.5813L72.9548 17.6607L73.1104 18.012H73.4528L73.6396 16.9581L73.7952 17.3094H74.3243L74.6667 16.6068H74.1376V16.2555L74.4799 15.0419L73.6396 14.8503C73.7433 14.1477 73.5151 13.7432 72.9548 13.6367L72.5813 13.7964L72.0833 12.9341H71.741L71.0562 13.2854V13.6367L71.3986 13.7964V14.1477H70.8695L69.8424 13.6367L69.5 12.5828L69.6556 11.6886H69.998L70.1847 12.3912H70.8695V11.8802L72.9548 11.5289L73.1104 11.018H73.7952L74.4799 11.1776L74.6667 10.475L74.4799 9.42116H73.9819L73.4528 9.61277V8.71856H73.7952V8.01597L73.1104 7.69661V7.34531H72.0833L71.8966 7.85629L71.2118 8.01597L70.8695 8.91018L70.1847 9.06986L69.998 9.96407L70.1847 10.475L69.8424 11.1776H69.1576L68.9709 11.6886H67.9438L67.6014 11.018C67.6014 9.67665 67.6014 8.33533 67.6014 6.99401L67.259 5.23752L67.7882 1.72455L68.8153 1.37325L68.9709 0.862275L70.3715 0.670659V1.02196L71.741 1.37325L71.8966 0.159681C72.8511 -0.0958084 73.7744 -0.0319361 74.6667 0.351297V0C75.4759 0.0638723 76.2748 0.234198 77.0633 0.510978L77.25 0H81.3896L81.5452 0.510978L81.3896 0.862275H81.0472V1.21357C81.5037 2.72522 81.6697 4.41783 81.5452 6.29142L81.0472 8.01597L81.5452 9.96407C80.9849 10.3047 80.7567 10.7731 80.8604 11.3693H81.5452V11.8802L80.7048 12.5828V13.2854L80.8604 13.6367L78.9618 13.988L78.8062 13.4451H78.2771L77.9347 13.988L77.0633 15.2016L76.2229 14.8503V16.0639L76.9076 16.9581L77.4056 17.1178L77.9347 16.9581V16.4152L79.1486 16.9581L80.0201 16.6068V17.3094H80.5181L80.7048 16.2555L81.2028 16.0639L82.0743 16.9581H81.3896V17.6607L82.0743 17.8204V18.1717L80.5181 18.8743V19.3852H81.0472V19.7365L80.5181 19.9281L79.6466 19.3852L79.1486 18.8743C79.1486 19.4491 78.9722 19.9707 78.6195 20.4391H77.5924V20.982L77.7791 21.493H78.1215L78.6195 21.3333C80.0097 22.7172 81.5037 23.9414 83.1014 25.006L83.6305 25.1657L84.6576 26.0279L85 27.0818C84.5435 27.4438 84.0248 27.5609 83.4438 27.4331ZM56.739 26.9222L56.241 26.7305V27.0818L56.739 26.9222ZM61.75 26.7305V26.2196H61.2209V26.7305H61.75ZM69.6556 26.5709L69.3133 25.7086L69.998 26.3792L69.6556 26.5709ZM59.509 26.3792L60.3805 26.0279L61.4076 26.2196L62.0924 25.8683C62.0301 24.6334 62.1442 23.4092 62.4347 22.1956L62.0924 22.0359V21.3333L62.5904 21.1417V20.7904L61.4076 20.6307L61.0653 21.3333H60.7229V20.982L61.2209 20.7904V20.0878L60.3805 19.9281L58.9799 20.6307L58.8243 21.1417L58.1396 21.493L57.9528 21.8443L57.7661 22.3553L58.2952 25.006L58.8243 26.0279L59.509 26.3792ZM70.5271 26.0279L70.3715 25.517L71.0562 25.1657L71.3986 24.4631H71.8966L71.741 25.7086L70.5271 26.0279ZM57.9528 25.1657V24.6547H57.4237V25.1657H57.9528ZM63.3062 24.4631V23.9521H62.7771V24.4631H63.3062ZM55.8986 23.7605V23.2495H55.3695V23.7605H55.8986ZM75.5382 23.0579V22.3553H75.1958L75.009 22.8982L75.5382 23.0579ZM57.4237 22.7066L57.0813 22.3553V22.7066H57.4237ZM62.5904 20.4391V19.2255H61.75V19.5768L62.0924 20.4391H62.5904ZM72.0833 20.4391V19.9281L71.2118 19.7365V20.0878L72.0833 20.4391ZM72.9548 20.2794V19.9281L73.1104 19.3852L72.5813 19.2255L72.239 20.2794H72.9548ZM58.8243 19.7365V19.3852L58.2952 19.2255V19.7365H58.8243ZM81.5452 19.5768V19.2255H81.8876V19.5768H81.5452ZM68.2861 18.523L67.7882 18.3633V18.7146L68.2861 18.523ZM79.3042 18.3633V18.012L79.491 17.3094L78.9618 17.1178L78.6195 17.8204L78.8062 18.3633H79.3042ZM77.9347 18.012L78.1215 17.4691H77.7791L77.4056 18.1717L77.9347 18.012ZM77.25 17.8204V17.3094H76.9076V17.8204H77.25ZM76.2229 17.6607V16.6068H75.6938L75.1958 16.7665V17.3094L76.2229 17.6607ZM54.8404 16.9581V16.2555L54.498 15.2016L57.7661 14.499L58.2952 14.8503L58.4819 13.988H58.8243V14.3393H59.3223V13.988H59.6647L60.1938 14.1477L61.0653 13.7964L61.5633 13.988L62.0924 13.7964L63.3062 15.0419L62.9639 15.2016L62.7771 16.0639H62.248C61.7915 15.7232 61.2831 15.6061 60.7229 15.7126V16.0639L59.1667 16.4152L55.5562 16.0639V16.4152L54.8404 16.9581ZM79.6466 12.9341L79.1486 12.7425V13.0938L79.6466 12.9341ZM78.2771 12.7425L77.5924 12.0399V12.3912L78.2771 12.7425ZM80.1757 12.5828V12.2315H79.8333V12.5828H80.1757ZM72.9548 12.2315V11.8802H72.5813V12.2315H72.9548ZM76.3785 11.3693L78.9618 10.475C79.0241 9.09115 79.0863 7.69661 79.1486 6.29142H78.8062L78.1215 6.4511L77.0633 6.0998V6.4511L77.25 6.99401L74.6667 8.20758V8.71856L75.6938 9.61277L75.8805 8.71856L76.7209 8.55888L77.0633 8.71856L77.25 9.61277L77.0633 9.96407V9.06986H76.7209L75.8805 9.42116V9.77245H75.3514L75.009 9.61277L74.8223 10.1238L76.3785 11.3693ZM55.0271 11.018L54.498 10.8263V10.1238C56.3447 9.42116 58.2433 8.95276 60.1938 8.71856L61.5633 8.91018L62.9639 8.55888L63.6486 8.91018L63.8042 9.61277L62.9639 9.96407L62.5904 10.6667L60.3805 10.8263L59.6647 10.475L57.9528 10.6667L57.2681 10.475L57.0813 10.8263H56.5833L55.8986 10.6667L55.0271 11.018ZM70.5271 8.36727V7.85629H69.998L69.8424 8.36727H70.5271ZM80.3625 7.85629L79.8333 7.34531V7.85629H80.3625ZM72.9548 7.15369V6.64271H72.4257V6.99401L72.9548 7.15369ZM57.0813 5.94012V5.39721L54.1556 5.04591L54 3.48104C54.913 3.14039 55.9401 3.02329 57.0813 3.12974L57.4237 0.510978H58.2952V0H59.3223L59.509 0.351297H59.8514L60.007 0H60.5361L61.2209 2.42715L63.8042 2.61876L64.8313 2.42715L65.3604 2.97006L65.5472 2.42715L66.0452 2.26747L66.2319 3.32136L65.8896 4.02395H65.5472C65.6509 4.5988 65.4746 4.93945 65.0181 5.04591L64.1466 4.88623V5.23752L64.3333 5.7485H63.8042L62.5904 5.23752L61.9056 5.39721L61.2209 5.58882L60.5361 5.39721V5.7485L59.1667 5.39721L58.4819 5.7485V5.23752L58.6376 4.69461L57.7661 4.02395C57.8906 4.833 57.6623 5.47172 57.0813 5.94012ZM77.25 5.7485L77.7791 5.04591L79.1486 4.88623L79.491 1.91617L78.1215 1.56487V1.91617L78.6195 3.12974H77.7791L76.9076 2.42715L76.7209 2.97006L76.9076 3.67265L76.2229 4.02395V4.53493L76.9076 4.88623L76.5653 5.04591V5.58882L77.25 5.7485ZM69.8424 5.58882L69.998 5.04591H69.5L69.3133 5.58882H69.8424ZM74.8223 5.39721L75.009 4.53493L73.7952 4.34331L73.2972 4.53493L72.4257 2.26747L71.2118 1.91617V2.97006L71.8966 3.32136V3.67265H71.5542L70.5271 3.32136L69.8424 4.69461L69.998 5.23752C70.8072 5.57818 71.7306 5.69528 72.7681 5.58882L74.3243 5.04591L74.8223 5.39721ZM61.2209 5.23752L62.0924 5.04591V4.53493L60.1938 4.18363V4.53493L60.8785 4.88623L61.2209 5.23752ZM64.6757 3.48104V3.12974L64.1466 2.97006V3.32136L64.6757 3.48104ZM70.1847 2.77844V2.42715H69.8424V2.77844H70.1847ZM72.7681 1.72455V1.37325L72.4257 0.510978H71.8966V1.37325L72.7681 1.72455ZM76.2229 1.21357L75.8805 0.862275V1.21357H76.2229Z" fill="#483D3F"/>
</svg>
